<svg width="1920" height="900" viewBox="0 0 1920 900" fill="none" xmlns="http://www.w3.org/2000/svg">
<mask id="mask0_323_2146" style="mask-type:alpha" maskUnits="userSpaceOnUse" x="0" y="0" width="1920" height="901">
<rect width="900" height="1920" transform="matrix(4.37114e-08 1 1 -4.37114e-08 0 9.15527e-05)" fill="url(#paint0_linear_323_2146)"/>
</mask>
<g mask="url(#mask0_323_2146)">
<rect x="1960.55" y="173.443" width="237.219" height="995.287" transform="rotate(30 1960.55 173.443)" fill="url(#paint1_linear_323_2146)"/>
<rect x="1614.47" y="-317.615" width="237.219" height="882.453" transform="rotate(-15 1614.47 -317.615)" fill="url(#paint2_linear_323_2146)" fill-opacity="0.1"/>
<mask id="mask1_323_2146" style="mask-type:luminance" maskUnits="userSpaceOnUse" x="-165" y="-406" width="2251" height="1353">
<path d="M2085.92 -405.773L-164.571 -405.773L-164.571 946.295L2085.92 946.294L2085.92 -405.773Z" fill="white"/>
</mask>
<g mask="url(#mask1_323_2146)">
<path d="M2384.97 772.239C2334.69 629.821 2282.75 482.536 2190.7 357.469C2091.5 222.668 1950.89 133.567 1794.8 106.571C1755.01 99.6752 1713.82 96.2499 1671.11 96.2499C1554.31 96.25 1425.94 122.029 1282.09 174.084C1194.37 205.858 1109.12 246.69 1026.7 286.17C961.305 317.493 893.655 349.943 825.195 377.615C788.107 392.623 739.857 409.749 694.577 409.749C694.127 409.749 693.677 409.749 693.227 409.749C670.632 409.569 649.972 405.062 631.788 396.319C611.624 386.629 593.62 371.351 578.317 350.844C547.62 309.741 527.186 260.797 507.426 213.429C504.276 205.903 501.035 198.106 497.794 190.534C470.968 127.393 440.542 55.8232 403.994 -11.3745C325.542 -155.505 213.827 -243.164 30.3223 -304.413C-141.975 -361.92 -421.081 -353.312 -591.848 -285.168C-894.449 -164.428 -945.625 -79.2933 -995.136 3.00258C-1009.22 26.4384 -1022.55 48.6123 -1041.59 71.282C-1081.01 118.289 -1067.51 169.803 -1053.2 224.336C-1047.62 245.654 -1041.81 267.737 -1038.93 290.317L-1039.38 290.362C-1042.26 267.782 -1048.07 245.744 -1053.65 224.426C-1060.94 196.619 -1067.83 170.343 -1068.05 144.744C-1068.28 115.945 -1060 92.5095 -1041.95 70.9665C-1022.95 48.3419 -1009.63 26.168 -995.541 2.73218C-971.236 -37.6946 -946.121 -79.4735 -889.138 -126.39C-858.306 -151.719 -821.308 -176.101 -775.939 -200.934C-724.762 -228.967 -664.584 -256.639 -592.028 -285.619C-550.709 -302.114 -502.234 -315.409 -447.907 -325.189C-395.336 -334.654 -339.658 -340.378 -282.451 -342.18C-225.063 -344.028 -169.116 -341.865 -116.185 -335.735C-61.1827 -329.381 -11.8519 -318.97 30.4123 -304.863C121.107 -274.577 190.467 -240.009 248.62 -196.022C311.859 -148.204 362.81 -87.9015 404.309 -11.5999C440.902 55.5979 471.283 127.212 498.154 190.354C501.35 197.925 504.636 205.722 507.786 213.249C527.546 260.571 547.935 309.516 578.632 350.529C642.276 435.709 734.681 413.67 825.015 377.119C893.475 349.447 961.125 317.043 1026.52 285.72C1108.94 246.239 1194.19 205.362 1281.96 173.588C1373.1 140.598 1455.74 118.649 1534.55 106.526C1579.2 99.6752 1622.99 96.0246 1664.67 95.7091C1709.46 95.3485 1753.25 98.8639 1794.89 106.03C1874.24 119.731 1949.09 148.935 2017.37 192.742C2083.76 235.333 2142.23 290.632 2191.11 357.109C2232.11 412.814 2268.84 478.254 2303.45 557.125C2334.73 628.424 2360.53 701.435 2385.42 772.013L2384.97 772.239Z" fill="url(#paint3_linear_323_2146)" fill-opacity="0.08"/>
<path d="M2384.78 747.991C2320.24 604.266 2259.07 485.825 2170.45 375.136C2072.19 252.143 1930.86 166.106 1772.43 132.801C1607.37 98.0975 1434.99 111.753 1259.99 173.408C1167.45 206.398 1077.88 250.836 991.28 293.742C931.372 323.442 869.439 354.179 807.01 380.86C770.192 396.589 722.122 414.842 677.022 416.104C654.787 416.735 634.353 413.129 616.349 405.468C596.364 396.95 578.496 383.068 563.147 364.139C533.936 328.084 513.591 284.998 493.877 243.31C489.556 234.161 485.1 224.741 480.644 215.547C471.552 196.889 462.64 178.095 453.188 158.265C430.863 111.303 407.773 62.7636 382.343 15.3511C302.9 -132.069 193.256 -222.342 15.7828 -286.611C-151.789 -347.273 -424.098 -341.504 -591.174 -273.811C-884.008 -155.144 -934.509 -71.3163 -983.345 9.71764C-997.118 32.5676 -1010.13 54.2007 -1028.49 76.4196C-1067.96 124.238 -1056.04 176.608 -1043.43 232.043C-1038.57 253.45 -1033.53 275.579 -1031.28 298.204L-1031.82 298.249C-1034.12 275.669 -1039.11 253.54 -1043.97 232.133C-1056.58 176.608 -1068.5 124.103 -1028.89 76.0591C-1010.58 53.8851 -997.568 32.2971 -983.795 9.44721C-959.76 -30.4388 -934.914 -71.6768 -879.417 -117.827C-849.441 -142.75 -813.478 -166.727 -769.503 -191.109C-719.903 -218.647 -661.615 -245.868 -591.354 -274.307C-501.695 -310.677 -381.789 -329.156 -264.043 -329.156C-162.141 -329.156 -61.8141 -315.319 16.0078 -287.151C58.9922 -271.603 96.6654 -255.107 131.233 -236.809C167.736 -217.475 199.918 -196.473 229.669 -172.676C291.243 -123.371 341.339 -61.9871 382.838 15.0356C408.268 62.4932 431.358 111.032 453.683 157.994C463.135 177.87 472.047 196.618 481.139 215.277C485.595 224.471 490.051 233.89 494.372 243.039C514.041 284.683 534.386 327.769 563.552 363.779C627.331 442.469 718.161 418.267 806.785 380.364C869.169 353.683 931.102 322.991 991.01 293.291C1077.61 250.34 1167.18 205.947 1259.76 172.912C1434.85 111.258 1607.37 97.5567 1772.52 132.305C1852.05 149.025 1926.81 178.5 1994.68 219.874C2062.42 261.157 2121.66 313.302 2170.85 374.821C2213.84 428.498 2253.22 487.898 2291.25 556.448C2328.93 624.322 2361.29 694.359 2385.28 747.766L2384.78 747.991Z" fill="url(#paint4_linear_323_2146)" fill-opacity="0.08"/>
<path d="M2384.65 723.745C2314.48 600.617 2240.03 495.426 2150.24 392.804C2052.52 280.537 1914.12 199.729 1750.06 159.031C1564.53 113.016 1397 117.523 1237.84 172.732C1140.62 206.444 1047.09 254.668 956.668 301.224C902.026 329.392 845.539 358.461 788.826 384.106C752.593 400.466 705.333 419.575 660.863 422.414C656.993 422.64 653.167 422.775 649.431 422.775C608.292 422.775 575.03 407.857 548.024 377.345C520.118 345.842 499.908 307.984 480.329 271.388C474.883 261.203 469.257 250.657 463.54 240.426C444.816 206.85 426.227 170.028 406.513 130.999C391.795 101.794 376.536 71.6429 360.738 41.8974C280.846 -108.633 173.362 -201.61 1.37965 -268.898C-161.511 -332.67 -426.979 -329.786 -590.409 -262.498C-873.566 -145.905 -923.392 -63.3383 -971.597 16.4787C-985.055 38.7428 -997.748 59.79 -1015.39 81.5582C-1054.87 130.233 -1044.6 183.459 -1033.76 239.84C-1029.62 261.338 -1025.34 283.557 -1023.63 306.182L-1024.21 306.227C-1025.88 283.602 -1030.16 261.383 -1034.3 239.93C-1045.19 183.414 -1055.5 130.052 -1015.84 81.1526C-998.243 59.4745 -985.55 38.4273 -972.093 16.1632C-948.327 -23.227 -923.752 -63.9242 -869.74 -109.309C-840.574 -133.826 -805.691 -157.352 -763.067 -181.329C-714.997 -208.325 -658.599 -235.096 -590.634 -263.084C-550.576 -279.579 -503.945 -292.514 -451.959 -301.573C-401.773 -310.316 -348.752 -315.003 -294.38 -315.634C-240.008 -316.22 -187.031 -312.66 -136.89 -305.043C-84.9491 -297.156 -38.364 -285.213 1.6047 -269.529C43.4638 -253.124 80.3719 -235.772 114.444 -216.392C150.047 -196.111 181.554 -174.253 210.81 -149.465C270.808 -98.6725 320.049 -36.1619 361.368 41.627C377.167 71.3725 392.38 101.569 407.143 130.728C426.812 169.713 445.447 206.579 464.126 240.111C469.842 250.341 475.468 260.887 480.914 271.073C500.448 307.669 520.703 345.482 548.519 376.895C612.433 449.095 701.687 422.73 788.601 383.475C845.269 357.876 901.756 328.761 956.398 300.638C1046.87 254.037 1140.4 205.858 1237.66 172.101C1279.48 157.589 1322.51 146.457 1365.49 138.976C1407.17 131.72 1450.16 127.709 1493.27 127.033C1534.86 126.356 1577.98 128.79 1621.37 134.198C1663.01 139.381 1706.35 147.539 1750.19 158.4C1830.26 178.276 1904.93 208.021 1972.09 246.781C2041.31 286.757 2101.36 335.747 2150.64 392.353C2240.44 495.02 2314.93 600.211 2385.1 723.384L2384.65 723.745Z" fill="url(#paint5_linear_323_2146)" fill-opacity="0.08"/>
<path d="M2384.47 699.497C2313.45 601.608 2231.48 516.202 2136.56 417.321L2129.99 410.471C2034.25 310.012 1898.9 234.251 1727.69 185.261C1638.48 159.707 1538.78 136.993 1432.56 136.993C1362.75 136.993 1290.15 146.818 1215.75 172.101C1114.65 206.444 1017.93 258.183 924.352 308.254C874.256 335.025 822.495 362.743 770.734 387.395C735.131 404.341 688.681 424.352 644.751 428.769C599.066 433.366 562.518 420.927 532.992 390.64C506.256 363.193 486.136 330.113 466.692 298.069C460.166 287.342 453.459 276.256 446.528 265.439C419.117 222.714 391.931 170.163 363.125 114.503C355.338 99.4953 347.326 83.9465 339.269 68.6231C259.557 -83.2591 150.903 -181.915 -13.0675 -251.186C-171.322 -318.023 -429.993 -318.023 -589.643 -251.186C-863.123 -136.711 -912.273 -55.4064 -959.804 23.1937C-972.902 44.8719 -985.324 65.3782 -1002.25 86.6057C-1041.77 136.091 -1033.12 190.219 -1023.99 247.502C-1020.57 269.09 -1017.01 291.354 -1015.93 314.023L-1016.61 314.068C-1017.69 291.444 -1021.24 269.135 -1024.66 247.592C-1033.84 190.174 -1042.49 135.956 -1002.79 86.2001C-985.864 64.9726 -973.487 44.5113 -960.389 22.8332C-936.894 -16.0613 -912.589 -56.2177 -860.062 -100.836C-831.706 -124.903 -797.859 -148.023 -756.585 -171.594C-710.089 -198.095 -655.582 -224.37 -589.913 -251.862C-512.181 -284.402 -409.604 -302.339 -300.995 -302.339C-300.77 -302.339 -300.59 -302.339 -300.365 -302.339C-247.524 -302.294 -195.987 -298.058 -147.242 -289.63C-96.8757 -280.976 -51.6408 -268.267 -12.7974 -251.862C69.0305 -217.294 135.96 -176.191 191.907 -126.165C250.24 -73.9749 298.626 -10.4278 339.9 68.2175C347.956 83.5409 355.968 99.0897 363.755 114.098C392.561 169.758 419.747 222.308 447.113 264.988C454.044 275.805 460.796 286.892 467.277 297.618C487.577 331.104 506.796 362.698 533.487 390.1C597.536 455.765 685.215 427.281 770.418 386.674C822.18 362.022 873.941 334.349 924.037 307.533C1017.61 257.462 1114.38 205.723 1215.52 171.335C1297.57 143.482 1381.65 132.305 1472.66 137.173C1548.14 141.229 1629.25 156.282 1727.87 184.495C1809.2 207.751 1883.78 237.767 1949.45 273.686C2020.34 312.446 2081.24 358.236 2130.44 409.885L2137.01 416.735C2231.93 515.616 2313.94 601.022 2384.97 698.957L2384.47 699.497Z" fill="url(#paint6_linear_323_2146)" fill-opacity="0.08"/>
<path d="M2384.38 675.295C2338.74 626.441 2288.01 583.49 2234.32 538.016C2193.94 503.808 2152.22 468.474 2109.77 428.228C2017.82 340.974 1885.49 270.081 1705.32 211.582C1590 174.129 1481.48 143.032 1370.17 143.032C1312.52 143.032 1254.09 151.37 1193.6 171.515C1089.09 206.309 989.526 261.608 893.295 315.06C847.34 340.569 799.854 366.979 752.549 390.731C717.621 408.262 671.936 429.129 628.592 435.169C620.085 436.34 611.893 436.926 604.017 436.926C570.214 436.926 541.903 426.065 517.958 403.981C492.167 380.229 473.038 352.602 452.829 323.398C445.357 312.581 437.57 301.404 429.514 290.452C394.136 242.679 359.613 176.022 323.02 105.444L317.754 95.3039C237.142 -60.0486 130.693 -161.454 -27.4711 -233.429C-183.7 -304.547 -430.309 -307.342 -588.878 -239.873C-852.681 -127.607 -901.156 -47.4743 -948.057 29.9541C-960.254 50.145 -972.902 70.9668 -989.151 91.6985C-1028.67 142.04 -1021.69 197.025 -1014.36 255.254C-1011.61 276.887 -1008.77 299.286 -1008.28 321.956L-1009 321.956C-1009.5 299.286 -1012.33 276.932 -1015.08 255.299C-1022.46 196.934 -1029.48 141.815 -989.736 91.2027C-973.487 70.5161 -960.885 49.6492 -948.687 29.5034C-901.742 -48.0602 -853.176 -128.283 -589.239 -240.64C-512.722 -273.224 -412.26 -290.396 -306.352 -289.044C-254.996 -288.368 -204.99 -283.41 -157.64 -274.261C-108.804 -264.842 -64.9643 -251.366 -27.2461 -234.195C52.1062 -198.095 117.596 -155.099 172.913 -102.819C229.535 -49.3222 277.065 15.3066 318.339 94.8532L323.605 104.994C360.153 175.527 394.721 242.138 430.009 289.866C438.11 300.773 445.852 311.995 453.324 322.812C473.533 352.016 492.617 379.553 518.363 403.26C547.709 430.301 583.717 440.442 628.457 434.222C671.711 428.228 717.306 407.361 752.189 389.874C799.494 366.123 846.979 339.758 892.934 314.249C989.21 260.752 1088.82 205.452 1193.37 170.659C1236.63 156.282 1279.61 147.539 1324.67 143.978C1365.58 140.733 1407.26 141.905 1452.05 147.449C1539.77 158.355 1628.89 185.847 1705.59 210.725C1790.52 238.307 1862.9 267.782 1926.81 300.773C1962.14 319.026 1995.09 338.586 2024.75 358.867C2056.21 380.41 2085.02 403.53 2110.31 427.552C2152.71 467.798 2194.44 503.132 2234.81 537.34C2288.51 582.814 2339.23 625.81 2384.92 674.665L2384.38 675.295Z" fill="url(#paint7_linear_323_2146)" fill-opacity="0.08"/>
<path d="M2384.24 651.048C2344.46 618.689 2301.11 591.422 2255.2 562.533C2200.74 528.235 2144.39 492.811 2089.57 445.894C1982.08 353.909 1830.62 291.488 1682.99 237.766C1674.58 234.702 1666.2 231.637 1657.88 228.572C1544.41 187.064 1435.35 147.178 1319.99 147.178C1271.87 147.178 1222.63 154.118 1171.55 170.749C1063.93 205.812 961.98 264.672 863.363 321.594C821.234 345.932 777.665 371.035 734.41 393.885C700.113 412.003 655.238 433.726 612.434 441.388C601.451 443.326 590.964 444.317 581.017 444.317C550.815 444.317 525.069 435.348 502.88 417.186C477.809 396.679 458.725 372.703 438.561 347.329C430.234 336.828 421.592 325.966 412.455 315.375C373.386 269.9 335.173 197.925 296.195 121.939C214.637 -37.0188 110.394 -141.173 -41.9192 -215.717C-122.667 -255.242 -228.53 -275.298 -333.133 -275.298C-424.953 -275.298 -515.828 -259.839 -588.113 -228.562C-842.194 -118.548 -890.039 -39.5876 -936.309 36.7591C-948.192 56.3641 -960.48 76.6451 -976.053 96.8359C-1015.57 148.034 -1010.31 203.92 -1004.72 263.05C-1002.65 284.773 -1000.54 307.218 -1000.63 329.932L-1001.44 329.932C-1001.35 307.263 -1003.46 284.818 -1005.53 263.14C-1011.16 203.83 -1016.47 147.854 -976.728 96.3852C-961.155 76.1944 -948.867 55.9584 -937.029 36.3985C-890.714 -40.0384 -842.779 -119.134 -588.563 -229.238C-513.442 -261.777 -415.321 -278.228 -312.338 -275.523C-262.512 -274.216 -213.947 -268.538 -167.992 -258.668C-120.731 -248.482 -78.1972 -234.24 -41.6942 -216.393C110.799 -141.759 215.177 -37.5146 296.825 121.624C335.758 197.565 373.971 269.495 412.95 314.924C422.087 325.561 430.729 336.422 439.056 346.923C459.22 372.297 478.259 396.229 503.285 416.645C532.631 440.621 568.279 448.463 612.208 440.667C654.923 433.05 699.708 411.327 733.96 393.254C777.214 370.449 820.739 345.301 862.868 320.963C961.53 264.041 1063.52 205.136 1171.19 170.073C1213.09 156.417 1254.5 148.845 1297.84 146.862C1336.69 145.105 1376.34 147.944 1419.05 155.515C1498.77 169.622 1576.14 197.925 1658.06 227.896C1666.38 230.961 1674.8 234.025 1683.17 237.09C1746.32 260.075 1828.51 291.173 1904.04 327.904C1980.1 364.906 2040.95 403.349 2090.02 445.309C2144.79 492.18 2201.1 527.604 2255.52 561.902C2301.43 590.791 2344.82 618.103 2384.65 650.507L2384.24 651.048Z" fill="url(#paint8_linear_323_2146)" fill-opacity="0.08"/>
<path d="M2384.15 626.846C2346.26 604.267 2305.21 586.42 2261.77 567.581C2197.45 539.638 2130.88 510.749 2069.4 463.607C1971.46 388.567 1841.47 336.513 1703.88 281.393C1689.74 275.715 1675.11 269.856 1660.67 264.042C1639.02 255.298 1617.41 246.24 1596.48 237.451C1490.26 192.833 1388.27 149.972 1277.81 149.972C1236.4 149.972 1193.87 155.967 1149.4 170.163C1038.99 205.407 934.883 267.828 834.241 328.175C795.623 351.34 755.744 375.272 716.226 397.175C682.558 415.834 638.539 438.459 596.185 447.698C552.75 457.207 517.282 451.574 487.756 430.526C463.181 412.995 444.006 392.218 423.707 370.269C414.66 360.489 405.298 350.349 395.351 340.389C353.627 298.79 312.668 223.66 274.589 148.62C192.041 -14.1234 89.9591 -121.027 -56.4578 -197.959C-203.46 -275.208 -436.701 -283.68 -587.438 -217.204C-831.707 -109.534 -878.922 -31.7002 -924.562 43.61C-936.084 62.629 -948.012 82.2791 -962.955 101.974C-1002.52 154.074 -998.918 210.771 -995.092 270.847C-993.697 292.616 -992.302 315.15 -992.932 337.865L-993.832 337.82C-993.202 315.15 -994.597 292.616 -995.993 270.892C-999.818 210.68 -1003.42 153.803 -963.675 101.433C-948.777 81.7833 -936.85 62.1783 -925.327 43.1593C-902.597 5.66193 -879.102 -33.0973 -830.987 -75.4621C-805.061 -98.2669 -774.409 -120.17 -737.186 -142.389C-695.372 -167.358 -646.491 -192.1 -587.799 -217.97C-514.028 -250.465 -418.337 -266.194 -318.235 -262.183C-269.939 -260.245 -222.859 -253.845 -178.254 -243.209C-132.524 -232.302 -91.3854 -217.294 -56.0077 -198.681C90.5443 -121.658 192.762 -14.6642 275.4 148.26C313.433 223.209 354.347 298.294 395.981 339.803C405.973 349.763 415.335 359.903 424.382 369.683C444.637 391.632 463.766 412.319 488.296 429.805C517.597 450.717 552.84 456.306 596.049 446.841C638.269 437.602 682.243 415.023 715.866 396.409C755.339 374.506 795.263 350.574 833.836 327.409C934.523 267.016 1038.63 204.551 1149.18 169.307C1312.56 117.162 1450.65 175.166 1596.84 236.595C1617.73 245.383 1639.38 254.442 1660.98 263.185C1675.43 268.999 1690.06 274.858 1704.19 280.537C1841.83 335.656 1971.86 387.756 2069.94 462.886C2131.38 509.938 2197.86 538.827 2262.13 566.77C2305.61 585.653 2346.66 603.501 2384.6 626.125L2384.15 626.846Z" fill="url(#paint9_linear_323_2146)" fill-opacity="0.08"/>
<path d="M2384.06 602.644C2346.53 587.276 2306.02 576.549 2263.08 565.237C2190.39 546.038 2115.22 526.207 2049.15 481.274C1971.01 428.138 1872.39 387.711 1768.02 344.895C1725.57 327.499 1681.73 309.516 1638.25 290.227C1608.14 276.886 1578.39 262.509 1549.67 248.583C1447.5 199.188 1349.56 151.82 1240.77 151.82C1204.31 151.82 1166.68 157.138 1127.26 169.442C1014.24 204.776 908.283 270.802 805.841 334.665C770.553 356.658 734.05 379.418 698.043 400.375C665.05 419.575 621.841 443.01 579.937 453.917C537.222 465.004 502.115 461.669 472.633 443.732C448.193 428.859 428.749 410.966 408.179 392.037C398.637 383.249 388.78 374.19 378.203 365.267C332.518 326.688 289.218 247.501 252.94 175.166C169.312 8.456 69.3905 -101.152 -70.9951 -180.338C-213.406 -260.65 -439.985 -271.918 -586.807 -205.982C-821.309 -100.701 -867.894 -23.9034 -912.948 50.3702C-924.111 68.8034 -935.678 87.8675 -949.947 106.977C-989.465 159.978 -987.62 217.576 -985.594 278.509C-984.874 300.322 -984.154 322.902 -985.369 345.662L-986.314 345.617C-985.099 322.902 -985.864 300.367 -986.54 278.554C-988.52 217.396 -990.41 159.662 -950.667 106.391C-936.444 87.3267 -924.876 68.2625 -913.714 49.8744C-891.209 12.7827 -867.984 -25.5259 -821.354 -67.1696C-796.238 -89.5688 -766.622 -111.067 -730.794 -132.88C-690.51 -157.352 -643.565 -181.554 -587.168 -206.883C-514.792 -239.378 -421.441 -254.296 -324.265 -248.978C-277.5 -246.409 -231.905 -239.288 -188.696 -227.885C-144.541 -216.212 -104.752 -200.483 -70.4999 -181.194C70.0657 -101.963 170.077 7.82504 253.796 174.715C290.029 246.961 333.238 326.012 378.833 364.5C389.41 373.424 399.267 382.483 408.809 391.271C429.334 410.155 448.778 428.002 473.129 442.83C502.385 460.632 537.223 463.967 579.667 452.926C621.436 442.064 664.6 418.673 697.547 399.474C733.555 378.517 770.013 355.757 805.301 333.763C907.788 269.856 1013.79 203.785 1126.94 168.451C1166.46 156.102 1204.22 150.784 1240.77 150.784C1349.74 150.784 1447.77 198.196 1550.03 247.637C1578.79 261.518 1608.5 275.895 1638.61 289.28C1682.05 308.57 1725.93 326.552 1768.38 343.949C1872.8 386.764 1971.46 427.236 2049.69 480.418C2115.63 525.216 2190.7 545.046 2263.3 564.246C2306.24 575.603 2346.8 586.284 2384.38 601.698L2384.06 602.644Z" fill="url(#paint10_linear_323_2146)" fill-opacity="0.08"/>
<path d="M2383.98 578.398C2346.08 568.978 2305.16 564.246 2261.91 559.289C2181.57 550.049 2098.52 540.45 2028.94 498.986C1965.11 460.948 1887.88 430.211 1806.14 397.671C1743.89 372.929 1679.53 347.329 1615.88 316.502C1579.96 299.106 1544.86 279.726 1510.92 260.977C1411.31 205.948 1315.94 153.218 1207.24 153.218C1174.56 153.218 1140.71 157.95 1105.16 168.857C989.751 204.191 882.178 273.867 778.115 341.29C745.933 362.157 712.671 383.7 679.904 403.711C631.923 433.051 596.05 450.492 563.688 460.272C521.694 472.982 486.992 471.945 457.6 457.072C432.935 444.588 412.905 429.265 391.706 413.04C381.984 405.604 371.946 397.942 361.189 390.325C339.449 374.957 317.305 349.853 293.494 313.528C274.68 284.864 254.966 249.395 231.381 201.892C146.582 31.036 48.8661 -81.3659 -85.4432 -162.535C-223.353 -245.867 -443.226 -259.929 -586.042 -194.624C-810.776 -91.8218 -856.776 -16.0159 -901.201 57.2662C-912.003 75.1135 -923.211 93.5467 -936.804 112.07C-976.322 165.972 -976.187 224.427 -976.007 286.306C-975.962 308.21 -975.872 330.834 -977.673 353.594L-978.708 353.504C-976.953 330.789 -976.998 308.165 -977.088 286.306C-977.223 224.247 -977.403 165.612 -937.659 111.439C-924.111 92.9608 -912.949 74.5276 -902.101 56.7253C-879.866 20.0392 -856.866 -17.8637 -811.722 -58.7863C-787.416 -80.825 -758.835 -101.872 -724.358 -123.235C-685.649 -147.211 -640.549 -170.873 -586.492 -195.57C-515.512 -228.02 -424.547 -242.217 -330.252 -235.502C-238.117 -228.967 -151.023 -203.367 -84.9482 -163.436C-15.0479 -121.207 44.5001 -70.7296 97.1165 -9.12042C146.402 48.6128 190.647 117.478 232.281 201.396C268.784 274.949 312.714 354.811 361.729 389.424C372.487 397.041 382.524 404.702 392.246 412.184C413.401 428.364 433.385 443.687 457.96 456.081C487.127 470.818 521.559 471.855 563.283 459.191C595.6 449.411 631.338 432.014 679.274 402.719C711.996 382.709 745.258 361.166 777.44 340.299C881.548 272.831 989.166 203.109 1104.75 167.73C1259.04 120.498 1381.61 188.236 1511.32 259.941C1545.26 278.69 1580.37 298.069 1616.24 315.466C1679.89 346.248 1744.21 371.847 1806.41 396.59C1888.24 429.13 1965.47 459.866 2029.39 497.95C2098.75 539.323 2181.7 548.878 2261.95 558.117C2305.25 563.119 2346.17 567.807 2384.16 577.271L2383.98 578.398Z" fill="url(#paint11_linear_323_2146)" fill-opacity="0.08"/>
<path d="M2383.93 554.195C2345.22 550.049 2303.54 550.68 2259.39 551.356C2243 551.626 2226.53 551.852 2210.06 551.852C2138.58 551.852 2067.74 547.074 2008.77 516.698C1956.2 489.612 1894.76 466.762 1829.72 442.605C1752.31 413.851 1672.23 384.105 1593.51 342.777C1553.41 321.73 1514.61 297.438 1477.07 273.957C1352.71 196.123 1235.19 122.616 1083.01 168.225C965.355 203.469 856.297 276.932 750.839 347.96C721.627 367.655 691.381 387.981 661.719 407C614.729 437.106 579.441 455.495 547.349 466.627C506.075 480.958 471.778 482.175 442.522 470.412C416.956 460.137 395.891 447.067 373.566 433.185C364.204 427.372 354.482 421.332 344.175 415.338C321.04 401.908 297.86 377.841 273.33 341.651C253.84 312.942 233.676 277.022 209.866 228.573C123.807 53.2997 28.2512 -61.8514 -99.8918 -144.778C-235.506 -232.527 -444.172 -249.068 -585.278 -183.267C-800.244 -82.9436 -845.614 -8.08412 -889.499 64.2966C-899.941 81.5129 -910.743 99.3602 -923.661 117.253C-963.18 172.056 -964.755 231.412 -966.466 294.238C-967.051 316.187 -967.681 338.856 -969.976 361.616L-971.057 361.526C-968.761 338.811 -968.131 316.142 -967.546 294.238C-965.835 231.232 -964.26 171.741 -924.516 116.667C-911.644 98.7743 -900.841 80.9721 -890.399 63.8008C-868.389 27.4753 -845.659 -10.0672 -801.955 -50.2686C-778.46 -71.9017 -750.914 -92.5883 -717.786 -113.455C-680.608 -136.891 -637.399 -160.011 -585.683 -184.123C-550.08 -200.754 -509.841 -212.382 -466.092 -218.736C-424.322 -224.775 -380.618 -225.857 -336.148 -221.936C-247.344 -214.094 -163.221 -186.963 -99.2617 -145.589C-31.6569 -101.828 26.4058 -49.4575 78.2571 14.5404C125.607 72.9497 168.952 142.852 210.856 228.212C234.621 276.616 254.741 312.491 274.23 341.155C298.715 377.165 321.76 401.187 344.715 414.482C355.067 420.476 364.745 426.515 374.152 432.329C396.431 446.165 417.451 459.19 442.927 469.466C471.958 481.139 505.985 479.877 546.989 465.635C579.036 454.548 614.234 436.16 661.134 406.144C690.796 387.125 720.997 366.799 750.254 347.104C855.757 276.03 964.905 202.568 1082.7 167.234C1119.42 156.237 1154.98 151.775 1191.39 153.578C1223.94 155.2 1256.52 161.871 1291 173.949C1355.14 196.438 1414.64 233.665 1477.66 273.101C1515.15 296.582 1553.95 320.829 1594.01 341.876C1672.68 383.159 1752.71 412.904 1830.08 441.658C1895.17 465.86 1956.65 488.665 2009.27 515.797C2081.51 553.069 2171.93 551.671 2259.34 550.319C2303.54 549.643 2345.27 549.012 2384.02 553.159L2383.93 554.195Z" fill="url(#paint12_linear_323_2146)" fill-opacity="0.08"/>
<path d="M2107.57 555.232C2064.63 555.232 2024.08 549.914 1988.56 534.366C1945.31 515.437 1896.29 498.986 1844.35 481.545C1758.7 452.791 1661.66 420.251 1571.14 368.963C1527.93 344.49 1486.52 315.421 1446.47 287.298C1326.11 202.839 1212.46 123.067 1060.91 167.505C941.14 202.658 830.776 279.907 724.103 354.586C697.682 373.064 670.361 392.218 643.625 410.156C584.662 449.726 518.453 488.17 460.255 488.17C449.003 488.17 438.065 486.728 427.533 483.573C399.942 475.325 376.897 464.148 352.457 452.34C344.355 448.419 335.983 444.363 327.161 440.262C302.631 428.859 278.37 405.784 253.03 369.729C232.956 341.155 212.386 304.785 188.306 255.164C99.6365 72.7248 9.12165 -41.57 -114.34 -127.111C-245.409 -217.88 -447.548 -237.169 -584.513 -171.999C-789.757 -74.335 -832.562 -3.6219 -877.842 71.1925C-887.879 87.7779 -898.276 104.949 -910.519 122.256C-949.992 178.006 -953.368 238.218 -956.924 301.99C-958.139 323.984 -959.444 346.699 -962.235 369.414L-963.405 369.278C-960.57 346.564 -959.309 323.849 -958.094 301.9C-954.538 237.993 -951.163 177.6 -911.464 121.58C-899.266 104.318 -888.869 87.1919 -878.832 70.6066C-857.047 34.6416 -834.542 -2.54026 -792.323 -42.0657C-769.638 -63.2481 -743.127 -83.5291 -711.35 -103.99C-675.748 -126.93 -634.429 -149.465 -585.008 -172.991C-550.035 -189.621 -510.697 -201.069 -468.117 -207.018C-427.563 -212.652 -385.164 -213.192 -342.09 -208.595C-256.616 -199.446 -175.464 -170.828 -113.62 -128.012C-48.2658 -82.763 8.31155 -28.455 59.3527 37.9315C105.263 97.6478 146.582 166.513 189.431 254.713C213.511 304.244 234.036 340.614 254.065 369.098C279.271 404.973 303.351 427.958 327.701 439.225C336.523 443.326 344.895 447.383 352.997 451.304C377.392 463.112 400.392 474.289 427.893 482.491C492.482 501.736 572.87 456.261 642.995 409.209C669.776 391.227 697.052 372.118 723.472 353.639C830.236 278.87 940.69 201.577 1060.64 166.378C1097.23 155.651 1132.48 151.73 1168.39 154.48C1200.49 156.913 1232.44 164.665 1266.11 178.141C1328.76 203.199 1386.29 243.581 1447.14 286.306C1487.15 314.384 1528.56 343.454 1571.73 367.926C1662.15 419.124 1759.15 451.709 1844.76 480.418C1896.7 497.86 1945.76 514.31 1989.06 533.284C2063.82 566.004 2161.45 553.249 2255.88 540.946C2301.25 535.042 2344.05 529.408 2383.84 528.777L2383.84 529.949C2344.1 530.625 2301.29 536.213 2256.01 542.117C2206.14 548.607 2155.41 555.232 2107.57 555.232Z" fill="url(#paint13_linear_323_2146)" fill-opacity="0.08"/>
<path d="M2049.82 564.651C2020.57 564.651 1993.07 561.046 1968.4 552.077C1933.2 539.323 1894.31 527.92 1853.13 515.887C1757.35 487.854 1648.83 456.125 1548.77 395.192C1503.18 367.43 1459.92 333.673 1418.06 300.998C1300.99 209.598 1190.45 123.291 1038.81 166.873C917.015 201.847 805.526 283.016 697.683 361.481C673.963 378.742 649.432 396.589 625.442 413.445C581.107 444.588 545.91 465.5 514.673 479.201C474.749 496.732 441.307 502.546 412.456 496.913C380.454 490.693 354.528 481.319 324.506 470.457C319.825 468.745 315.009 467.032 310.103 465.274C284.088 455.99 258.792 433.952 232.686 397.941C212.162 369.593 191.187 332.727 166.747 281.844C76.5472 94.3122 -11.8521 -22.6866 -128.833 -109.354C-255.355 -203.052 -450.923 -225.136 -583.747 -160.597C-779.224 -65.6372 -821.489 4.30969 -866.228 78.3579C-875.86 94.3123 -885.853 110.808 -897.42 127.438C-936.849 184.135 -942.025 245.248 -947.471 309.922C-949.316 331.916 -951.252 354.675 -954.583 377.39L-955.798 377.21C-952.467 354.495 -950.532 331.78 -948.686 309.787C-943.195 244.933 -938.064 183.639 -898.41 126.672C-886.843 110.086 -876.896 93.5912 -867.264 77.6368C-845.704 41.9873 -823.424 5.12096 -782.645 -33.7735C-760.725 -54.6855 -735.25 -74.5609 -704.868 -94.5264C-670.796 -116.926 -631.367 -138.919 -584.287 -161.814C-549.944 -178.49 -511.551 -189.757 -470.142 -195.301C-430.803 -200.574 -389.754 -200.529 -348.075 -195.255C-265.932 -184.845 -187.795 -154.693 -128.067 -110.436C-64.9637 -63.6994 -9.91658 -7.49842 40.3144 61.3669C84.0189 121.263 124.528 191.12 167.872 281.213C192.312 332.006 213.242 368.827 233.722 397.13C259.647 432.915 284.808 454.818 310.553 464.012C315.459 465.77 320.275 467.483 324.956 469.195C354.933 480.012 380.859 489.386 412.726 495.606C441.352 501.194 474.524 495.425 514.223 477.984C545.369 464.283 580.477 443.416 624.767 412.318C648.757 395.463 673.287 377.615 696.963 360.354C804.896 281.799 916.475 200.585 1038.45 165.566C1075.09 155.02 1110.2 151.685 1145.8 155.381C1177.62 158.671 1209.17 167.504 1242.21 182.377C1303.74 210.094 1359.6 253.721 1418.78 299.916C1460.6 332.591 1503.85 366.348 1549.4 394.02C1649.33 454.818 1757.8 486.547 1853.49 514.58C1894.67 526.613 1933.56 538.015 1968.8 550.77C2045.86 578.713 2150.55 554.33 2251.78 530.714C2298.5 519.808 2342.61 509.532 2383.62 504.304L2383.75 505.521C2342.84 510.749 2298.73 521.024 2252.05 531.886C2183.01 548.156 2112.34 564.651 2049.82 564.651Z" fill="url(#paint14_linear_323_2146)" fill-opacity="0.08"/>
<path d="M2004.68 577C1984.56 577 1965.65 574.792 1948.23 569.744C1920.15 561.632 1889.95 554.241 1857.95 546.399C1753.21 520.799 1634.47 491.775 1526.45 421.422C1479.05 390.55 1434.4 352.107 1391.28 314.925C1296.63 233.35 1206.25 155.516 1091.52 155.516C1067.71 155.516 1042.86 158.851 1016.71 166.197C892.98 200.99 780.456 286.126 671.622 368.512C650.512 384.511 628.682 401.006 607.303 416.69C563.913 448.599 529.301 470.458 498.289 485.601C463.857 502.411 434.195 510.659 408.134 510.659C404.489 510.659 400.933 510.479 397.422 510.163C358.669 506.603 327.252 499.031 293.089 490.243C265.588 483.167 239.168 462.21 212.297 426.2C191.367 398.122 170.033 360.715 145.142 308.48C77.0422 165.431 -5.05563 17.9657 -143.326 -91.6418C-249.729 -175.966 -434.899 -222.882 -583.072 -149.33C-768.737 -57.1641 -810.506 12.1069 -854.706 85.434C-863.933 100.712 -873.475 116.532 -884.367 132.486C-923.796 190.174 -930.727 252.189 -938.109 317.809C-940.584 339.803 -943.15 362.563 -947.021 385.323L-948.326 385.097C-944.455 362.428 -941.89 339.668 -939.459 317.674C-932.078 251.873 -925.101 189.723 -885.492 131.765C-874.645 115.855 -865.103 100.036 -855.876 84.7579C-833.551 47.7564 -812.487 12.7829 -773.148 -25.4355C-751.993 -45.987 -727.598 -65.4567 -698.522 -85.0166C-665.98 -106.875 -628.441 -128.328 -583.702 -150.547C-549.989 -167.267 -512.496 -178.354 -472.302 -183.492C-434.179 -188.36 -394.48 -187.774 -354.197 -181.78C-275.385 -170.062 -200.263 -138.423 -142.561 -92.7235C-81.7074 -44.4998 -28.1456 13.6391 21.2301 84.9381C62.5942 144.654 102.293 215.503 146.267 307.849C171.113 359.994 192.402 397.311 213.287 425.344C239.978 461.083 266.173 481.86 293.359 488.891C327.477 497.679 358.849 505.251 397.512 508.811C425.868 511.425 458.635 503.403 497.659 484.339C528.581 469.241 563.148 447.382 606.448 415.564C627.782 399.88 649.612 383.339 670.722 367.385C779.645 284.954 892.26 199.729 1016.22 164.89C1053.04 154.524 1088.14 151.73 1123.57 156.327C1155.21 160.428 1186.44 170.344 1219.08 186.704C1279.7 217.125 1334.26 264.132 1392 313.888C1435.12 351.025 1479.68 389.469 1527.03 420.296C1634.88 490.513 1753.48 519.538 1858.13 545.092C1890.13 552.934 1920.37 560.325 1948.51 568.437C2027.72 591.377 2139.35 555.142 2247.28 520.078C2295.49 504.439 2341.04 489.657 2383.34 480.057L2383.61 481.319C2341.4 490.874 2295.89 505.656 2247.69 521.295C2163.29 548.832 2076.51 577 2004.68 577Z" fill="url(#paint15_linear_323_2146)" fill-opacity="0.08"/>
<path d="M1966.1 591.287C1952.74 591.287 1940 590.07 1928.07 587.456C1906.51 582.724 1883.87 578.352 1859.88 573.755C1805.78 563.344 1744.48 551.536 1683.71 532.652C1613.99 510.974 1555.25 483.167 1504.12 447.652C1455.29 413.761 1409.74 370.72 1365.72 329.076C1253.73 223.254 1148.01 123.337 994.657 165.521C869.079 200.089 755.61 289.37 645.876 375.677C627.242 390.325 608.023 405.468 589.254 419.89C557.657 444.182 518.318 474.378 481.815 495.155C447.608 514.58 418.666 524.134 393.866 524.134C389.95 524.134 386.169 523.909 382.433 523.413C365.375 521.25 349.351 520.619 333.868 519.988C315.504 519.267 296.555 518.546 276.165 515.166C247.179 510.388 219.633 490.513 191.997 454.503C170.392 426.335 149.283 389.514 123.672 335.115C43.3295 164.665 -35.2576 29.8637 -157.729 -73.975C-260.217 -160.913 -438.951 -210.804 -582.262 -138.063C-758.16 -48.7364 -799.434 19.9036 -843.139 92.5997C-851.916 107.202 -861.008 122.3 -871.18 137.533C-910.563 196.213 -919.34 259.129 -928.657 325.741C-931.718 347.735 -934.914 370.495 -939.28 393.209L-940.63 392.939C-936.264 370.314 -933.113 347.555 -930.008 325.561C-920.69 258.814 -911.869 195.717 -872.305 136.767C-862.133 121.579 -853.041 106.481 -844.264 91.9237C-822.164 55.1475 -801.325 20.4444 -763.381 -17.1881C-742.992 -37.379 -719.632 -56.4883 -691.906 -75.5975C-660.894 -96.9601 -625.201 -117.782 -582.802 -139.325C-549.72 -156.136 -513.172 -166.997 -474.148 -171.729C-437.24 -176.191 -398.847 -175.02 -360.003 -168.349C-284.567 -155.369 -212.416 -122.244 -156.784 -75.0567C-98.1813 -25.3457 -46.105 34.6861 2.37054 108.509C52.7365 185.216 94.3256 269.54 124.932 334.439C163.911 417.141 212.431 503.132 276.39 513.724C296.645 517.059 315.594 517.825 333.913 518.546C349.441 519.132 365.465 519.763 382.613 521.971C443.872 529.768 520.658 470.773 588.398 418.718C607.167 404.296 626.432 389.153 645.021 374.506C754.845 288.109 868.404 198.737 994.252 164.079C1031.34 153.893 1066.54 151.595 1101.92 157.093C1133.51 162.006 1164.52 173.093 1196.8 190.94C1256.75 224.111 1310.13 274.543 1366.62 327.949C1410.64 369.548 1456.14 412.544 1504.89 446.39C1619.44 525.937 1747.36 550.545 1860.15 572.268C1884.14 576.865 1906.83 581.237 1928.39 585.969C2009.63 603.771 2128.14 555.547 2242.78 508.901C2292.56 488.62 2339.59 469.466 2383.3 455.72L2383.7 457.027C2340.09 470.773 2293.05 489.927 2243.32 510.163C2145.2 550.229 2044.33 591.287 1966.1 591.287Z" fill="url(#paint16_linear_323_2146)" fill-opacity="0.08"/>
<path d="M1931.63 606.835C1923.39 606.835 1915.47 606.294 1907.86 605.123C1892.42 602.779 1876.53 600.616 1859.7 598.317C1802.36 590.43 1737.41 581.552 1672.5 563.569C1597.83 542.882 1535.4 513.543 1481.66 473.882C1431.7 437.016 1385.57 389.423 1340.87 343.453C1230.96 230.194 1127.12 123.246 972.421 164.89C845.043 199.187 730.718 292.705 620.219 383.158C604.061 396.409 587.317 410.11 570.979 423.18C509.99 472.169 431.763 529.317 367.399 536.753C358.442 537.79 349.665 539.187 341.158 540.494C313.207 544.911 286.787 549.057 258.881 540.178C228.769 530.579 199.738 509.486 172.597 477.443C147.976 448.373 124.211 409.479 101.976 361.841C32.7063 213.384 -45.5658 58.8425 -172.313 -56.1734C-270.93 -145.68 -443.182 -198.636 -581.588 -126.661C-747.719 -40.3091 -788.543 27.8802 -831.752 100.036C-840.079 113.917 -848.631 128.249 -858.173 142.716C-897.511 202.432 -908.134 266.295 -919.386 333.853C-923.032 355.847 -926.858 378.561 -931.674 401.186L-933.114 400.871C-928.253 378.291 -924.472 355.576 -920.827 333.583C-909.529 265.844 -898.862 201.846 -859.388 141.905C-849.891 127.482 -841.294 113.151 -833.012 99.2693C-811.138 62.7185 -790.478 28.1957 -753.93 -8.85097C-734.306 -28.7264 -711.981 -47.475 -685.605 -66.0885C-656.124 -86.9103 -622.321 -107.191 -582.263 -127.968C-549.811 -144.824 -514.208 -155.55 -476.355 -159.832C-440.707 -163.888 -403.619 -162.175 -366.216 -154.784C-294.155 -140.542 -224.93 -105.884 -171.368 -57.255C-115.016 -6.10183 -64.4699 55.8679 -16.8496 132.26C29.5556 206.714 69.9294 289.776 103.237 361.21C149.732 460.857 202.258 520.573 259.241 538.781C286.787 547.57 313.027 543.423 340.843 539.052C349.35 537.7 358.172 536.303 367.129 535.266C431.133 527.92 509.135 470.862 569.943 422.008C586.237 408.893 602.981 395.192 619.139 381.987C729.773 291.443 844.188 197.835 971.881 163.447C1009.28 153.352 1044.66 151.594 1080.04 158.039C1111.64 163.763 1142.51 175.976 1174.52 195.356C1233.93 231.366 1286.32 285.269 1341.73 342.371C1386.33 388.341 1432.47 435.844 1482.34 472.665C1602.78 561.586 1745.24 581.101 1859.7 596.83C1876.53 599.128 1892.42 601.337 1907.9 603.635C1991.13 616.21 2116.44 555.862 2237.69 497.498C2289.14 472.71 2337.75 449.319 2382.85 431.472L2383.39 432.824C2338.33 450.671 2289.77 474.062 2238.32 498.805C2128.09 552.031 2014.26 606.835 1931.63 606.835Z" fill="url(#paint17_linear_323_2146)" fill-opacity="0.08"/>
<path d="M1899.98 623.376C1895.8 623.376 1891.7 623.196 1887.74 622.881C1878.11 622.069 1868.39 621.303 1858.08 620.492C1736.55 610.802 1585.28 598.769 1459.29 500.203C1408.48 460.452 1361.94 408.398 1316.88 358.056C1208.77 237.226 1106.64 123.112 950.367 164.305C821.189 198.332 706.144 296.266 594.924 390.911C581.106 402.674 566.838 414.843 552.885 426.516C493.067 476.722 416.19 536.168 352.457 550.094C343.185 552.123 334.093 554.556 325.316 556.855C304.746 562.308 284.987 567.581 264.552 567.581C257.126 567.581 249.609 566.905 241.957 565.283C225.484 561.812 209.415 554.827 194.112 544.596C179.664 534.951 165.441 522.017 151.803 506.242C127.182 477.669 103.867 439.225 80.5073 388.613C3.67556 222.398 -69.4654 75.5189 -186.716 -38.3251C-278.581 -127.562 -441.066 -189.666 -580.777 -115.213C-737.186 -31.9704 -777.56 35.8133 -820.319 107.563C-828.151 120.678 -836.207 134.244 -844.984 147.855C-884.233 208.653 -896.746 273.417 -910.023 342.011C-914.254 363.96 -918.665 386.63 -923.977 409.164L-925.462 408.804C-920.151 386.314 -915.785 363.645 -911.509 341.696C-898.231 272.966 -885.673 208.067 -846.245 146.998C-837.468 133.387 -829.411 119.867 -821.579 106.752C-778.685 34.7767 -738.221 -33.1872 -581.452 -116.7C-519.473 -149.69 -447.098 -158.208 -372.111 -141.308C-303.426 -125.804 -237.172 -89.6586 -185.591 -39.542C-156.874 -11.6444 -130.319 18.5518 -104.393 52.8042C-80.8529 83.9017 -58.393 117.658 -35.7531 155.922C8.35656 230.511 46.5698 311.365 81.9026 387.846C131.503 495.11 182.455 550.996 242.318 563.66C270.764 569.699 297.094 562.669 324.956 555.277C333.777 552.934 342.869 550.545 352.186 548.472C415.605 534.591 492.257 475.325 551.94 425.209C565.848 413.536 580.161 401.367 593.934 389.604C648.891 342.823 705.694 294.464 764.746 253.766C831.406 207.751 891.989 177.96 950.007 162.682C987.815 152.722 1023.42 151.46 1058.89 158.806C1090.53 165.386 1121.36 178.727 1153.09 199.639C1212.1 238.488 1265.98 298.655 1318.05 356.839C1363.06 407.136 1409.6 459.1 1460.28 498.806C1585.91 597.146 1736.91 609.135 1858.26 618.779C1868.57 619.591 1878.24 620.357 1887.92 621.168C1973.03 628.379 2105.18 555.863 2232.97 485.691C2286.12 456.486 2336.35 428.949 2382.94 407.091L2383.57 408.488C2337.03 430.301 2286.84 457.883 2233.69 487.043C2111.57 554.196 1985.59 623.376 1899.98 623.376Z" fill="url(#paint18_linear_323_2146)" fill-opacity="0.08"/>
<path d="M1870.37 640.592C1869.42 640.592 1868.52 640.592 1867.58 640.547C1863.53 640.457 1859.47 640.367 1855.33 640.322C1792.23 639.06 1720.75 637.663 1648.15 623.015C1564.08 606.07 1494.94 574.431 1436.92 526.388C1385.48 483.798 1338.67 427.326 1293.43 372.748C1186.94 244.256 1086.34 122.886 928.222 163.628C797.288 197.385 681.613 299.826 569.719 398.888C558.241 409.073 546.314 419.62 534.746 429.76C475.963 481.319 400.392 543.063 337.468 563.344C328.106 566.364 318.969 569.744 310.102 573.034C285.482 582.183 262.032 590.881 236.736 590.881C232.865 590.881 228.95 590.656 224.989 590.251C190.916 586.51 160.175 568.482 131.008 535.131C106.703 507.324 83.1177 468.114 58.9474 415.248C-15.3638 252.91 -85.534 99.6303 -201.164 -20.6586C-289.383 -112.374 -445.523 -177.544 -580.057 -103.991C-726.654 -23.8134 -766.668 43.7449 -809.022 115.224C-816.313 127.483 -823.83 140.192 -831.887 152.947C-871.09 214.872 -885.538 280.627 -900.797 350.214C-905.568 372.072 -910.564 394.652 -916.325 417.096L-917.855 416.69C-912.094 394.291 -907.143 371.711 -902.327 349.898C-887.024 280.131 -872.576 214.241 -833.237 152.091C-825.18 139.381 -817.664 126.672 -810.372 114.413C-767.883 42.7083 -727.779 -24.9852 -580.777 -105.388C-520.284 -138.469 -450.204 -146.221 -378.233 -127.787C-312.924 -111.067 -249.64 -73.4343 -200.039 -21.8304C-172.313 7.01368 -146.567 38.2915 -121.362 73.7157C-98.7669 105.534 -76.9821 140.192 -54.8373 179.583C-12.9782 254.127 24.3349 335.656 60.4328 414.482C84.5581 467.212 108.053 506.287 132.269 533.959C161.12 566.995 191.546 584.842 225.214 588.538C254.74 591.783 281.386 581.913 309.607 571.457C318.474 568.167 327.656 564.741 337.063 561.722C399.717 541.531 475.108 479.922 533.756 428.453C545.324 418.313 557.251 407.766 568.729 397.581C623.911 348.726 680.938 298.249 740.486 255.794C807.821 207.796 869.124 177.104 927.907 161.96C966.165 152.09 1002.08 151.369 1037.64 159.662C1069.37 167.098 1100.16 181.611 1131.76 204.1C1190.45 245.834 1243.43 309.787 1294.69 371.621C1339.88 426.154 1386.65 482.536 1437.96 525.036C1568.26 632.886 1727.46 636.04 1855.38 638.609C1859.52 638.699 1863.57 638.79 1867.62 638.835C1868.52 638.835 1869.47 638.88 1870.37 638.88C1957.46 638.88 2094.92 554.961 2227.84 473.792C2282.75 440.261 2334.55 408.623 2382.67 382.843L2383.43 384.24C2335.36 409.975 2283.56 441.613 2228.69 475.144C2095.55 556.539 1957.91 640.592 1870.37 640.592Z" fill="url(#paint19_linear_323_2146)" fill-opacity="0.08"/>
<path d="M1760.99 660.513C1720.26 660.513 1676.64 658.395 1632.81 651.139C1545.31 636.671 1473.88 604.402 1414.55 552.573C1362.61 507.188 1315.76 446.391 1270.43 387.621C1219.98 322.181 1167.81 254.487 1109.57 209.959C1044.48 160.203 977.958 144.834 906.122 162.952C773.433 196.393 657.173 303.522 544.693 407.136C535.466 415.654 525.924 424.442 516.607 432.96C476.908 469.286 445.087 496.417 416.505 518.276C380.362 545.903 349.621 564.967 322.48 576.55C319.824 577.676 317.169 578.803 314.513 579.93C279.045 595.118 245.513 609.45 208.11 615.129C203.654 615.805 199.198 616.165 194.832 616.165C165.216 616.165 137.534 600.571 110.619 568.798C80.6421 533.464 55.7066 482.401 37.3426 441.839C32.9316 432.149 28.5657 422.504 24.2448 412.859C-45.3404 258.994 -111.055 113.602 -215.703 -2.99145C-303.022 -100.295 -449.348 -165.78 -579.337 -92.6786C-716.212 -15.7008 -755.865 51.7223 -797.904 123.111C-804.611 134.469 -811.542 146.277 -818.834 158.04C-857.993 221.091 -874.376 287.883 -891.66 358.596C-896.971 380.32 -902.462 402.764 -908.674 425.028L-910.294 424.577C-904.083 402.358 -898.591 379.914 -893.28 358.191C-875.951 287.342 -859.523 220.46 -820.229 157.183C-812.938 145.421 -806.006 133.658 -799.3 122.3C-757.171 50.6856 -717.382 -16.9177 -580.147 -94.1208C-521.094 -127.337 -453.399 -134.322 -384.399 -114.312C-322.511 -96.3742 -262.153 -57.2544 -214.487 -4.07311C-109.659 112.745 -43.9 258.183 25.7301 412.228C30.0961 421.873 34.462 431.518 38.8279 441.208C57.1469 481.635 82.0374 532.562 111.879 567.761C142.396 603.771 173.767 618.734 207.84 613.551C245.018 607.872 278.415 593.586 313.838 578.443C316.493 577.316 319.104 576.189 321.805 575.062C382.973 548.967 454.044 487.989 515.437 431.788C524.754 423.27 534.296 414.482 543.523 405.964C598.84 354.991 656.047 302.26 716.091 258.093C784.1 208.021 846.079 176.428 905.627 161.42C925.251 156.462 944.695 153.983 963.419 153.938C963.464 153.938 963.51 153.938 963.555 153.938C981.378 153.938 999.157 156.192 1016.4 160.654C1048.26 168.946 1079.09 184.63 1110.56 208.697C1168.98 253.36 1221.24 321.144 1271.74 386.674C1317.02 445.399 1363.83 506.152 1415.63 551.401C1550.17 668.896 1721.92 661.82 1847.32 656.637C1936.08 652.986 2081.78 555.818 2222.7 461.804C2279.37 424.036 2332.84 388.342 2382.49 358.731L2383.34 360.174C2333.79 389.784 2280.27 425.433 2223.65 463.201C2082.54 557.305 1936.62 654.609 1847.41 658.304C1820.99 659.341 1791.82 660.513 1760.99 660.513Z" fill="url(#paint20_linear_323_2146)" fill-opacity="0.08"/>
<path d="M1699.24 683.768C1670.07 683.768 1640.23 682.146 1610.35 677.909C1569.57 672.14 1531.62 661.775 1497.6 647.127C1458.8 630.407 1423.33 607.422 1392.18 578.803C1339.88 530.714 1293.07 465.635 1247.84 402.674C1198.1 333.493 1146.61 261.968 1088.59 214.466C1023.73 161.42 956.803 144.339 884.023 162.276C749.578 195.402 632.778 307.443 519.848 415.744C512.692 422.594 505.58 429.444 498.514 436.205C437.66 494.344 367.355 558.026 307.537 589.755C304.161 591.557 300.831 593.315 297.5 595.118C262.122 614.002 228.68 631.804 191.187 640.097C172.463 644.243 154.144 642.305 136.725 634.328C120.791 627.027 105.668 614.993 90.4547 597.461C59.758 562.127 34.4626 509.983 15.8285 468.474C7.09665 449.05 -1.59025 429.399 -10.0521 410.425C-74.5061 265.168 -135.359 127.979 -230.15 14.6754C-307.567 -77.8962 -445.297 -158.615 -578.526 -81.4115C-705.679 -7.76893 -745.062 59.7443 -786.786 131.269C-792.863 141.634 -799.119 152.406 -805.645 163.087C-844.804 227.446 -863.168 295.32 -882.567 367.159C-888.373 388.702 -894.405 410.966 -900.976 432.96L-902.642 432.464C-896.07 410.471 -890.039 388.207 -884.233 366.709C-864.788 294.734 -846.424 226.77 -807.131 162.231C-800.604 151.505 -794.348 140.778 -788.317 130.412C-746.458 58.7077 -706.939 -8.98578 -579.426 -82.8988C-549.585 -100.16 -517.718 -110.256 -484.681 -112.87C-453.939 -115.303 -422.252 -111.292 -390.52 -100.926C-332.052 -81.8172 -274.62 -41.165 -228.845 13.5486C-133.919 127.032 -72.9758 264.312 -8.47675 409.704C-0.0599148 428.678 8.67199 448.328 17.4039 467.753C35.9929 509.126 61.2434 561.136 91.7601 596.29C123.087 632.39 155.494 646.136 190.782 638.339C228.005 630.091 261.357 612.334 296.645 593.54C299.975 591.783 303.306 589.98 306.682 588.177C366.32 556.539 436.49 492.947 497.253 434.898C504.32 428.138 511.431 421.332 518.588 414.482C574.04 361.3 631.383 306.316 691.876 260.256C760.516 208.021 823.214 175.436 883.527 160.563C903.422 155.651 923.091 153.307 941.995 153.578C960.044 153.848 978.003 156.462 995.377 161.42C1027.42 170.569 1058.26 187.469 1089.63 213.114C1147.87 260.706 1199.36 332.366 1249.19 401.637C1294.42 464.508 1341.14 529.497 1393.31 577.496C1520.42 694.45 1683.85 688.681 1827.07 674.124C1917.58 664.929 2070.08 555.322 2217.53 449.365C2275.95 407.361 2331.13 367.745 2382.26 334.304L2383.21 335.791C2332.08 369.187 2276.94 408.848 2218.52 450.807C2070.89 556.899 1918.21 666.642 1827.2 675.881C1787.77 679.937 1744.3 683.768 1699.24 683.768Z" fill="url(#paint21_linear_323_2146)" fill-opacity="0.08"/>
<path d="M1651.57 708.241C1630.42 708.241 1609.09 707.204 1587.84 704.681C1546.93 699.858 1508.85 689.943 1474.69 675.206C1435.93 658.485 1400.65 634.869 1369.81 605.033C1317.29 554.241 1270.61 484.925 1225.51 417.907C1176.41 344.941 1125.59 269.495 1067.71 219.063C1002.98 162.637 935.649 143.888 861.878 161.645C725.633 194.456 603.116 316.818 495.003 424.803C490.097 429.715 485.191 434.583 480.33 439.45C421.052 498.536 352.772 564.742 292.504 603.005C289.038 605.214 285.572 607.422 282.151 609.585C246.279 632.48 212.431 654.113 174.173 665.02C154.774 670.564 135.87 669.662 117.911 662.271C101.707 655.646 85.6837 643.477 70.2903 626.126C38.8285 590.702 13.1278 537.475 -5.7313 495.11C-18.334 466.807 -30.7117 438.188 -42.7293 410.471C-102.412 272.74 -158.765 142.626 -244.598 32.3879C-318.64 -62.4821 -450.293 -146.31 -577.806 -70.0086C-695.282 0.2538 -734.485 68.0825 -776.029 139.922C-781.385 149.161 -786.921 158.761 -792.593 168.271C-831.706 233.891 -852.096 302.937 -873.655 376.038C-879.912 397.266 -886.393 419.259 -893.37 440.938L-895.08 440.397C-888.149 418.719 -881.667 396.77 -875.411 375.543C-853.806 302.351 -833.417 233.215 -794.168 167.369C-788.497 157.86 -782.961 148.305 -777.604 139.021C-735.97 67.0009 -696.632 -1.05321 -578.751 -71.541C-549.63 -88.9827 -518.708 -98.9429 -486.841 -101.106C-457.315 -103.134 -426.978 -98.5373 -396.686 -87.4052C-368.42 -76.9943 -340.469 -61.085 -313.733 -40.0378C-288.303 -20.0272 -264.583 3.99449 -243.248 31.3513C-204.09 81.6482 -168.712 138.705 -132.029 210.951C-99.6217 274.723 -71.2205 340.344 -41.1089 409.84C-29.0913 437.557 -16.7136 466.176 -4.1109 494.479C14.7032 536.754 40.3138 589.8 71.5956 625.044C103.778 661.279 137.13 673.809 173.633 663.398C211.621 652.536 245.378 630.993 281.116 608.188C284.537 605.98 288.003 603.771 291.468 601.608C351.602 563.435 419.791 497.319 478.979 438.278C483.84 433.411 488.746 428.544 493.653 423.631C549.15 368.196 606.582 310.869 667.57 262.87C736.841 208.382 800.214 174.715 861.383 160.023C881.547 155.156 901.441 152.992 920.571 153.533C938.8 154.029 956.893 157.048 974.402 162.457C1006.63 172.462 1037.55 190.58 1068.83 217.846C1126.9 268.459 1177.76 343.994 1226.95 417.051C1272.01 483.978 1318.64 553.204 1371.03 603.862C1494.13 722.888 1653.24 716.534 1806.81 691.926C1899.08 677.144 2058.37 555.097 2212.35 437.061C2272.53 390.911 2329.42 347.374 2382.08 310.192L2383.12 311.68C2330.46 348.816 2273.61 392.398 2213.43 438.504C2059.23 556.674 1899.8 678.856 1807.04 693.729C1759.78 701.165 1706.31 708.241 1651.57 708.241Z" fill="url(#paint22_linear_323_2146)" fill-opacity="0.08"/>
<path d="M1610.75 733.524C1595.67 733.524 1580.5 732.893 1565.38 731.451C1524.29 727.575 1486.07 718.11 1451.82 703.283C1413.11 686.517 1378 662.27 1347.4 631.262C1294.74 577.856 1248.33 504.394 1203.41 433.32C1154.89 356.568 1104.75 277.201 1046.96 223.704C982.324 163.898 914.539 143.392 839.733 160.968C701.688 193.463 578.766 321.369 470.292 434.221L462.145 442.694C397.241 510.162 334.228 574.25 277.47 616.255C274.275 618.598 271.079 620.987 267.928 623.33C231.245 650.552 196.633 676.286 157.159 689.987C137.13 696.928 117.64 697.063 99.0965 690.303C82.3978 684.219 65.9242 672.32 50.1258 654.879C17.8087 619.319 -8.25201 565.056 -27.3362 521.79C-43.4047 485.33 -59.023 448.238 -74.1013 412.363C-129.283 281.257 -181.405 157.408 -259.137 50.099C-333.088 -51.937 -455.424 -134.143 -577.041 -58.7424C-684.884 8.09485 -724.043 76.5545 -765.452 149.025C-769.998 156.957 -774.679 165.205 -779.45 173.318C-818.609 240.425 -841.114 310.778 -864.924 385.231C-871.585 406.053 -878.472 427.596 -885.673 448.824L-887.474 448.193C-880.272 426.965 -873.386 405.422 -866.724 384.646C-842.869 310.102 -820.364 239.659 -781.115 172.371C-776.344 164.214 -771.663 156.011 -767.117 148.079C-725.573 75.3828 -686.325 6.74279 -578.031 -60.3648C-549.585 -77.9868 -519.653 -87.8118 -489.047 -89.6146C-460.736 -91.2821 -431.794 -86.0541 -402.943 -74.1109C-376.207 -63.069 -349.741 -46.3484 -324.311 -24.3999C-300.411 -3.80337 -277.996 20.8944 -257.606 49.0174C-222.634 97.2862 -189.462 153.938 -156.154 222.262C-126.358 283.331 -98.9467 348.545 -72.3909 411.642C-57.3126 447.517 -41.6943 484.608 -25.6258 521.069C-6.58663 564.2 19.339 618.283 51.4761 653.617C84.5133 689.987 118.856 701.3 156.484 688.23C195.687 674.619 230.21 648.975 266.758 621.843C269.954 619.5 273.104 617.111 276.345 614.767C333.012 572.853 395.936 508.855 460.795 441.432L468.942 432.959C524.484 375.181 581.917 315.42 643.4 265.348C713.3 208.471 777.394 173.723 839.328 159.166C859.762 154.343 879.971 152.315 899.281 153.126C917.69 153.893 935.964 157.273 953.563 163.177C986.015 174.038 1016.98 193.418 1048.26 222.307C1106.24 275.939 1156.47 355.441 1205.03 432.283C1249.86 503.222 1296.27 576.594 1348.75 629.91C1473.61 756.599 1640.14 741.185 1786.56 709.412C1880.58 688.996 2046.63 554.42 2207.22 424.306C2269.2 374.054 2327.76 326.642 2381.95 285.764L2383.07 287.297C2328.88 328.129 2270.37 375.586 2208.39 425.793C2047.66 556.087 1881.44 690.798 1786.96 711.26C1737.23 722.076 1674.89 733.524 1610.75 733.524Z" fill="url(#paint23_linear_323_2146)" fill-opacity="0.08"/>
<path d="M1573.98 759.304C1485.8 759.304 1397.54 734.606 1325.03 657.493C1272.32 601.473 1226.19 523.909 1181.58 448.914C1133.65 368.331 1084.09 284.954 1026.34 228.437C961.754 165.206 893.474 142.941 817.588 160.383C677.697 192.517 554.415 326.237 445.627 444.227L437.975 452.52C379.057 516.428 318.114 582.499 262.437 629.506C259.736 631.759 257.081 634.012 254.425 636.311C216.752 668.22 181.149 698.371 140.145 715.001C127.902 719.959 116.245 722.257 105.128 722.257C37.2077 722.257 -10.5476 636.311 -48.896 548.517C-68.1602 504.394 -86.5692 459.235 -104.348 415.563C-155.299 290.452 -203.37 172.327 -273.63 67.9019C-301.941 25.8075 -348.616 -30.3934 -410.055 -58.922C-467.217 -85.4676 -523.164 -81.5917 -576.276 -47.3393C-674.622 15.9825 -713.826 85.4337 -755.325 158.986C-758.926 165.341 -762.617 171.921 -766.352 178.456C-805.646 247.276 -830.356 319.116 -856.507 395.147C-863.439 415.338 -870.64 436.205 -878.022 456.802L-879.867 456.126C-872.486 435.574 -865.284 414.707 -858.352 394.516C-832.157 318.35 -807.446 246.465 -768.063 177.464C-764.372 170.975 -760.636 164.394 -757.035 158.04C-715.401 84.2619 -676.063 14.5854 -577.356 -49.0519C-549.63 -66.8992 -520.689 -76.6791 -491.297 -78.0312C-464.247 -79.2931 -436.611 -73.4793 -409.2 -60.7698C-383.994 -49.0519 -358.969 -31.5201 -334.888 -8.71526C-312.519 12.4671 -291.364 37.886 -271.92 66.7301C-240.323 113.692 -210.121 168.406 -179.515 233.981C-152.194 292.57 -126.898 354.675 -102.458 414.752C-84.6788 458.424 -66.2698 503.583 -47.0507 547.66C-2.806 648.975 53.9514 747.811 139.47 713.108C180.204 696.568 215.672 666.552 253.21 634.733C255.865 632.48 258.566 630.182 261.222 627.928C316.809 581.011 377.707 514.985 436.58 451.123L444.231 442.83C499.773 382.618 557.161 320.333 619.094 268.143C689.625 208.697 754.439 172.822 817.183 158.4C837.932 153.623 858.367 151.775 877.946 152.857C896.58 153.893 915.034 157.679 932.768 164.034C965.445 175.797 996.547 196.393 1027.78 226.995C1085.71 283.692 1135.31 367.159 1183.34 447.878C1227.9 522.782 1273.94 600.256 1326.51 656.096C1453.04 790.627 1628.03 764.667 1766.35 726.989C1862.09 700.94 2034.92 553.79 2202.09 411.462C2265.82 357.199 2326.05 305.911 2381.81 261.428L2383.03 262.96C2327.31 307.443 2267.08 358.686 2203.35 412.949C2036.05 555.412 1863.03 702.697 1766.84 728.882C1707.12 745.197 1640.55 759.304 1573.98 759.304Z" fill="url(#paint24_linear_323_2146)" fill-opacity="0.08"/>
<path d="M1539.46 785.309C1533.11 785.309 1526.76 785.174 1520.42 784.859C1478.96 782.876 1440.48 774.313 1406.09 759.35C1367.43 742.539 1332.64 717.075 1302.66 683.679C1250 625.089 1204.22 543.515 1159.98 464.599C1112.58 380.14 1063.57 292.751 1005.91 233.125C941.365 166.423 872.545 142.356 795.534 159.618C653.798 191.391 527.455 334.305 425.913 449.14C416.911 459.326 407.819 469.647 398.997 479.697C348.586 536.98 296.465 596.2 247.494 642.666C245.514 644.559 243.533 646.452 241.508 648.345C204.375 683.634 165.982 720.14 123.177 739.88C99.4121 750.832 76.277 752.184 54.4472 743.801C30.1869 734.517 7.32205 713.695 -15.4529 680.209C-33.1868 654.114 -50.6506 620.718 -70.4099 575.063C-92.6448 523.684 -113.439 470.683 -133.559 419.35C-178.389 305.1 -224.749 186.975 -288.032 85.4344C-339.254 3.27374 -400.107 -48.9611 -459.385 -61.6255C-498.858 -70.0534 -537.882 -61.4903 -575.465 -36.2066C-664.494 23.8703 -704.013 94.9439 -745.827 170.209C-748.303 174.626 -750.778 179.088 -753.254 183.549C-792.817 254.398 -821.174 331.556 -848.585 406.145C-855.651 425.344 -862.943 445.174 -870.369 464.734L-872.26 464.013C-864.833 444.498 -857.542 424.623 -850.52 405.424C-823.064 330.745 -794.663 253.541 -755.054 182.558C-752.579 178.096 -750.103 173.679 -747.628 169.218C-726.518 131.224 -706.579 95.3496 -680.203 60.4212C-650.316 20.8506 -617.414 -10.3821 -576.725 -37.784C-538.692 -63.4282 -499.083 -72.0815 -459.07 -63.5184C-427.338 -56.713 -395.516 -39.1812 -364.504 -11.3737C-336.868 13.4593 -310.582 45.6836 -286.412 84.4428C-257.966 130.098 -230.51 182.918 -202.514 245.925C-177.533 302.171 -154.263 361.391 -131.803 418.719C-111.684 470.007 -90.8895 523.008 -68.6546 574.342C-39.6233 641.449 0.705584 721.176 55.0774 741.953C76.3671 750.111 98.962 748.804 122.232 738.077C164.766 718.472 203.025 682.102 240.023 646.903C242.003 645.01 243.984 643.117 246.009 641.224C294.89 594.803 344.671 538.242 397.377 478.39C406.199 468.385 415.336 458.019 424.293 447.833C473.219 392.489 534.117 323.623 597.446 268.82C667.571 208.157 732.16 171.786 794.994 157.68C816.058 152.947 836.808 151.235 856.567 152.632C875.426 153.939 894.06 158.085 911.929 164.981C944.876 177.645 976.068 199.504 1007.26 231.773C1065.14 291.579 1114.2 379.058 1161.64 463.653C1205.84 542.433 1251.57 623.918 1304.1 682.327C1430.89 823.393 1606.84 789.726 1745.96 744.657C1843.41 712.703 2023.18 552.889 2197.09 398.303C2262.54 340.164 2324.34 285.225 2381.54 237.136L2382.85 238.713C2325.64 286.757 2263.89 341.651 2198.44 399.835C2024.39 554.556 1844.44 714.506 1746.59 746.595C1694.29 763.586 1617.64 785.309 1539.46 785.309Z" fill="url(#paint25_linear_323_2146)" fill-opacity="0.08"/>
<path d="M1507.14 811.764C1504.08 811.764 1501.02 811.719 1497.96 811.674C1456.28 810.637 1417.7 802.479 1383.27 787.426C1344.65 770.571 1310 744.476 1280.29 709.953C1227.72 648.84 1182.35 563.299 1138.46 480.597C1091.61 392.217 1043.13 300.817 985.475 238.081C920.931 167.819 851.526 141.995 773.389 159.121C629.943 190.489 501.53 341.965 407.774 452.519C392.066 471.043 376.222 489.972 360.919 508.315C316.629 561.361 274.77 611.432 232.461 656.006L228.95 659.701C190.647 700.083 151.038 741.862 106.164 764.937C81.3631 777.692 57.2378 779.99 34.4628 771.743C9.75243 762.819 -13.5176 742.042 -36.6076 708.195C-54.7466 681.65 -72.3455 647.893 -92.0148 601.878C-117.355 543.018 -140.535 481.544 -162.905 422.098C-203.819 313.527 -246.083 201.305 -302.571 103.325C-337.948 41.9416 -395.246 -34.4953 -467.262 -50.3144C-503.45 -58.2466 -539.592 -49.6384 -574.745 -24.7153C-654.683 31.8913 -696.722 108.959 -737.366 183.548L-740.156 188.641C-780.26 262.193 -811.497 342.011 -841.653 419.169C-848.495 436.7 -855.606 454.818 -862.718 472.665L-864.653 471.899C-857.542 454.052 -850.475 435.934 -843.589 418.447C-813.387 341.199 -782.15 261.337 -741.957 187.649L-739.166 182.557C-718.776 145.149 -697.712 106.48 -672.146 70.8759C-643.475 30.9448 -612.013 -0.918918 -575.96 -26.473C-540.313 -51.7567 -503.585 -60.5 -466.767 -52.4327C-436.16 -45.7174 -405.463 -27.4195 -375.532 2.01055C-349.381 27.7449 -324.175 61.4564 -300.68 102.199C-244.103 200.359 -201.794 312.671 -160.88 421.287C-138.51 480.688 -115.33 542.116 -90.0344 600.976C-70.4101 646.857 -52.9012 680.523 -34.8523 706.933C-11.9873 740.375 10.9227 760.926 35.228 769.669C57.4628 777.692 81.003 775.438 105.263 762.954C149.823 740.059 189.297 698.415 227.465 658.169L230.976 654.473C273.195 609.945 315.054 559.874 359.344 506.873C374.647 488.529 390.49 469.555 406.199 451.032C462.011 385.186 517.103 321.684 576.876 268.683C646.191 207.209 710.33 170.658 772.984 156.957C794.409 152.27 815.383 150.738 835.412 152.405C854.497 153.983 873.311 158.535 891.315 165.926C924.532 179.537 955.859 202.612 987.051 236.594C1044.89 299.555 1093.45 391.045 1140.35 479.561C1184.15 562.172 1229.47 647.623 1281.91 708.556C1410.64 858.14 1596.89 810.907 1725.8 762.323C1824.91 724.69 2011.56 552.167 2192.05 385.321C2259.25 323.217 2322.72 264.537 2381.45 212.888L2382.85 214.465C2324.11 266.069 2260.65 324.749 2193.49 386.854C2012.87 553.834 1826.08 726.538 1726.56 764.261C1685.92 779.584 1649.55 790.807 1615.39 798.558C1576.9 807.347 1540.58 811.764 1507.14 811.764Z" fill="url(#paint26_linear_323_2146)" fill-opacity="0.08"/>
<path d="M1476.4 838.445C1476.08 838.445 1475.81 838.445 1475.54 838.445C1433.68 838.355 1394.97 830.603 1360.45 815.505C1321.83 798.604 1287.36 771.878 1257.87 736.184C1205.44 672.591 1160.56 583.175 1117.13 496.732C1070.77 404.476 1022.83 309.021 965.175 243.13C900.586 169.307 830.641 141.635 751.289 158.4C617.25 187.199 499.144 321.054 389.635 455.675C367.895 482.401 346.065 510.028 325.001 536.754C289.848 581.327 253.435 627.432 217.427 669.166L216.662 670.068C177.144 715.858 136.275 763.225 89.1495 789.816C63.4039 804.328 38.3334 807.618 14.6582 799.551C-10.5022 790.987 -34.1324 770.211 -57.6276 736.003C-76.0816 709.097 -93.8604 674.935 -113.575 628.469C-141.391 563.119 -166.281 494.164 -190.317 427.462C-227.765 323.533 -266.518 216.089 -317.064 120.993C-339.794 78.2227 -363.784 43.069 -388.27 16.6135C-416.806 -14.1685 -445.972 -33.0524 -474.959 -39.4973C-507.996 -46.8435 -541.303 -38.055 -573.98 -13.4474C-645.276 40.3198 -688.71 121.804 -727.013 193.734C-768.422 271.478 -803.215 355.532 -836.882 436.836C-842.824 451.168 -848.945 465.996 -855.066 480.598L-857.092 479.742C-851.015 465.139 -844.849 450.312 -838.908 435.98C-805.24 354.63 -770.403 270.532 -728.949 192.698C-707.029 151.55 -686.955 114.638 -662.964 79.71C-635.373 39.4635 -606.702 8.411 -575.33 -15.2051C-542.113 -40.2184 -508.221 -49.142 -474.553 -41.6606C-445.117 -35.1256 -415.546 -16.0164 -386.739 15.0812C-362.119 41.6718 -338.039 76.9608 -315.219 119.911C-264.583 215.142 -225.829 322.676 -188.336 426.695C-164.301 493.397 -139.455 562.308 -111.639 627.613C-91.9701 673.944 -74.2811 708.016 -55.8721 734.742C-32.6921 768.543 -9.37705 789.05 15.2883 797.432C38.3784 805.319 62.8637 802.074 88.0242 787.878C134.834 761.467 175.568 714.235 214.952 668.58L215.717 667.679C251.68 625.99 288.048 579.885 323.2 535.357C344.265 508.631 366.095 481.003 387.835 454.233C437.255 393.48 495.048 324.029 556.081 268.594C624.631 206.354 688.275 169.577 750.704 156.192C772.443 151.595 793.778 150.243 814.032 152.226C833.342 154.119 852.381 159.076 870.52 166.963C904.007 181.521 935.469 205.903 966.706 241.597C1024.54 307.714 1072.57 403.26 1118.97 495.651C1162.36 582.003 1207.19 671.284 1259.45 734.696C1314.95 802.029 1386.6 835.606 1475.9 835.606C1542.38 835.606 1618.63 816.992 1705.36 779.855C1806.18 736.544 1999.64 551.266 2186.74 372.072C2255.7 306.046 2320.83 243.67 2381.09 188.506L2382.58 190.129C2322.31 245.248 2257.23 307.623 2188.27 373.649C2001.03 552.978 1807.4 738.392 1706.22 781.883C1617.64 819.967 1542.38 838.445 1476.4 838.445Z" fill="url(#paint27_linear_323_2146)" fill-opacity="0.08"/>
<path d="M1446.74 865.261C1407.13 865.261 1370.44 857.96 1337.63 843.538C1299.06 826.592 1264.67 799.28 1235.5 762.369C1183.29 696.343 1138.82 603.05 1095.88 512.868C1050.02 416.6 1002.58 316.998 944.877 247.907C880.243 170.479 809.667 141.004 729.145 157.77C593.935 185.893 478.305 321.956 371.497 458.965C344.716 493.308 318.025 529.228 292.279 563.931C263.113 603.231 232.956 643.838 202.44 682.417C164.587 730.235 121.737 784.498 72.1815 814.784C45.4907 831.099 19.475 835.381 -5.14532 827.449C-18.3782 823.167 -31.566 815.28 -44.2588 803.923C-55.7813 793.602 -67.3489 780.126 -78.6013 763.856C-97.1454 736.995 -115.644 701.436 -135.134 655.15C-165.38 583.401 -191.756 506.648 -217.232 432.42C-251.349 333.178 -286.592 230.556 -331.511 138.661C-353.611 93.5015 -376.476 56.6802 -399.476 29.3233C-426.887 -3.26148 -454.883 -22.9115 -482.699 -29.0409C-512.721 -35.666 -543.148 -26.6072 -573.214 -2.17982C-631.187 45.0073 -676.242 126.312 -713.915 198.828C-758.835 285.315 -799.478 378.607 -838.817 468.835C-841.698 475.415 -844.533 481.996 -847.414 488.576L-849.484 487.674C-846.604 481.094 -843.768 474.514 -840.887 467.934C-801.549 377.661 -760.905 284.368 -715.94 197.791C-678.177 125.095 -632.987 43.52 -574.7 -3.93752C-544.093 -28.8156 -512.991 -38.0096 -482.294 -31.2493C-453.983 -25.0298 -425.582 -5.10931 -397.856 27.8811C-374.721 55.3732 -351.766 92.3297 -329.576 137.669C-284.566 229.7 -249.279 332.412 -215.161 431.699C-189.686 505.882 -163.31 582.589 -133.108 654.249C-106.012 718.607 -63.163 806.356 -4.51523 825.285C19.43 832.992 44.8156 828.846 70.9663 812.846C120.162 782.74 162.921 728.703 200.639 681.02C231.111 642.486 261.268 601.879 290.434 562.579C316.225 527.831 342.87 491.911 369.696 457.568C417.542 396.229 473.759 325.967 535.512 268.549C603.297 205.453 666.491 168.541 728.694 155.606C750.794 151.009 772.354 149.838 792.878 152.091C812.413 154.254 831.632 159.572 849.996 167.955C883.753 183.414 915.35 209.103 946.587 246.51C1004.47 315.826 1051.95 415.519 1097.91 511.921C1140.85 602.014 1185.23 695.171 1237.26 761.017C1334.12 883.514 1480.63 895.457 1685.24 797.658C1787.78 748.623 1988.11 550.545 2181.84 358.957C2252.55 289.055 2319.3 223.029 2381.09 164.395L2382.62 166.017C2320.87 224.607 2254.12 290.633 2183.41 360.535C1989.55 552.258 1789.08 750.471 1686.23 799.686C1596.71 842.502 1520.46 863.954 1453.13 865.261C1450.97 865.261 1448.85 865.261 1446.74 865.261Z" fill="url(#paint28_linear_323_2146)" fill-opacity="0.08"/>
</g>
<rect width="130.354" height="876.536" transform="matrix(-0.866025 0.5 0.5 0.866025 -145.731 299.323)" fill="url(#paint29_linear_323_2146)"/>
<rect width="176.547" height="876.536" transform="matrix(-0.866025 0.5 0.5 0.866025 -73.2637 -66.0965)" fill="url(#paint30_linear_323_2146)"/>
</g>
<defs>
<linearGradient id="paint0_linear_323_2146" x1="450" y1="0" x2="450" y2="1920" gradientUnits="userSpaceOnUse">
<stop stop-color="#2987FF"/>
<stop offset="1" stop-color="#0755F0"/>
</linearGradient>
<linearGradient id="paint1_linear_323_2146" x1="2079.16" y1="173.443" x2="2079.16" y2="1168.73" gradientUnits="userSpaceOnUse">
<stop stop-color="#002876"/>
<stop offset="1" stop-color="#033AA7" stop-opacity="0"/>
</linearGradient>
<linearGradient id="paint2_linear_323_2146" x1="1733.08" y1="-317.615" x2="1733.08" y2="564.839" gradientUnits="userSpaceOnUse">
<stop stop-color="white"/>
<stop offset="1" stop-color="white" stop-opacity="0"/>
</linearGradient>
<linearGradient id="paint3_linear_323_2146" x1="658.679" y1="-342.819" x2="658.68" y2="772.239" gradientUnits="userSpaceOnUse">
<stop stop-color="white"/>
<stop offset="1" stop-color="white" stop-opacity="0"/>
</linearGradient>
<linearGradient id="paint4_linear_323_2146" x1="664.624" y1="-329.156" x2="664.624" y2="747.991" gradientUnits="userSpaceOnUse">
<stop stop-color="white"/>
<stop offset="1" stop-color="white" stop-opacity="0"/>
</linearGradient>
<linearGradient id="paint5_linear_323_2146" x1="670.474" y1="-315.696" x2="670.475" y2="723.745" gradientUnits="userSpaceOnUse">
<stop stop-color="white"/>
<stop offset="1" stop-color="white" stop-opacity="0"/>
</linearGradient>
<linearGradient id="paint6_linear_323_2146" x1="676.279" y1="-302.339" x2="676.279" y2="699.498" gradientUnits="userSpaceOnUse">
<stop stop-color="white"/>
<stop offset="1" stop-color="white" stop-opacity="0"/>
</linearGradient>
<linearGradient id="paint7_linear_323_2146" x1="682.062" y1="-289.118" x2="682.062" y2="675.296" gradientUnits="userSpaceOnUse">
<stop stop-color="white"/>
<stop offset="1" stop-color="white" stop-opacity="0"/>
</linearGradient>
<linearGradient id="paint8_linear_323_2146" x1="687.621" y1="-275.811" x2="687.621" y2="651.048" gradientUnits="userSpaceOnUse">
<stop stop-color="white"/>
<stop offset="1" stop-color="white" stop-opacity="0"/>
</linearGradient>
<linearGradient id="paint9_linear_323_2146" x1="693.196" y1="-262.797" x2="693.196" y2="626.847" gradientUnits="userSpaceOnUse">
<stop stop-color="white"/>
<stop offset="1" stop-color="white" stop-opacity="0"/>
</linearGradient>
<linearGradient id="paint10_linear_323_2146" x1="698.494" y1="-250.032" x2="698.494" y2="602.645" gradientUnits="userSpaceOnUse">
<stop stop-color="white"/>
<stop offset="1" stop-color="white" stop-opacity="0"/>
</linearGradient>
<linearGradient id="paint11_linear_323_2146" x1="702.724" y1="-237.13" x2="702.724" y2="578.398" gradientUnits="userSpaceOnUse">
<stop stop-color="white"/>
<stop offset="1" stop-color="white" stop-opacity="0"/>
</linearGradient>
<linearGradient id="paint12_linear_323_2146" x1="706.481" y1="-224.244" x2="706.482" y2="554.195" gradientUnits="userSpaceOnUse">
<stop stop-color="white"/>
<stop offset="1" stop-color="white" stop-opacity="0"/>
</linearGradient>
<linearGradient id="paint13_linear_323_2146" x1="710.217" y1="-211.684" x2="710.217" y2="555.233" gradientUnits="userSpaceOnUse">
<stop stop-color="white"/>
<stop offset="1" stop-color="white" stop-opacity="0"/>
</linearGradient>
<linearGradient id="paint14_linear_323_2146" x1="713.976" y1="-199.233" x2="713.976" y2="564.651" gradientUnits="userSpaceOnUse">
<stop stop-color="white"/>
<stop offset="1" stop-color="white" stop-opacity="0"/>
</linearGradient>
<linearGradient id="paint15_linear_323_2146" x1="717.644" y1="-186.755" x2="717.644" y2="577" gradientUnits="userSpaceOnUse">
<stop stop-color="white"/>
<stop offset="1" stop-color="white" stop-opacity="0"/>
</linearGradient>
<linearGradient id="paint16_linear_323_2146" x1="721.537" y1="-174.388" x2="721.537" y2="591.287" gradientUnits="userSpaceOnUse">
<stop stop-color="white"/>
<stop offset="1" stop-color="white" stop-opacity="0"/>
</linearGradient>
<linearGradient id="paint17_linear_323_2146" x1="725.137" y1="-161.975" x2="725.137" y2="606.835" gradientUnits="userSpaceOnUse">
<stop stop-color="white"/>
<stop offset="1" stop-color="white" stop-opacity="0"/>
</linearGradient>
<linearGradient id="paint18_linear_323_2146" x1="729.054" y1="-149.771" x2="729.054" y2="623.377" gradientUnits="userSpaceOnUse">
<stop stop-color="white"/>
<stop offset="1" stop-color="white" stop-opacity="0"/>
</linearGradient>
<linearGradient id="paint19_linear_323_2146" x1="732.789" y1="-137.557" x2="732.789" y2="640.592" gradientUnits="userSpaceOnUse">
<stop stop-color="white"/>
<stop offset="1" stop-color="white" stop-opacity="0"/>
</linearGradient>
<linearGradient id="paint20_linear_323_2146" x1="736.525" y1="-125.475" x2="736.525" y2="660.513" gradientUnits="userSpaceOnUse">
<stop stop-color="white"/>
<stop offset="1" stop-color="white" stop-opacity="0"/>
</linearGradient>
<linearGradient id="paint21_linear_323_2146" x1="740.284" y1="-113.56" x2="740.284" y2="683.768" gradientUnits="userSpaceOnUse">
<stop stop-color="white"/>
<stop offset="1" stop-color="white" stop-opacity="0"/>
</linearGradient>
<linearGradient id="paint22_linear_323_2146" x1="744.02" y1="-101.572" x2="744.02" y2="708.241" gradientUnits="userSpaceOnUse">
<stop stop-color="white"/>
<stop offset="1" stop-color="white" stop-opacity="0"/>
</linearGradient>
<linearGradient id="paint23_linear_323_2146" x1="747.8" y1="-89.9174" x2="747.8" y2="733.524" gradientUnits="userSpaceOnUse">
<stop stop-color="white"/>
<stop offset="1" stop-color="white" stop-opacity="0"/>
</linearGradient>
<linearGradient id="paint24_linear_323_2146" x1="751.581" y1="-78.2002" x2="751.581" y2="759.304" gradientUnits="userSpaceOnUse">
<stop stop-color="white"/>
<stop offset="1" stop-color="white" stop-opacity="0"/>
</linearGradient>
<linearGradient id="paint25_linear_323_2146" x1="755.295" y1="-66.7163" x2="755.295" y2="785.309" gradientUnits="userSpaceOnUse">
<stop stop-color="white"/>
<stop offset="1" stop-color="white" stop-opacity="0"/>
</linearGradient>
<linearGradient id="paint26_linear_323_2146" x1="759.098" y1="-55.3401" x2="759.098" y2="811.764" gradientUnits="userSpaceOnUse">
<stop stop-color="white"/>
<stop offset="1" stop-color="white" stop-opacity="0"/>
</linearGradient>
<linearGradient id="paint27_linear_323_2146" x1="762.744" y1="-44.2233" x2="762.744" y2="838.445" gradientUnits="userSpaceOnUse">
<stop stop-color="white"/>
<stop offset="1" stop-color="white" stop-opacity="0"/>
</linearGradient>
<linearGradient id="paint28_linear_323_2146" x1="766.57" y1="-33.4004" x2="766.57" y2="865.261" gradientUnits="userSpaceOnUse">
<stop stop-color="white"/>
<stop offset="1" stop-color="white" stop-opacity="0"/>
</linearGradient>
<linearGradient id="paint29_linear_323_2146" x1="65.177" y1="0" x2="65.177" y2="876.536" gradientUnits="userSpaceOnUse">
<stop stop-color="#121833"/>
<stop offset="1" stop-color="#121833" stop-opacity="0"/>
</linearGradient>
<linearGradient id="paint30_linear_323_2146" x1="88.2736" y1="0" x2="88.2736" y2="876.536" gradientUnits="userSpaceOnUse">
<stop stop-color="#121833"/>
<stop offset="1" stop-color="#121833" stop-opacity="0"/>
</linearGradient>
</defs>
</svg>
