<svg xmlns="http://www.w3.org/2000/svg" width="120" height="19" viewBox="0 0 120 19">
    <g fill="#16325B">
        <path d="M42.051 11.151c3.989 0 5.983-2.77 5.983-5.54 0-2.769-1.994-5.428-6.204-5.428C38.728.072 27.316.072 27.316.072v18.724h3.545V3.063h11.19c1.994 0 2.991.665 2.991 2.549 0 1.55-.997 2.437-2.88 2.437h-9.306l11.079 10.636h4.321l-7.977-7.756c.775.222 1.662.222 1.772.222zM51.69.072H55.125V18.796H51.69zM98.667 2.953L98.667.072 91.355.072 87.92.072 81.826.072 79.832 2.953 87.92 2.953 87.92 18.796 91.355 18.796 91.355 2.953zM73.073 7.827h-8.752c-1.773 0-2.77-.775-2.77-2.326 0-1.773 1.219-2.548 2.77-2.548h11.965l1.551-2.88H64.21c-3.103 0-5.65 2.325-5.65 5.539 0 2.88 2.437 5.207 5.76 5.207h8.753c1.995 0 3.103.887 3.103 2.548 0 1.44-1.22 2.438-3.103 2.438H60.997l-1.772 2.991h14.292c3.656 0 5.65-2.658 5.65-5.65 0-2.77-2.327-5.319-6.094-5.319zM11.14 1.29C10.365 2.51.06 18.797.06 18.797h3.657l3.435-5.54h7.312l1.884-2.991H9.035l3.989-6.426 9.306 14.846h3.657S15.793 2.62 14.907 1.18c-.997-1.44-2.77-1.33-3.767.11zM116.283 18.796h3.656S109.746 2.731 108.86 1.291c-.996-1.662-2.77-1.551-3.766-.111-.776 1.218-11.08 17.505-11.08 17.505h3.656l3.435-5.54h7.423l1.883-2.99h-7.312l3.989-6.427 9.196 15.068z"/>
    </g>
</svg>
