<svg xmlns="http://www.w3.org/2000/svg" width="103" height="62" viewBox="0 0 103 62">
    <g fill="none" fill-rule="evenodd">
        <path fill="#252F3E" fill-rule="nonzero" d="M29.175 22.34c0 1.264.136 2.29.376 3.04.273.752.615 1.572 1.093 2.46.17.273.239.547.239.786 0 .341-.205.683-.65 1.025l-2.151 1.434c-.308.205-.615.308-.889.308-.341 0-.683-.171-1.025-.478-.478-.513-.888-1.06-1.23-1.606-.341-.58-.683-1.23-1.058-2.015-2.665 3.142-6.013 4.714-10.044 4.714-2.87 0-5.159-.82-6.833-2.46-1.674-1.64-2.528-3.826-2.528-6.558 0-2.904 1.025-5.261 3.11-7.037 2.083-1.777 4.85-2.665 8.369-2.665 1.161 0 2.357.103 3.621.273 1.264.171 2.562.445 3.929.752v-2.494c0-2.596-.547-4.406-1.606-5.465-1.093-1.06-2.938-1.572-5.568-1.572-1.196 0-2.426.137-3.69.444-1.264.308-2.494.684-3.69 1.162-.546.239-.956.376-1.195.444-.24.068-.41.102-.547.102-.478 0-.717-.341-.717-1.059V4.202c0-.547.068-.957.239-1.196.17-.24.478-.478.957-.717 1.195-.615 2.63-1.128 4.304-1.537 1.674-.445 3.45-.65 5.33-.65 4.065 0 7.037.923 8.95 2.767 1.879 1.845 2.835 4.646 2.835 8.404V22.34h.069zm-13.87 5.193c1.127 0 2.289-.205 3.519-.615 1.23-.41 2.323-1.162 3.245-2.186.547-.65.957-1.367 1.162-2.187.204-.82.341-1.81.341-2.971v-1.435c-.99-.24-2.05-.444-3.143-.58-1.093-.138-2.152-.206-3.211-.206-2.289 0-3.963.444-5.09 1.367-1.128.922-1.674 2.22-1.674 3.928 0 1.605.41 2.801 1.264 3.62.82.855 2.015 1.265 3.587 1.265zm27.432 3.689c-.615 0-1.025-.102-1.298-.342-.273-.205-.512-.683-.717-1.332L32.694 3.143c-.205-.683-.308-1.128-.308-1.367 0-.546.273-.854.82-.854h3.348c.649 0 1.093.103 1.332.342.274.205.479.683.683 1.332l5.74 22.614 5.33-22.614c.17-.683.375-1.127.648-1.332.274-.205.752-.342 1.367-.342h2.733c.649 0 1.093.103 1.366.342.274.205.513.683.65 1.332L61.8 25.483l5.91-22.887c.205-.683.444-1.127.683-1.332.274-.205.718-.342 1.333-.342h3.177c.546 0 .854.274.854.854 0 .171-.034.342-.068.547-.035.205-.103.478-.24.854l-8.233 26.405c-.205.684-.444 1.128-.717 1.333-.273.205-.718.341-1.298.341h-2.938c-.65 0-1.094-.102-1.367-.341-.273-.24-.512-.684-.649-1.367L52.952 7.515 47.69 29.514c-.17.683-.376 1.127-.65 1.366-.273.24-.75.342-1.366.342h-2.938zm43.9.922c-1.777 0-3.554-.205-5.262-.615-1.708-.41-3.04-.854-3.929-1.366-.546-.307-.922-.649-1.059-.956-.136-.308-.205-.65-.205-.957v-1.742c0-.717.274-1.059.786-1.059.205 0 .41.034.615.103.205.068.513.204.854.341 1.162.513 2.426.922 3.758 1.196 1.367.273 2.699.41 4.065.41 2.153 0 3.827-.376 4.988-1.128 1.162-.751 1.777-1.844 1.777-3.245 0-.956-.308-1.742-.923-2.391s-1.776-1.23-3.45-1.776l-4.954-1.538c-2.494-.785-4.338-1.947-5.466-3.484-1.127-1.503-1.708-3.177-1.708-4.953 0-1.435.308-2.699.922-3.792.615-1.093 1.435-2.05 2.46-2.8 1.025-.786 2.187-1.367 3.553-1.777 1.367-.41 2.801-.58 4.305-.58.751 0 1.537.033 2.288.136.786.102 1.504.239 2.221.376.683.17 1.332.341 1.947.546.615.205 1.093.41 1.435.615.478.273.82.547 1.025.854.205.273.307.649.307 1.127v1.606c0 .717-.273 1.093-.785 1.093-.274 0-.718-.137-1.299-.41-1.947-.888-4.133-1.332-6.559-1.332-1.947 0-3.484.307-4.543.956-1.06.65-1.606 1.64-1.606 3.04 0 .957.342 1.777 1.025 2.426.683.649 1.947 1.298 3.758 1.879l4.85 1.537c2.46.785 4.237 1.879 5.296 3.28 1.06 1.4 1.572 3.005 1.572 4.781 0 1.47-.308 2.802-.889 3.963-.615 1.161-1.435 2.186-2.494 3.006-1.059.854-2.323 1.469-3.792 1.913-1.537.478-3.143.717-4.885.717z"/>
        <g fill="#F90">
            <path d="M93.093 10.487c-11.24 8.3-27.57 12.707-41.61 12.707-19.678 0-37.408-7.276-50.8-19.368C-.376 2.869.581 1.57 1.845 2.323c14.485 8.403 32.352 13.493 50.834 13.493 12.469 0 26.168-2.596 38.774-7.925 1.879-.854 3.485 1.23 1.64 2.596z" transform="translate(0 38.259)"/>
            <path d="M97.773 5.158c-1.435-1.845-9.497-.888-13.152-.444-1.094.137-1.264-.82-.274-1.537 6.423-4.51 16.979-3.211 18.209-1.708 1.23 1.537-.342 12.092-6.354 17.148-.923.786-1.811.376-1.401-.649 1.366-3.382 4.407-11 2.972-12.81z" transform="translate(0 38.259)"/>
        </g>
    </g>
</svg>
