<svg xmlns="http://www.w3.org/2000/svg" width="132" height="125" viewBox="0 0 132 125">
  <g id="Group_2386" data-name="Group 2386" transform="translate(-2435 -4785)">
    <rect id="Rectangle_512" data-name="Rectangle 512" width="132" height="125" transform="translate(2435 4785)" fill="none"/>
    <g id="Group_2385" data-name="Group 2385" transform="translate(2443 4799)">
      <path id="Path_14804" data-name="Path 14804" d="M940.213,449.836a19.25,19.25,0,0,1,6.706-2.46c4.31-10.5,11.982-20.3,20.76-25.367,12.047-6.95,22.031-2.654,24.042,9.416a27,27,0,0,1,6.682-5.673c8.353-4.822,15.123-.92,15.123,8.709s-6.77,21.352-15.119,26.168l-5.745,3.318.542.311c.53.307.693,1.134.4,2.109a4.147,4.147,0,0,1-1.718,2.314l-4.624,2.671v19.373a4.109,4.109,0,0,1-1.86,3.222l-13.967,8.063c-1.029.6-1.86.117-1.86-1.071V481.565l-4.624,2.671c-.747.433-1.432.3-1.718-.335a3.034,3.034,0,0,1,.407-2.571l.542-.943-23.969,13.84c-10.629,6.141-19.247,1.176-19.247-11.082S929.587,455.973,940.213,449.836Z" transform="translate(-920.969 -418.677)" fill="#f2f5fc"/>
      <g id="Group_2027" data-name="Group 2027" transform="translate(20.428 11.828)">
        <path id="Path_14805" data-name="Path 14805" d="M907.271,469.6a19.269,19.269,0,0,1,6.708-2.461c4.308-10.5,11.98-20.3,20.757-25.366,12.05-6.95,22.032-2.654,24.044,9.415a27.008,27.008,0,0,1,6.682-5.674c8.353-4.821,15.124-.92,15.124,8.71s-6.77,21.351-15.119,26.168l-58.191,33.6c-10.63,6.14-19.247,1.176-19.247-11.083S896.647,475.735,907.271,469.6Z" transform="translate(-886.954 -437.367)" fill="#fff"/>
        <path id="Path_14806" data-name="Path 14806" d="M937.3,514.17c-.751.433-1.432.3-1.718-.338a3.045,3.045,0,0,1,.4-2.571l13.465-23.307c.726-1.255,1.91-1.936,2.633-1.52l13.465,7.757c.533.307.692,1.138.407,2.1a4.128,4.128,0,0,1-1.721,2.318l-4.62,2.667,0,8.618-17.685,10.213,0-8.615Z" transform="translate(-903.416 -453.988)" fill="#f2f5fc"/>
        <g id="Group_2025" data-name="Group 2025">
          <path id="Path_14807" data-name="Path 14807" d="M898.1,517.137a18.562,18.562,0,0,0,9.146-2.786l58.19-33.6c8.633-4.981,15.656-17.138,15.656-27.1,0-5.054-1.761-8.855-4.959-10.7s-7.387-1.473-11.776,1.06a26.372,26.372,0,0,0-5.524,4.354c-1.274-4.881-3.994-8.494-7.8-10.289-4.825-2.279-11.006-1.5-17.406,2.193-8.548,4.937-16.36,14.379-20.985,25.337a20.823,20.823,0,0,0-6.479,2.489h0c-10.907,6.3-19.78,21.657-19.78,34.238,0,6.325,2.19,11.072,6.167,13.367A10.95,10.95,0,0,0,898.1,517.137Zm73.549-73.191a6.725,6.725,0,0,1,3.408.868c2.505,1.447,3.885,4.586,3.885,8.84,0,9.277-6.541,20.6-14.582,25.237l-58.19,33.6c-4.8,2.772-9.254,3.253-12.543,1.353s-5.093-5.981-5.093-11.505c0-11.9,8.392-26.42,18.7-32.377a18.265,18.265,0,0,1,6.331-2.328,1.075,1.075,0,0,0,.834-.655c4.418-10.767,12.008-20.055,20.3-24.844,5.771-3.329,11.245-4.079,15.413-2.111,3.666,1.731,6.163,5.557,7.032,10.773a1.076,1.076,0,0,0,1.872.529,25.757,25.757,0,0,1,6.41-5.45A12.7,12.7,0,0,1,971.647,443.946Z" transform="translate(-886.383 -436.796)" fill="#005bea"/>
        </g>
        <g id="Group_2026" data-name="Group 2026" transform="translate(42.123 37.701)">
          <path id="Path_14808" data-name="Path 14808" d="M918.876,521.146l13.464-23.308c.723-1.255,1.907-1.936,2.633-1.516l13.465,7.753c.529.306.692,1.133.4,2.108a4.146,4.146,0,0,1-1.718,2.314l-4.625,2.671v19.374a4.106,4.106,0,0,1-1.86,3.22l-13.969,8.064c-1.029.6-1.86.117-1.86-1.071V521.381l-4.624,2.671c-.749.432-1.432.3-1.718-.336A3.027,3.027,0,0,1,918.876,521.146Z" transform="translate(-917.252 -495.122)" fill="#1b69ff"/>
          <path id="Path_14809" data-name="Path 14809" d="M925.262,542.584a2.763,2.763,0,0,0,1.377-.4l13.968-8.063a5.158,5.158,0,0,0,2.4-4.152V511.216l4.087-2.361a5.182,5.182,0,0,0,2.21-2.938c.435-1.466.084-2.779-.894-3.346l-13.467-7.755a2.13,2.13,0,0,0-1.65-.181,4.343,4.343,0,0,0-2.452,2.093l-13.463,23.306a4.024,4.024,0,0,0-.454,3.556,2.021,2.021,0,0,0,1.223,1.116,2.491,2.491,0,0,0,2.009-.3l3.011-1.739v17.51a2.357,2.357,0,0,0,1.082,2.137A2.019,2.019,0,0,0,925.262,542.584Zm8.651-45.884h.009l13.41,7.733a2.1,2.1,0,0,1-.091.87,3.1,3.1,0,0,1-1.225,1.69l-4.623,2.67a1.074,1.074,0,0,0-.537.931v19.374a3.072,3.072,0,0,1-1.325,2.29l-13.967,8.063a.15.15,0,1,1-.248-.14V520.809a1.075,1.075,0,0,0-1.613-.93l-4.624,2.671a.926.926,0,0,1-.217.1,2.264,2.264,0,0,1,.373-1.528l0,0L932.7,497.8A2.068,2.068,0,0,1,933.913,496.7Z" transform="translate(-916.683 -494.549)" fill="#005bea"/>
        </g>
      </g>
    </g>
  </g>
</svg>
