<svg xmlns="http://www.w3.org/2000/svg" width="110" height="45" viewBox="0 0 110 45">
    <g fill="none">
        <g fill="#F0424D">
            <path d="M36.857 39.797c-1.594-.849-2.505-1.805-2.707-2.844-.194-1.005.254-2.123 1.373-3.42 2.672-3.065 4.144-7.004 4.144-11.091 0-9.32-7.582-16.903-16.903-16.903h-.074-.077c-9.321 0-16.903 7.583-16.903 16.903 0 4.087 1.472 8.026 4.146 11.093 1.126 1.305 1.564 2.378 1.377 3.374-.194 1.037-1.107 2.007-2.715 2.886-2.467-2.056-4.648-4.802-5.994-7.557-.73-1.495-1.291-3.074-1.67-4.693-.39-1.664-.585-3.38-.585-5.103 0-3.014.59-5.942 1.755-8.699 1.127-2.66 2.737-5.05 4.79-7.1 2.05-2.053 4.44-3.663 7.1-4.789C16.672.69 19.598.098 22.614.098h.151c3.016 0 5.942.59 8.7 1.756 2.659 1.126 5.049 2.736 7.1 4.788 2.051 2.051 3.663 4.441 4.789 7.101 1.165 2.757 1.756 5.685 1.756 8.699 0 1.722-.197 3.44-.586 5.103-.378 1.619-.94 3.198-1.67 4.693-1.346 2.756-3.526 5.502-5.996 7.559" transform="translate(.607 .454)"/>
            <path d="M28.613 43.977c-.26-.163-1.147-.823-2.012-2.021-.83-1.145-1.806-3.044-1.755-5.588.032-1.53.34-3.02.914-4.428.571-1.395 1.39-2.673 2.433-3.798l.006-.008.23-.267c.394-.456.8-.928 1.125-1.48.4-.678.691-1.39.864-2.12.267-1.125.282-2.32.044-3.454-.22-1.043-.663-2.053-1.282-2.924-.6-.843-1.38-1.58-2.26-2.127-.915-.573-1.967-.955-3.04-1.107-.362-.052-.736-.08-1.112-.08h-.16c-.375 0-.75.028-1.111.08-1.071.152-2.123.534-3.04 1.107-.879.548-1.661 1.284-2.26 2.127-.62.871-1.06 1.881-1.282 2.924-.238 1.133-.223 2.329.045 3.454.172.73.463 1.442.863 2.12.326.552.732 1.024 1.126 1.48l.23.267.005.008c1.045 1.125 1.863 2.403 2.434 3.798.574 1.407.882 2.898.913 4.428.051 2.544-.925 4.443-1.754 5.588-.866 1.198-1.752 1.858-2.012 2.021-.435-.116-.87-.247-1.296-.39-1.284-.43-2.534-.981-3.723-1.64 2.043-1.1 3.341-3.245 3.341-5.584 0-1.547-.6-3.031-1.787-4.409-.017-.021-.035-.038-.05-.052-.001-.003-.005-.005-.008-.01l-.345-.378c-.341-.375-.664-.728-.952-1.115-1.076-1.437-1.864-3.122-2.28-4.872-.452-1.903-.478-3.921-.074-5.837.372-1.766 1.123-3.479 2.17-4.953 1.012-1.425 2.332-2.668 3.816-3.593 1.555-.97 3.337-1.619 5.153-1.877.615-.089 1.245-.132 1.874-.132H22.773c.629 0 1.26.043 1.875.132 1.817.258 3.598.907 5.152 1.877 1.484.925 2.805 2.168 3.817 3.593 1.046 1.474 1.798 3.187 2.17 4.953.403 1.916.377 3.934-.074 5.837-.417 1.75-1.204 3.435-2.281 4.872-.289.387-.61.74-.952 1.115l-.344.379-.01.01c-.014.013-.034.03-.05.054-1.202 1.438-1.787 2.88-1.787 4.406 0 2.339 1.299 4.484 3.344 5.583-1.19.66-2.44 1.21-3.724 1.641-.426.143-.862.274-1.296.39" transform="translate(.607 .454)"/>
            <path d="M22.688 27.066c-2.432 0-4.412-1.979-4.412-4.411 0-2.433 1.98-4.412 4.412-4.412s4.41 1.979 4.41 4.412c0 2.432-1.978 4.411-4.41 4.411" transform="translate(.607 .454)"/>
        </g>
        <g fill="#333C46">
            <path d="M12.238 14.706c0 3.101-.278 3.959-1.025 4.707-.443.443-1.136.747-2.438.747H4.207c-1.467 0-2.352-.25-2.962-.858C.277 18.332 0 17.17 0 12.685 0 8.2.277 7.037 1.245 6.068c.61-.609 1.495-.857 2.962-.857H8.75c1.355 0 1.964.276 2.435.747.72.72.997 1.716.997 4.512H9.385C9.33 8.532 9.22 8.2 9.052 8.034c-.166-.166-.387-.25-1.024-.25h-3.46c-.858 0-1.08.084-1.273.278-.277.276-.416.802-.416 4.623 0 3.82.139 4.347.416 4.623.193.194.415.277 1.272.277h3.488c.61 0 .888-.055 1.08-.249.194-.194.306-.748.306-2.63h2.797M17.11 11.328h6.81c0-2.519-.166-3.073-.414-3.322-.167-.166-.416-.276-1.273-.276h-3.434c-.858 0-1.08.083-1.302.304-.249.25-.358.747-.387 3.294zm0 2.299c.029 2.934.193 3.515.416 3.737.222.221.415.277 1.273.277h3.876c.637 0 .831-.11.998-.277.192-.194.247-.526.304-1.855h2.795c-.055 2.325-.277 3.156-1.024 3.904-.47.47-1.107.747-2.436.747h-4.845c-1.467 0-2.353-.25-2.962-.858-.97-.97-1.245-2.132-1.245-6.617 0-4.485.275-5.648 1.245-6.617.609-.609 1.495-.857 2.962-.857h4.097c1.468 0 2.409.276 2.964.83.967.969 1.244 2.132 1.244 6.506v.748c0 .22-.082.332-.332.332h-9.33M38.042 17.253c-.249.25-.61.36-1.522.36h-2.16c-.887 0-1.657-.25-2.714-.788l-.193-.097v-8.14c1.107-.554 1.882-.83 2.797-.83h2.27c.912 0 1.273.11 1.522.359.415.415.526 1.217.526 4.568 0 3.351-.111 4.153-.526 4.568zM37.21 5.181h-2.02c-1.246 0-1.855.278-3.737 1.829v-1.8h-2.88v18.255h2.88V18.39c1.882 1.522 2.49 1.799 3.738 1.799h2.02c1.607 0 2.409-.277 3.046-.913.802-.803 1.19-1.939 1.19-6.59s-.388-5.787-1.19-6.589c-.637-.637-1.44-.915-3.047-.915M55.291 6.04c-.554-.553-1.273-.859-2.575-.859h-2.353c-1.246 0-1.854.278-3.738 1.829V1.31c-.893-.49-1.826-.85-2.858-1.071-.008 0-.013.005-.021.007V20.16h2.879V8.587c.21-.105.408-.197.598-.282.808-.363 1.459-.548 2.198-.548h1.939c.968 0 1.245.111 1.55.416.277.277.387.719.387 1.44V20.16h2.88V9.418c0-2.076-.305-2.796-.886-3.377" transform="translate(52.706 10.639)"/>
        </g>
    </g>
</svg>
