<svg xmlns="http://www.w3.org/2000/svg" width="129" height="125" viewBox="0 0 129 125">
  <g id="Group_2506" data-name="Group 2506" transform="translate(-47 -4766)">
    <rect id="Rectangle_542" data-name="Rectangle 542" width="129" height="125" transform="translate(47 4766)" fill="none"/>
    <g id="Group_2505" data-name="Group 2505" transform="translate(-1949.184 3524.135)">
      <g id="Group_2443" data-name="Group 2443" transform="translate(2020.184 1253.865)">
        <path id="Path_15318" data-name="Path 15318" d="M2089.7,1260.517c-7.522-4.343-11.877-6.891-21.693-4.15-33.9,9.47-59.828,69.546-39.032,89.662,2.288,2.22,5.425,3.767,8.221,5.375-17.679-11.221-10.281-40.566-2.375-56.185,8.19-16.176,26.97-38.135,46.331-37.152A18.981,18.981,0,0,1,2089.7,1260.517Z" transform="translate(-2020.811 -1254.501)" fill="#f2f5fc" fill-rule="evenodd"/>
        <path id="Path_15319" data-name="Path 15319" d="M2074.677,1255.322a26.586,26.586,0,0,0-7.1,1.107c-21.3,5.951-38.543,31.856-43.956,53.2-3.9,15.4-2,28.25,5.227,35.233a16.377,16.377,0,0,0,1.769,1.478c-10.311-13.274-4.527-37.361,2.933-52.1,7.917-15.65,27.056-38.568,47.011-37.547.377.025.743.05,1.1.087a17.42,17.42,0,0,0-6.978-1.465Zm-38.11,96.175a.7.7,0,0,1-.365-.1c-.513-.3-1.045-.594-1.571-.89a32.032,32.032,0,0,1-6.792-4.6c-7.615-7.361-9.662-20.709-5.63-36.638,5.518-21.743,23.147-48.143,44.971-54.243,10.089-2.814,14.622-.185,22.169,4.169a.128.128,0,0,1,.037.025c.012.006.019.006.025.012h0a.772.772,0,0,1,.253.965.683.683,0,0,1-.934.322,18.361,18.361,0,0,0-8.246-2.363c-19.312-.984-37.894,21.433-45.638,36.749-8.307,16.392-14.592,44.642,2.109,55.245a.725.725,0,0,1,.229.989A.713.713,0,0,1,2036.567,1351.5Z" transform="translate(-2020.184 -1253.865)" fill="#1b69ff" fill-rule="evenodd"/>
        <path id="Path_15320" data-name="Path 15320" d="M2083.569,1260.555a18.383,18.383,0,0,1,9.316,2.388c6.773,3.916,10.5,12.229,10.5,23.413-.012,23.4-16.5,51.953-36.761,63.639-9.681,5.579-18.731,6.495-25.5,2.585s-10.5-12.229-10.5-23.413c.006-23.4,16.5-51.948,36.762-63.639,5.728-3.3,11.245-4.973,16.194-4.973Zm-33.149,95.866a19.732,19.732,0,0,1-10.034-2.586c-7.243-4.181-11.233-12.947-11.227-24.668.006-23.865,16.825-52.974,37.491-64.895,10.145-5.851,19.714-6.773,26.958-2.591s11.233,12.953,11.227,24.675c-.006,23.864-16.832,52.981-37.492,64.894C2061.387,1354.689,2055.628,1356.421,2050.42,1356.421Z" transform="translate(-2024.363 -1256.302)" fill="#1b69ff" fill-rule="evenodd"/>
      </g>
      <g id="Group_2444" data-name="Group 2444" transform="translate(2032.367 1264.57)">
        <path id="Path_15321" data-name="Path 15321" d="M2088.6,1283.828a1.726,1.726,0,0,0,.267-.328,36.6,36.6,0,0,1,7.5-6.062c6.616-3.687,11.945-3.676,15.9.248a13.873,13.873,0,0,1,3.6,7.782,9.513,9.513,0,0,1-.133,3.13,47.037,47.037,0,0,1-5.728,16.861,3.058,3.058,0,0,1-.266.435.327.327,0,0,0-.134.137c.089-.377.134-.672.223-1.048,1.376-6.585,1.243-12.112-.4-16.689a7.617,7.617,0,0,0-1.909-2.912c-.622-.571-1.2-1.169-1.821-1.74-3.685-3.4-8.525-3.768-14.431-1.171-.888.453-1.732.93-2.665,1.357" transform="translate(-2064.222 -1274.274)" fill="#1b69ff"/>
        <path id="Path_15322" data-name="Path 15322" d="M2088.675,1304.6c-3.686-5.535-9.014-7.2-16.429-4.135-7.371,3.04-13.81,9.5-19.538,18.933.089-.27.133-.511.222-.728a50.234,50.234,0,0,1,13.455-20.765c5.95-5.351,11.544-7.592,16.651-6.8a2.579,2.579,0,0,1,1.2.581c2.931,2.536,4.352,6.664,4.4,12.248a1.05,1.05,0,0,1,.045.667" transform="translate(-2047.51 -1281.836)" fill="#1b69ff"/>
        <path id="Path_15323" data-name="Path 15323" d="M2066.442,1340.922c-6.483,8.305-10.7,17.321-12.034,26.978-1.332,9.6.71,16.065,5.684,19.72-.222.033-.355.063-.444.012-5.817-.184-9.458-3.716-10.657-10.87-1.021-6.037.177-12.991,3.33-20.588a8.624,8.624,0,0,1,.755-1.437A42.537,42.537,0,0,1,2064,1342.46c.8-.61,1.6-1.114,2.442-1.7Z" transform="translate(-2045.614 -1305.029)" fill="#1b69ff"/>
        <path id="Path_15324" data-name="Path 15324" d="M2117.767,1358.337a49.722,49.722,0,0,1-3.419,8.086,46.934,46.934,0,0,1-12.744,15.562q-7.66,5.787-13.988,4.481a1.36,1.36,0,0,1-.666-.329c-2.487-1.961-4-5.071-4.485-9.36-.089-.959-.133-1.893-.177-2.88a4.179,4.179,0,0,1,.089-1.018c3.553,5.565,8.837,7.26,16.119,4.277s13.721-9.5,19.271-18.819" transform="translate(-2061.282 -1313.211)" fill="#1b69ff"/>
        <path id="Path_15325" data-name="Path 15325" d="M2073.756,1318.437c-7.149,1.938-13.9,7.044-19.982,16.005-6.083,8.909-9.192,18.081-9.68,27.366a1.961,1.961,0,0,1-.177-.369c-3.463-11.019,3.02-29.424,14.121-40.1.444-.44.888-.826,1.332-1.266a9.444,9.444,0,0,1,3.552-2.077c4.085-1.611,7.549-1.548,10.435.161.134.076.222.181.4.283" transform="translate(-2042.981 -1293.884)" fill="#1b69ff"/>
        <path id="Path_15326" data-name="Path 15326" d="M2089.5,1391.013c-.844.8-1.688,1.6-2.576,2.37-8.881,7.625-17.761,8.088-21.98,1.125a15.676,15.676,0,0,1-2.132-6.139,9.766,9.766,0,0,1,.089-2.247,46.293,46.293,0,0,1,5.817-17.505c.089-.162.222-.353.355-.6-2.132,9.946-1.421,17.568,2.8,22.286,4.219,4.664,10.213,4.63,17.54.6.045.026.045.079.089.1" transform="translate(-2052.198 -1317.72)" fill="#1b69ff"/>
        <path id="Path_15327" data-name="Path 15327" d="M2120.344,1320.649c6.483-8.3,10.657-17.293,11.99-26.9s-.711-16.066-5.507-19.832c.311-.036.622-.018.888-.025,5.55.512,9.014,4.1,10.08,11.073.933,6.039-.222,12.859-3.419,20.43a10.144,10.144,0,0,1-.711,1.356,43.348,43.348,0,0,1-10.435,11.97c-.977.722-1.909,1.363-2.886,2.031a.06.06,0,0,0,0-.107" transform="translate(-2079.001 -1273.896)" fill="#1b69ff"/>
        <path id="Path_15328" data-name="Path 15328" d="M2131.687,1300.838a14.828,14.828,0,0,1,.888,3.609c.622,5.487-.222,11.523-2.886,18.278a50.319,50.319,0,0,1-13.81,20.081,8.622,8.622,0,0,1-2.487,1.459c-4.44,1.942-8.17,1.886-11.278-.057-.045-.025-.089-.051-.133-.183,7.149-1.938,13.854-7.016,19.938-15.924a53.718,53.718,0,0,0,9.769-27.261" transform="translate(-2070.452 -1286.44)" fill="#1b69ff"/>
        <path id="Path_15329" data-name="Path 15329" d="M2106.43,1315.631l-.267-.153a11.216,11.216,0,0,0-3.6-.887.9.9,0,0,1-.621-.3,10.02,10.02,0,0,0-6.794-3.577c-.089,0-.178-.048-.267-.046-.044.028-.044-.025-.133-.13,5.328-1.058,9.191.624,11.678,5.1" transform="translate(-2067.086 -1290.813)" fill="#1b69ff"/>
        <path id="Path_15330" data-name="Path 15330" d="M2064.507,1364.478c.843-5.5,6.527-16.83,10.257-20.515-.089.216-.178.379-.222.514a62.583,62.583,0,0,0-2.664,6.06,5.063,5.063,0,0,1-.488.949,59.835,59.835,0,0,0-6.661,12.532,1.2,1.2,0,0,0-.222.46" transform="translate(-2053.004 -1306.519)" fill="#1b69ff"/>
        <path id="Path_15331" data-name="Path 15331" d="M2070.406,1335.755c3.286-4.795,12.211-11.058,15.32-10.878-1.022.8-2.043,1.607-3.108,2.492-.444.387-.933.8-1.377,1.241a4.119,4.119,0,0,1-1.376.92,29.94,29.94,0,0,0-9.014,5.891,3.269,3.269,0,0,0-.444.333" transform="translate(-2055.75 -1297.631)" fill="#1b69ff"/>
        <path id="Path_15332" data-name="Path 15332" d="M2078.118,1385.422c-2.442-4.5-2.753-10.45-1.021-17.9.089.745.134,1.573.222,2.318.133,1.038.356,1.967.533,2.924a3.208,3.208,0,0,1,.044.934,30.254,30.254,0,0,0,.222,11.563v.16" transform="translate(-2058.356 -1317.488)" fill="#1b69ff"/>
        <path id="Path_15333" data-name="Path 15333" d="M2097.495,1386.419c-5.24,1-9.1-.626-11.634-5.017.089.051.222.021.311.125a12.02,12.02,0,0,0,3.552.862c.221.02.444.041.533.252a10.113,10.113,0,0,0,6.971,3.679c.044.025.134.023.178.048.044-.081.044-.028.089.051" transform="translate(-2062.946 -1323.95)" fill="#1b69ff"/>
        <path id="Path_15334" data-name="Path 15334" d="M2118.931,1339.8c.223-.461.489-.949.667-1.381.71-1.676,1.421-3.354,2.176-5.058a5.024,5.024,0,0,1,.488-.949,58.068,58.068,0,0,0,6.528-12.181,1.156,1.156,0,0,1,.177-.379c0-.053.044-.082.177-.219a54.039,54.039,0,0,1-10.124,20.271c0-.107-.045-.132-.089-.1" transform="translate(-2078.343 -1295.192)" fill="#1b69ff"/>
        <path id="Path_15335" data-name="Path 15335" d="M2123.591,1318.464a29.415,29.415,0,0,0-.844-5.454,2.6,2.6,0,0,1,0-.588,32.365,32.365,0,0,0,.355-7.652c-.089-1.28-.355-2.448-.533-3.672a1.375,1.375,0,0,1,0-.427,17,17,0,0,1,2,7.826,31.749,31.749,0,0,1-.977,9.968" transform="translate(-2080.028 -1286.362)" fill="#1b69ff"/>
        <path id="Path_15336" data-name="Path 15336" d="M2118.668,1356.357c-4.974,6.018-10.08,9.609-15.275,10.957v-.16l1.6-1.167c1.066-.885,2.087-1.742,3.108-2.653a4.4,4.4,0,0,1,.888-.612,30.794,30.794,0,0,0,9.458-6.172.858.858,0,0,1,.222-.193" transform="translate(-2071.109 -1312.289)" fill="#1b69ff"/>
      </g>
    </g>
  </g>
</svg>
