<svg xmlns="http://www.w3.org/2000/svg" width="120" height="40" viewBox="0 0 120 40">
    <g fill="none">
        <path fill="#404041" d="M118.767 32.483c-.567 0-1.017-.45-1.017-1.016 0-.55.45-1.017 1.017-1.017.55 0 1.016.45 1.016 1.017 0 .55-.466 1.016-1.016 1.016m0-1.833c-.45 0-.817.367-.817.817 0 .45.367.816.817.816.45 0 .816-.366.816-.816 0-.45-.366-.817-.816-.817m.516 1.35h-.233l-.2-.383h-.267V32h-.216v-1.117h.533c.233 0 .383.15.383.367 0 .167-.1.283-.233.333l.233.417zm-.4-.583c.084 0 .167-.05.167-.167 0-.133-.067-.167-.167-.167h-.333v.334h.333zM12.85 30.35L15.45 30.35 15.45 37.433 19.967 37.433 19.967 39.7 12.85 39.7zM22.65 35.05v-.033c0-2.684 2.167-4.867 5.05-4.867s5.017 2.15 5.017 4.833v.034c0 2.683-2.167 4.866-5.05 4.866-2.884 0-5.017-2.15-5.017-4.833m7.433 0v-.033c0-1.35-.966-2.517-2.4-2.517-1.416 0-2.366 1.15-2.366 2.5v.033c0 1.35.966 2.517 2.383 2.517 1.433 0 2.383-1.15 2.383-2.5M35.9 35.6v-5.25h2.633v5.2c0 1.35.684 1.983 1.717 1.983s1.717-.616 1.717-1.916V30.35H44.6v5.183c0 3.017-1.717 4.334-4.383 4.334-2.65 0-4.317-1.334-4.317-4.267M48.567 30.35h3.6c3.333 0 5.283 1.917 5.283 4.617V35c0 2.7-1.967 4.7-5.333 4.7h-3.55v-9.35zm3.65 7.05c1.55 0 2.583-.85 2.583-2.367V35c0-1.5-1.033-2.367-2.583-2.367h-1.05v4.75h1.05v.017zM61.217 30.35L68.7 30.35 68.7 32.617 63.8 32.617 63.8 34.217 68.233 34.217 68.233 36.367 63.8 36.367 63.8 39.7 61.217 39.7zM72.3 30.35L74.883 30.35 74.883 37.433 79.417 37.433 79.417 39.7 72.3 39.7zM86.183 30.283h2.5l3.984 9.417h-2.784l-.683-1.667h-3.6l-.667 1.667h-2.716l3.966-9.417zm2.284 5.734l-1.034-2.65-1.05 2.65h2.084zM96 30.35h4.417c1.433 0 2.416.367 3.05 1.017.55.533.833 1.25.833 2.183v.033c0 1.434-.767 2.384-1.917 2.867l2.234 3.267h-3l-1.884-2.834H98.6v2.834H96V30.35zm4.3 4.483c.883 0 1.383-.433 1.383-1.1V33.7c0-.733-.533-1.1-1.4-1.1h-1.7v2.233h1.717zM108.033 30.35L115.55 30.35 115.55 32.55 110.6 32.55 110.6 33.967 115.083 33.967 115.083 36.017 110.6 36.017 110.6 37.5 115.617 37.5 115.617 39.7 108.033 39.7zM7.183 36.15c-.366.817-1.133 1.4-2.133 1.4-1.417 0-2.383-1.183-2.383-2.517V35c0-1.35.95-2.5 2.366-2.5 1.067 0 1.884.65 2.217 1.55h2.733c-.433-2.233-2.4-3.883-4.933-3.883-2.883 0-5.05 2.183-5.05 4.866v.034C0 37.75 2.133 39.9 5.017 39.9c2.466 0 4.4-1.6 4.9-3.733l-2.734-.017z"/>
        <g>
            <path fill="#FFF" d="M52.15 15.433L45 11.333 43.767 10.8 14.517 11 14.517 25.85 52.15 25.85z" transform="translate(60.333)"/>
            <path fill="#F38020" d="M39.133 24.483c.35-1.2.217-2.3-.366-3.116-.534-.75-1.434-1.184-2.517-1.234l-20.517-.266c-.133 0-.25-.067-.316-.167-.067-.1-.084-.233-.05-.367.066-.2.266-.35.483-.366l20.7-.267c2.45-.117 5.117-2.1 6.05-4.533l1.183-3.084c.05-.133.067-.266.034-.4C42.483 4.65 37.1.15 30.667.15 24.733.15 19.7 3.983 17.9 9.3c-1.167-.867-2.65-1.333-4.25-1.183-2.85.283-5.133 2.566-5.417 5.416-.066.734-.016 1.45.15 2.117-4.65.133-8.366 3.933-8.366 8.617 0 .416.033.833.083 1.25.033.2.2.35.4.35h37.867c.216 0 .416-.15.483-.367l.283-1.017z" transform="translate(60.333)"/>
            <path fill="#FAAE40" d="M45.667 11.3c-.184 0-.384 0-.567.017-.133 0-.25.1-.3.233l-.8 2.783c-.35 1.2-.217 2.3.367 3.117.533.75 1.433 1.183 2.516 1.233l4.367.267c.133 0 .25.067.317.167.066.1.083.25.05.366-.067.2-.267.35-.484.367l-4.55.267c-2.466.116-5.116 2.1-6.05 4.533l-.333.85c-.067.167.05.333.233.333h15.634c.183 0 .35-.116.4-.3.266-.966.416-1.983.416-3.033 0-6.167-5.033-11.2-11.216-11.2" transform="translate(60.333)"/>
        </g>
    </g>
</svg>
