<svg xmlns="http://www.w3.org/2000/svg" width="59" height="65" viewBox="0 0 59 65">
  <g id="Group_3306" data-name="Group 3306" transform="translate(5485 -1475)">
    <rect id="Rectangle_764" data-name="Rectangle 764" width="59" height="65" transform="translate(-5485 1475)" fill="none"/>
    <g id="Group_3302" data-name="Group 3302" transform="translate(-5502.965 1478.997)">
      <path id="Path_16065" data-name="Path 16065" d="M67.276,20.7l-27.61,27.61a3.2,3.2,0,0,1-4.518,0L18.9,32.067a3.2,3.2,0,0,1,0-4.518L46.511-.061a3.2,3.2,0,0,1,4.518,0L67.276,16.186A3.194,3.194,0,0,1,67.276,20.7Z" transform="translate(0 0)" fill="#8cbafa"/>
      <path id="Path_16066" data-name="Path 16066" d="M182.888,131.8l-2.027-2.028a3.035,3.035,0,0,1-.248,4.271L153,161.651a3.035,3.035,0,0,1-4.271.248l2.028,2.028a3.2,3.2,0,0,0,4.518,0l27.61-27.61A3.194,3.194,0,0,0,182.888,131.8Z" transform="translate(-115.612 -115.612)" fill="#5692d8"/>
      <path id="Path_16067" data-name="Path 16067" d="M65.228,158.087a.868.868,0,0,1-.614-1.481l13.524-13.524a.867.867,0,0,1,1.227,1.227L65.841,157.833A.866.866,0,0,1,65.228,158.087Z" transform="translate(-41.018 -127.156)" fill="#252d4c"/>
      <path id="Path_16068" data-name="Path 16068" d="M102.312,195.171a.868.868,0,0,1-.614-1.481l13.524-13.524a.867.867,0,1,1,1.227,1.227l-13.524,13.524A.865.865,0,0,1,102.312,195.171Z" transform="translate(-73.804 -159.943)" fill="#252d4c"/>
      <path id="Path_16069" data-name="Path 16069" d="M233.652,55.291,230.947,58a2.724,2.724,0,0,0,3.852,3.851l2.705-2.705a2.723,2.723,0,0,0-3.851-3.851Z" transform="translate(-187.593 -49.059)" fill="#ffcd34"/>
      <path id="Path_16070" data-name="Path 16070" d="M143.7,256.608H104.656a3.2,3.2,0,0,0-3.195,3.195V282.78a3.2,3.2,0,0,0,3.195,3.195H143.7a3.2,3.2,0,0,0,3.195-3.195V259.8A3.194,3.194,0,0,0,143.7,256.608Z" transform="translate(-73.819 -227.75)" fill="#ffcd34"/>
      <path id="Path_16071" data-name="Path 16071" d="M444.126,256.608h-2.86a3.2,3.2,0,0,1,3.195,3.195V282.78a3.2,3.2,0,0,1-3.195,3.195h2.86a3.2,3.2,0,0,0,3.195-3.195V259.8A3.194,3.194,0,0,0,444.126,256.608Z" transform="translate(-374.242 -227.75)" fill="#e69012"/>
      <path id="Path_16072" data-name="Path 16072" d="M101.461,318.892H146.9v5.52H101.461Z" transform="translate(-73.819 -282.815)" fill="#575b7a"/>
      <path id="Path_16073" data-name="Path 16073" d="M468.833,318.892h2.86v5.52h-2.86Z" transform="translate(-398.614 -282.815)" fill="#252d4c"/>
      <path id="Path_16074" data-name="Path 16074" d="M397.153,438.991v3.4a.476.476,0,0,0,.477.477h5.415a.476.476,0,0,0,.477-.477v-3.4a.476.476,0,0,0-.477-.477H397.63A.476.476,0,0,0,397.153,438.991Z" transform="translate(-335.242 -388.574)" fill="#e9e9ea"/>
      <path id="Path_16075" data-name="Path 16075" d="M256.272,438.991v3.4a.477.477,0,0,0,.477.477H268.2a.476.476,0,0,0,.477-.477v-3.4a.476.476,0,0,0-.477-.477H256.749A.477.477,0,0,0,256.272,438.991Z" transform="translate(-210.688 -388.574)" fill="#e9e9ea"/>
      <path id="Path_16076" data-name="Path 16076" d="M165.84,470.365h-5.706a.868.868,0,1,1,0-1.735h5.706a.868.868,0,1,1,0,1.735Z" transform="translate(-124.925 -415.2)" fill="#252d4c"/>
    </g>
  </g>
</svg>
