<svg xmlns="http://www.w3.org/2000/svg" width="34" height="39" viewBox="0 0 34 39">
    <g fill="none" fill-rule="evenodd">
        <path fill="#136DA9" fill-rule="nonzero" d="M11.276 6.326C4.43 9.234.121 14.936.121 22.264c0 9.364 7.591 16.956 16.956 16.956 9.364 0 16.956-7.592 16.956-16.956 0-11.259-10.461-15.735-10.461-15.735s-2.285-.949-3.563-1.8c0 0-1.614-.987-4.427-4.618 0 0 .064 4.126-4.306 6.215"/>
        <path fill="#F0F0F0" fill-rule="nonzero" d="M15.38 35.938c-.595-.414-.454-1.732 1.16-.79 0 0 3.436 2.523 8.877-.505.423-.235.942.595-.403 1.357 0 0-5.498 2.813-9.634-.062z"/>
        <path stroke="#FFFDFF" stroke-width=".5" d="M15.38 35.938c-.595-.414-.454-1.732 1.16-.79 0 0 3.436 2.523 8.877-.505.423-.235.942.595-.403 1.357 0 0-5.498 2.813-9.634-.062h0z"/>
        <path fill="#F0F0F0" fill-rule="nonzero" d="M22.39 31.752c2.002.234 1.314 1.196 1.85 1.344 1.093.303.622-.89.622-.89-.807-1.614-2.202-1.514-2.202-1.514-2.186-.336-3.817 1.749-3.817 1.749-.403.89.162.937.37.84 1.06-.487 1.704-1.702 3.178-1.53z"/>
        <path stroke="#FFFDFF" stroke-width=".5" d="M22.39 31.752c2.002.234 1.314 1.196 1.85 1.344 1.093.303.622-.89.622-.89-.807-1.614-2.202-1.514-2.202-1.514-2.186-.336-3.817 1.749-3.817 1.749-.403.89.162.937.37.84 1.06-.487 1.704-1.702 3.178-1.53h0z"/>
        <path fill="#008ECE" fill-rule="nonzero" d="M2.34 30.79s6.08 5.03 20.875-6.176c0 0 7.43-4.665 7.207-12.663 0 0-2.405-3.456-6.462-5.238-.578-.254-5.648-3.02-8.386-6.49 0 0-.496 10.065-13.388 14.039 0 0-3.248 4.79-1.477 12.578 0 0 1.133 3.157 1.631 3.95"/>
        <path fill="#F0F0F0" fill-rule="nonzero" d="M11.984 32.66s-5.044.134-4.438-5.246c0 0 1.053-6.053 8.137-4.707 0 0 1.547.336 4.438 2.555 0 0 1.908 1.471 2.96 1.443 0 0 .815.078 2.51-.995 0 0 3.457-2.668 4.666-2.589.03.002 2.44-.263 2.44 3.62 0 0 .045 4.282-3.183 5.717 0 0-.852.291-1.771-.673 0 0-2.645-3.004-3.946-3.497 0 0-.75-.294-1.748.067 0 0-.65.068-3.317 1.839 0 0-4.484 2.802-6.748 2.466z"/>
        <path stroke="#FFFDFF" stroke-width=".5" d="M11.984 32.66s-5.044.134-4.438-5.246c0 0 1.053-6.053 8.137-4.707 0 0 1.547.336 4.438 2.555 0 0 1.908 1.471 2.96 1.443 0 0 .815.078 2.51-.995 0 0 3.457-2.668 4.666-2.589.03.002 2.44-.263 2.44 3.62 0 0 .045 4.282-3.183 5.717 0 0-.852.291-1.771-.673 0 0-2.645-3.004-3.946-3.497 0 0-.75-.294-1.748.067 0 0-.65.068-3.317 1.839 0 0-4.484 2.802-6.748 2.466h0z"/>
        <path fill="#008ECE" fill-rule="nonzero" d="M14.652 13.359c3.265-4.677.922-13.27.922-13.27-.288 4.662-4.222 6.2-4.222 6.2-7.043 3.04-9.166 7.838-9.166 7.838 1.51 2.14 5.516 9.185 12.466-.768"/>
        <path fill="#A0D8F1" fill-rule="nonzero" d="M15.574.088s.422 3.923-1.707 5.2c0 0-3.415 1.59-4.458 2.112 0 0-4.385 2.647-5.831 5.135 0 0-3.094 4.14 1.177 3.16 0 0 7.722-2.18 10.86-8.758 0 0 .185-.555-.403-1.127 0 0 2.354-1.776.362-5.722"/>
        <path fill="#F0F0F0" fill-rule="nonzero" d="M15.574.088s.176 2.68-2.048 4.899c0 0-.668.94-4.117 2.413 0 0-3.948 2.058-5.718 4.913 0 0-2.624 3.165.974 2.317 0 0 7.288-2.687 9.96-7.62 0 0 .36-.518-.19-1.052 0 0 2.616-2.042 1.139-5.87"/>
    </g>
</svg>
