<svg xmlns="http://www.w3.org/2000/svg" width="90" height="59" viewBox="0 0 90 59">
    <g fill="#0071C5">
        <path d="M26.564 24.798v14.317h-4.635V21.12l9.568.01c4.064 0 5.449 2.817 5.449 5.377v12.608h-4.627V26.531c0-1.073-.564-1.733-1.926-1.733h-3.83zm31.515-.215c-1.584 0-2.81.801-3.322 1.888-.304.653-.408 1.153-.444 1.952h7.13c-.091-1.952-.991-3.84-3.364-3.84m-3.766 6.942c0 2.331 1.474 4.047 4.105 4.047 2.047 0 3.064-.558 4.248-1.716l2.863 2.688c-1.833 1.78-3.757 2.86-7.145 2.86-4.437 0-8.683-2.38-8.683-9.312 0-5.924 3.707-9.277 8.579-9.277 4.937 0 7.79 3.926 7.79 9.069v1.641H54.313m-8.524 7.568c-3.776 0-5.378-2.585-5.378-5.137v-17.74h4.628v4.904h3.488v3.678H45.04v8.872c0 1.046.502 1.626 1.606 1.626h1.882v3.797H45.79m-27.984-20.46H13.14v-4.359h4.666v4.359zm.012 20.671c-3.495-.33-4.683-2.414-4.683-4.82l.005-13.364h4.678v18.184zm55.618-.384c-3.488-.33-4.67-2.412-4.67-4.814V13.654h4.67V38.92zm16.327-22.31c-4.233-20.292-44.29-21.577-70.108-6.12v1.706C45.446-.84 82.027-.762 85.36 17.927c1.115 6.18-2.427 12.624-8.751 16.327v4.845c7.612-2.738 15.42-11.619 13.153-22.49M42.829 52.112c-17.82 1.62-36.388-.924-38.986-14.616-1.272-6.75 1.855-13.905 6.003-18.35V16.77C2.378 23.21-1.674 31.362.66 40.994c2.978 12.352 18.914 19.352 43.239 17.028 9.624-.924 22.22-3.967 30.978-8.693v-6.715c-7.946 4.653-21.096 8.5-32.047 9.498"/>
        <path d="M78.833 15.012c0-.223-.132-.294-.434-.294h-.292v.63c.042 0 .254.008.292.008.302 0 .434-.1.434-.307v-.037zm.455 1.562h-.345c-.032 0-.059-.019-.072-.045l-.472-.786c-.009-.016-.05-.035-.065-.035h-.212v.78c0 .041-.03.086-.085.086h-.313c-.04 0-.078-.045-.078-.086v-1.973c0-.114.045-.162.143-.177.11-.014.41-.024.572-.024.575 0 .922.167.922.698v.036c0 .329-.166.502-.423.587l.489.814c.003.016.014.039.014.058 0 .032-.02.067-.075.067m-.82-2.616c-.852 0-1.54.691-1.54 1.523 0 .833.688 1.514 1.54 1.514.846 0 1.541-.68 1.541-1.514 0-.832-.695-1.523-1.542-1.523m0 3.35c-1.034 0-1.859-.82-1.859-1.827 0-1.005.825-1.827 1.86-1.827 1.022 0 1.863.822 1.863 1.827 0 1.007-.84 1.827-1.864 1.827"/>
    </g>
</svg>
