<svg xmlns="http://www.w3.org/2000/svg" width="100" height="53" viewBox="0 0 100 53">
    <g fill="none">
        <ellipse cx="50" cy="26.528" fill="#8993BE" rx="50" ry="26.528"/>
        <path fill="#232531" d="M32.191 13.962c5.48.349 8.22 3.141 8.22 8.028 0 8.378-6.507 13.264-12.33 12.915h-6.163l-1.37 7.33h-6.507l5.48-28.273h12.67zm-2.739 5.236H25L23.288 29.67h4.11c3.081-.35 5.821-1.397 6.163-7.33 0-2.095-1.712-3.142-4.109-3.142zm48.63-5.236c5.48.349 8.22 3.141 8.22 8.028 0 8.378-6.507 13.264-12.33 12.915h-6.164l-1.37 7.33h-6.506l5.479-28.273h12.671zm-26.958-7.33l-1.37 7.33h6.164c5.48.349 7.534 3.141 6.85 6.632L60.37 34.905h-6.849l2.397-12.915c.343-1.745.343-2.792-2.054-2.792h-5.137l-3.082 15.707h-6.508l5.48-28.273h6.507zm24.219 12.566H70.89L69.178 29.67h4.11c3.082-.35 5.822-1.397 6.164-7.33 0-2.095-1.712-3.142-4.11-3.142z"/>
    </g>
</svg>
