<svg xmlns="http://www.w3.org/2000/svg" width="129" height="125" viewBox="0 0 129 125">
  <g id="Group_2515" data-name="Group 2515" transform="translate(-87 -5354)">
    <rect id="Rectangle_544" data-name="Rectangle 544" width="129" height="125" transform="translate(87 5354)" fill="none"/>
    <g id="Group_2514" data-name="Group 2514" transform="translate(165.079 263.969)">
      <g id="Group_2513" data-name="Group 2513" transform="translate(-338.602 3490.925)">
        <g id="Group_2440" data-name="Group 2440" transform="translate(294.523 1607.106)">
          <path id="Path_15309" data-name="Path 15309" d="M330.916,1608.864l-29.723,17.147a11.014,11.014,0,0,0-5.008,8.716l-.041,73.879c.159,1.53.18,1.962,1.294,2.873l1.746,1c-.062-.355-.09-.744-.132-1.183l.021-74a12.713,12.713,0,0,1,5.787-10.073l28.943-16.694-2.886-1.67ZM301.444,1715.54a.847.847,0,0,1-.411-.111l-4.521-2.616c-1.662-1.356-1.823-2.295-1.989-4.131l.028-74a12.714,12.714,0,0,1,5.787-10.072l30.161-17.4a.849.849,0,0,1,.835,0l4.521,2.609a.833.833,0,0,1,0,1.419l-30.133,17.383a11,11,0,0,0-5.016,8.709l-.02,73.885c.138,1.531.188,1.961,1.273,2.873a.786.786,0,0,1,.159,1.091A.825.825,0,0,1,301.444,1715.54Z" transform="translate(-294.523 -1607.106)" fill="#1b69ff" fill-rule="evenodd"/>
          <path id="Path_15310" data-name="Path 15310" d="M338.444,1613.212l-29.715,17.146a11.223,11.223,0,0,0-5.016,8.675l-.02,73.92a3.066,3.066,0,0,0,1.175,2.8,3.023,3.023,0,0,0,3-.375l43.662-25.174a11.315,11.315,0,0,0,5.008-8.681l.021-57.832-18.114-10.475Zm-30.161,102.87h0Zm-2.421,1.558a3.6,3.6,0,0,1-1.823-.48c-1.294-.744-1.982-2.24-1.982-4.208l.021-73.92a12.877,12.877,0,0,1,5.835-10.094l30.113-17.383a.85.85,0,0,1,.835,0l18.92,10.949a.816.816,0,0,1,.417.708l-.021,58.3a12.9,12.9,0,0,1-5.842,10.093l-43.635,25.18h0A5.786,5.786,0,0,1,305.863,1717.64Z" transform="translate(-297.53 -1608.838)" fill="#1b69ff" fill-rule="evenodd"/>
          <path id="Path_15311" data-name="Path 15311" d="M301.476,1648.488l-2.369-1.367-2.152-1.242a10.661,10.661,0,0,0-1.056,4.278l-.021,73.92c.16,1.7.23,2.393,1.586,3.505l4.522,2.616c-1.357-1.113-1.426-1.808-1.586-3.506l.021-73.92A10.7,10.7,0,0,1,301.476,1648.488Z" transform="translate(-295.063 -1622.578)" fill="#f2f5fc" fill-rule="evenodd"/>
          <path id="Path_15312" data-name="Path 15312" d="M296.811,1646.5a9.254,9.254,0,0,0-.626,3.15l-.041,73.879c.159,1.53.18,1.961,1.294,2.873l1.746,1c-.062-.355-.09-.744-.132-1.183l.021-74a11.676,11.676,0,0,1,.828-3.937l-3.088-1.788Zm4.633,83.964a.847.847,0,0,1-.411-.111l-4.521-2.616c-1.662-1.356-1.823-2.295-1.989-4.131l.028-74a11.141,11.141,0,0,1,1.127-4.633.8.8,0,0,1,.487-.425.774.774,0,0,1,.647.07l4.521,2.615a.821.821,0,0,1,.347,1.056,9.344,9.344,0,0,0-.974,3.966l-.02,73.886c.138,1.53.188,1.961,1.273,2.873a.786.786,0,0,1,.159,1.091A.824.824,0,0,1,301.444,1730.469Z" transform="translate(-294.523 -1622.035)" fill="#1b69ff" fill-rule="evenodd"/>
        </g>
        <g id="Group_2441" data-name="Group 2441" transform="translate(307.498 1622.377)">
          <path id="Path_15313" data-name="Path 15313" d="M351.232,1700.6a1.9,1.9,0,0,0-.812,1.478v13.755l-32.682,19.583v-39.082c0-.547-.364-.773-.812-.5a1.9,1.9,0,0,0-.812,1.478v40.073c0,.548.364.774.812.5l34.306-20.557a1.9,1.9,0,0,0,.812-1.478v-14.746C352.044,1700.562,351.68,1700.335,351.232,1700.6Z" transform="translate(-316.114 -1657.74)" fill="#1b69ff"/>
          <path id="Path_15314" data-name="Path 15314" d="M359.25,1646.247a1.358,1.358,0,0,1-.35-1.105c.068-1.871-.922-2.951-2.369-2.561a.827.827,0,0,1-.917-.263c-.8-1.019-2.291-.717-3.571.512v-9.693c0-.548-.364-.773-.812-.5l-25.679,15.387a1.7,1.7,0,0,0-.574.635c-9.218,16.778-8.694,15.78-8.788,16.078-.21.673.024,1.179.5,1.072.178-.042-.292.217,8.863-5.268a1.9,1.9,0,0,0,.812-1.478v-3.949c0-.547-.364-.774-.812-.5a1.9,1.9,0,0,0-.812,1.478v2.958l-5.855,3.508,7-12.747,24.531-14.7v8.716c-1.3.294-2.787,1.777-3.592,3.741a3.934,3.934,0,0,1-.929,1.394,7.672,7.672,0,0,0-2.37,5.4,3.421,3.421,0,0,1-.33,1.471l-.053.126c-.907,1.968-.9,4,.033,4.85a1.379,1.379,0,0,1,.352,1.059c-.114,1.785.84,3.019,2.366,2.61a.82.82,0,0,1,.916.263c.595.756,1.6.819,2.691.166.9-.542,1.141-1.067,1.709-1.407s.8-.1,1.71-.642a6.256,6.256,0,0,0,1.893-1.886v7.789l-3.184.067c-.185-.021-.463.07-.844.51-.1.113-1.925,2.267-3.178,3.739v-4.318c0-.548-.364-.773-.812-.5a1.9,1.9,0,0,0-.812,1.478v5.882c0,.726.62.835,1.158.2,1.963-2.3,3.961-4.66,4.068-4.786l4.068-.086c.537-.011,1.159-.863,1.159-1.591v-11.158c.03-.03.06-.061.09-.089a7.679,7.679,0,0,0,2.37-5.421,3.322,3.322,0,0,1,.35-1.5C360.191,1649.18,360.191,1647.11,359.25,1646.247Zm-8.509,24.758C350.678,1670.986,350.676,1670.984,350.741,1671.005Zm2.182-26.872Z" transform="translate(-316.114 -1632.519)" fill="#1b69ff"/>
          <path id="Path_15315" data-name="Path 15315" d="M327.791,1735.531l-3.1,1.855a1.9,1.9,0,0,0-.812,1.478c0,.548.364.774.812.505l3.1-1.854a7.242,7.242,0,0,0,3.1-5.635c0-2.084-1.389-2.948-3.1-1.925l-.812.487c-.812.486-1.472.076-1.472-.915a3.441,3.441,0,0,1,1.472-2.678l3.1-1.855a1.9,1.9,0,0,0,.812-1.478c0-.547-.364-.773-.812-.5l-3.1,1.855a7.239,7.239,0,0,0-3.1,5.635c0,2.083,1.389,2.947,3.1,1.924l.812-.486c.811-.487,1.472-.076,1.472.915A3.441,3.441,0,0,1,327.791,1735.531Z" transform="translate(-319.214 -1668.585)" fill="#1b69ff"/>
          <path id="Path_15316" data-name="Path 15316" d="M343.667,1726.019l-3.1,1.855a1.9,1.9,0,0,0-.812,1.478c0,.548.364.773.813.5l3.1-1.855a7.238,7.238,0,0,0,3.1-5.634c0-2.084-1.388-2.948-3.1-1.925l-.812.487c-.811.486-1.472.076-1.472-.915a3.443,3.443,0,0,1,1.472-2.678l3.1-1.855a1.9,1.9,0,0,0,.812-1.478c0-.547-.364-.773-.812-.5l-3.1,1.855a7.239,7.239,0,0,0-3.1,5.635c0,2.083,1.389,2.947,3.1,1.924l.812-.487c.811-.486,1.472-.076,1.472.915A3.443,3.443,0,0,1,343.667,1726.019Z" transform="translate(-325.55 -1664.789)" fill="#1b69ff"/>
          <path id="Path_15317" data-name="Path 15317" d="M356.955,1709.045a1.9,1.9,0,0,0-.812,1.478v11.153c0,.547.364.774.813.5l4.11-2.463a1.9,1.9,0,0,0,.812-1.479c0-.547-.364-.773-.812-.5l-3.3,1.977v-10.161C357.766,1709,357.4,1708.776,356.955,1709.045Z" transform="translate(-332.087 -1663.012)" fill="#1b69ff"/>
        </g>
      </g>
    </g>
  </g>
</svg>
