<svg xmlns="http://www.w3.org/2000/svg" width="109" height="112" viewBox="0 0 109 112">
  <g id="Group_3280" data-name="Group 3280" transform="translate(214 -1440)">
    <rect id="Rectangle_685" data-name="Rectangle 685" width="109" height="112" transform="translate(-214 1440)" fill="none"/>
    <g id="Group_3279" data-name="Group 3279" transform="translate(-1394.699 993.575)">
      <g id="Group_2314" data-name="Group 2314" transform="translate(1186.699 473.651)">
        <path id="Path_14777" data-name="Path 14777" d="M3465.992,1645.428c-4,2.313-7.635,2.531-10.253,1.011l-.073-.007-14.908-8.639a7.862,7.862,0,0,1-2.182-1.927c-2.328-3.12-2.4-7.84-1.745-11.52a34.031,34.031,0,0,1,11.344-19.177l.655-.5c.145-.808.218-1.563.364-2.364,1.963-11.505,9.963-24.4,20.217-30.326,4-2.327,9.164-3.891,13.6-1.935l.51.211,3.054,1.8c2.835-2.48,6.619-4.836,10.472-4.771a7.8,7.8,0,0,1,2.764.545l.437.182,6.472,3.767.728-.138a8.364,8.364,0,0,1,4.508.386l.509.218,14.981,8.646c2.836,1.411,4.655,4.757,4.655,9.629,0,9.266-6.473,20.531-14.545,25.156Z" transform="translate(-3435.649 -1566.421)" fill="#f1f4fb" fill-rule="evenodd"/>
        <path id="Path_14778" data-name="Path 14778" d="M3477.823,1569.145a18.251,18.251,0,0,0-8.8,2.72c-9.6,5.564-17.744,17.789-19.854,29.731-.071.785-.218,1.519-.29,2.305a.9.9,0,0,1-.292.589l-.654.5a32.556,32.556,0,0,0-11.053,18.647c-.364,2.137-1.018,7.469,1.6,10.865a6.31,6.31,0,0,0,1.89,1.708l14.908,8.626c2.473,1.432,5.818,1.076,9.454-1h0l51.562-29.759c7.781-4.479,14.108-15.432,14.108-24.413,0-4.32-1.527-7.556-4.146-8.865l-15.417-8.843a7.7,7.7,0,0,0-4.072-.328l-.655.131a.774.774,0,0,1-.583-.094l-6.909-3.912a6.522,6.522,0,0,0-2.4-.466c-4.146-.08-7.927,2.822-9.891,4.552a.784.784,0,0,1-.946.095l-3.563-1.971a9.856,9.856,0,0,0-4-.815Zm-19.126,78.273a8.287,8.287,0,0,1-4.217-1.091l-14.981-8.654a7.968,7.968,0,0,1-2.4-2.137c-2.981-3.942-2.327-9.848-1.891-12.2a34.427,34.427,0,0,1,11.635-19.686l.364-.3c.073-.7.219-1.353.291-2.051,2.182-12.406,10.69-25.118,20.653-30.915,2.982-1.774,8.946-4.378,14.4-1.985l.51.225,2.618,1.52c2.254-1.884,6.181-4.581,10.4-4.581.072,0,.072.006.146.006a8.853,8.853,0,0,1,3.126.6l.436.2,6.255,3.643.436-.073a9.252,9.252,0,0,1,5.018.43l.51.225,15.053,8.691c3.2,1.585,5.091,5.366,5.091,10.37,0,9.528-6.689,21.141-14.981,25.9l-51.562,29.759A14.05,14.05,0,0,1,3458.7,1647.418Z" transform="translate(-3434.826 -1565.568)" fill="#1b69ff" fill-rule="evenodd"/>
        <path id="Path_14779" data-name="Path 14779" d="M3480.908,1654.042c-8,4.625-14.544.866-14.544-8.4,0-8.413,5.382-18.472,12.363-23.715,1.309-12.508,10.037-26.61,20.581-32.689,6.909-4.029,13.09-3.6,16.871.356a23.592,23.592,0,0,1,4.146-3.076c6.4-3.68,11.78-2.05,13.745,3.418,7.272-3.316,12.944.531,12.944,9.192,0,9.265-6.473,20.531-14.545,25.156Z" transform="translate(-3450.564 -1575.035)" fill="#fff" fill-rule="evenodd"/>
        <path id="Path_14780" data-name="Path 14780" d="M3480.038,1653.2Zm27.635-66.753a17.734,17.734,0,0,0-8.8,2.69c-10.181,5.869-18.835,19.643-20.145,32.035a.744.744,0,0,1-.363.6c-6.836,5.134-12,15.04-12,23.032,0,4.167,1.382,7.244,3.782,8.669,2.545,1.424,5.818,1.069,9.455-1.011l51.561-29.759c7.781-4.48,14.109-15.432,14.109-24.414,0-4.007-1.236-7.025-3.564-8.516-2.109-1.367-5.018-1.331-8.146.1a.963.963,0,0,1-.727.007.788.788,0,0,1-.436-.5,6.9,6.9,0,0,0-4.073-4.414c-2.327-.858-5.309-.342-8.435,1.454a22.628,22.628,0,0,0-4,2.968.811.811,0,0,1-1.164-.044,9.562,9.562,0,0,0-7.054-2.894Zm-34.108,69.6a8.278,8.278,0,0,1-4.216-1.091c-3.056-1.745-4.728-5.352-4.728-10.152,0-8.509,5.236-18.61,12.436-24.173,1.455-12.792,10.4-26.909,20.944-32.973,6.763-3.884,13.163-3.9,17.381-.073a22.738,22.738,0,0,1,3.637-2.64c3.563-2.058,7.054-2.618,9.891-1.586a8.313,8.313,0,0,1,4.727,4.611c3.417-1.323,6.617-1.2,9.017.364,2.837,1.818,4.364,5.352,4.364,9.956,0,9.527-6.69,21.142-14.981,25.9l-51.562,29.759h0A14.05,14.05,0,0,1,3473.565,1656.042Z" transform="translate(-3449.695 -1574.192)" fill="#1b69ff" fill-rule="evenodd"/>
        <path id="Path_14781" data-name="Path 14781" d="M3475.291,1650.556a.9.9,0,0,1-.437-.117l-14.981-8.64a.915.915,0,0,1-.291-1.171.855.855,0,0,1,1.164-.313l14.98,8.648a.858.858,0,0,1,.363,1.163A1.036,1.036,0,0,1,3475.291,1650.556Z" transform="translate(-3447.129 -1602.813)" fill="#1b69ff" fill-rule="evenodd"/>
        <path id="Path_14782" data-name="Path 14782" d="M3550.562,1585.383a.962.962,0,0,1-.436-.109l-14.836-8.582a.869.869,0,0,1-.364-1.171.838.838,0,0,1,1.164-.313l14.835,8.581a.868.868,0,0,1,.364,1.171A.829.829,0,0,1,3550.562,1585.383Z" transform="translate(-3484.73 -1570.322)" fill="#1b69ff" fill-rule="evenodd"/>
        <path id="Path_14783" data-name="Path 14783" d="M3584.375,1581.162a.536.536,0,0,1-.363-.109l-8.51-4.908a.841.841,0,1,1,.8-1.477l8.508,4.9a.862.862,0,0,1,.365,1.164A1.038,1.038,0,0,1,3584.375,1581.162Z" transform="translate(-3504.797 -1570.05)" fill="#1b69ff" fill-rule="evenodd"/>
      </g>
      <g id="Group_2068" data-name="Group 2068" transform="translate(1230.581 448.425)">
        <g id="Group_2067" data-name="Group 2067" transform="translate(0)">
          <path id="Path_14847" data-name="Path 14847" d="M1276.6,465.293l5.336,3.081a.75.75,0,0,1,.317.69V496.13c0,12.555-18.539,32.977-19.331,33.843a1.884,1.884,0,0,1-.426.35.945.945,0,0,1-.423.139c-.513.031-8.521.456-14.067-2.695l0,0-5.4-3.12h0a9.621,9.621,0,0,1-5.2-8.79V488.79a2.463,2.463,0,0,1,1.109-1.838c7.4-4.27,14.3-10.318,18.011-15.784.375-.552.9-.851,1.276-.735,3.7,1.179,10.6-.737,18.061-5.045a.69.69,0,0,1,.745-.095Z" transform="translate(-1236.96 -464.784)" fill="#fff"/>
          <path id="Path_14848" data-name="Path 14848" d="M1239.178,486.952c7.4-4.27,14.3-10.318,18.011-15.784.375-.552.9-.851,1.276-.735,3.7,1.179,10.6-.737,18.062-5.045a.69.69,0,0,1,.745-.095h0l5.336,3.081h0a.691.691,0,0,0-.738.1c-7.464,4.309-14.356,6.225-18.064,5.045-.377-.119-.9.185-1.276.735-3.709,5.466-10.608,11.513-18.011,15.785a2.445,2.445,0,0,0-1.107,1.837v27.069a9.635,9.635,0,0,0,5.272,8.829l-.007,0,0,0-5.4-3.12v0a9.621,9.621,0,0,1-5.2-8.79V488.79A2.464,2.464,0,0,1,1239.178,486.952Z" transform="translate(-1237.63 -464.784)" fill="#1b69ff"/>
          <g id="Group_2066" data-name="Group 2066">
            <path id="Path_14849" data-name="Path 14849" d="M1260.209,530.453c.816,0,1.33-.029,1.412-.035a1.382,1.382,0,0,0,.62-.2,2.316,2.316,0,0,0,.525-.428c.8-.872,19.451-21.413,19.449-34.144V468.582a1.178,1.178,0,0,0-.537-1.071l-5.336-3.081-.027-.014a1.124,1.124,0,0,0-1.182.125c-7.3,4.217-14.091,6.134-17.684,4.992a1.716,1.716,0,0,0-1.775.907c-3.677,5.416-10.524,11.413-17.868,15.65a2.889,2.889,0,0,0-1.329,2.217v27.072a10.013,10.013,0,0,0,5.392,9.154l.03.019,5.4,3.12a.5.5,0,0,0,.066.031C1251.719,530.146,1257.553,530.453,1260.209,530.453Zm15.714-65.248,5.313,3.068c.048.028.1.134.1.306v27.068c0,12.392-18.431,32.688-19.217,33.545a1.441,1.441,0,0,1-.322.266.538.538,0,0,1-.229.081c-.339.021-8.361.466-13.824-2.637a.454.454,0,0,0-.059-.028l-5.314-3.069-.031-.02a9.192,9.192,0,0,1-4.981-8.407v-27.07a2.039,2.039,0,0,1,.89-1.457c7.45-4.3,14.407-10.4,18.153-15.917.291-.428.647-.6.78-.562,3.82,1.216,10.876-.732,18.413-5.085.158-.1.263-.12.3-.1A.234.234,0,0,1,1275.923,465.206Z" transform="translate(-1236.478 -464.303)" fill="#005bea"/>
          </g>
          <path id="Path_14850" data-name="Path 14850" d="M1274.459,536.385l11.981-20.923-1.621-.933-10.362,18.121-6.39-3.682-1.622,2.8Z" transform="translate(-1248.919 -494.681)" fill="#1b69ff"/>
        </g>
      </g>
    </g>
  </g>
</svg>
