<svg xmlns="http://www.w3.org/2000/svg" width="110" height="56" viewBox="0 0 110 56">
    <g fill="none">
        <path fill="#0F9748" d="M101.326 33.264c-.561.893-1.226 1.695-1.925 2.486-2.853 3.243-6.222 5.867-9.877 8.135-1.386.86-2.807 1.662-4.251 2.407-3.266 1.695-6.646 3.105-10.118 4.32-3.62 1.271-7.322 2.28-11.08 3.093-2.143.459-4.308.848-6.474 1.157-1.913.276-3.838.516-5.764.688-1.168.103-2.337.195-3.506.252-.664.034-1.329.046-1.994.08-1.375.08-2.75.092-4.125.08-1.34-.022-2.692-.045-4.033-.114-1.696-.092-3.392-.218-5.076-.424-2.36-.275-4.71-.642-7.035-1.123-2.487-.527-4.939-1.169-7.334-2.005-3.46-1.192-6.76-2.704-9.797-4.767-1.226-.836-2.394-1.764-3.471-2.796-1.318-1.26-2.464-2.658-3.38-4.24C1.053 38.73.39 36.828.125 34.788.057 34.215 0 33.63 0 33.058c.011-1.363.172-2.704.527-4.022.768-2.841 2.177-5.34 3.988-7.63 2.12-2.694 4.64-4.962 7.39-6.99 2.063-1.513 4.228-2.865 6.463-4.091 3.3-1.799 6.737-3.311 10.278-4.595 2.693-.974 5.42-1.81 8.193-2.532 3.013-.79 6.061-1.41 9.143-1.914C47.804.985 49.65.745 51.494.561 52.846.424 54.198.298 55.55.218c1.226-.08 2.464-.115 3.69-.172C60.81-.023 62.39.01 63.972.01c1.1 0 2.211.07 3.311.138 1.226.08 2.452.16 3.678.286 1.708.172 3.404.39 5.088.688 2.693.458 5.362 1.054 7.986 1.845 2.533.756 4.996 1.673 7.368 2.83 2.338 1.123 4.538 2.452 6.554 4.09 2.028 1.64 3.747 3.53 5.042 5.81.985 1.753 1.616 3.61 1.845 5.614.091.734.069 1.467.08 2.212-.069.023-.138.023-.195-.034.023-.71.023-1.41-.057-2.12-.252-2.063-.997-3.942-2.131-5.684-1.135-1.753-2.578-3.22-4.206-4.526-2.177-1.741-4.571-3.093-7.104-4.24-2.738-1.237-5.591-2.165-8.502-2.91-2.085-.527-4.194-.95-6.325-1.271-1.318-.207-2.635-.379-3.953-.505-1.169-.114-2.337-.206-3.506-.275-1.1-.068-2.2-.137-3.312-.149-2.291-.022-4.594-.022-6.886.126-1.203.08-2.395.15-3.598.253-1.97.171-3.942.412-5.89.71-2.211.332-4.411.745-6.588 1.249-3.071.699-6.085 1.558-9.052 2.601-2.269.802-4.503 1.707-6.68 2.739-2.613 1.248-5.134 2.658-7.506 4.32-2.372 1.672-4.572 3.54-6.44 5.774-1.558 1.868-2.818 3.896-3.563 6.234-.607 1.879-.802 3.792-.538 5.74.263 1.971.985 3.77 2.062 5.443 1.25 1.936 2.876 3.54 4.698 4.938 1.88 1.444 3.942 2.624 6.084 3.633 2.063.962 4.183 1.753 6.348 2.417 2.006.62 4.045 1.112 6.096 1.524 2.143.424 4.286.745 6.463.974.985.104 1.97.172 2.956.264 1.295.115 2.601.183 3.896.206 2.475.035 4.961.058 7.448-.114l2.543-.172c1.41-.103 2.82-.264 4.217-.424 2.086-.252 4.148-.573 6.2-.974 3.86-.756 7.676-1.73 11.4-3.014 3.151-1.088 6.222-2.36 9.19-3.884 2.624-1.364 5.133-2.91 7.46-4.732 1.775-1.398 3.425-2.922 4.834-4.698.172.046.356.183.539.32"/>
        <g fill="#374EA1">
            <path d="M7.402.057V4.32H7.07c-.103-.814-.31-1.467-.585-1.948C6.2 1.89 5.798 1.5 5.282 1.215 4.767.928 4.228.79 3.667.79c-.63 0-1.146.194-1.559.573-.412.39-.618.825-.618 1.306 0 .378.126.722.39 1.031.377.458 1.271 1.054 2.68 1.822 1.146.619 1.937 1.088 2.36 1.42.425.333.746.723.975 1.17.229.446.344.916.344 1.409 0 .928-.367 1.742-1.089 2.406-.722.676-1.65 1.008-2.796 1.008-.355 0-.699-.022-1.008-.08-.183-.034-.573-.137-1.169-.332-.596-.195-.962-.286-1.123-.286-.149 0-.275.045-.355.137-.092.092-.149.275-.195.561H.172V8.708h.332c.16.883.367 1.547.63 1.983.264.435.676.802 1.226 1.1.55.286 1.146.435 1.8.435.756 0 1.351-.195 1.798-.596.436-.4.653-.87.653-1.41 0-.297-.08-.606-.252-.916-.171-.31-.424-.596-.779-.86-.24-.183-.882-.572-1.936-1.157-1.054-.595-1.8-1.065-2.246-1.409C.95 5.523.618 5.145.39 4.721.16 4.297.046 3.827.046 3.323c0-.882.344-1.65 1.02-2.28C1.742.4 2.6.08 3.656.08c.652 0 1.351.16 2.073.481.344.15.573.23.722.23.16 0 .287-.046.39-.138.103-.092.183-.286.24-.573l.321-.023M16.317 3.082v-.275h3.506v.275h-.367c-.39 0-.687.16-.893.493-.104.149-.15.504-.15 1.054v4.01c0 .997-.103 1.765-.297 2.304-.195.55-.585 1.02-1.158 1.41-.573.389-1.363.583-2.349.583-1.077 0-1.902-.183-2.463-.561-.562-.378-.951-.882-1.192-1.512-.16-.436-.229-1.25-.229-2.441V4.56c0-.607-.08-1.008-.252-1.191-.172-.195-.436-.287-.814-.287h-.378v-.275h4.274v.275h-.378c-.412 0-.699.126-.87.39-.127.172-.184.538-.184 1.088V8.87c0 .39.034.825.103 1.317.069.493.195.883.378 1.158.184.275.447.504.802.687.344.184.78.275 1.284.275.641 0 1.226-.137 1.741-.424.516-.286.86-.641 1.043-1.088.183-.436.275-1.18.275-2.235V4.55c0-.619-.069-1.008-.206-1.157-.195-.218-.47-.321-.848-.321l-.378.011M23.34 8.078v2.876c0 .619.07 1.008.207 1.157.183.218.47.321.836.321h.378v.275h-4.24v-.275h.368c.424 0 .721-.137.893-.412.103-.15.15-.504.15-1.077V4.549c0-.619-.07-1.008-.196-1.157-.194-.218-.47-.321-.847-.321h-.367v-.275h3.62c.883 0 1.582.092 2.098.275.515.183.94.493 1.294.928.356.435.527.951.527 1.535 0 .802-.263 1.467-.802 1.971-.527.504-1.283.756-2.257.756-.24 0-.493-.011-.768-.045-.286-.023-.584-.07-.893-.138m0-.412c.252.045.48.08.687.114.195.023.367.035.516.035.504 0 .94-.195 1.306-.585.367-.39.55-.894.55-1.524 0-.424-.092-.825-.264-1.191-.171-.367-.424-.642-.744-.825-.321-.184-.688-.275-1.089-.275-.252 0-.561.045-.95.137l-.012 4.114zM32.003 3.357v3.908h2.177c.562 0 .94-.08 1.135-.252.252-.23.39-.62.424-1.18h.275V9.27h-.275c-.07-.481-.138-.79-.207-.928-.091-.172-.229-.298-.435-.401-.195-.103-.504-.15-.917-.15h-2.177v3.266c0 .436.023.7.057.802.035.092.104.172.207.23.091.057.286.08.55.08h1.673c.561 0 .962-.035 1.214-.115s.493-.229.733-.458c.298-.298.608-.756.929-1.364h.286l-.848 2.475h-7.62v-.275h.356c.229 0 .458-.057.664-.172.16-.08.264-.194.321-.355.057-.16.08-.47.08-.95V4.525c0-.63-.069-1.008-.195-1.157-.171-.195-.47-.287-.87-.287h-.356v-.275h7.62l.115 2.166h-.287c-.103-.516-.217-.882-.343-1.077-.127-.195-.31-.344-.55-.447-.195-.069-.539-.115-1.032-.115l-2.704.023zM48.4 12.707h-2.635l-3.346-4.629c-.252.012-.447.012-.608.012h-.206c-.069 0-.149-.012-.229-.012v2.876c0 .619.069 1.008.206 1.157.184.218.459.321.837.321h.39v.275h-4.24v-.275h.366c.413 0 .722-.137.894-.412.103-.15.15-.504.15-1.077V4.549c0-.619-.07-1.008-.207-1.157-.195-.218-.47-.321-.848-.321h-.367v-.275h3.61c1.054 0 1.822.08 2.326.229.492.149.916.435 1.272.848.343.412.527.905.527 1.467 0 .607-.195 1.134-.596 1.58-.401.448-1.008.769-1.845.952l2.04 2.842c.47.653.87 1.088 1.203 1.294.332.218.767.356 1.317.413l-.011.286m-7.024-5.076h.413c.94 0 1.65-.206 2.13-.607.482-.413.723-.928.723-1.558 0-.62-.195-1.123-.585-1.501-.39-.39-.893-.585-1.535-.585-.287 0-.665.046-1.146.138V7.63M54.68 12.707L50.851 4.39V11c0 .607.069.985.195 1.134.183.207.47.31.848.31h.355v.275h-3.438v-.275h.356c.412 0 .71-.126.893-.378.104-.16.16-.516.16-1.066V4.537c0-.435-.045-.756-.148-.95-.069-.138-.195-.264-.378-.356-.184-.091-.47-.137-.883-.137v-.275h2.796l3.587 7.734 3.529-7.734h2.796v.275h-.344c-.424 0-.722.126-.894.378-.103.16-.16.515-.16 1.065V11c0 .607.069.985.206 1.134.183.207.47.31.848.31h.344v.275h-4.205v-.275h.355c.424 0 .722-.126.894-.378.103-.16.16-.516.16-1.066V4.389l-3.816 8.318h-.229M66.756 12.432v.275h-4.24v-.275h.356c.412 0 .71-.114.894-.355.114-.16.172-.527.172-1.123V4.56c0-.504-.035-.836-.092-.996-.046-.127-.15-.23-.298-.31-.218-.114-.436-.172-.676-.172h-.355v-.275h4.24v.275H66.4c-.401 0-.699.115-.882.356-.126.16-.184.527-.184 1.122v6.394c0 .504.035.837.092.997.046.126.149.23.31.31.206.114.435.171.664.171h.355M76.416 2.59l.229 3.357h-.23c-.297-1.008-.733-1.73-1.294-2.177-.562-.447-1.226-.665-2.017-.665-.653 0-1.249.172-1.776.504-.527.333-.95.86-1.249 1.593-.31.733-.458 1.639-.458 2.716 0 .893.149 1.673.435 2.326.287.653.722 1.157 1.295 1.512s1.238.527 1.97.527c.643 0 1.204-.137 1.697-.412.492-.275 1.031-.825 1.615-1.639l.23.15c-.493.882-1.078 1.523-1.742 1.936-.665.412-1.444.607-2.36.607-1.64 0-2.911-.607-3.805-1.822-.676-.905-1.008-1.97-1.008-3.197 0-.985.218-1.89.665-2.715.446-.825 1.054-1.467 1.821-1.925.78-.459 1.627-.688 2.544-.688.71 0 1.421.172 2.12.527.206.103.355.16.435.16.126 0 .241-.045.344-.137.126-.126.218-.31.275-.55h.264M87.782 12.707h-2.635L81.8 8.078c-.252.012-.447.012-.607.012h-.207c-.068 0-.148-.012-.229-.012v2.876c0 .619.07 1.008.207 1.157.183.218.458.321.836.321h.39v.275h-4.24v-.275h.367c.424 0 .722-.137.893-.412.104-.15.15-.504.15-1.077V4.549c0-.619-.07-1.008-.207-1.157-.195-.218-.47-.321-.848-.321h-.366v-.275h3.597c1.055 0 1.822.08 2.327.229.492.149.916.435 1.271.848.344.412.527.905.527 1.467 0 .607-.194 1.134-.595 1.58-.401.448-1.009.769-1.845.952l2.04 2.842c.47.653.87 1.088 1.203 1.294.332.218.767.356 1.317.413v.286zM80.758 7.62h.413c.94 0 1.65-.206 2.131-.607.481-.413.722-.929.722-1.559 0-.619-.195-1.123-.584-1.5-.39-.39-.894-.585-1.536-.585-.286 0-.664.046-1.146.137V7.62z" transform="translate(11.115 21.427)"/>
        </g>
        <circle cx="104.511" cy="28.864" r="5.489" fill="#EE2C24"/>
    </g>
</svg>
