<?xml version="1.0" encoding="UTF-8"?>
<svg id="Layer_2" data-name="Layer 2" xmlns="http://www.w3.org/2000/svg" viewBox="0 0 918.21 734.91">
  <defs>
    <style>
      .cls-1, .cls-2, .cls-3, .cls-4, .cls-5, .cls-6, .cls-7, .cls-8 {
        stroke-width: 0px;
      }

      .cls-2 {
        fill: #ed492c;
      }

      .cls-3 {
        fill: #ec3b14;
      }

      .cls-4 {
        fill: #fff;
      }

      .cls-5 {
        fill: #ef5a41;
      }

      .cls-6 {
        fill: #fefcfc;
      }

      .cls-7 {
        fill: #f2f2f2;
      }

      .cls-8 {
        fill: #fdf7f6;
      }
    </style>
  </defs>
  <polygon class="cls-4" points="814 582.03 458.71 734.91 103.42 582.03 103.42 374.55 103.42 16.91 458.71 16.91 814 16.91 814 374.55 814 582.03"/>
  <polygon class="cls-7" points="814 16.91 103.42 582.03 458.71 734.91 814 582.03 814 16.91"/>
  <g>
    <path class="cls-2" d="m886.13,407.1l27.01,33.66c6.76,8.43,6.76,20.43,0,28.86l-27.01,33.66c-4.38,5.45-10.99,8.63-17.99,8.63h-50.69s-83.39,0-83.39,0c-12.73,0-23.06-10.32-23.06-23.06v-33.66s0-33.66,0-33.66c0-12.73,10.32-23.06,23.06-23.06h83.39s50.69,0,50.69,0c6.99,0,13.61,3.17,17.99,8.63Z"/>
    <path class="cls-2" d="m32.08,407.1l-27.01,33.66c-6.76,8.43-6.76,20.43,0,28.86l27.01,33.66c4.38,5.45,10.99,8.63,17.99,8.63h50.69s83.39,0,83.39,0c12.73,0,23.06-10.32,23.06-23.06v-33.66s0-33.66,0-33.66c0-12.73-10.32-23.06-23.06-23.06h-83.39s-50.69,0-50.69,0c-6.99,0-13.61,3.17-17.99,8.63Z"/>
    <rect class="cls-2" x="179" y="398.91" width="556" height="113"/>
  </g>
  <g>
    <path class="cls-1" d="m232.09,298.61h-24.84v-18.87h74.97v18.87h-24.63v68.03h-25.5v-68.03Z"/>
    <path class="cls-1" d="m374.38,323.11c0,24.58-14.81,45.15-44.58,45.15s-43.36-20.43-43.36-45.03,15.49-45.11,44.66-45.11c27.39,0,43.27,19,43.27,45Zm-61.67-.26c0,15.96,5.3,27.06,17.9,27.06,13.24,0,17.6-11.78,17.6-26.59,0-15.86-4.63-26.85-17.94-26.85-12.37,0-17.57,10.21-17.57,26.39Z"/>
    <path class="cls-1" d="m388.4,279.73h40.27c19.6,0,32.79,10.91,32.79,27.88,0,19.53-14.99,28.51-33.39,28.51h-14.53v30.52h-25.14v-86.91Zm25.14,38.46h10.38c7.2,0,12.32-3,12.32-10.25s-5.16-10.33-12.25-10.33h-10.45v20.58Z"/>
    <path class="cls-1" d="m511.25,366.64v-61.05c-3.66.81-10.52,1.08-13.46.9v-16.04c8.61-1.21,16.84-5.7,21.54-10.72h17.5v86.91h-25.58Z"/>
    <path class="cls-1" d="m624.19,322.73c0,23.21-8.79,45.47-36.42,45.47s-36.25-20.86-36.25-44.97c0-22.58,9.96-44.98,36.67-44.98s36,20.9,36,44.48Zm-47.31.16c0,18.82,2.54,27.9,11.06,27.9s10.81-9.92,10.81-27.85-2.16-27.37-10.56-27.37-11.3,7.8-11.3,27.32Z"/>
    <path class="cls-1" d="m707.35,322.73c0,23.21-8.79,45.47-36.42,45.47s-36.25-20.86-36.25-44.97c0-22.58,9.96-44.98,36.67-44.98s36,20.9,36,44.48Zm-47.31.16c0,18.82,2.54,27.9,11.06,27.9s10.81-9.92,10.81-27.85-2.16-27.37-10.56-27.37-11.3,7.8-11.3,27.32Z"/>
  </g>
  <g>
    <path class="cls-1" d="m391.46,604.4v11.37h-53.33v-8.99l28.73-27.29c7.03-6.72,8.27-10.96,8.27-14.99,0-6.62-4.55-10.44-13.44-10.44-7.03,0-12.92,2.38-16.95,7.54l-9.41-7.24c5.58-7.55,15.61-11.99,27.49-11.99,15.71,0,25.84,7.96,25.84,20.78,0,7.03-1.96,13.44-11.99,22.84l-19.33,18.4h34.11Z"/>
    <path class="cls-1" d="m398.9,579.59c0-23.77,13.02-37.21,30.18-37.21s30.29,13.44,30.29,37.21-13.02,37.21-30.29,37.21-30.18-13.44-30.18-37.21Zm46.93,0c0-17.47-6.82-25.53-16.74-25.53s-16.64,8.06-16.64,25.53,6.82,25.53,16.64,25.53,16.74-8.06,16.74-25.53Z"/>
    <path class="cls-1" d="m520.35,604.4v11.37h-53.33v-8.99l28.73-27.29c7.03-6.72,8.27-10.96,8.27-14.99,0-6.62-4.55-10.44-13.44-10.44-7.03,0-12.92,2.38-16.95,7.54l-9.41-7.24c5.58-7.55,15.61-11.99,27.49-11.99,15.71,0,25.84,7.96,25.84,20.78,0,7.03-1.96,13.44-11.99,22.84l-19.33,18.4h34.11Z"/>
    <path class="cls-1" d="m579.47,594.06c0,12.2-9.2,22.74-28.63,22.74-10.23,0-20.47-3.1-27.18-8.37l5.79-10.44c5.17,4.34,13.02,7.13,21.19,7.13,9.61,0,15.3-4.24,15.3-10.96s-4.75-10.75-15.71-10.75h-6.62v-9.2l16.44-19.54h-32.87v-11.27h49.3v8.99l-17.57,20.88c13.64,1.76,20.57,9.92,20.57,20.78Z"/>
  </g>
  <g>
    <path class="cls-4" d="m132.66,475.77l3.96-8.79c4.25,3.1,10.58,5.26,16.63,5.26,6.91,0,9.72-2.3,9.72-5.4,0-9.43-29.31-2.95-29.31-21.67,0-8.57,6.91-15.7,21.24-15.7,6.34,0,12.82,1.51,17.5,4.46l-3.6,8.86c-4.68-2.66-9.5-3.96-13.97-3.96-6.91,0-9.58,2.59-9.58,5.76,0,9.29,29.31,2.88,29.31,21.39,0,8.42-6.98,15.63-21.39,15.63-7.99,0-16.06-2.38-20.52-5.83Z"/>
    <path class="cls-4" d="m228.42,480.74l-.07-30.24-14.83,24.91h-5.26l-14.76-24.27v29.59h-10.94v-50.4h9.65l18.87,31.32,18.58-31.32h9.58l.14,50.4h-10.95Z"/>
    <path class="cls-4" d="m284.51,469.94h-23.4l-4.46,10.8h-11.95l22.47-50.4h11.52l22.54,50.4h-12.24l-4.46-10.8Zm-3.67-8.86l-7.99-19.3-7.99,19.3h15.99Z"/>
    <path class="cls-4" d="m306.46,430.34h11.67v40.9h25.27v9.5h-36.94v-50.4Z"/>
    <path class="cls-4" d="m349.95,430.34h11.67v40.9h25.27v9.5h-36.94v-50.4Z"/>
    <path class="cls-4" d="m460.04,466.99c0,8.71-6.91,13.75-20.16,13.75h-26.07v-50.4h24.63c12.6,0,19.08,5.26,19.08,13.1,0,5.04-2.59,8.93-6.7,11.09,5.62,1.8,9.22,6.12,9.22,12.46Zm-34.64-27.87v11.88h11.59c5.69,0,8.78-2.02,8.78-5.98s-3.1-5.9-8.78-5.9h-11.59Zm22.9,26.64c0-4.25-3.24-6.26-9.29-6.26h-13.61v12.46h13.61c6.05,0,9.29-1.87,9.29-6.19Z"/>
    <path class="cls-4" d="m468.46,458.57v-28.23h11.67v27.79c0,9.58,4.18,13.54,11.23,13.54s11.23-3.96,11.23-13.54v-27.79h11.52v28.23c0,14.83-8.5,23.04-22.83,23.04s-22.83-8.21-22.83-23.04Z"/>
    <path class="cls-4" d="m521.67,475.77l3.96-8.79c4.25,3.1,10.58,5.26,16.63,5.26,6.91,0,9.72-2.3,9.72-5.4,0-9.43-29.31-2.95-29.31-21.67,0-8.57,6.91-15.7,21.24-15.7,6.34,0,12.82,1.51,17.5,4.46l-3.6,8.86c-4.68-2.66-9.5-3.96-13.97-3.96-6.91,0-9.58,2.59-9.58,5.76,0,9.29,29.31,2.88,29.31,21.39,0,8.42-6.99,15.63-21.39,15.63-7.99,0-16.06-2.38-20.52-5.83Z"/>
    <path class="cls-4" d="m571.57,430.34h11.67v50.4h-11.67v-50.4Z"/>
    <path class="cls-4" d="m641.41,430.34v50.4h-9.58l-25.13-30.6v30.6h-11.52v-50.4h9.65l25.06,30.6v-30.6h11.52Z"/>
    <path class="cls-4" d="m692.39,471.38v9.36h-39.03v-50.4h38.09v9.36h-26.5v10.95h23.4v9.07h-23.4v11.67h27.43Z"/>
    <path class="cls-4" d="m697.71,475.77l3.96-8.79c4.25,3.1,10.59,5.26,16.63,5.26,6.91,0,9.72-2.3,9.72-5.4,0-9.43-29.31-2.95-29.31-21.67,0-8.57,6.91-15.7,21.24-15.7,6.34,0,12.82,1.51,17.5,4.46l-3.6,8.86c-4.68-2.66-9.5-3.96-13.97-3.96-6.91,0-9.58,2.59-9.58,5.76,0,9.29,29.31,2.88,29.31,21.39,0,8.42-6.98,15.63-21.38,15.63-7.99,0-16.06-2.38-20.52-5.83Z"/>
    <path class="cls-4" d="m743.65,475.77l3.96-8.79c4.25,3.1,10.58,5.26,16.63,5.26,6.91,0,9.72-2.3,9.72-5.4,0-9.43-29.31-2.95-29.31-21.67,0-8.57,6.91-15.7,21.24-15.7,6.34,0,12.82,1.51,17.5,4.46l-3.6,8.86c-4.68-2.66-9.5-3.96-13.97-3.96-6.91,0-9.58,2.59-9.58,5.76,0,9.29,29.31,2.88,29.31,21.39,0,8.42-6.99,15.63-21.39,15.63-7.99,0-16.06-2.38-20.52-5.83Z"/>
  </g>
  <g>
    <path class="cls-2" d="m370.19,174.98c0-57.03.03-114.06-.09-171.08,0-3.23.66-3.9,3.89-3.9,56.66.12,113.33.09,169.99.09,0,58.3,0,116.61,0,174.91-28.08,18.25-56.17,36.48-84.2,54.82-2.11,1.38-3.46.7-5.16-.41-9.73-6.34-19.47-12.66-29.24-18.94-18.39-11.84-36.8-23.66-55.2-35.48Zm132.59-88.78c-2.88-1.71-6.05-.64-9.07-.9-2.3-.2-4.78.47-6.63-1.58,1.4-2.34,3.94-3.08,6.11-4.31,2.59-1.48,5.3-2.75,7.44-4.89,4.75-4.77,4.33-12.88-1-16.49-5.55-3.76-11.45-4.02-17.29-.73-6.11,3.43-6.33,5.74-1.31,10.43.19.18.5.22.96.4,1.85-3.08,4.3-4.87,8.26-5.21,2.59-.23,4.2.76,5.07,2.3,1.1,1.92.18,4.16-1.8,5.4-2.64,1.66-5.49,2.99-8.13,4.65-5.74,3.61-8.53,8.89-8.72,15.69-.07,2.39.75,3.12,3.06,3.07,6.11-.11,12.23-.03,18.34-.04,6.31,0,7.15-1.39,4.71-7.79Zm-45.65,41.99c9.51,1.93,19.05,1.38,28.6.31,1.88.47,2.19,2.27,2.98,3.62,4.16,7.11,8.28,14.24,12.69,21.83,4.81-8.3,9.27-16.02,13.75-23.72.72-1.23.99-2.35.17-3.72-4.82-8.03-9.56-16.09-14.33-24.15-.29-.04-.58-.07-.87-.11-8.3.06-16.61.12-24.91.17-1.77.01-3.53-.22-4.63,1.77-4.44,8.02-8.95,16-13.44,24Zm-58.29-21.37c-1.26,2.09-1.25,4.17-.01,6.27,1.89,17.65,8.05,33.12,22.39,44.52,12.36,9.83,26.29,14.56,42.12,13.53,10.08-.66,19.27-3.89,27.9-9.06,2.63-1.57,3.6-2.8,1.66-5.79-3.33-5.12-6.37-10.45-9.17-15.88-1.55-3-2.71-2.73-5.23-1.03-12.74,8.59-27.9,8.1-40.06-1-11.57-8.66-16.58-23.37-11.83-37.56,4.36-13,12.86-21.64,27.45-23,2.86-.27,5.98-1.39,7.41-5.25,2.22-5.98,5.28-11.66,8.15-17.38,1.18-2.36.94-3.43-1.88-3.74-18.8-2.05-35.55,2.52-49.47,15.64-11.4,10.75-17.74,24.15-19.43,39.74Z"/>
    <path class="cls-5" d="m544.88,174.98c-.3.01-.59.02-.89.02,0-58.3,0-116.61,0-174.91,1.85.81.84,2.42.84,3.59.06,57.1.05,114.2.05,171.3Z"/>
    <path class="cls-6" d="m398.84,106.82c1.69-15.59,8.02-28.99,19.43-39.74,13.92-13.12,30.67-17.69,49.47-15.64,2.83.31,3.06,1.38,1.88,3.74-2.87,5.73-5.93,11.4-8.15,17.38-1.43,3.86-4.55,4.98-7.41,5.25-14.59,1.37-23.1,10-27.45,23-4.75,14.19.26,28.9,11.83,37.56,12.16,9.1,27.32,9.59,40.06,1,2.52-1.7,3.68-1.97,5.23,1.03,2.8,5.43,5.84,10.76,9.17,15.88,1.95,2.99.98,4.22-1.66,5.79-8.63,5.16-17.81,8.4-27.9,9.06-15.84,1.03-29.76-3.7-42.12-13.53-14.34-11.4-20.5-26.87-22.39-44.52,0-2.09,0-4.18.01-6.27Z"/>
    <path class="cls-6" d="m500.98,102.36c4.77,8.05,9.52,16.12,14.33,24.15.82,1.37.55,2.49-.17,3.72-4.48,7.71-8.94,15.42-13.75,23.72-4.41-7.59-8.53-14.72-12.69-21.83-.79-1.35-1.1-3.15-2.98-3.62-9.53-.1-19.07-.2-28.6-.31,4.49-8,9-15.98,13.44-24,1.1-1.98,2.86-1.76,4.63-1.77,8.3-.05,16.61-.11,24.91-.17,0,0,.43.11.43.11h.44Z"/>
    <path class="cls-8" d="m502.78,86.2c2.43,6.4,1.59,7.79-4.71,7.79-6.11,0-12.23-.08-18.34.04-2.31.04-3.13-.69-3.06-3.07.19-6.8,2.98-12.07,8.72-15.69,2.64-1.66,5.49-2.99,8.13-4.65,1.98-1.24,2.9-3.48,1.8-5.4-.87-1.53-2.48-2.52-5.07-2.3-3.96.35-6.41,2.13-8.26,5.21-.46-.19-.77-.23-.96-.4-5.03-4.69-4.8-7,1.31-10.43,5.85-3.29,11.74-3.03,17.29.73,5.33,3.61,5.75,11.72,1,16.49-2.14,2.15-4.85,3.42-7.44,4.89-2.17,1.24-4.71,1.98-6.11,4.31-1.11,1.57-1.32,2.65,1.21,2.6,4.83-.09,9.66-.09,14.49-.12Z"/>
    <path class="cls-3" d="m457.13,128.19c9.53.1,19.07.2,28.6.31-9.55,1.08-19.08,1.62-28.6-.31Z"/>
    <path class="cls-3" d="m502.78,86.2c-4.83.04-9.66.04-14.49.12-2.53.05-2.32-1.03-1.21-2.6,1.85,2.05,4.33,1.38,6.63,1.58,3.03.26,6.19-.82,9.07.9Z"/>
    <path class="cls-3" d="m398.84,106.82c0,2.09,0,4.18-.01,6.27-1.24-2.09-1.25-4.18.01-6.27Z"/>
    <path class="cls-3" d="m500.98,102.36h-.44s-.43-.11-.43-.11c.29.04.58.07.87.11Z"/>
  </g>
</svg>