<?xml version="1.0" encoding="UTF-8"?>
<svg id="Layer_2" data-name="Layer 2" xmlns="http://www.w3.org/2000/svg" viewBox="0 0 710.58 734.91">
  <defs>
    <style>
      .cls-1, .cls-2, .cls-3, .cls-4, .cls-5, .cls-6, .cls-7, .cls-8 {
        stroke-width: 0px;
      }

      .cls-2 {
        fill: #ed492c;
      }

      .cls-3 {
        fill: #ec3b14;
      }

      .cls-4 {
        fill: #fff;
      }

      .cls-5 {
        fill: #ef5a41;
      }

      .cls-6 {
        fill: #fefcfc;
      }

      .cls-7 {
        fill: #f2f2f2;
      }

      .cls-8 {
        fill: #fdf7f6;
      }
    </style>
  </defs>
  <polygon class="cls-4" points="710.58 582.03 355.29 734.91 0 582.03 0 374.55 0 16.91 355.29 16.91 710.58 16.91 710.58 374.55 710.58 582.03"/>
  <polygon class="cls-7" points="710.58 16.91 0 582.03 355.29 734.91 710.58 582.03 710.58 16.91"/>
  <g>
    <path class="cls-1" d="m206.75,309.73v53.43c0,12.45,6.13,16.71,13.85,16.71,8.36,0,13.21-5.1,13.21-16.71v-53.43h25.58v50.87c0,28.88-17.08,37.66-39.23,37.66s-38.92-9.29-38.92-37.54v-50.99h25.5Z"/>
    <path class="cls-1" d="m293.31,376.22c1.04,4.22,4.55,6.56,9.93,6.56,4.86,0,6.96-1.49,6.96-4.53,0-3.25-2.91-4.42-11.62-6.39-22.8-5.12-26.07-12.64-26.07-21.98s6.73-20.99,29.34-20.99,29.34,11.06,29.98,20.38h-22.04c-.5-2.33-1.94-5.69-8.59-5.69-4.41,0-6,1.83-6,4.08,0,2.59,2.16,3.71,12.91,6.11,21.09,4.73,25.64,12.07,25.64,22.46,0,11.79-8.61,22.01-31.25,22.01s-30.63-10.33-31.98-22.03h22.81Z"/>
    <path class="cls-1" d="m366.08,368.43c0,6.67,2.56,13.35,9.81,13.35,5.83,0,7.5-2.48,8.75-5.96h24.16c-2.4,8.79-9.91,22.42-33.32,22.42-24.98,0-34.17-16.82-34.17-34.11,0-19.94,10.55-35.24,34.62-35.24,25.63,0,33.46,17.35,33.46,33.86,0,2.23-.04,3.88-.25,5.69h-43.05Zm18.65-12.84c-.08-6.19-1.85-11.41-8.9-11.41-6.57,0-9.1,4.84-9.51,11.41h18.41Z"/>
    <path class="cls-1" d="m420.52,349.48c0-6.33-.04-13.1-.17-18.99h24.05c.3,2.05.59,7.85.59,10.75,2.55-6.35,8.97-12.26,20.33-12.35v22.49c-13.92-.59-20.2,2.58-20.2,18.09v27.18h-24.6v-47.16Z"/>
    <path class="cls-1" d="m494.08,376.22c1.04,4.22,4.55,6.56,9.93,6.56,4.86,0,6.96-1.49,6.96-4.53,0-3.25-2.91-4.42-11.62-6.39-22.8-5.12-26.07-12.64-26.07-21.98s6.73-20.99,29.34-20.99,29.34,11.06,29.98,20.38h-22.04c-.5-2.33-1.94-5.69-8.59-5.69-4.41,0-6,1.83-6,4.08,0,2.59,2.16,3.71,12.91,6.11,21.09,4.73,25.64,12.07,25.64,22.46,0,11.79-8.61,22.01-31.25,22.01s-30.63-10.33-31.98-22.03h22.81Z"/>
    <path class="cls-1" d="m119.98,405.88h25.54v68.03h40.96l-2.76,18.87h-63.74v-86.91Z"/>
    <path class="cls-1" d="m263.26,459.63c0,20.64-12.87,34.76-35.59,34.76s-35.08-15.4-35.08-34.51,12.14-34.84,35.87-34.84c21.82,0,34.79,14.56,34.79,34.6Zm-45.5.13c0,12.6,3.72,18.12,10.29,18.12s10-5.61,10-17.91c0-13.63-3.43-18.29-10.12-18.29-6.11,0-10.17,4.36-10.17,18.08Z"/>
    <path class="cls-1" d="m292.32,426.64c3.99,16.1,8.12,35.54,9.34,45.54h.53c1.76-12.45,6.39-30.14,9.98-45.54h24.39l-21.81,66.15h-27.53l-21.33-66.15h26.43Z"/>
    <path class="cls-1" d="m364,464.58c0,6.67,2.56,13.35,9.81,13.35,5.83,0,7.5-2.48,8.75-5.96h24.16c-2.4,8.79-9.91,22.42-33.32,22.42-24.98,0-34.17-16.82-34.17-34.11,0-19.94,10.55-35.25,34.62-35.25,25.63,0,33.46,17.35,33.46,33.86,0,2.23-.04,3.88-.25,5.69h-43.05Zm18.65-12.84c-.08-6.19-1.85-11.41-8.9-11.41-6.57,0-9.1,4.84-9.51,11.41h18.41Z"/>
    <path class="cls-1" d="m471.69,405.88v53.43c0,12.45,6.13,16.71,13.85,16.71,8.36,0,13.21-5.1,13.21-16.71v-53.43h25.58v50.87c0,28.88-17.08,37.66-39.23,37.66s-38.92-9.29-38.92-37.54v-50.99h25.5Z"/>
    <path class="cls-1" d="m556.48,472.36c1.04,4.22,4.55,6.56,9.92,6.56,4.86,0,6.96-1.49,6.96-4.53,0-3.25-2.91-4.42-11.62-6.39-22.8-5.12-26.07-12.64-26.07-21.98s6.73-20.99,29.34-20.99,29.34,11.06,29.98,20.38h-22.04c-.5-2.33-1.94-5.69-8.59-5.69-4.41,0-6,1.83-6,4.08,0,2.59,2.16,3.71,12.91,6.11,21.09,4.73,25.64,12.07,25.64,22.46,0,11.79-8.61,22.01-31.25,22.01s-30.63-10.33-31.98-22.03h22.81Z"/>
  </g>
  <g>
    <path class="cls-2" d="m266.77,174.98c0-57.03.03-114.06-.09-171.08,0-3.23.66-3.9,3.89-3.9,56.66.12,113.33.09,169.99.09,0,58.3,0,116.61,0,174.91-28.08,18.25-56.17,36.48-84.2,54.82-2.11,1.38-3.46.7-5.16-.41-9.73-6.34-19.47-12.66-29.24-18.94-18.39-11.84-36.8-23.66-55.2-35.48Zm132.59-88.78c-2.88-1.71-6.05-.64-9.07-.9-2.3-.2-4.78.47-6.63-1.58,1.4-2.34,3.94-3.08,6.11-4.31,2.59-1.48,5.3-2.75,7.44-4.89,4.75-4.77,4.33-12.88-1-16.49-5.55-3.76-11.45-4.02-17.29-.73-6.11,3.43-6.33,5.74-1.31,10.43.19.18.5.22.96.4,1.85-3.08,4.3-4.87,8.26-5.21,2.59-.23,4.2.76,5.07,2.3,1.1,1.92.18,4.16-1.8,5.4-2.64,1.66-5.49,2.99-8.13,4.65-5.74,3.61-8.53,8.89-8.72,15.69-.07,2.39.75,3.12,3.06,3.07,6.11-.11,12.23-.03,18.34-.04,6.31,0,7.15-1.39,4.71-7.79Zm-45.65,41.99c9.51,1.93,19.05,1.38,28.6.31,1.88.47,2.19,2.27,2.98,3.62,4.16,7.11,8.28,14.24,12.69,21.83,4.81-8.3,9.27-16.02,13.75-23.72.72-1.23.99-2.35.17-3.72-4.82-8.03-9.56-16.09-14.33-24.15-.29-.04-.58-.07-.87-.11-8.3.06-16.61.12-24.91.17-1.77.01-3.53-.22-4.63,1.77-4.44,8.02-8.95,16-13.44,24Zm-58.29-21.37c-1.26,2.09-1.25,4.17-.01,6.27,1.89,17.65,8.05,33.12,22.39,44.52,12.36,9.83,26.29,14.56,42.12,13.53,10.08-.66,19.27-3.89,27.9-9.06,2.63-1.57,3.6-2.8,1.66-5.79-3.33-5.12-6.37-10.45-9.17-15.88-1.55-3-2.71-2.73-5.23-1.03-12.74,8.59-27.9,8.1-40.06-1-11.57-8.66-16.58-23.37-11.83-37.56,4.36-13,12.86-21.64,27.45-23,2.86-.27,5.98-1.39,7.41-5.25,2.22-5.98,5.28-11.66,8.15-17.38,1.18-2.36.94-3.43-1.88-3.74-18.8-2.05-35.55,2.52-49.47,15.64-11.4,10.75-17.74,24.15-19.43,39.74Z"/>
    <path class="cls-5" d="m441.46,174.98c-.3.01-.59.02-.89.02,0-58.3,0-116.61,0-174.91,1.85.81.84,2.42.84,3.59.06,57.1.05,114.2.05,171.3Z"/>
    <path class="cls-6" d="m295.42,106.82c1.69-15.59,8.02-28.99,19.43-39.74,13.92-13.12,30.67-17.69,49.47-15.64,2.83.31,3.06,1.38,1.88,3.74-2.87,5.73-5.93,11.4-8.15,17.38-1.43,3.86-4.55,4.98-7.41,5.25-14.59,1.37-23.1,10-27.45,23-4.75,14.19.26,28.9,11.83,37.56,12.16,9.1,27.32,9.59,40.06,1,2.52-1.7,3.68-1.97,5.23,1.03,2.8,5.43,5.84,10.76,9.17,15.88,1.95,2.99.98,4.22-1.66,5.79-8.63,5.16-17.81,8.4-27.9,9.06-15.84,1.03-29.76-3.7-42.12-13.53-14.34-11.4-20.5-26.87-22.39-44.52,0-2.09,0-4.18.01-6.27Z"/>
    <path class="cls-6" d="m397.56,102.36c4.77,8.05,9.52,16.12,14.33,24.15.82,1.37.55,2.49-.17,3.72-4.48,7.71-8.94,15.42-13.75,23.72-4.41-7.59-8.53-14.72-12.69-21.83-.79-1.35-1.1-3.15-2.98-3.62-9.53-.1-19.07-.2-28.6-.31,4.49-8,9-15.98,13.44-24,1.1-1.98,2.86-1.76,4.63-1.77,8.3-.05,16.61-.11,24.91-.17,0,0,.43.11.43.11h.44Z"/>
    <path class="cls-8" d="m399.36,86.2c2.43,6.4,1.59,7.79-4.71,7.79-6.11,0-12.23-.08-18.34.04-2.31.04-3.13-.69-3.06-3.07.19-6.8,2.98-12.07,8.72-15.69,2.64-1.66,5.49-2.99,8.13-4.65,1.98-1.24,2.9-3.48,1.8-5.4-.87-1.53-2.48-2.52-5.07-2.3-3.96.35-6.41,2.13-8.26,5.21-.46-.19-.77-.23-.96-.4-5.03-4.69-4.8-7,1.31-10.43,5.85-3.29,11.74-3.03,17.29.73,5.33,3.61,5.75,11.72,1,16.49-2.14,2.15-4.85,3.42-7.44,4.89-2.17,1.24-4.71,1.98-6.11,4.31-1.11,1.57-1.32,2.65,1.21,2.6,4.83-.09,9.66-.09,14.49-.12Z"/>
    <path class="cls-3" d="m353.71,128.19c9.53.1,19.07.2,28.6.31-9.55,1.08-19.08,1.62-28.6-.31Z"/>
    <path class="cls-3" d="m399.36,86.2c-4.83.04-9.66.04-14.49.12-2.53.05-2.32-1.03-1.21-2.6,1.85,2.05,4.33,1.38,6.63,1.58,3.03.26,6.19-.82,9.07.9Z"/>
    <path class="cls-3" d="m295.42,106.82c0,2.09,0,4.18-.01,6.27-1.24-2.09-1.25-4.18.01-6.27Z"/>
    <path class="cls-3" d="m397.56,102.36h-.44s-.43-.11-.43-.11c.29.04.58.07.87.11Z"/>
  </g>
</svg>