<svg xmlns="http://www.w3.org/2000/svg" width="171" height="35" viewBox="0 0 171 35">
    <g fill="none">
        <path fill="#1E88E5" d="M10.652 1.913C10.28.933 9.344.28 8.27.28H2.336C1.168.28.234 1.26.234 2.379c0 1.12.98 2.1 2.102 2.1h4.766l2.43 5.83L12.1 16.7h4.579L10.652 1.913z"/>
        <path fill="#2B2A29" d="M34.854.327c-.794 0-1.402.466-1.822 1.446L21.819 29.76l-3.504-8.91H13.83l4.531 11.056c.655 1.446 1.682 2.193 2.99 2.193h1.029c1.308 0 2.336-.747 2.99-2.193L37.143 3.36c.094-.234.14-.56.14-1.027 0-.466-.233-.933-.607-1.352-.374-.467-.98-.653-1.822-.653zm12.335 0c-.608 0-1.075.186-1.496.653-.42.42-.654.98-.654 1.586v18.519c0 4.152 1.449 7.417 4.439 9.796 2.523 2.052 5.653 3.125 9.297 3.125 3.551 0 6.635-1.026 9.205-3.125 2.99-2.38 4.485-5.644 4.485-9.796V2.565c0-.606-.234-1.119-.654-1.585-.42-.42-.981-.653-1.589-.653-.654 0-1.121.186-1.402.653-.42.42-.654.98-.654 1.586V21.27c0 2.846-.98 5.038-2.896 6.671-1.776 1.446-3.925 2.24-6.495 2.24-2.523 0-4.672-.747-6.494-2.24-1.962-1.633-2.897-3.825-2.897-6.67V2.565c0-.607-.186-1.12-.654-1.586-.42-.467-.934-.653-1.541-.653zm64.101 0c-.607 0-1.074.233-1.448.606-.374.373-.608.886-.608 1.446 0 .56.234 1.073.608 1.446.42.373.888.607 1.448.607h9.765v27.662c0 .606.187 1.073.654 1.493.374.42.934.653 1.495.653.607 0 1.121-.234 1.589-.653.42-.374.654-.887.654-1.493V4.432h9.718c.607 0 1.074-.234 1.448-.607.374-.42.607-.84.607-1.446s-.233-1.073-.607-1.446-.84-.606-1.448-.606H111.29zM85.827.373c-.607 0-1.075.233-1.495.653-.42.42-.654.98-.654 1.54v28.548c0 .793.28 1.493.84 2.1.608.606 1.309.839 2.103.839h16.96c.608 0 1.121-.14 1.589-.606.42-.374.654-.887.654-1.493 0-.607-.187-1.12-.654-1.586-.42-.42-.981-.653-1.589-.653v.046H88.023V2.472c0-.606-.187-1.12-.654-1.539-.42-.327-.935-.56-1.542-.56zm60.457 0c-.607 0-1.12.233-1.588.653-.42.42-.654.98-.654 1.54v29.201c0 1.353 1.074 2.38 2.43 2.38 1.354 0 2.429-1.074 2.429-2.426V21.318h9.531c1.822 0 3.364-.047 4.298.653 1.028.7 1.776 1.726 2.383 2.892.607 1.26.841 3.126.841 5.785v1.26c0 .652.234 1.165.607 1.585.374.373.888.607 1.542.607s1.168-.187 1.636-.653c.42-.42.654-.933.654-1.586v-2.006c0-2.146-.327-4.152-1.028-6.018-.981-2.752-2.71-4.385-5.046-4.991 2.149-.747 3.738-1.96 4.812-3.545 1.028-1.633 1.589-3.36 1.589-5.225 0-2.892-1.028-5.225-3.13-6.997-2.29-1.866-5.607-2.706-10.046-2.706h-11.26zm2.664 4.665h8.082c3.177 0 5.513.466 7.009 1.493 1.261.933 1.822 2.192 1.822 4.011 0 1.866-.795 3.36-2.383 4.292-1.542 1.026-3.644 1.493-6.26 1.493H148.9V5.038h.047z"/>
    </g>
</svg>
