<svg xmlns="http://www.w3.org/2000/svg" width="40" height="40" viewBox="0 0 40 40">
    <g fill="#21759B">
        <path d="M2.832 19.922c0 6.765 3.931 12.611 9.632 15.381L4.312 12.967c-.949 2.125-1.48 4.477-1.48 6.955zM31.46 19.06c0-2.113-.759-3.575-1.41-4.714-.866-1.408-1.678-2.6-1.678-4.008 0-1.57 1.192-3.033 2.87-3.033.076 0 .148.01.222.013-3.04-2.785-7.092-4.486-11.541-4.486-5.971 0-11.224 3.063-14.28 7.703.4.012.779.02 1.1.02 1.787 0 4.555-.216 4.555-.216.92-.054 1.03 1.299.11 1.408 0 0-.927.109-1.957.163l6.224 18.512 3.74-11.217-2.663-7.296c-.92-.054-1.792-.163-1.792-.163-.921-.054-.813-1.462.108-1.408 0 0 2.822.217 4.502.217 1.787 0 4.555-.217 4.555-.217.922-.054 1.03 1.3.11 1.408 0 0-.929.109-1.957.163l6.176 18.372 1.705-5.697c.739-2.364 1.301-4.061 1.301-5.524z"/>
        <path d="M20.222 21.417l-5.127 14.9c1.53.45 3.15.697 4.828.697 1.99 0 3.898-.344 5.675-.97-.046-.072-.087-.15-.122-.235l-5.254-14.392zM34.919 11.722c.074.545.115 1.13.115 1.758 0 1.734-.324 3.684-1.3 6.121l-5.22 15.094c5.081-2.963 8.499-8.468 8.499-14.773 0-2.971-.759-5.765-2.094-8.2z"/>
        <path d="M19.923 0C8.938 0 0 8.937 0 19.922c0 10.986 8.938 19.923 19.923 19.923 10.984 0 19.923-8.937 19.923-19.923C39.846 8.937 30.907 0 19.923 0zm0 38.932c-10.482 0-19.01-8.528-19.01-19.01C.913 9.441 9.441.913 19.923.913c10.48 0 19.008 8.528 19.008 19.009 0 10.482-8.527 19.01-19.008 19.01z"/>
    </g>
</svg>
