<?xml version="1.0" encoding="UTF-8"?>
<svg xmlns="http://www.w3.org/2000/svg" xmlns:xlink="http://www.w3.org/1999/xlink" viewBox="0 0 741.85 741.85">
  <defs>
    <style>
      .cls-1 {
        fill: url(#linear-gradient-8);
      }

      .cls-1, .cls-2, .cls-3, .cls-4, .cls-5, .cls-6, .cls-7, .cls-8, .cls-9, .cls-10, .cls-11, .cls-12, .cls-13, .cls-14, .cls-15, .cls-16, .cls-17, .cls-18, .cls-19, .cls-20, .cls-21, .cls-22, .cls-23, .cls-24, .cls-25, .cls-26, .cls-27, .cls-28, .cls-29, .cls-30, .cls-31, .cls-32, .cls-33, .cls-34, .cls-35, .cls-36, .cls-37, .cls-38, .cls-39, .cls-40, .cls-41, .cls-42, .cls-43, .cls-44, .cls-45, .cls-46, .cls-47, .cls-48, .cls-49, .cls-50, .cls-51, .cls-52, .cls-53, .cls-54, .cls-55, .cls-56, .cls-57, .cls-58, .cls-59, .cls-60, .cls-61, .cls-62, .cls-63, .cls-64, .cls-65, .cls-66, .cls-67, .cls-68, .cls-69, .cls-70, .cls-71, .cls-72, .cls-73, .cls-74, .cls-75, .cls-76, .cls-77, .cls-78, .cls-79, .cls-80, .cls-81, .cls-82, .cls-83, .cls-84, .cls-85 {
        stroke-width: 0px;
      }

      .cls-1, .cls-2, .cls-3, .cls-4, .cls-5, .cls-7, .cls-8, .cls-9, .cls-12, .cls-13, .cls-14, .cls-15, .cls-16, .cls-17, .cls-19, .cls-21, .cls-23, .cls-24, .cls-25, .cls-27, .cls-28, .cls-29, .cls-30, .cls-31, .cls-32, .cls-33, .cls-34, .cls-35, .cls-37, .cls-38, .cls-39, .cls-40, .cls-41, .cls-42, .cls-44, .cls-46, .cls-48, .cls-50, .cls-51, .cls-53, .cls-55, .cls-56, .cls-57, .cls-58, .cls-59, .cls-60, .cls-61, .cls-62, .cls-63, .cls-65, .cls-66, .cls-67, .cls-68, .cls-69, .cls-70, .cls-71, .cls-73, .cls-76, .cls-77, .cls-78, .cls-79, .cls-80, .cls-83, .cls-84 {
        fill-rule: evenodd;
      }

      .cls-2 {
        fill: url(#linear-gradient-11);
      }

      .cls-3 {
        fill: url(#linear-gradient-46);
      }

      .cls-4 {
        fill: url(#linear-gradient-30);
      }

      .cls-5 {
        fill: url(#linear-gradient-7);
      }

      .cls-6 {
        fill: url(#linear-gradient);
      }

      .cls-7 {
        fill: url(#linear-gradient-16);
      }

      .cls-8 {
        fill: url(#linear-gradient-57);
      }

      .cls-9 {
        fill: url(#linear-gradient-9);
      }

      .cls-10 {
        fill: url(#radial-gradient-2);
        mix-blend-mode: multiply;
      }

      .cls-11 {
        fill: url(#linear-gradient-76);
      }

      .cls-12 {
        fill: url(#linear-gradient-41);
      }

      .cls-13 {
        fill: url(#linear-gradient-18);
      }

      .cls-86 {
        isolation: isolate;
      }

      .cls-14 {
        fill: url(#linear-gradient-45);
      }

      .cls-15 {
        fill: url(#linear-gradient-59);
      }

      .cls-16 {
        fill: url(#linear-gradient-58);
      }

      .cls-17 {
        fill: url(#linear-gradient-44);
      }

      .cls-18 {
        fill: url(#radial-gradient-3);
      }

      .cls-18, .cls-75 {
        mix-blend-mode: screen;
      }

      .cls-19 {
        fill: url(#linear-gradient-28);
      }

      .cls-20 {
        fill: url(#linear-gradient-81);
      }

      .cls-21 {
        fill: url(#linear-gradient-35);
      }

      .cls-22 {
        fill: url(#linear-gradient-73);
      }

      .cls-23 {
        fill: url(#linear-gradient-31);
      }

      .cls-24 {
        fill: url(#linear-gradient-37);
      }

      .cls-25 {
        fill: url(#linear-gradient-60);
      }

      .cls-26 {
        fill: url(#linear-gradient-71);
      }

      .cls-27 {
        fill: url(#linear-gradient-53);
      }

      .cls-28 {
        fill: url(#linear-gradient-64);
      }

      .cls-29 {
        fill: url(#linear-gradient-23);
      }

      .cls-30 {
        fill: url(#linear-gradient-63);
      }

      .cls-31 {
        fill: url(#linear-gradient-65);
      }

      .cls-32 {
        fill: url(#linear-gradient-61);
      }

      .cls-33 {
        fill: url(#linear-gradient-17);
      }

      .cls-34 {
        fill: url(#linear-gradient-38);
      }

      .cls-35 {
        fill: url(#linear-gradient-47);
      }

      .cls-36 {
        fill: url(#linear-gradient-2);
      }

      .cls-37 {
        fill: url(#linear-gradient-62);
      }

      .cls-38 {
        fill: url(#linear-gradient-49);
      }

      .cls-39 {
        fill: url(#linear-gradient-13);
      }

      .cls-40 {
        fill: url(#linear-gradient-27);
      }

      .cls-41 {
        fill: url(#linear-gradient-20);
      }

      .cls-42 {
        fill: url(#linear-gradient-52);
      }

      .cls-43 {
        fill: url(#linear-gradient-3);
      }

      .cls-44 {
        fill: url(#linear-gradient-67);
      }

      .cls-45 {
        fill: url(#linear-gradient-77);
      }

      .cls-46 {
        fill: url(#linear-gradient-15);
      }

      .cls-47 {
        fill: url(#linear-gradient-69);
      }

      .cls-48 {
        fill: url(#linear-gradient-5);
      }

      .cls-49 {
        fill: url(#radial-gradient);
      }

      .cls-50 {
        fill: url(#linear-gradient-40);
      }

      .cls-51 {
        fill: url(#linear-gradient-24);
      }

      .cls-52 {
        fill: url(#linear-gradient-82);
      }

      .cls-53 {
        fill: url(#linear-gradient-29);
      }

      .cls-54 {
        fill: url(#linear-gradient-36);
      }

      .cls-55 {
        fill: url(#linear-gradient-19);
      }

      .cls-56 {
        fill: url(#linear-gradient-33);
      }

      .cls-57 {
        fill: url(#linear-gradient-68);
      }

      .cls-58 {
        fill: url(#linear-gradient-50);
      }

      .cls-59 {
        fill: url(#linear-gradient-32);
      }

      .cls-60 {
        fill: url(#linear-gradient-56);
      }

      .cls-61 {
        fill: url(#linear-gradient-39);
      }

      .cls-62 {
        fill: url(#linear-gradient-66);
      }

      .cls-63 {
        fill: url(#linear-gradient-42);
      }

      .cls-64 {
        fill: url(#linear-gradient-72);
      }

      .cls-65 {
        fill: url(#linear-gradient-54);
      }

      .cls-66 {
        fill: url(#linear-gradient-43);
      }

      .cls-67 {
        fill: url(#linear-gradient-51);
      }

      .cls-68 {
        fill: url(#linear-gradient-22);
      }

      .cls-69 {
        fill: url(#linear-gradient-12);
      }

      .cls-70 {
        fill: url(#linear-gradient-14);
      }

      .cls-71 {
        fill: url(#linear-gradient-48);
      }

      .cls-72 {
        fill: url(#linear-gradient-78);
      }

      .cls-73 {
        fill: url(#linear-gradient-25);
      }

      .cls-74 {
        fill: url(#linear-gradient-74);
      }

      .cls-75 {
        fill: url(#linear-gradient-70);
      }

      .cls-76 {
        fill: url(#linear-gradient-6);
      }

      .cls-77 {
        fill: url(#linear-gradient-4);
      }

      .cls-78 {
        fill: url(#linear-gradient-21);
      }

      .cls-79 {
        fill: url(#linear-gradient-34);
      }

      .cls-80 {
        fill: url(#linear-gradient-26);
      }

      .cls-81 {
        fill: url(#linear-gradient-80);
      }

      .cls-82 {
        fill: url(#linear-gradient-79);
      }

      .cls-83 {
        fill: url(#linear-gradient-10);
      }

      .cls-84 {
        fill: url(#linear-gradient-55);
      }

      .cls-85 {
        fill: url(#linear-gradient-75);
      }
    </style>
    <linearGradient id="linear-gradient" x1="-11.98" y1="370.92" x2="767.46" y2="370.92" gradientUnits="userSpaceOnUse">
      <stop offset="0" stop-color="#db9125"/>
      <stop offset=".04" stop-color="#c18121"/>
      <stop offset=".09" stop-color="#ae751e"/>
      <stop offset=".12" stop-color="#a7711e"/>
      <stop offset=".19" stop-color="#ac751e"/>
      <stop offset=".28" stop-color="#bb8221"/>
      <stop offset=".38" stop-color="#d59725"/>
      <stop offset=".39" stop-color="#d99a26"/>
      <stop offset=".78" stop-color="#fff778"/>
      <stop offset="1" stop-color="#f6ce69"/>
    </linearGradient>
    <linearGradient id="linear-gradient-2" x1="121.09" y1="620.76" x2="631.4" y2="110.45" xlink:href="#linear-gradient"/>
    <linearGradient id="linear-gradient-3" x1="177.46" y1="177.45" x2="551.79" y2="551.78" xlink:href="#linear-gradient"/>
    <radialGradient id="radial-gradient" cx="370.92" cy="370.92" fx="370.92" fy="370.92" r="254.03" gradientUnits="userSpaceOnUse">
      <stop offset="0" stop-color="#343f4a"/>
      <stop offset=".57" stop-color="#2a323b"/>
      <stop offset="1" stop-color="#161a1f"/>
    </radialGradient>
    <radialGradient id="radial-gradient-2" cx="370.92" cy="370.92" fx="370.92" fy="370.92" r="221.87" xlink:href="#radial-gradient"/>
    <linearGradient id="linear-gradient-4" x1="556.73" y1="42.66" x2="392.36" y2="490.41" gradientUnits="userSpaceOnUse">
      <stop offset="0" stop-color="#343f4a"/>
      <stop offset=".57" stop-color="#2a323b"/>
      <stop offset="1" stop-color="#161a1f"/>
    </linearGradient>
    <linearGradient id="linear-gradient-5" x1="560.37" y1="44" x2="396.01" y2="491.75" xlink:href="#linear-gradient-4"/>
    <linearGradient id="linear-gradient-6" x1="510.23" y1="25.6" x2="345.87" y2="473.34" xlink:href="#linear-gradient-4"/>
    <linearGradient id="linear-gradient-7" x1="507.5" y1="24.59" x2="343.14" y2="472.34" xlink:href="#linear-gradient-4"/>
    <linearGradient id="linear-gradient-8" x1="464.31" y1="8.74" x2="299.95" y2="456.49" xlink:href="#linear-gradient-4"/>
    <linearGradient id="linear-gradient-9" x1="457.69" y1="6.31" x2="293.33" y2="454.05" xlink:href="#linear-gradient-4"/>
    <linearGradient id="linear-gradient-10" x1="419.27" y1="-7.8" x2="254.91" y2="439.95" xlink:href="#linear-gradient-4"/>
    <linearGradient id="linear-gradient-11" x1="405.43" y1="-12.87" x2="241.07" y2="434.87" xlink:href="#linear-gradient-4"/>
    <linearGradient id="linear-gradient-12" x1="374.66" y1="-24.17" x2="210.3" y2="423.57" xlink:href="#linear-gradient-4"/>
    <linearGradient id="linear-gradient-13" x1="355.75" y1="-31.11" x2="191.39" y2="416.64" xlink:href="#linear-gradient-4"/>
    <linearGradient id="linear-gradient-14" x1="332.03" y1="-39.82" x2="167.67" y2="407.93" xlink:href="#linear-gradient-4"/>
    <linearGradient id="linear-gradient-15" x1="310.65" y1="-47.68" x2="146.28" y2="400.07" xlink:href="#linear-gradient-4"/>
    <linearGradient id="linear-gradient-16" x1="295.27" y1="-53.31" x2="130.91" y2="394.43" xlink:href="#linear-gradient-4"/>
    <linearGradient id="linear-gradient-17" x1="272.54" y1="-61.67" x2="108.17" y2="386.08" xlink:href="#linear-gradient-4"/>
    <linearGradient id="linear-gradient-18" x1="264.48" y1="-64.62" x2="100.12" y2="383.13" xlink:href="#linear-gradient-4"/>
    <linearGradient id="linear-gradient-19" x1="241.06" y1="-73.22" x2="76.69" y2="374.53" xlink:href="#linear-gradient-4"/>
    <linearGradient id="linear-gradient-20" x1="242.18" y1="-72.81" x2="77.82" y2="374.94" xlink:href="#linear-gradient-4"/>
    <linearGradient id="linear-gradient-21" x1="215.87" y1="-82.46" x2="51.51" y2="365.29" xlink:href="#linear-gradient-4"/>
    <linearGradient id="linear-gradient-22" x1="227.74" y1="-78.11" x2="63.38" y2="369.64" xlink:href="#linear-gradient-4"/>
    <linearGradient id="linear-gradient-23" x1="198.49" y1="-88.85" x2="34.13" y2="358.9" xlink:href="#linear-gradient-4"/>
    <linearGradient id="linear-gradient-24" x1="221.45" y1="-80.42" x2="57.08" y2="367.33" xlink:href="#linear-gradient-4"/>
    <linearGradient id="linear-gradient-25" x1="190.05" y1="-91.94" x2="25.69" y2="355.81" xlink:href="#linear-gradient-4"/>
    <linearGradient id="linear-gradient-26" x1="221.99" y1="-80.22" x2="57.62" y2="367.53" xlink:href="#linear-gradient-4"/>
    <linearGradient id="linear-gradient-27" x1="190.64" y1="-91.72" x2="26.28" y2="356.02" xlink:href="#linear-gradient-4"/>
    <linearGradient id="linear-gradient-28" x1="230.33" y1="-77.16" x2="65.97" y2="370.59" xlink:href="#linear-gradient-4"/>
    <linearGradient id="linear-gradient-29" x1="200.9" y1="-87.96" x2="36.54" y2="359.79" xlink:href="#linear-gradient-4"/>
    <linearGradient id="linear-gradient-30" x1="245.65" y1="-71.53" x2="81.29" y2="376.22" xlink:href="#linear-gradient-4"/>
    <linearGradient id="linear-gradient-31" x1="219.38" y1="-81.18" x2="55.01" y2="366.57" xlink:href="#linear-gradient-4"/>
    <linearGradient id="linear-gradient-32" x1="269.31" y1="-62.85" x2="104.95" y2="384.9" xlink:href="#linear-gradient-4"/>
    <linearGradient id="linear-gradient-33" x1="245.19" y1="-71.7" x2="80.82" y2="376.05" xlink:href="#linear-gradient-4"/>
    <linearGradient id="linear-gradient-34" x1="300.29" y1="-51.48" x2="135.92" y2="396.27" xlink:href="#linear-gradient-4"/>
    <linearGradient id="linear-gradient-35" x1="277.57" y1="-59.81" x2="113.21" y2="387.94" xlink:href="#linear-gradient-4"/>
    <linearGradient id="linear-gradient-36" x1="400.59" y1="-14.66" x2="236.22" y2="433.09" xlink:href="#linear-gradient-4"/>
    <linearGradient id="linear-gradient-37" x1="627.64" y1="68.69" x2="463.27" y2="516.44" xlink:href="#linear-gradient-4"/>
    <linearGradient id="linear-gradient-38" x1="645.45" y1="75.23" x2="481.08" y2="522.97" xlink:href="#linear-gradient-4"/>
    <linearGradient id="linear-gradient-39" x1="667.33" y1="83.27" x2="502.97" y2="531.01" xlink:href="#linear-gradient-4"/>
    <linearGradient id="linear-gradient-40" x1="689.61" y1="91.44" x2="525.25" y2="539.19" xlink:href="#linear-gradient-4"/>
    <linearGradient id="linear-gradient-41" x1="701.45" y1="95.79" x2="537.09" y2="543.53" xlink:href="#linear-gradient-4"/>
    <linearGradient id="linear-gradient-42" x1="726.05" y1="104.82" x2="561.69" y2="552.57" xlink:href="#linear-gradient-4"/>
    <linearGradient id="linear-gradient-43" x1="729.48" y1="106.07" x2="565.11" y2="553.82" xlink:href="#linear-gradient-4"/>
    <linearGradient id="linear-gradient-44" x1="757.86" y1="116.49" x2="593.5" y2="564.24" xlink:href="#linear-gradient-4"/>
    <linearGradient id="linear-gradient-45" x1="751.63" y1="114.2" x2="587.27" y2="561.95" xlink:href="#linear-gradient-4"/>
    <linearGradient id="linear-gradient-46" x1="782.37" y1="125.49" x2="618.01" y2="573.24" xlink:href="#linear-gradient-4"/>
    <linearGradient id="linear-gradient-47" x1="767.32" y1="119.97" x2="602.96" y2="567.71" xlink:href="#linear-gradient-4"/>
    <linearGradient id="linear-gradient-48" x1="798.76" y1="131.51" x2="634.4" y2="579.26" xlink:href="#linear-gradient-4"/>
    <linearGradient id="linear-gradient-49" x1="774.97" y1="122.78" x2="610.61" y2="570.52" xlink:href="#linear-gradient-4"/>
    <linearGradient id="linear-gradient-50" x1="806.6" y1="134.39" x2="642.24" y2="582.14" xlink:href="#linear-gradient-4"/>
    <linearGradient id="linear-gradient-51" x1="775.34" y1="122.91" x2="610.97" y2="570.66" xlink:href="#linear-gradient-4"/>
    <linearGradient id="linear-gradient-52" x1="807.01" y1="134.54" x2="642.65" y2="582.29" xlink:href="#linear-gradient-4"/>
    <linearGradient id="linear-gradient-53" x1="766.51" y1="119.67" x2="602.15" y2="567.42" xlink:href="#linear-gradient-4"/>
    <linearGradient id="linear-gradient-54" x1="797.85" y1="131.17" x2="633.49" y2="578.92" xlink:href="#linear-gradient-4"/>
    <linearGradient id="linear-gradient-55" x1="748.97" y1="113.23" x2="584.61" y2="560.98" xlink:href="#linear-gradient-4"/>
    <linearGradient id="linear-gradient-56" x1="778.72" y1="124.15" x2="614.36" y2="571.9" xlink:href="#linear-gradient-4"/>
    <linearGradient id="linear-gradient-57" x1="724.62" y1="104.3" x2="560.26" y2="552.04" xlink:href="#linear-gradient-4"/>
    <linearGradient id="linear-gradient-58" x1="750.99" y1="113.97" x2="586.63" y2="561.72" xlink:href="#linear-gradient-4"/>
    <linearGradient id="linear-gradient-59" x1="694.9" y1="93.38" x2="530.54" y2="541.13" xlink:href="#linear-gradient-4"/>
    <linearGradient id="linear-gradient-60" x1="716.2" y1="101.2" x2="551.83" y2="548.95" xlink:href="#linear-gradient-4"/>
    <linearGradient id="linear-gradient-61" x1="658.76" y1="80.12" x2="494.39" y2="527.86" xlink:href="#linear-gradient-4"/>
    <linearGradient id="linear-gradient-62" x1="674.66" y1="85.95" x2="510.3" y2="533.7" xlink:href="#linear-gradient-4"/>
    <linearGradient id="linear-gradient-63" x1="618" y1="65.15" x2="453.64" y2="512.9" xlink:href="#linear-gradient-4"/>
    <linearGradient id="linear-gradient-64" x1="627.15" y1="68.51" x2="462.79" y2="516.26" xlink:href="#linear-gradient-4"/>
    <linearGradient id="linear-gradient-65" x1="571.87" y1="48.22" x2="407.5" y2="495.97" xlink:href="#linear-gradient-4"/>
    <linearGradient id="linear-gradient-66" x1="576.97" y1="50.09" x2="412.6" y2="497.84" xlink:href="#linear-gradient-4"/>
    <linearGradient id="linear-gradient-67" x1="522.39" y1="30.06" x2="358.03" y2="477.8" xlink:href="#linear-gradient-4"/>
    <linearGradient id="linear-gradient-68" x1="525.14" y1="31.07" x2="360.78" y2="478.82" xlink:href="#linear-gradient-4"/>
    <linearGradient id="linear-gradient-69" x1="658.81" y1="80.13" x2="494.44" y2="527.88" xlink:href="#linear-gradient-4"/>
    <linearGradient id="linear-gradient-70" x1="342.09" y1="45.77" x2="441.01" y2="137.97" gradientUnits="userSpaceOnUse">
      <stop offset="0" stop-color="#b07515"/>
      <stop offset=".09" stop-color="#e0ba5f"/>
      <stop offset=".14" stop-color="#f5d77f"/>
      <stop offset=".26" stop-color="#ffffd7"/>
      <stop offset=".36" stop-color="#f5d77f"/>
      <stop offset=".49" stop-color="#b07515"/>
      <stop offset=".57" stop-color="#e0ba5f"/>
      <stop offset=".61" stop-color="#f5d77f"/>
      <stop offset=".74" stop-color="#ffffd7"/>
      <stop offset=".84" stop-color="#f5d77f"/>
      <stop offset="1" stop-color="#b07515"/>
    </linearGradient>
    <linearGradient id="linear-gradient-71" x1="270.89" y1="-28.24" x2="502.26" y2="203.12" gradientUnits="userSpaceOnUse">
      <stop offset="0" stop-color="#161a1f"/>
      <stop offset=".14" stop-color="#2a323b"/>
      <stop offset=".26" stop-color="#343f4a"/>
      <stop offset=".36" stop-color="#2a323b"/>
      <stop offset=".49" stop-color="#161a1f"/>
      <stop offset=".61" stop-color="#2a323b"/>
      <stop offset=".74" stop-color="#343f4a"/>
      <stop offset=".84" stop-color="#2a323b"/>
      <stop offset="1" stop-color="#161a1f"/>
    </linearGradient>
    <linearGradient id="linear-gradient-72" x1="235.52" y1="401.69" x2="308.15" y2="245.26" xlink:href="#linear-gradient"/>
    <linearGradient id="linear-gradient-73" x1="226.16" y1="328.85" x2="301.13" y2="328.85" xlink:href="#linear-gradient"/>
    <linearGradient id="linear-gradient-74" x1="333.92" y1="329.63" x2="522.23" y2="329.63" xlink:href="#linear-gradient"/>
    <radialGradient id="radial-gradient-3" cx="534.04" cy="319.76" fx="534.04" fy="319.76" r="453.17" gradientUnits="userSpaceOnUse">
      <stop offset=".14" stop-color="#bfa660"/>
      <stop offset=".21" stop-color="#95824b"/>
      <stop offset=".29" stop-color="#6e5f37"/>
      <stop offset=".38" stop-color="#4c4226"/>
      <stop offset=".47" stop-color="#302918"/>
      <stop offset=".57" stop-color="#1a170d"/>
      <stop offset=".68" stop-color="#0b0a05"/>
      <stop offset=".81" stop-color="#020201"/>
      <stop offset="1" stop-color="#000"/>
    </radialGradient>
    <linearGradient id="linear-gradient-75" x1="212.91" y1="482.41" x2="248.52" y2="482.41" xlink:href="#linear-gradient"/>
    <linearGradient id="linear-gradient-76" x1="255.18" y1="482.76" x2="286.88" y2="482.76" xlink:href="#linear-gradient"/>
    <linearGradient id="linear-gradient-77" x1="293.94" y1="482.41" x2="326" y2="482.41" xlink:href="#linear-gradient"/>
    <linearGradient id="linear-gradient-78" x1="330.25" y1="482.41" x2="362.19" y2="482.41" xlink:href="#linear-gradient"/>
    <linearGradient id="linear-gradient-79" x1="366.04" y1="482.4" x2="404.58" y2="482.4" xlink:href="#linear-gradient"/>
    <linearGradient id="linear-gradient-80" x1="411.3" y1="482.41" x2="449.75" y2="482.41" xlink:href="#linear-gradient"/>
    <linearGradient id="linear-gradient-81" x1="458.46" y1="482.41" x2="488.51" y2="482.41" xlink:href="#linear-gradient"/>
    <linearGradient id="linear-gradient-82" x1="495.96" y1="482.41" x2="531.48" y2="482.41" xlink:href="#linear-gradient"/>
  </defs>
  <g class="cls-86">
    <g id="Layer_1" data-name="Layer 1">
      <g>
        <g>
          <path class="cls-6" d="m370.92,741.85C166.07,741.85,0,575.78,0,370.92S166.07,0,370.92,0s370.92,166.06,370.92,370.92-166.06,370.93-370.92,370.93Z"/>
          <path class="cls-36" d="m370.92,733.69c-200.35,0-362.76-162.41-362.76-362.77S170.58,8.16,370.92,8.16s362.76,162.4,362.76,362.75-162.41,362.77-362.76,362.77Z"/>
          <path class="cls-43" d="m370.92,631.95c-144.17,0-261.04-116.86-261.04-261.04S226.76,109.89,370.92,109.89s261.03,116.86,261.03,261.03-116.86,261.04-261.03,261.04Z"/>
          <path class="cls-49" d="m370.92,624.95c-140.3,0-254.03-113.73-254.03-254.04s113.73-254.03,254.03-254.03,254.03,113.73,254.03,254.03-113.73,254.04-254.03,254.04Z"/>
          <path class="cls-10" d="m370.92,592.79c-122.54,0-221.87-99.33-221.87-221.88s99.33-221.87,221.87-221.87,221.87,99.33,221.87,221.87-99.33,221.88-221.87,221.88Z"/>
          <g>
            <g>
              <g>
                <path class="cls-77" d="m339.36,681.79s-17.55-5.01-21.56-35.24c0,0,22.66,15.33,21.56,35.24Z"/>
                <path class="cls-48" d="m338.29,686.2s-5.03,17.54-35.25,21.56c0,0,15.32-22.67,35.25-21.56Z"/>
              </g>
              <g>
                <path class="cls-76" d="m286.96,672.41s-16.19-8.42-14.08-38.85c0,0,19.14,19.55,14.08,38.85Z"/>
                <path class="cls-5" d="m285.03,676.5s-8.43,16.18-38.85,14.08c0,0,19.55-19.14,38.85-14.08Z"/>
              </g>
              <g>
                <path class="cls-1" d="m239.24,654.47s-15.02-10.37-9.16-40.29c0,0,16.57,21.77,9.16,40.29Z"/>
                <path class="cls-9" d="m236.82,658.3s-10.37,15.02-40.29,9.16c0,0,21.77-16.58,40.29-9.16Z"/>
              </g>
              <g>
                <path class="cls-83" d="m192.87,628.24s-12.26-13.52.29-41.3c0,0,11.16,24.97-.29,41.3Z"/>
                <path class="cls-2" d="m189.64,631.42s-13.52,12.26-41.32-.3c0,0,24.98-11.15,41.32.3Z"/>
              </g>
              <g>
                <path class="cls-69" d="m150.91,594s-9.44-15.63,8.21-40.5c0,0,6.16,26.66-8.21,40.5Z"/>
                <path class="cls-39" d="m147.13,596.48s-15.62,9.43-40.49-8.22c0,0,26.66-6.15,40.49,8.22Z"/>
              </g>
              <g>
                <path class="cls-70" d="m115.68,552.27s-7.62-16.58,12.7-39.32c0,0,3.13,27.18-12.7,39.32Z"/>
                <path class="cls-46" d="m111.65,554.32s-16.59,7.62-39.32-12.7c0,0,27.18-3.12,39.32,12.7Z"/>
              </g>
              <g>
                <path class="cls-7" d="m89.28,507.07s-6.5-17.05,15.3-38.38c0,0,1.31,27.32-15.3,38.38Z"/>
                <path class="cls-33" d="m85.11,508.84s-17.06,6.49-38.38-15.3c0,0,27.32-1.31,38.38,15.3Z"/>
              </g>
              <g>
                <path class="cls-13" d="m70.95,459.88s-5.88-17.28,16.68-37.8c0,0,.32,27.35-16.68,37.8Z"/>
                <path class="cls-55" d="m66.73,461.5s-17.28,5.88-37.8-16.67c0,0,27.35-.32,37.8,16.67Z"/>
              </g>
              <g>
                <path class="cls-41" d="m60.46,410.5s-2.97-18,22.63-34.57c0,0-4.16,27.03-22.63,34.57Z"/>
                <path class="cls-78" d="m56.02,411.41s-18,2.97-34.57-22.64c0,0,27.04,4.16,34.57,22.64Z"/>
              </g>
              <g>
                <path class="cls-68" d="m59,358.2s.49-18.24,28.77-29.65c0,0-9.2,25.76-28.77,29.65Z"/>
                <path class="cls-29" d="m54.48,358.26s-18.24-.49-29.66-28.77c0,0,25.77,9.2,29.66,28.77Z"/>
              </g>
              <g>
                <path class="cls-51" d="m66,306.59s4.74-17.63,34.9-22.12c0,0-14.97,22.9-34.9,22.12Z"/>
                <path class="cls-73" d="m61.59,305.59s-17.63-4.74-22.11-34.91c0,0,22.9,14.97,22.11,34.91Z"/>
              </g>
              <g>
                <path class="cls-80" d="m80.81,256.3s9.36-15.67,39.6-11.78c0,0-20.63,17.95-39.6,11.78Z"/>
                <path class="cls-40" d="m76.84,254.13s-15.67-9.36-11.78-39.6c0,0,17.96,20.64,11.78,39.6Z"/>
              </g>
              <g>
                <path class="cls-19" d="m105.25,208.94s12.51-13.29,41.21-2.97c0,0-24.02,13.1-41.21,2.97Z"/>
                <path class="cls-53" d="m101.84,205.97s-13.29-12.52-2.98-41.22c0,0,13.1,24.02,2.98,41.22Z"/>
              </g>
              <g>
                <path class="cls-4" d="m137.23,165.16s15.08-10.28,40.88,5.98c0,0-26.27,7.61-40.88-5.98Z"/>
                <path class="cls-23" d="m134.53,161.52s-10.27-15.08,5.98-40.88c0,0,7.61,26.27-5.98,40.88Z"/>
              </g>
              <g>
                <path class="cls-59" d="m177.37,127.84s16.26-8.29,39.8,11.11c0,0-27.03,4.22-39.8-11.11Z"/>
                <path class="cls-56" d="m175.16,123.9s-8.29-16.26,11.11-39.8c0,0,4.23,27.03-11.11,39.8Z"/>
              </g>
              <g>
                <path class="cls-79" d="m223.48,97.8s16.83-7.05,38.87,14.02c0,0-27.27,2.21-38.87-14.02Z"/>
                <path class="cls-21" d="m221.57,93.69s-7.06-16.82,14.02-38.86c0,0,2.21,27.27-14.02,38.86Z"/>
              </g>
            </g>
            <path class="cls-54" d="m369.25,685.05s-3.3,0-9.49,0c-3.1,0-6.91.05-11.4-.25-2.25-.12-4.66-.26-7.24-.41-1.29-.07-2.61-.15-3.98-.24-1.36-.15-2.76-.3-4.2-.46-5.75-.62-12.14-1.21-19.02-2.45-6.93-.94-14.3-2.61-22.21-4.29-15.71-3.79-33.17-9.35-51.45-17.3-18.26-7.97-37.38-18.34-56.02-31.64-4.76-3.19-9.19-6.96-13.87-10.52-4.61-3.64-9.02-7.64-13.6-11.52-8.8-8.18-17.63-16.76-25.8-26.24-2.04-2.36-4.15-4.69-6.16-7.11-1.96-2.48-3.92-4.95-5.9-7.45l-2.96-3.73-2.8-3.89c-1.87-2.59-3.74-5.2-5.61-7.82-7.12-10.71-14.1-21.74-19.92-33.54-6.11-11.64-11.16-23.91-15.82-36.34l-3.18-9.47c-.52-1.57-1.09-3.14-1.57-4.73l-1.36-4.81-2.71-9.62-2.24-9.75c-5.9-26.03-8.24-52.81-7.22-79.07.14-12.9,1.8-26.03,3.49-38.8,1.19-6.32,2.36-12.6,3.53-18.85,1.43-6.18,3.21-12.23,4.77-18.28,7-24,16.56-46.28,27.54-66.36,11.39-19.85,24.06-37.44,36.99-52.62,13.38-14.77,26.44-27.6,39.2-37.57,3.15-2.52,6.2-4.97,9.15-7.33,3.04-2.24,6.07-4.25,8.93-6.26,2.87-1.99,5.62-3.9,8.26-5.72,2.63-1.84,5.35-3.26,7.81-4.79,5-2.94,9.41-5.65,13.35-7.81,4.03-2,7.45-3.72,10.23-5.1,5.55-2.77,8.51-4.25,8.51-4.25.37-.18.82-.03,1.01.34.18.36.03.81-.32,1l-.05.03s-2.9,1.55-8.35,4.46c-2.72,1.46-6.07,3.25-10.01,5.35-3.86,2.25-8.15,5.1-13.04,8.11-2.41,1.57-5.08,3.03-7.64,4.91-2.57,1.86-5.26,3.81-8.07,5.84-2.79,2.05-5.76,4.1-8.72,6.38-2.87,2.4-5.84,4.88-8.91,7.45-12.41,10.11-25.05,23.06-37.94,37.88-12.57,15.12-24.83,32.59-35.8,52.24-10.56,19.87-19.67,41.86-26.25,65.47-1.47,5.95-3.13,11.9-4.47,17.97-1.11,6.12-2.23,12.28-3.35,18.49-1.6,12.47-3.19,24.97-3.31,38.05-.93,25.65,1.43,51.92,7.28,77.35l2.21,9.54,2.68,9.4,1.34,4.71c.46,1.56,1.03,3.09,1.54,4.63l3.15,9.25c4.6,12.15,9.56,24.13,15.57,35.5,5.77,11.48,12.43,22.36,19.32,32.9,1.82,2.58,3.62,5.14,5.42,7.71l2.7,3.83,2.87,3.68c1.91,2.46,3.81,4.89,5.71,7.33,1.95,2.39,4,4.69,5.98,7.02,7.91,9.36,16.5,17.83,25.05,25.94,4.47,3.85,8.75,7.82,13.24,11.43,4.56,3.53,8.87,7.26,13.52,10.43,18.12,13.3,36.58,24.06,54.42,32.29,17.83,8.3,34.98,14.07,50.39,18.35,7.76,1.94,15.02,3.87,21.85,5.06,6.78,1.49,13.11,2.29,18.81,3.13,1.42.2,2.81.4,4.16.6,1.36.13,2.67.26,3.95.38,2.56.24,4.95.47,7.18.69,4.45.53,8.27.64,11.36.8,6.18.31,9.48.46,9.48.46Z"/>
            <g>
              <g>
                <path class="cls-24" d="m398.51,681.79s17.55-5.01,21.56-35.24c0,0-22.66,15.33-21.56,35.24Z"/>
                <path class="cls-34" d="m399.59,686.2s5.02,17.54,35.25,21.56c0,0-15.32-22.67-35.25-21.56Z"/>
              </g>
              <g>
                <path class="cls-61" d="m450.9,672.41s16.19-8.42,14.08-38.85c0,0-19.13,19.55-14.08,38.85Z"/>
                <path class="cls-50" d="m452.84,676.5s8.43,16.18,38.85,14.08c0,0-19.55-19.14-38.85-14.08Z"/>
              </g>
              <g>
                <path class="cls-12" d="m498.63,654.47s15.02-10.37,9.16-40.29c0,0-16.58,21.77-9.16,40.29Z"/>
                <path class="cls-63" d="m501.05,658.3s10.37,15.02,40.29,9.16c0,0-21.77-16.58-40.29-9.16Z"/>
              </g>
              <g>
                <path class="cls-66" d="m545,628.24s12.26-13.52-.29-41.3c0,0-11.16,24.97.29,41.3Z"/>
                <path class="cls-17" d="m548.23,631.42s13.53,12.26,41.32-.3c0,0-24.98-11.15-41.32.3Z"/>
              </g>
              <g>
                <path class="cls-14" d="m586.96,594s9.43-15.63-8.22-40.5c0,0-6.15,26.66,8.22,40.5Z"/>
                <path class="cls-3" d="m590.74,596.48s15.63,9.43,40.49-8.22c0,0-26.66-6.15-40.49,8.22Z"/>
              </g>
              <g>
                <path class="cls-35" d="m622.19,552.27s7.62-16.58-12.7-39.32c0,0-3.13,27.18,12.7,39.32Z"/>
                <path class="cls-71" d="m626.22,554.32s16.58,7.62,39.32-12.7c0,0-27.18-3.12-39.32,12.7Z"/>
              </g>
              <g>
                <path class="cls-38" d="m648.6,507.07s6.5-17.05-15.3-38.38c0,0-1.3,27.32,15.3,38.38Z"/>
                <path class="cls-58" d="m652.76,508.84s17.05,6.49,38.38-15.3c0,0-27.32-1.31-38.38,15.3Z"/>
              </g>
              <g>
                <path class="cls-67" d="m666.92,459.88s5.88-17.28-16.68-37.8c0,0-.31,27.35,16.68,37.8Z"/>
                <path class="cls-42" d="m671.14,461.5s17.28,5.88,37.81-16.67c0,0-27.36-.32-37.81,16.67Z"/>
              </g>
              <g>
                <path class="cls-27" d="m677.41,410.5s2.97-18-22.63-34.57c0,0,4.16,27.03,22.63,34.57Z"/>
                <path class="cls-65" d="m681.85,411.41s18,2.97,34.57-22.64c0,0-27.04,4.16-34.57,22.64Z"/>
              </g>
              <g>
                <path class="cls-84" d="m678.87,358.2s-.49-18.24-28.76-29.65c0,0,9.19,25.76,28.76,29.65Z"/>
                <path class="cls-60" d="m683.39,358.26s18.25-.49,29.67-28.77c0,0-25.77,9.2-29.67,28.77Z"/>
              </g>
              <g>
                <path class="cls-8" d="m671.87,306.59s-4.74-17.63-34.9-22.12c0,0,14.97,22.9,34.9,22.12Z"/>
                <path class="cls-16" d="m676.28,305.59s17.62-4.74,22.11-34.91c0,0-22.91,14.97-22.11,34.91Z"/>
              </g>
              <g>
                <path class="cls-15" d="m657.06,256.3s-9.35-15.67-39.6-11.78c0,0,20.63,17.95,39.6,11.78Z"/>
                <path class="cls-25" d="m661.03,254.13s15.66-9.36,11.78-39.6c0,0-17.96,20.64-11.78,39.6Z"/>
              </g>
              <g>
                <path class="cls-32" d="m632.62,208.94s-12.51-13.29-41.21-2.97c0,0,24.02,13.1,41.21,2.97Z"/>
                <path class="cls-37" d="m636.03,205.97s13.28-12.52,2.97-41.22c0,0-13.1,24.02-2.97,41.22Z"/>
              </g>
              <g>
                <path class="cls-30" d="m600.64,165.16s-15.08-10.28-40.88,5.98c0,0,26.28,7.61,40.88-5.98Z"/>
                <path class="cls-28" d="m603.33,161.52s10.27-15.08-5.98-40.88c0,0-7.61,26.27,5.98,40.88Z"/>
              </g>
              <g>
                <path class="cls-31" d="m560.5,127.84s-16.26-8.29-39.8,11.11c0,0,27.03,4.22,39.8-11.11Z"/>
                <path class="cls-62" d="m562.71,123.9s8.29-16.26-11.11-39.8c0,0-4.22,27.03,11.11,39.8Z"/>
              </g>
              <g>
                <path class="cls-44" d="m514.39,97.8s-16.83-7.05-38.87,14.02c0,0,27.27,2.21,38.87-14.02Z"/>
                <path class="cls-57" d="m516.3,93.69s7.06-16.82-14.02-38.86c0,0-2.21,27.27,14.02,38.86Z"/>
              </g>
            </g>
            <path class="cls-47" d="m368.62,685.05s3.29-.16,9.48-.46c3.09-.17,6.91-.28,11.36-.8,2.23-.22,4.62-.45,7.18-.69,1.28-.11,2.59-.25,3.95-.38,1.34-.2,2.73-.4,4.16-.6,5.7-.84,12.02-1.64,18.81-3.13,6.84-1.19,14.09-3.11,21.85-5.06,15.41-4.28,32.56-10.04,50.39-18.35,17.84-8.23,36.31-18.99,54.42-32.29,4.64-3.17,8.95-6.9,13.51-10.43,4.49-3.6,8.78-7.57,13.25-11.43,8.55-8.1,17.14-16.58,25.05-25.94,1.98-2.33,4.03-4.63,5.98-7.02,1.89-2.44,3.8-4.87,5.71-7.33l2.87-3.68,2.7-3.83c1.8-2.56,3.61-5.13,5.42-7.71,6.88-10.53,13.55-21.42,19.31-32.9,6.01-11.37,10.98-23.35,15.57-35.5l3.15-9.25c.5-1.54,1.08-3.07,1.53-4.63l1.35-4.71,2.69-9.4,2.21-9.54c5.84-25.43,8.21-51.7,7.29-77.35-.13-13.08-1.72-25.58-3.32-38.05-1.12-6.2-2.24-12.36-3.35-18.49-1.34-6.07-3.01-12.02-4.47-17.97-6.58-23.6-15.7-45.6-26.26-65.47-10.97-19.65-23.23-37.12-35.8-52.24-12.89-14.82-25.53-27.78-37.94-37.88-3.07-2.57-6.04-5.06-8.91-7.45-2.96-2.28-5.93-4.33-8.71-6.38-2.81-2.04-5.5-3.99-8.07-5.84-2.56-1.88-5.23-3.34-7.64-4.91-4.89-3.01-9.19-5.86-13.04-8.11-3.95-2.11-7.3-3.89-10.01-5.35-5.45-2.91-8.35-4.46-8.35-4.46l-.05-.03c-.36-.2-.5-.65-.3-1.02.19-.36.63-.5.99-.32,0,0,2.96,1.48,8.51,4.25,2.78,1.38,6.2,3.1,10.23,5.1,3.95,2.17,8.36,4.87,13.36,7.81,2.46,1.52,5.17,2.95,7.81,4.79,2.63,1.82,5.38,3.73,8.25,5.72,2.86,2.01,5.9,4.02,8.94,6.26,2.95,2.36,6,4.81,9.15,7.33,12.76,9.97,25.82,22.8,39.2,37.57,12.94,15.18,25.6,32.77,36.99,52.62,10.98,20.08,20.54,42.36,27.54,66.36,1.57,6.05,3.34,12.1,4.77,18.28,1.17,6.25,2.35,12.53,3.53,18.85,1.69,12.77,3.35,25.9,3.49,38.8,1.02,26.26-1.32,53.04-7.22,79.07l-2.24,9.75-2.72,9.62-1.36,4.81c-.47,1.59-1.05,3.16-1.56,4.74l-3.18,9.46c-4.66,12.43-9.71,24.71-15.82,36.34-5.81,11.79-12.8,22.83-19.92,33.54-1.88,2.62-3.74,5.23-5.61,7.82l-2.79,3.89-2.97,3.73c-1.97,2.49-3.94,4.97-5.9,7.45-2.01,2.42-4.12,4.75-6.16,7.11-8.16,9.48-16.99,18.06-25.79,26.24-4.59,3.88-8.99,7.88-13.6,11.52-4.68,3.56-9.11,7.32-13.87,10.52-18.64,13.3-37.76,23.67-56.02,31.64-18.29,7.94-35.74,13.51-51.45,17.3-7.91,1.68-15.28,3.34-22.21,4.29-6.88,1.24-13.27,1.83-19.02,2.45-1.44.16-2.84.31-4.2.46-1.37.09-2.7.17-3.99.24-2.58.15-4.99.29-7.23.41-4.49.31-8.3.24-11.4.25-6.18,0-9.48,0-9.48,0Z"/>
          </g>
          <polygon class="cls-75" points="354.63 105.4 376.7 92.31 398.78 105.37 393.15 80.35 412.41 63.38 386.86 61 376.68 37.44 366.51 61 340.95 63.4 360.23 80.35 354.63 105.4"/>
          <polygon class="cls-26" points="346.98 97.74 369.04 84.66 391.13 97.72 385.5 72.7 404.76 55.72 379.2 53.34 369.03 29.78 358.86 53.34 333.3 55.75 352.58 72.7 346.98 97.74"/>
          <g>
            <g>
              <path class="cls-64" d="m258.4,261.32c-1.65.92-4.41,2.07-8.27,3.45-3.86,1.38-6.8,2.44-8.82,3.17-8.09,2.58-13.14,4.41-15.16,5.51v-31.7c6.24-2.57,13.82-6.29,22.74-11.16,8.91-4.87,15.2-9.32,18.88-13.37h33.35v223.27h-42.73v-179.16Z"/>
              <path class="cls-22" d="m302.82,442.18h-46.11v-178.16c-1.58.69-3.57,1.47-6.01,2.34-3.86,1.38-6.79,2.44-8.81,3.17-8.02,2.55-13.02,4.37-14.93,5.41l-2.5,1.36v-35.68l1.05-.43c6.15-2.53,13.75-6.26,22.57-11.08,8.7-4.75,14.91-9.14,18.44-13.02l.5-.55h35.79v226.65Zm-42.73-3.38h39.34v-219.88h-30.93c-3.85,4.02-10.17,8.44-18.8,13.16-8.44,4.61-15.79,8.24-21.86,10.81v27.94c2.73-1.12,7.01-2.6,12.95-4.49,1.96-.71,4.9-1.77,8.77-3.15,3.76-1.34,6.46-2.46,8.01-3.33l2.51-1.4v180.35Z"/>
            </g>
            <path class="cls-74" d="m333.92,443.46v-227.66h30.21v112.88l113.05-112.88h40.73l-95.45,92.17,99.76,135.49h-39.87l-80.95-115.3-37.28,36.42v78.88h-30.21Z"/>
          </g>
          <path class="cls-18" d="m557.35,198.42c-46.41-50.12-112.73-81.53-186.42-81.53-140.3,0-254.03,113.73-254.03,254.03,0,102.06,60.21,190.01,147.02,230.4,15.85-179.59,133.36-333.61,293.43-402.89Z"/>
        </g>
        <g>
          <path class="cls-85" d="m243.21,488.41l5.31,1.37c-1.08,4.26-3.02,7.54-5.83,9.87-2.91,2.4-6.53,3.6-10.84,3.6-8.29,0-13.89-3.45-16.8-10.35-1.43-3.36-2.14-6.96-2.14-10.81,0-8.67,3.08-14.7,9.25-18.08,2.95-1.63,6.21-2.44,9.77-2.44,3.97,0,7.34,1.01,10.11,3.02,2.77,2.02,4.7,4.92,5.8,8.7l-5.25,1.25c-1.79-5.6-5.39-8.4-10.78-8.4-6.25,0-10.3,2.73-12.16,8.18-.83,2.5-1.25,5.09-1.25,7.76,0,7.33,2.05,12.23,6.14,14.69,2.12,1.26,4.4,1.89,6.84,1.89,6.39,0,10.33-3.42,11.82-10.26Z"/>
          <path class="cls-11" d="m281.54,462.27h5.34v23.27c0,3.71-.36,6.61-1.07,8.7-.96,2.89-2.72,5.14-5.28,6.75-2.38,1.51-5.52,2.26-9.41,2.26-7.49,0-12.3-2.53-14.42-7.61-1.02-2.46-1.53-5.83-1.53-10.11v-23.27h5.31v23.24c0,2.89.2,5.06.61,6.51.61,2.32,1.85,4.01,3.73,5.07,1.59.9,3.53,1.34,5.83,1.34,4.3,0,7.25-1.1,8.86-3.3,1.34-1.85,2.02-5.06,2.02-9.62v-23.24Z"/>
          <path class="cls-45" d="m293.94,489.6l5.01-.43c.47,3.93,2.38,6.63,5.74,8.09,1.83.79,3.89,1.19,6.17,1.19,4.28,0,7.23-1.13,8.86-3.39.77-1.06,1.16-2.21,1.16-3.45,0-2.58-1.58-4.48-4.73-5.68-1.26-.49-3.79-1.17-7.57-2.05-3.26-.75-5.72-1.57-7.39-2.44-3.81-2.02-5.71-4.94-5.71-8.77,0-2.2.62-4.17,1.86-5.92,1.22-1.69,2.86-2.96,4.92-3.82,2.22-.92,4.69-1.38,7.42-1.38,6.27,0,10.66,1.9,13.16,5.68,1.22,1.87,1.87,3.99,1.95,6.35l-5.1.4c-.55-5.15-3.82-7.73-9.8-7.73-2.44,0-4.47.4-6.08,1.19-2.14,1.04-3.21,2.66-3.21,4.85,0,2.06,1.16,3.63,3.48,4.71.96.45,3,1.03,6.14,1.74,4.36.98,7.33,1.83,8.92,2.57,4.58,2.1,6.87,5.38,6.87,9.83,0,2.3-.66,4.4-1.99,6.29-1.28,1.81-2.99,3.22-5.13,4.21-2.3,1.06-4.9,1.59-7.79,1.59-7.17,0-12.16-2.14-14.96-6.41-1.4-2.14-2.14-4.55-2.2-7.24Z"/>
          <path class="cls-72" d="m343.53,502.55v-35.55h-13.29v-4.73h31.95v4.73h-13.35v35.55h-5.31Z"/>
          <path class="cls-82" d="m366.04,482.92c0-6.23,1.63-11.29,4.89-15.18,3.48-4.13,8.29-6.2,14.42-6.2,3.66,0,6.97.87,9.93,2.59,3.05,1.77,5.37,4.26,6.95,7.47,1.58,3.21,2.37,6.82,2.37,10.86s-.74,7.39-2.23,10.51c-1.67,3.46-4.09,6.06-7.27,7.79-3.01,1.67-6.27,2.5-9.77,2.5-3.71,0-7.04-.89-10.02-2.66-3.03-1.81-5.34-4.35-6.93-7.61-1.55-3.18-2.32-6.54-2.32-10.08Zm5.5.09c0,4.44,1.16,8.1,3.48,10.99,2.5,3.11,5.92,4.67,10.26,4.67s7.98-1.63,10.44-4.89c2.24-2.93,3.36-6.72,3.36-11.36,0-6.76-2.18-11.51-6.54-14.26-2.14-1.34-4.53-2.01-7.18-2.01-4.74,0-8.31,1.68-10.69,5.04-2.1,2.93-3.15,6.87-3.15,11.82Z"/>
          <path class="cls-81" d="m411.3,502.55v-40.28h8.03l9.53,28.52c.79,2.36,1.44,4.35,1.92,5.95.51-1.67,1.22-3.82,2.14-6.44l9.65-28.04h7.18v40.28h-5.13v-33.72l-11.73,33.72h-4.79l-11.67-34.3v34.3h-5.13Z"/>
          <path class="cls-20" d="m458.46,502.55v-40.28h29.14v4.73h-23.82v12.34h22.29v4.73h-22.29v13.71h24.74v4.76h-30.05Z"/>
          <path class="cls-52" d="m495.96,502.55v-40.28h17.87c3.12,0,5.49.24,7.12.73,2.44.71,4.3,2.11,5.56,4.18,1.12,1.83,1.68,3.86,1.68,6.08,0,6.27-3.79,9.92-11.36,10.96,1.43.67,2.49,1.33,3.21,1.98,1.61,1.47,3.08,3.26,4.43,5.38l7.02,10.96h-6.72l-5.34-8.37c-1.18-1.89-2.17-3.37-2.96-4.43-1.43-1.93-2.62-3.21-3.57-3.82-.83-.55-1.65-.92-2.44-1.1-.55-.12-1.54-.19-2.96-.19h-6.2v17.9h-5.31Zm5.31-22.51h11.48c4.54,0,7.49-1.06,8.86-3.18.71-1.1,1.07-2.3,1.07-3.6,0-4.38-2.88-6.57-8.64-6.57h-12.77v13.35Z"/>
        </g>
      </g>
    </g>
  </g>
</svg>