<?xml version="1.0" encoding="UTF-8"?>
<svg width="1920px" height="1660px" viewBox="0 0 1920 1660" version="1.1" xmlns="http://www.w3.org/2000/svg" xmlns:xlink="http://www.w3.org/1999/xlink">
    <!-- Generator: Sketch 58 (84663) - https://sketch.com -->
    <title>BG</title>
    <desc>Created with Sketch.</desc>
    <defs>
        <rect id="path-1" x="0" y="0" width="1920" height="1180"></rect>
        <linearGradient x1="50%" y1="100%" x2="50%" y2="3.061617e-15%" id="linearGradient-3">
            <stop stop-color="#FFFFFF" offset="0%"></stop>
            <stop stop-color="#F6F7FB" offset="100%"></stop>
        </linearGradient>
    </defs>
    <g id="TDM" stroke="none" stroke-width="1" fill="none" fill-rule="evenodd">
        <g id="[TMD]-Hosting-App-Page---Shared-Copy" transform="translate(0.000000, -1530.000000)">
            <g id="Friendly-Environment" transform="translate(0.000000, 1122.000000)">
                <g id="BG" transform="translate(0.000000, 408.000000)">
                    <g id="Background-1">
                        <mask id="mask-2" fill="white">
                            <use xlink:href="#path-1"></use>
                        </mask>
                        <use id="Mask" fill="#FFFFFF" xlink:href="#path-1"></use>
                        <path d="M1009.79689,14.5948389 L1871.08508,509.171893 C1902.1396,527.004311 1921.2882,560.081077 1921.2882,595.891384 L1921.2882,1584.10862 C1921.2882,1619.91892 1902.1396,1652.99569 1871.08508,1670.82811 L1009.79689,2165.40516 C978.96018,2183.11251 941.03982,2183.11251 910.203114,2165.40516 L48.9149156,1670.82811 C17.8603996,1652.99569 -1.2881982,1619.91892 -1.2881982,1584.10862 L-1.2881982,595.891384 C-1.2881982,560.081077 17.8603996,527.004311 48.9149156,509.171893 L910.203114,14.5948389 C941.03982,-3.11250638 978.96018,-3.11250638 1009.79689,14.5948389 Z" fill="#F6F7FB" mask="url(#mask-2)"></path>
                    </g>
                    <rect id="Background" fill="url(#linearGradient-3)" x="0" y="1180" width="1920" height="480"></rect>
                </g>
            </g>
        </g>
    </g>
</svg>