<svg xmlns="http://www.w3.org/2000/svg" width="216" height="72" viewBox="0 0 216 72">
    <path fill="#F26C32" d="M17.287 24.665h12.867l-1.977 7.62c-.287 1.006-.898 1.868-1.725 2.515-.827.647-1.833.97-2.911.97h-5.894c-1.294-.036-2.588.396-3.63 1.186-1.043.827-1.833 1.941-2.193 3.235-.251.934-.287 1.94-.108 2.911.216.863.576 1.69 1.115 2.408.539.719 1.258 1.294 2.048 1.69.863.43 1.797.646 2.732.61h3.594c.647 0 1.294.288 1.689.827.431.503.539 1.222.36 1.833l-2.265 8.446h-3.99c-2.623.036-5.21-.575-7.547-1.797-2.228-1.114-4.169-2.732-5.714-4.708-1.51-1.977-2.588-4.241-3.091-6.685-.575-2.588-.503-5.247.216-7.8l.215-.934c.467-1.797 1.258-3.486 2.3-5.031 1.007-1.51 2.265-2.804 3.702-3.918 1.438-1.114 3.055-1.976 4.744-2.551 1.761-.54 3.63-.827 5.463-.827zm6.505 34.323l11.178-42.05c.287-1.007.898-1.905 1.725-2.552.826-.647 1.869-1.006 2.911-.97h11.896c2.588 0 5.176.61 7.476 1.797 4.564 2.3 7.835 6.577 8.913 11.572.575 2.552.503 5.248-.216 7.763l-.215.863c-.468 1.797-1.258 3.486-2.3 5.032-1.007 1.51-2.229 2.875-3.666 3.989-2.948 2.264-6.542 3.486-10.243 3.486H40.936l2.012-7.799c.288-1.006.863-1.869 1.69-2.516.826-.647 1.868-.97 2.91-.97h3.415c2.732 0 5.104-1.869 5.75-4.529.252-.898.288-1.868.072-2.803-.18-.862-.575-1.689-1.114-2.408-.575-.683-1.258-1.258-2.084-1.653-.827-.431-1.725-.647-2.66-.647h-6.361L36.3 55.501c-.288 1.007-.899 1.87-1.726 2.516-.79.647-1.797.97-2.839.97h-7.943zM94.81 36.56l.18-.61c.072-.252.036-.576-.144-.792-.18-.215-.431-.359-.719-.359H75.618c-2.228 0-4.133-1.545-4.6-3.702-.18-.719-.18-1.473 0-2.228l1.15-4.313h25.086c1.473-.036 2.947.324 4.24 1.042 1.259.647 2.337 1.546 3.235 2.66.863 1.114 1.474 2.408 1.762 3.774.323 1.437.287 2.983-.108 4.42l-4.493 16.748c-.898 3.415-3.99 5.787-7.511 5.75l-18.51-.107c-3.09.036-6.001-1.402-7.87-3.846-.899-1.186-1.51-2.551-1.833-3.989-.36-1.51-.324-3.09.108-4.6l.215-.863c.288-1.042.719-2.048 1.33-2.947.611-.899 1.366-1.69 2.192-2.336.863-.611 1.797-1.114 2.804-1.438 1.042-.36 2.156-.539 3.234-.539h15.598l-1.15 4.277c-.287 1.006-.898 1.869-1.725 2.516-.827.647-1.797.97-2.84.97h-6.936c-.61-.036-1.15.396-1.258.97-.107.396-.036.791.216 1.115.252.323.611.503 1.006.467h11.214c.395 0 .754-.108 1.078-.36.287-.215.503-.539.575-.898l.108-.467L94.81 36.56zm33.137-11.896c2.623-.036 5.247.575 7.583 1.797 2.228 1.15 4.205 2.767 5.715 4.744 1.545 2.013 2.587 4.313 3.09 6.793.54 2.587.468 5.247-.251 7.799l-2.84 10.674c-.18.719-.61 1.366-1.221 1.833-.611.467-1.33.683-2.085.683h-6.146c-1.15.036-2.12-.899-2.12-2.049 0-.216.036-.431.072-.61l3.414-12.94c.252-.898.288-1.868.108-2.803-.18-.862-.575-1.689-1.114-2.408-1.15-1.473-2.911-2.372-4.78-2.372h-6.398l-5.498 20.702c-.18.719-.611 1.366-1.222 1.833-.611.467-1.366.719-2.12.683h-6.11c-.648 0-1.223-.324-1.618-.827-.431-.503-.575-1.222-.36-1.869l8.375-31.663h15.526zm33.532 10.854c-.431.36-.79.79-.97 1.33l-2.552 9.667c-.144.504-.036 1.079.287 1.474.324.431.79.683 1.33.683h23.577l-1.833 6.757c-.288 1.006-.899 1.869-1.725 2.515-.791.647-1.797.97-2.84.97h-21.456c-1.473.037-2.947-.323-4.277-1.006-1.258-.646-2.372-1.545-3.234-2.66-.863-1.15-1.474-2.443-1.761-3.809-.324-1.437-.252-2.947.143-4.348l3.487-12.939c.359-1.366.97-2.695 1.76-3.881 1.546-2.337 3.81-4.062 6.47-4.996 1.33-.467 2.767-.719 4.169-.719h15.203c1.473 0 2.947.324 4.276 1.042 1.258.647 2.337 1.546 3.235 2.66.863 1.114 1.474 2.408 1.725 3.81.288 1.437.252 2.947-.108 4.384l-1.042 3.882c-.431 1.653-1.402 3.127-2.767 4.133-1.33 1.042-2.983 1.581-4.708 1.581h-17.18l1.15-4.205c.252-1.006.827-1.869 1.654-2.516.826-.646 1.832-.97 2.91-.97h6.973c.611.036 1.15-.395 1.258-.97l.216-.863c.18-.719-.252-1.437-.97-1.617-.109-.036-.18-.036-.288-.036h-10.603c-.539.036-1.078.251-1.51.647zm21.672 23.469l11.465-42.985c.18-.754.61-1.401 1.222-1.869.61-.467 1.365-.718 2.12-.718h6.11c.683 0 1.33.287 1.725.826.431.503.54 1.222.323 1.833l-8.553 31.735c-.396 1.618-1.078 3.163-2.013 4.565-.898 1.33-2.013 2.516-3.306 3.486-1.294.97-2.732 1.761-4.241 2.3-1.546.575-3.199.827-4.852.827zm24.942-41.547c0-.683.18-1.366.503-1.977.36-.61.827-1.078 1.438-1.437.61-.36 1.294-.504 1.977-.504s1.365.18 1.94.504c.611.359 1.079.826 1.438 1.437.683 1.222.683 2.696 0 3.882-.323.61-.827 1.114-1.402 1.437-.61.36-1.293.54-1.976.54-2.157.035-3.918-1.726-3.918-3.882zm.54 0c0 .575.143 1.186.467 1.69.934 1.616 2.983 2.156 4.6 1.221.503-.287.934-.719 1.222-1.222.287-.503.467-1.078.467-1.69 0-.61-.144-1.185-.467-1.688-.288-.503-.719-.935-1.222-1.222-.503-.288-1.078-.467-1.69-.467-.61 0-1.185.143-1.689.467-.503.287-.934.719-1.221 1.222-.324.503-.468 1.114-.468 1.689zm4.959-.935c0 .252-.072.54-.216.755-.143.216-.359.396-.61.467l1.257 2.085h-.898l-1.078-1.869h-.72v1.869h-.79v-4.636h1.33c.431-.036.898.072 1.258.323.323.216.503.611.467 1.006zm-2.264.755h.575c.251 0 .467-.072.683-.215.18-.144.251-.324.251-.54.036-.215-.072-.43-.215-.575-.216-.143-.468-.18-.72-.18h-.574v1.51z"/>
</svg>
