<svg xmlns="http://www.w3.org/2000/svg" width="90" height="48" viewBox="0 0 90 48">
    <path fill="#049FD9" d="M89.774 14.844c0-1.083-.871-1.932-1.931-1.932-1.084 0-1.956.872-1.956 1.932v4.076c0 1.084.872 1.956 1.956 1.956 1.06 0 1.931-.872 1.931-1.956v-4.076zM79.078 9.473c0-1.06-.872-1.932-1.955-1.932-1.084 0-1.932.871-1.932 1.932v9.447c0 1.084.871 1.956 1.932 1.956 1.107 0 1.955-.872 1.955-1.956V9.473zm-10.72-7.328c0-1.083-.871-1.932-1.932-1.932-1.083 0-1.932.872-1.932 1.932v20.663c0 1.083.872 1.955 1.932 1.955 1.084 0 1.932-.872 1.932-1.955V2.145zM57.662 9.473c0-1.06-.872-1.932-1.932-1.932s-1.932.871-1.932 1.932v9.447c0 1.084.872 1.956 1.932 1.956 1.084 0 1.932-.872 1.932-1.956V9.473zm-10.72 5.371c0-1.083-.872-1.932-1.932-1.932-1.084 0-1.955.872-1.955 1.932v4.076c0 1.084.871 1.956 1.955 1.956 1.06 0 1.932-.872 1.932-1.956v-4.076zM36.246 9.473c0-1.06-.872-1.932-1.956-1.932s-1.955.871-1.955 1.932v9.447c0 1.084.871 1.956 1.955 1.956s1.956-.872 1.956-1.956V9.473zM25.549 2.145c0-1.083-.871-1.932-1.955-1.932s-1.956.872-1.956 1.932v20.663c0 1.083.872 1.955 1.956 1.955s1.955-.872 1.955-1.955V2.145zM14.83 9.473c0-1.06-.871-1.932-1.955-1.932s-1.956.871-1.956 1.932v9.447c0 1.084.872 1.956 1.956 1.956s1.955-.872 1.955-1.956V9.473zM4.133 14.844c0-1.083-.872-1.932-1.955-1.932-1.084 0-1.956.872-1.956 1.932v4.076c0 1.084.872 1.956 1.956 1.956 1.083 0 1.955-.872 1.955-1.956v-4.076zm40.241 16.917c-.118-.024-1.908-.495-3.817-.495-3.628 0-5.796 1.955-5.796 4.853 0 2.568 1.815 3.864 4.006 4.547.235.071.589.189.848.26.966.306 1.743.753 1.743 1.554 0 .872-.895 1.461-2.85 1.461-1.72 0-3.37-.495-3.7-.589v3.581c.189.047 2.145.424 4.241.424 3.016 0 6.432-1.319 6.432-5.23 0-1.885-1.154-3.652-3.699-4.453l-1.083-.353c-.637-.212-1.791-.542-1.791-1.485 0-.753.848-1.272 2.427-1.272 1.366 0 3.015.448 3.063.471v-3.274h-.024zm33.173 7.562c0 2.262-1.744 4.1-4.053 4.1-2.332 0-4.052-1.838-4.052-4.1 0-2.261 1.72-4.1 4.052-4.1 2.31.024 4.053 1.862 4.053 4.1m-4.053-8.034c-4.782 0-8.222 3.605-8.222 8.058 0 4.453 3.44 8.057 8.222 8.057 4.783 0 8.223-3.604 8.223-8.057s-3.44-8.058-8.223-8.058m-53.34.542c-.377-.118-1.743-.565-3.581-.565-4.783 0-8.293 3.416-8.293 8.057 0 5.019 3.864 8.058 8.293 8.058 1.743 0 3.086-.424 3.581-.566v-4.17c-.165.095-1.46.825-3.298.825-2.616 0-4.312-1.838-4.312-4.147 0-2.38 1.767-4.146 4.312-4.146 1.884 0 3.133.754 3.298.824v-4.17zm40.971 0c-.377-.118-1.743-.565-3.58-.565-4.784 0-8.294 3.416-8.294 8.057 0 5.019 3.887 8.058 8.293 8.058 1.744 0 3.087-.424 3.581-.566v-4.17c-.165.095-1.46.825-3.298.825-2.615 0-4.288-1.838-4.288-4.147 0-2.38 1.767-4.146 4.288-4.146 1.885 0 3.133.754 3.298.824v-4.17zm-31.641 15.29h-3.935V31.573h3.935v15.55z"/>
</svg>
