<svg xmlns="http://www.w3.org/2000/svg" width="206" height="72" viewBox="0 0 206 72">
    <g fill="none">
        <path fill="#255495" d="M52.108 35.434c.006-.104.02-.206.044-.307.99-3.005 1.421-6.164 1.275-9.324-.104-2.849-.715-5.657-1.805-8.291-.403-.918-.91-1.787-1.511-2.59-1.182-1.617-2.372-3.238-3.705-4.736-3.897-4.472-9.259-7.415-15.128-8.303-1.156-.188-2.33-.266-3.475-.396.252-.081.544-.185.84-.273C30.672.569 32.77.174 34.895.04c11.952-.573 22.459 7.836 24.501 19.61.09.803.044 1.615-.133 2.404-.719 4.898-3.037 9.421-6.595 12.868-.181.178-.37.34-.563.51h.004z"/>
        <path fill="#255495" d="M47.373 24.482c-4.098-7.736-10.29-12.58-18.87-14.152-8.581-1.572-16.08.788-22.627 6.612.074-.156.111-.248.156-.337C9.585 9.894 15.039 5.624 22.516 4.144 29.292 2.8 35.594 4.17 41.3 8.08c.56.433 1.047.95 1.445 1.535 2.963 3.848 4.592 8.554 4.642 13.408-.007.46-.014.918-.014 1.458zM36.132 51.443c.659.182 1.315.37 1.978.54 11.559 2.988 23.656-2.365 29.203-12.923 1.83-3.517 2.83-7.407 2.92-11.37.045.09.086.183.122.278 2.671 8.794 1.019 16.686-5.12 23.53-3.613 4.026-8.21 6.405-13.565 7.253-.728.057-1.461.005-2.174-.156-4.856-.713-9.344-2.992-12.783-6.49-.207-.207-.37-.443-.578-.665l-.003.003z"/>
        <path fill="#255495" d="M1.326 43.366C.801 41.848.43 40.282.215 38.69c-.94-7.153 1.454-14.342 6.495-19.51 3.1-3.17 7.015-5.426 11.315-6.519 2.016-.536 3.95-.292 5.902.167 4.382 1.019 8.358 3.325 11.415 6.622.045.048.093.097.134.148.003.015.003.03 0 .045-8.196-2.52-15.984-1.698-23.083 3.226C5.294 27.794 1.797 34.753 1.326 43.366zM54.775 6.375c1.275.571 2.475 1.294 3.576 2.153 5.005 3.76 8.15 8.71 9.21 14.87 1.138 6.534-.255 12.558-4.127 17.963-.444.524-.965.978-1.545 1.347-3.416 2.58-7.507 4.116-11.778 4.425-.945.07-1.901 0-2.842 0 .055-.033.13-.085.211-.126 6.784-3.533 11.404-8.913 13.338-16.313 2.36-9.031.237-17.093-5.928-24.09l-.152-.177.037-.052z"/>
        <path fill="#255495" d="M16.825 65.233c-1.622-.77-3.144-1.731-4.535-2.864-4.676-3.833-7.559-8.72-8.492-14.692-.982-6.323.4-12.132 4.075-17.39.203-.277.442-.526.712-.74 3.56-3 7.974-4.812 12.619-5.18.985-.08 1.975-.08 2.964-.08-7.58 4.069-12.493 10.137-14.027 18.617-1.534 8.48.889 15.898 6.684 22.329zM65.083 54.37c-.497.884-.93 1.813-1.482 2.65-3.761 5.549-8.948 9.027-15.562 10.192-6.528 1.151-12.545-.251-17.976-4.07-.119-.081-.227-.177-.323-.284-2.84-3.247-4.684-7.242-5.309-11.507-.214-1.424-.294-2.865-.237-4.303-.004-.049.017-.096.055-.126.175.326.341.659.523.98 3.983 7.03 9.877 11.518 17.832 13.01 8.41 1.576 15.832-.685 22.23-6.357.082-.07.17-.133.256-.204l-.007.019z"/>
        <path fill="#255495" d="M19.5 35.693c-.278 1.058-.63 2.101-.823 3.174-1.612 8.806.545 16.554 6.728 23.077 3.555 3.756 8.208 6.293 13.294 7.248 1.482.296 2.964.418 4.405.61-.17.06-.433.156-.7.237-11.451 3.472-23.696-2.138-28.529-13.072-.845-1.855-1.417-3.823-1.697-5.842-.04-.707.018-1.417.17-2.109.743-5.062 3.19-9.72 6.94-13.205.058-.05.12-.097.182-.14l.03.022z"/>
        <path fill="#265696" d="M177.038 27.457v9.372c-.005.266.012.532.048.795.193 1.24.937 1.946 2.26 2.098.982.107 1.976.03 2.93-.226.124-.01.237-.07.313-.167.076-.097.108-.222.088-.343V27.435h3.038v13.43c.031.232-.117.45-.345.507-1.627.593-3.347.894-5.08.888-.942.038-1.886-.062-2.8-.296-1.975-.54-3.135-1.85-3.398-3.881-.047-.368-.072-.739-.074-1.11v-9.509l3.02-.007z"/>
        <path fill="#245495" d="M170.898 42.257h-3.03v-.396-9.198c0-1.499-.763-2.439-2.201-2.723-.27-.065-.546-.092-.823-.078-.8.078-1.6.196-2.4.296-.315.04-.42.196-.42.529v11.566h-3.015v-.37-13.087c-.034-.22.111-.429.33-.473 1.525-.547 3.126-.85 4.746-.896 1.174-.066 2.352.059 3.486.37 2.12.626 3.335 2.172 3.335 4.381.022 3.29 0 6.575 0 9.864.007.052 0 .118-.008.215z"/>
        <path fill="#265595" d="M188.153 27.413h3.22c.14.033.262.125.333.251.915 1.502 1.823 3.012 2.73 4.521l.253.411c.081-.122.148-.218.207-.314.915-1.517 1.853-3.03 2.734-4.559.11-.228.353-.36.604-.329h2.997l-.874 1.365c-1.217 1.85-2.436 3.7-3.657 5.55-.127.141-.127.355 0 .496 1.579 2.368 3.15 4.74 4.717 7.115.067.1.126.203.222.37h-3.186c-.175.016-.342-.079-.419-.237-1.037-1.702-2.08-3.4-3.13-5.095-.064-.1-.13-.196-.223-.336l-1.17 1.894c-.742 1.176-1.457 2.353-2.172 3.537-.079.158-.247.25-.422.233h-3.168c.074-.133.122-.23.182-.314 1.563-2.363 3.13-4.725 4.701-7.086.159-.18.159-.451 0-.632-1.441-2.168-2.864-4.344-4.294-6.52-.055-.1-.104-.185-.185-.321zM150.032 39.63L150.032 42.242 140.091 42.242 140.091 20.66 143.192 20.66 143.192 39.63z"/>
        <path fill="#275696" d="M135.3 27.524v-6.856h1.65v19.95c.021.23-.099.45-.305.558-.827.477-1.74.79-2.686.921-1.148.203-2.32.236-3.479.097-1.956-.252-3.186-1.362-3.797-3.208-.499-1.679-.687-3.434-.556-5.18.02-1.075.183-2.143.485-3.175.741-2.29 2.123-3.374 4.535-3.492 1.287-.06 2.575.053 3.831.336l.323.049zm0 7.185v-5.276c.016-.107-.011-.216-.076-.303-.064-.087-.16-.144-.268-.16-1.168-.356-2.389-.509-3.609-.451-1.586.059-2.527.74-3.075 2.22-.326.964-.496 1.975-.504 2.993-.102 1.481.003 2.97.311 4.421.334 1.38 1.082 2.38 2.568 2.612 1.486.216 3.003.075 4.424-.41.211-.067.222-.2.222-.37.008-1.756.012-3.514.015-5.273l-.007-.003z"/>
        <path fill="#265696" d="M109.52 34.746c.073 1.26-.052 2.523-.37 3.744-.689 2.464-2 3.563-4.557 3.755-.885.08-1.778.012-2.642-.2-1.596-.406-2.541-1.48-3.06-2.993-.477-1.512-.68-3.097-.6-4.68-.014-1.307.167-2.609.537-3.863.393-1.195 1.015-2.22 2.175-2.808.627-.31 1.31-.495 2.008-.544.971-.108 1.954-.048 2.905.178 1.534.396 2.49 1.41 3.023 2.867.362 1.012.563 2.075.597 3.149.003.462-.015.932-.015 1.395zm-9.606-.09c-.044 1.292.1 2.584.426 3.834.337 1.11 1 1.972 2.193 2.22.661.14 1.339.181 2.012.122 1.771-.17 2.627-.966 3.046-2.69.289-1.32.396-2.675.318-4.025.009-1.064-.138-2.124-.437-3.145-.37-1.11-.956-2.035-2.175-2.29-.683-.134-1.38-.178-2.075-.13-1.482.089-2.367.944-2.83 2.32-.349 1.23-.51 2.506-.478 3.785zM90.384 22.377l-.56 1.332c-.668-.265-1.353-.491-2.048-.677-2.253-.474-4.253-.026-5.813 1.787-.795.947-1.34 2.076-1.59 3.285-.648 2.909-.663 5.81.415 8.625.764 1.998 2.12 3.43 4.31 3.84 1.526.292 3.106.054 4.479-.673l.203-.111.612 1.436c-.37.17-.741.37-1.112.492-2.3.74-4.575.821-6.761-.37-1.827-.996-2.916-2.59-3.59-4.529-.695-2.147-.931-4.416-.693-6.66.098-1.693.554-3.346 1.337-4.85 1.418-2.803 4.474-4.384 7.584-3.922 1.061.102 2.093.403 3.042.888l.185.107z"/>
        <path fill="#285796" d="M112.666 27.431h1.653V37.302c-.003.355.032.708.104 1.055.31 1.424 1.204 2.238 2.704 2.445 1.423.186 2.87.06 4.239-.37.114-.013.218-.073.288-.164.07-.091.1-.207.082-.32V27.46h1.65V40.92c.035.231-.11.452-.338.51-2.297.84-4.646 1.173-7.04.589-1.934-.47-3.064-1.872-3.256-3.856-.037-.37-.056-.773-.056-1.158v-9.168l-.03-.407z"/>
        <path fill="#275696" d="M155.897 42.257L152.896 42.257 152.896 27.435 155.897 27.435z"/>
        <path fill="#245495" d="M93.578 20.653L95.156 20.653 95.156 42.249 93.578 42.249z"/>
        <path fill="#285796" d="M50.007 34.794c-.086-2.051-.399-4.086-.934-6.068-.037-.227-.024-.46.037-.68.758-3.748.645-7.618-.33-11.315-.034-.12-.05-.245-.048-.37 1.474 2.812 2.34 5.901 2.542 9.068.233 3.176-.199 6.365-1.267 9.365z"/>
        <path fill="#275696" d="M21.611 36.24c.058 2 .346 3.987.86 5.92.064.255.072.52.022.777-.796 3.879-.662 7.89.393 11.707 0 .063.03.13.044.203-.944-1.565-2.297-5.102-2.623-9.12-.222-2.816.4-7.733 1.304-9.487z"/>
        <path fill="#275796" d="M58.584 30.754c-2.104 6.352-6.154 11.025-12.09 14.06l-.066-.056c.285-.322.574-.64.852-.966 1.022-1.21 1.934-2.509 2.723-3.881.08-.146.191-.273.326-.37 3.37-2.188 6.165-5.15 8.151-8.64.026-.048.067-.096.104-.147z"/>
        <path fill="#275696" d="M55.212 48.047c-5.972 2.99-12.13 3.404-18.495 1.347 1.186-.137 2.338-.24 3.479-.411.797-.118 1.578-.344 2.371-.492.298-.066.606-.076.908-.03 3.806.761 7.736.634 11.486-.37.085-.015.159-.03.251-.044zM45.453 25.122c-.074-.038-.145-.082-.21-.133-1.42-1.306-2.981-2.45-4.654-3.411-.17-.099-.316-.234-.426-.396-2.138-3.266-5.009-5.99-8.385-7.955-.095-.047-.17-.128-.211-.226.44.163.89.311 1.326.485 5.422 2.133 9.864 6.191 12.471 11.396.035.079.063.16.086.244l.003-.004zM16.302 23.061c5.995-3.019 12.179-3.444 18.544-1.357-1.88.065-3.744.348-5.558.843-.763.226-1.44 0-2.149-.107-3.535-.57-7.152-.379-10.607.562l-.23.06zM26.154 45.923c1.388 1.289 2.912 2.423 4.546 3.382.382.217.707.52.948.888 2.095 3.12 4.87 5.724 8.118 7.618.095.048.17.126.215.222-.137-.04-.278-.074-.411-.122-5.797-2.02-10.58-6.214-13.338-11.692-.04-.098-.07-.2-.09-.303l.012.007zM25.172 26.299c-.396.459-.83.895-1.182 1.387-.815 1.144-1.593 2.313-2.39 3.467-.099.146-.224.271-.37.37-3.343 2.184-6.116 5.133-8.088 8.602-.036.066-.087.123-.148.167 1.956-6.14 6.362-11.203 12.178-13.993z"/>
        <path fill="#265696" d="M154.415 24.73c-.465.017-.917-.152-1.255-.47-.34-.317-.537-.757-.55-1.22-.044-.736.366-1.423 1.033-1.736.668-.313 1.46-.187 1.997.317.538.504.713 1.284.443 1.97-.27.685-.93 1.136-1.668 1.14z"/>
        <path fill="#2E5B99" d="M203.884 27.413h-.43c.082-.648.153-1.28.249-1.91 0-.059.16-.148.233-.14.074.007.323.059.37.151.102.24.185.488.249.74.037.111.078.222.148.415.111-.37.197-.618.278-.884.145-.481.145-.481.7-.415l.241 2.013h-.415l-.166-1.299h-.052c-.115.37-.215.74-.345 1.084-.043.111-.128.2-.237.248-.196.067-.222-.114-.267-.251-.099-.356-.23-.701-.393-1.033l-.163 1.28z"/>
        <path fill="#2D5B99" d="M202.891 27.413L202.399 27.413 202.399 25.788 201.902 25.733 201.902 25.363 203.347 25.363 203.347 25.733 202.891 25.762z"/>
        <path fill="#255495" d="M19.47 35.663L19.537 35.619 19.503 35.686z"/>
        <path fill="#285796" d="M48.688 16.25v-.03c0-.007 0 0 .026 0l-.026.03z"/>
        <path fill="#255495" d="M54.72 6.434L54.649 6.342 54.775 6.379z"/>
        <path fill="#275696" d="M55.368 48.021h-.026v-.026h.026s-.004.022 0 .026z"/>
        <path fill="#255495" d="M65.064 54.351l.048-.074s.023.023.019.026l-.048.067-.019-.019z"/>
        <path fill="#275696" d="M40.163 58.074L40.063 58.074 40.063 58.037 40.163 58.037zM45.446 25.13L45.49 25.159 45.453 25.126z"/>
        <path fill="#255495" d="M52.104 35.427L52.063 35.456 52.063 35.427 52.108 35.427z"/>
        <path fill="#275696" d="M31.467 13.005h-.022c-.023 0 0 0-.023-.018-.022-.019 0 0 .026 0s.011.01.019.018zM26.158 45.916L26.109 45.916 26.15 45.916z"/>
        <path fill="#255495" d="M36.135 51.436L36.083 51.414 36.128 51.443z"/>
    </g>
</svg>
