<svg xmlns="http://www.w3.org/2000/svg" width="121" height="125" viewBox="0 0 121 125">
  <g id="Group_2381" data-name="Group 2381" transform="translate(-2446 -6048)">
    <rect id="Rectangle_511" data-name="Rectangle 511" width="121" height="125" transform="translate(2446 6048)" fill="none"/>
    <g id="Group_2380" data-name="Group 2380" transform="translate(1750.403 5651.402)">
      <g id="Group_2017" data-name="Group 2017" transform="translate(710.522 454.837)">
        <path id="Path_14797" data-name="Path 14797" d="M795.241,483.212a6.94,6.94,0,0,1-1.456-1.985c-1.109-2.383-.243-4.8,2-6.68a27.321,27.321,0,0,0-5.962-3.436,22.637,22.637,0,0,1-11.555,1.161c-4.121-.644-7.312-2.282-9.01-4.343-1.384.094-2.776.227-4.161.441s-2.7.5-3.98.817c.322,2.275-1.02,4.611-4.034,6.354a15.261,15.261,0,0,1-1.786.821c-.273-.047-.536-.108-.815-.148-1.672-.256-3.349-.419-5.019-.532A11.524,11.524,0,0,1,747,477.853c-.311,0-.618.028-.928.01-.221.3-.414.6-.608.9a22.3,22.3,0,0,1-6.849,2.151,27.3,27.3,0,0,1-13.93-1.4,32.743,32.743,0,0,0-7.183,4.14c2.709,2.271,3.752,5.179,2.416,8.048a8.321,8.321,0,0,1-1.754,2.394,16.747,16.747,0,0,1-7.324,3.88,14.082,14.082,0,0,0,2.625,5.656,25,25,0,0,1,13.28,2.807c3.629,2.1,5.242,4.912,4.855,7.656,1.548.387,3.134.732,4.8.992s3.342.416,5.005.527c2.053-2.488,5.893-4.462,10.859-5.236a27.276,27.276,0,0,1,13.928,1.4,33.013,33.013,0,0,0,7.2-4.149c-2.718-2.268-3.761-5.171-2.425-8.046a8.016,8.016,0,0,1,.911-1.444,11.12,11.12,0,0,1,4.073,2.922c1.383-.1,2.77-.228,4.157-.442s2.7-.5,3.985-.824c-.322-2.275,1.017-4.6,4.029-6.351a20.734,20.734,0,0,1,11.019-2.329,11.727,11.727,0,0,0,2.178-4.691A13.9,13.9,0,0,1,795.241,483.212Zm-36.777,18.575c-.057.036-.11.076-.167.115-.228.152-.457.3-.7.449-.083.047-.166.1-.251.145-.247.142-.489.282-.745.408-.107.058-.218.106-.324.159a.557.557,0,0,1-.059.025c-.112.057-.218.108-.328.159-.474.221-.959.422-1.466.6a27.471,27.471,0,0,1-13.344,1.19,20.609,20.609,0,0,1-8.529-3.147c-.072-.046-.152-.1-.22-.148s-.133-.108-.2-.156c-.288-.212-.555-.437-.807-.665-.1-.091-.209-.174-.3-.268-.031-.029-.066-.054-.092-.083,0-.007.006-.007.007-.007-2.195-2.163-2.967-4.81-1.752-7.425,2.418-5.186,11.649-8.271,20.634-6.883.242.039.473.09.714.134a6.406,6.406,0,0,1,.9,1.374c1.109,2.383.243,4.8-2.011,6.679a27.627,27.627,0,0,0,5.966,3.44,21.265,21.265,0,0,1,6.815-1.368,6.051,6.051,0,0,1-.492,1.639A9.473,9.473,0,0,1,758.464,501.788Zm26.181-13.208.007.007c-.02.018-.042.033-.062.054a9.025,9.025,0,0,1-.794.662c-.1.086-.2.174-.308.253-.084.061-.184.119-.273.177-.118.086-.256.159-.384.242-.217.134-.419.275-.656.405.218-.119.4-.253.6-.376a15.807,15.807,0,0,1-3.27,1.49,15.005,15.005,0,0,0-2.092-3.837,24.938,24.938,0,0,1-13.275-2.8,10.6,10.6,0,0,1-4.1-3.895c1.71-2.022,4.865-3.628,8.931-4.26,7.454-1.147,15.118,1.406,17.12,5.711C787.107,484.591,786.471,486.786,784.644,488.58Z" transform="translate(-710.839 -467.929)" fill="#f2f5fc"/>
      </g>
      <g id="Group_2020" data-name="Group 2020" transform="translate(709.597 432.212)">
        <path id="Path_14798" data-name="Path 14798" d="M780.047,456.434a14.186,14.186,0,0,0-2.629-5.66,24.974,24.974,0,0,1-13.275-2.8c-3.635-2.094-5.251-4.914-4.863-7.653-1.538-.387-3.127-.734-4.793-.991s-3.349-.416-5.019-.528c-2.045,2.481-5.887,4.46-10.855,5.23a27.233,27.233,0,0,1-13.93-1.4,32.893,32.893,0,0,0-7.183,4.14v9.819c.238.2.448.413.662.622a16.737,16.737,0,0,1-7.324,3.884v9.816a14.134,14.134,0,0,0,2.625,5.66,24.99,24.99,0,0,1,13.28,2.8c3.629,2.1,5.242,4.915,4.855,7.657,1.548.387,3.134.73,4.8.991s3.342.416,5.005.532c2.053-2.492,5.893-4.459,10.859-5.237a27.285,27.285,0,0,1,13.928,1.4,32.862,32.862,0,0,0,7.2-4.149v-9.815c-.243-.2-.452-.416-.667-.626a16.822,16.822,0,0,1,7.324-3.877Zm-49.123,7.255c3.734-3.693,11.391-5.653,18.888-4.5,4.444.688,7.993,2.34,10.15,4.467-3.736,3.7-11.391,5.656-18.884,4.5C736.629,467.472,733.079,465.815,730.924,463.689Z" transform="translate(-709.914 -437.874)" fill="#fff"/>
        <g id="Group_2018" data-name="Group 2018" transform="translate(0.925 8.9)">
          <path id="Path_14799" data-name="Path 14799" d="M754.384,469.714a15.386,15.386,0,0,0,5.578-3.323c-2.157-2.127-5.706-3.779-10.15-4.467-7.5-1.157-15.155.8-18.888,4.5a13.1,13.1,0,0,0,2.984,2.163c-4.367-2.369-6.394-6.011-4.729-9.595,2.418-5.183,11.649-8.267,20.634-6.879s14.305,6.709,11.892,11.9C760.558,466.474,757.857,468.459,754.384,469.714Zm-2.116,6.518c-4.966.774-8.806,2.745-10.859,5.237-1.663-.116-3.334-.275-5.005-.532s-3.257-.6-4.8-.987c.387-2.749-1.226-5.559-4.855-7.657a24.95,24.95,0,0,0-13.28-2.806,14.14,14.14,0,0,1-2.625-5.657v9.816a14.134,14.134,0,0,0,2.625,5.66,24.99,24.99,0,0,1,13.28,2.8c3.629,2.1,5.242,4.915,4.855,7.657,1.548.387,3.134.73,4.8.991s3.342.416,5.005.532c2.053-2.492,5.893-4.459,10.859-5.237a27.285,27.285,0,0,1,13.928,1.4,32.862,32.862,0,0,0,7.2-4.149v-9.815a32.973,32.973,0,0,1-7.2,4.145A27.285,27.285,0,0,0,752.268,476.231Zm27.779-17.067c-4.314,1.179-7.745,3.4-9.081,6.275s-.294,5.776,2.425,8.047c-.243-.2-.452-.416-.667-.626a16.822,16.822,0,0,1,7.324-3.877Zm-60.13-1.613c1.336-2.868.293-5.776-2.416-8.048v9.819c.238.2.448.413.662.622A8.308,8.308,0,0,0,719.917,457.552Z" transform="translate(-710.839 -449.504)" fill="#f2f5fc"/>
        </g>
        <g id="Group_2019" data-name="Group 2019">
          <path id="Path_14800" data-name="Path 14800" d="M741.092,489.166l-.064,0c-1.951-.136-3.566-.308-5.082-.541-1.534-.239-3.132-.568-4.888-1.007a.926.926,0,0,1-.692-1.028c.346-2.453-1.258-4.9-4.4-6.725a24.047,24.047,0,0,0-12.773-2.679.96.96,0,0,1-.784-.371,15.021,15.021,0,0,1-2.791-6.032.888.888,0,0,1-.018-.182v-9.816a.926.926,0,0,1,.682-.893,16.734,16.734,0,0,0,6.2-3.009.924.924,0,0,1-.224-.6v-9.819a.924.924,0,0,1,.358-.731,33.842,33.842,0,0,1,7.385-4.26.927.927,0,0,1,.708-.009,26.347,26.347,0,0,0,13.444,1.341c4.548-.706,8.3-2.493,10.283-4.9a.938.938,0,0,1,.776-.335c1.948.131,3.567.3,5.1.537,1.513.233,3.109.563,4.879,1.008a.926.926,0,0,1,.691,1.028c-.349,2.456,1.258,4.905,4.408,6.721a24.024,24.024,0,0,0,12.769,2.68.935.935,0,0,1,.786.372,15.1,15.1,0,0,1,2.794,6.03.9.9,0,0,1,.019.184v9.819a.927.927,0,0,1-.681.893,16.854,16.854,0,0,0-6.2,3,.924.924,0,0,1,.227.606v9.815a.926.926,0,0,1-.359.732,33.731,33.731,0,0,1-7.4,4.268.915.915,0,0,1-.709.009,26.417,26.417,0,0,0-13.442-1.345c-4.553.713-8.3,2.5-10.287,4.911A.924.924,0,0,1,741.092,489.166ZM732.264,486c1.407.334,2.711.594,3.965.79,1.342.206,2.772.364,4.466.49,2.328-2.566,6.341-4.448,11.112-5.2a28.46,28.46,0,0,1,14.051,1.313,32.03,32.03,0,0,0,6.288-3.606v-8.944c-.092-.086-.182-.174-.27-.262l-.116-.113a.926.926,0,0,1,0-1.324,17.2,17.2,0,0,1,7.047-3.912v-9.029a13.085,13.085,0,0,0-2.162-4.81,25.687,25.687,0,0,1-13.279-2.946c-3.505-2.02-5.425-4.8-5.382-7.743-1.423-.341-2.7-.594-3.952-.787-1.355-.209-2.789-.364-4.48-.487-2.33,2.569-6.344,4.45-11.11,5.189a28.419,28.419,0,0,1-14.051-1.31,32.119,32.119,0,0,0-6.277,3.6v8.948c.113.107.223.214.332.322l.053.052a.925.925,0,0,1,0,1.32,17.11,17.11,0,0,1-7.048,3.921V470.5a13.029,13.029,0,0,0,2.157,4.81,25.742,25.742,0,0,1,13.285,2.945C730.388,480.285,732.305,483.07,732.264,486Zm12.783-16.91a29.083,29.083,0,0,1-4.427-.336c-4.491-.694-8.277-2.372-10.663-4.726a.928.928,0,0,1,0-1.318c4.012-3.968,12.105-5.922,19.681-4.752,4.488.694,8.273,2.37,10.658,4.722a.925.925,0,0,1,0,1.318C757.061,467.2,751.175,469.094,745.048,469.094Zm-13.055-5.722a18.7,18.7,0,0,0,8.91,3.556c6.588,1.018,13.528-.449,17.358-3.583a18.73,18.73,0,0,0-8.906-3.553C742.767,458.775,735.822,460.239,731.992,463.372Z" transform="translate(-709.597 -437.557)" fill="#005bea"/>
        </g>
      </g>
      <g id="Group_2023" data-name="Group 2023" transform="translate(742.65 416.598)">
        <g id="Group_2021" data-name="Group 2021" transform="translate(0.926 0.926)">
          <path id="Path_14801" data-name="Path 14801" d="M755.209,440.626a13.925,13.925,0,0,1,6.073,3.219c-.179.17-.352.346-.551.517v8.148a27.5,27.5,0,0,0,5.966,3.439,22.573,22.573,0,0,1,11.56-1.161c4.123.644,7.309,2.274,9.009,4.343,1.383-.1,2.771-.228,4.157-.441s2.7-.5,3.985-.817c-.322-2.279,1.017-4.615,4.029-6.358a20.754,20.754,0,0,1,11.019-2.326,11.763,11.763,0,0,0,2.178-4.694v-8.148a13.869,13.869,0,0,1-6.078-3.223c.177-.174.352-.346.549-.516V424.46a27.47,27.47,0,0,0-5.962-3.436,22.645,22.645,0,0,1-11.555,1.161c-4.121-.64-7.312-2.279-9.01-4.344-1.384.094-2.776.228-4.161.441s-2.7.5-3.98.817c.322,2.279-1.02,4.615-4.034,6.358a20.721,20.721,0,0,1-11.017,2.322,11.7,11.7,0,0,0-2.178,4.7Zm32.335,1.576c-6.219.966-12.571-.661-15.674-3.728a15.393,15.393,0,0,1,8.425-3.707c6.222-.962,12.575.665,15.673,3.732A15.392,15.392,0,0,1,787.544,442.2Z" transform="translate(-755.209 -417.841)" fill="#1b69ff"/>
        </g>
        <path id="Path_14802" data-name="Path 14802" d="M770.427,438.758c-2.006-4.3,2.419-8.723,9.868-9.874s15.118,1.407,17.12,5.712c1.383,2.972-.3,5.992-3.922,7.967a11.022,11.022,0,0,0,2.475-1.8c-3.1-3.067-9.451-4.695-15.673-3.732a15.393,15.393,0,0,0-8.425,3.707A12.859,12.859,0,0,0,776.5,443.5C773.619,442.454,771.381,440.809,770.427,438.758Zm-3.731,11.31a27.5,27.5,0,0,1-5.966-3.439v8.148a27.5,27.5,0,0,0,5.966,3.439,22.573,22.573,0,0,1,11.56-1.161c4.123.644,7.309,2.274,9.009,4.343,1.383-.1,2.771-.228,4.157-.441s2.7-.5,3.985-.817c-.322-2.279,1.017-4.615,4.029-6.358a20.754,20.754,0,0,1,11.019-2.326,11.763,11.763,0,0,0,2.178-4.694v-8.148a11.7,11.7,0,0,1-2.178,4.69,20.7,20.7,0,0,0-11.019,2.332c-3.013,1.744-4.351,4.076-4.029,6.351-1.285.318-2.6.607-3.985.821s-2.773.343-4.157.445c-1.7-2.069-4.886-3.707-9.009-4.35A22.653,22.653,0,0,0,766.7,450.067Zm-11.488-7.175a13.925,13.925,0,0,1,6.073,3.219c-.179.17-.352.346-.551.517,2.254-1.884,3.12-4.293,2.011-6.68s-3.954-4.228-7.532-5.2Zm51.349-7.5c.177-.174.352-.346.549-.516v-8.148c-2.247,1.884-3.114,4.3-2,6.679A6.931,6.931,0,0,0,806.558,435.391Z" transform="translate(-754.283 -419.181)" opacity="0.3" style="mix-blend-mode: overlay;isolation: isolate"/>
        <g id="Group_2022" data-name="Group 2022">
          <path id="Path_14803" data-name="Path 14803" d="M786.949,459.741a.925.925,0,0,1-.715-.338c-1.617-1.967-4.693-3.432-8.437-4.016a21.7,21.7,0,0,0-11.074,1.1.917.917,0,0,1-.71-.009,28.431,28.431,0,0,1-6.167-3.557.93.93,0,0,1-.359-.732v-8.148a.915.915,0,0,1,.13-.472,13.988,13.988,0,0,0-4.971-2.371.926.926,0,0,1-.681-.892v-8.148a.991.991,0,0,1,.018-.182,12.6,12.6,0,0,1,2.345-5.071.91.91,0,0,1,.784-.37,19.79,19.79,0,0,0,10.512-2.2c2.552-1.476,3.857-3.454,3.579-5.426a.926.926,0,0,1,.691-1.027c1.492-.375,2.785-.641,4.068-.835,1.262-.194,2.649-.341,4.237-.449a.936.936,0,0,1,.778.336c1.62,1.971,4.7,3.436,8.437,4.017a21.746,21.746,0,0,0,11.07-1.106.931.931,0,0,1,.708.009,28.409,28.409,0,0,1,6.163,3.554.927.927,0,0,1,.36.733v8.148a.921.921,0,0,1-.13.471,13.854,13.854,0,0,0,4.976,2.374.926.926,0,0,1,.682.894v8.148a.962.962,0,0,1-.019.185,12.67,12.67,0,0,1-2.344,5.064.975.975,0,0,1-.784.37,19.787,19.787,0,0,0-10.514,2.2c-2.55,1.475-3.854,3.454-3.575,5.426a.926.926,0,0,1-.693,1.028c-1.451.36-2.781.632-4.064.834-1.239.191-2.584.333-4.236.45Zm-12.623-6.472a24.456,24.456,0,0,1,3.757.288c3.962.619,7.3,2.176,9.26,4.3,1.392-.107,2.553-.235,3.623-.4,1-.157,2.043-.361,3.153-.62.021-2.449,1.635-4.76,4.54-6.442a21.571,21.571,0,0,1,11.022-2.468,10.672,10.672,0,0,0,1.713-3.846v-7.358a14.26,14.26,0,0,1-5.8-3.258.924.924,0,0,1,0-1.321c.092-.091.182-.179.271-.264V424.6a26.635,26.635,0,0,0-5.057-2.9,23.818,23.818,0,0,1-11.676,1.075c-3.96-.615-7.3-2.173-9.263-4.3-1.345.1-2.536.232-3.626.4-1.006.152-2.022.351-3.147.618-.019,2.449-1.635,4.761-4.544,6.444a21.476,21.476,0,0,1-11.019,2.464,10.588,10.588,0,0,0-1.713,3.848v7.361a14.3,14.3,0,0,1,5.8,3.252.926.926,0,0,1-.012,1.331l-.146.14c-.038.038-.077.076-.117.113v7.28a26.721,26.721,0,0,0,5.061,2.9A22.847,22.847,0,0,1,774.326,453.269Zm9.337-10.186c-5.121,0-10.046-1.585-12.762-4.268a.926.926,0,0,1,0-1.319,16.3,16.3,0,0,1,8.933-3.962c6.337-.978,13.105.662,16.466,3.99a.925.925,0,0,1,0,1.318,16.3,16.3,0,0,1-8.931,3.958h0A24.2,24.2,0,0,1,783.663,443.083Zm-10.709-4.925c3.179,2.491,8.8,3.641,14.131,2.812h0a15.573,15.573,0,0,0,7.162-2.79c-3.173-2.491-8.788-3.641-14.13-2.816A15.565,15.565,0,0,0,772.955,438.158Z" transform="translate(-753.966 -416.598)" fill="#005bea"/>
        </g>
      </g>
    </g>
  </g>
</svg>
