<svg xmlns="http://www.w3.org/2000/svg" width="70" height="70" viewBox="0 0 70 70">
    <g fill="#007DB8">
        <path d="M35.002 5.399c-8.447 0-16.097 3.426-21.636 8.97-5.54 5.53-8.965 13.184-8.965 21.635 0 8.445 3.424 16.094 8.965 21.627 5.539 5.535 13.189 8.968 21.636 8.968 8.45 0 16.104-3.433 21.634-8.968 5.539-5.533 8.956-13.182 8.956-21.627 0-8.451-3.417-16.106-8.956-21.636-5.53-5.543-13.184-8.97-21.634-8.97m0-3.707c18.946 0 34.307 15.363 34.307 34.313 0 18.944-15.361 34.305-34.307 34.305C16.058 70.31.691 54.948.691 36.004c0-18.95 15.367-34.313 34.311-34.313" transform="translate(0 -1)"/>
        <path d="M18.775 35.725c0-2-1.326-3.136-3.205-3.136h-1.15v6.273h1.118c1.746 0 3.237-.95 3.237-3.137m20.448 2.256l-8.468 6.669-7.74-6.094c-1.117 2.683-3.816 4.547-6.924 4.547H9.467V28.347h6.624c3.473 0 5.976 2.208 6.922 4.56l7.742-6.086 2.867 2.257-7.095 5.576 1.363 1.067 7.093-5.573 2.872 2.25-7.094 5.583 1.361 1.07 7.1-5.584v-5.12h5.148v10.449h5.135v4.325H39.223v-5.14zm16.803.817h5.133v4.323H50.873V28.347h5.153v10.45z" transform="translate(0 -1)"/>
    </g>
</svg>
