<svg xmlns="http://www.w3.org/2000/svg" width="103" height="77" viewBox="0 0 103 77">
    <g fill="#0080FF">
        <path d="M51.5 51.188V41.27c10.533 0 18.709-10.412 14.664-21.462-1.483-4.06-4.771-7.337-8.874-8.816C46.205 6.989 35.76 15.11 35.76 25.609h-9.922c0-16.734 16.236-29.785 33.839-24.304 7.681 2.407 13.82 8.498 16.206 16.154 5.5 17.546-7.594 33.73-24.382 33.73z"/>
        <path d="M51.53 41.328h-9.923v-9.89h9.922v9.89zm-9.923 7.57h-7.594v-7.57h7.594v7.57zm-7.594-7.57h-6.372v-6.352h6.372v6.352zM9.078 61.223c-1.28-.9-2.91-1.334-4.772-1.334H.233v12.906h4.102c1.862 0 3.492-.464 4.772-1.421.698-.493 1.251-1.19 1.659-2.06.378-.87.581-1.914.581-3.045 0-1.13-.203-2.146-.581-3.016-.408-.87-.96-1.566-1.688-2.03zm-6.46.841h1.28c1.427 0 2.59.29 3.492.841.99.61 1.484 1.74 1.484 3.364 0 1.682-.494 2.871-1.484 3.51-.843.55-2.007.84-3.462.84h-1.31v-8.555zm11.552-2.35c-.408 0-.728.146-1.019.407-.261.26-.407.58-.407.986s.146.725.407 1.015c.262.261.611.406 1.019.406.378 0 .727-.145 1.018-.406.262-.261.407-.609.407-1.015 0-.406-.145-.725-.407-.986-.29-.261-.64-.406-1.018-.406zm-1.164 3.974h2.299v9.107h-2.3v-9.107zm10.65.754c-.7-.609-1.456-.986-2.3-.986-1.28 0-2.327.435-3.142 1.305-.815.841-1.251 1.943-1.251 3.277 0 1.277.407 2.379 1.222 3.249.815.84 1.891 1.276 3.142 1.276.873 0 1.659-.232 2.27-.725v.203c0 .754-.204 1.334-.611 1.74-.407.406-.96.609-1.659.609-1.047 0-1.716-.406-2.531-1.508l-1.571 1.508.029.058c.35.464.844.928 1.542 1.363.67.435 1.542.667 2.56.667 1.368 0 2.474-.406 3.288-1.247.815-.841 1.222-1.943 1.222-3.306v-8.266h-2.27v.783h.06zm-.612 5.395c-.407.464-.931.667-1.571.667-.67 0-1.164-.232-1.571-.667-.408-.464-.582-1.045-.582-1.77 0-.754.203-1.334.582-1.798.378-.464.93-.667 1.57-.667.67 0 1.165.232 1.572.667.407.464.611 1.073.611 1.798 0 .725-.204 1.306-.61 1.77zm4.83-6.149h2.299v9.107h-2.299v-9.107zm1.164-3.973c-.407 0-.728.145-1.019.406-.261.26-.407.58-.407.986s.146.725.407 1.015c.262.261.612.406 1.019.406.378 0 .727-.145 1.018-.406.262-.261.408-.609.408-1.015 0-.406-.146-.725-.408-.986-.29-.261-.61-.406-1.018-.406zm6.168 1.508h-2.27v2.465h-1.309v2.088h1.31v3.77c0 1.19.232 2.03.698 2.524.466.493 1.31.725 2.473.725.378 0 .757 0 1.106-.03h.116v-2.087l-.785.029c-.553 0-.902-.087-1.077-.29-.174-.203-.262-.61-.262-1.219v-3.45h2.153v-2.089h-2.153v-2.436zm12.919-1.363h2.298v12.935h-2.298V59.86zm25.517 9.687c-.407.464-.844.87-1.164 1.073-.32.203-.727.319-1.193.319-.669 0-1.222-.232-1.658-.754-.437-.493-.67-1.16-.67-1.915 0-.783.233-1.42.67-1.914.436-.493.99-.754 1.658-.754.728 0 1.513.464 2.183 1.247l1.513-1.45c-.99-1.276-2.24-1.885-3.754-1.885-1.251 0-2.357.464-3.259 1.363-.902.9-1.338 2.03-1.338 3.393 0 1.364.465 2.495 1.338 3.394.902.899 1.979 1.363 3.26 1.363 1.658 0 2.996-.725 3.927-2.03l-1.513-1.45zm9.456-4.583c-.32-.464-.756-.812-1.309-1.073-.553-.26-1.193-.406-1.891-.406-1.28 0-2.328.464-3.114 1.392-.756.928-1.163 2.06-1.163 3.422 0 1.393.436 2.524 1.25 3.394.845.87 1.95 1.305 3.318 1.305 1.542 0 2.822-.638 3.782-1.856l.058-.058-1.513-1.45c-.145.174-.349.348-.523.522-.233.203-.437.377-.67.493-.349.174-.727.26-1.163.26-.64 0-1.164-.173-1.572-.55-.378-.348-.61-.812-.669-1.393H84l.03-.84c0-.58-.088-1.16-.233-1.683-.146-.522-.379-1.015-.699-1.479zm-5.033 2.146c.116-.435.32-.812.61-1.073.32-.319.728-.464 1.194-.464.552 0 .989.145 1.28.464.262.29.436.638.465 1.073h-3.55zm13.85-2.726c-.699-.58-1.66-.899-2.852-.899-.757 0-1.484.174-2.124.493-.611.29-1.193.812-1.571 1.45l.029.03 1.484 1.391c.61-.957 1.28-1.305 2.182-1.305.495 0 .873.116 1.193.377.29.261.465.58.465.986v.435c-.581-.174-1.134-.26-1.687-.26-1.135 0-2.066.26-2.764.782-.699.522-1.048 1.305-1.048 2.292 0 .87.291 1.537.902 2.059.611.493 1.339.754 2.212.754.872 0 1.687-.348 2.444-.957v.754h2.27v-5.859c-.088-1.073-.437-1.943-1.136-2.523zm-4.074 4.93c.262-.174.64-.26 1.106-.26.552 0 1.134.115 1.745.319v.899c-.494.464-1.163.696-1.978.696-.408 0-.698-.087-.931-.261-.204-.174-.32-.377-.32-.667 0-.32.116-.551.378-.725zm13.966-4.756c-.64-.725-1.542-1.073-2.677-1.073-.902 0-1.658.261-2.211.783v-.55h-2.24v9.077h2.298v-5.018c0-.696.175-1.247.495-1.624s.756-.58 1.367-.58c.524 0 .902.174 1.193.522.291.348.437.841.437 1.421v5.279h2.298v-5.279c0-1.247-.32-2.262-.96-2.958zm-56.563-.174c-.698-.58-1.658-.899-2.851-.899-.757 0-1.484.174-2.124.493-.611.29-1.193.812-1.571 1.45l.029.03 1.484 1.391c.61-.957 1.28-1.305 2.182-1.305.495 0 .873.116 1.193.377.29.261.465.58.465.986v.435c-.582-.174-1.134-.26-1.687-.26-1.135 0-2.066.26-2.764.782-.699.522-1.048 1.305-1.048 2.292 0 .87.291 1.537.902 2.059.611.493 1.339.754 2.212.754.872 0 1.687-.348 2.444-.957v.754h2.27v-5.859c-.088-1.073-.437-1.943-1.136-2.523zm-4.073 4.93c.262-.174.64-.26 1.106-.26.552 0 1.134.115 1.745.319v.899c-.494.464-1.164.696-1.978.696-.408 0-.699-.087-.931-.261-.204-.174-.32-.377-.32-.667 0-.32.116-.551.378-.725zm17.603 3.684c-3.695 0-6.692-2.987-6.692-6.67 0-3.684 2.997-6.671 6.692-6.671 3.695 0 6.692 2.987 6.692 6.67 0 3.684-2.997 6.67-6.692 6.67zm0-10.992c-2.386 0-4.335 1.943-4.335 4.321 0 2.378 1.95 4.322 4.335 4.322 2.386 0 4.335-1.944 4.335-4.322s-1.95-4.321-4.335-4.321z"/>
    </g>
</svg>
