<svg xmlns="http://www.w3.org/2000/svg" width="129" height="125" viewBox="0 0 129 125">
  <g id="Group_2511" data-name="Group 2511" transform="translate(-39 -4992)">
    <rect id="Rectangle_543" data-name="Rectangle 543" width="129" height="125" transform="translate(39 4992)" fill="none"/>
    <g id="Group_2510" data-name="Group 2510" transform="translate(59 5001)">
      <path id="Path_15196" data-name="Path 15196" d="M2095.544,474.894a7.415,7.415,0,1,0-8.432-6.255A7.413,7.413,0,0,0,2095.544,474.894Z" transform="translate(-2020.506 -368.474)" fill="#1b69ff" stroke="#1b69ff" stroke-linecap="round" stroke-linejoin="round" stroke-width="2" fill-rule="evenodd"/>
      <path id="Path_15197" data-name="Path 15197" d="M1960.673,366.961a18.936,18.936,0,0,1,6.923,4.344c4.97,4.627,8.921,12.039,9.478,18.826a14.252,14.252,0,0,1-1,7.129,7.829,7.829,0,0,1-1.629,2.34" transform="translate(-1938.471 -307.979)" fill="none" stroke="#1b69ff" stroke-linecap="round" stroke-linejoin="round" stroke-width="2" fill-rule="evenodd"/>
      <path id="Path_15198" data-name="Path 15198" d="M2104.92,282.66a22.026,22.026,0,0,1,6.333,4.233c5.338,4.995,9.6,12.974,10.205,20.291a15.736,15.736,0,0,1-1.053,7.678,8.6,8.6,0,0,1-1.775,2.528" transform="translate(-2032.118 -253.25)" fill="none" stroke="#1b69ff" stroke-linecap="round" stroke-linejoin="round" stroke-width="2" fill-rule="evenodd"/>
      <path id="Path_15199" data-name="Path 15199" d="M2129.036,381.668l-.428.386-3.624,2.1-2.185,1.269-1.851,1.053" transform="translate(-2042.523 -317.527)" fill="none" stroke="#1b69ff" stroke-linecap="round" stroke-linejoin="round" stroke-width="2" fill-rule="evenodd"/>
      <path id="Path_15200" data-name="Path 15200" d="M2120.948,389.947a8.255,8.255,0,0,0,.634-.591c.137-.163.3-.325.429-.488a1.221,1.221,0,0,1,.1-.1c.122-.181.259-.386.4-.591.12-.205.248-.4.367-.634a2.192,2.192,0,0,0,.24-.523" transform="translate(-2042.524 -321.001)" fill="none" stroke="#1b69ff" stroke-linecap="round" stroke-linejoin="round" stroke-width="2" fill-rule="evenodd"/>
      <path id="Path_15201" data-name="Path 15201" d="M2127.223,372.839a.1.1,0,0,0,.017-.061,2.866,2.866,0,0,0,.207-.471c.1-.24.179-.471.264-.711a.8.8,0,0,0,.043-.189,6.947,6.947,0,0,0,.241-.916,8.855,8.855,0,0,0,.2-1.141,10.4,10.4,0,0,0,.1-1.053c.034-.429.059-.883.059-1.345v-.19c0-.4-.025-.831-.059-1.242,0-.12-.027-.223-.027-.343" transform="translate(-2046.597 -306.821)" fill="none" stroke="#1b69ff" stroke-linecap="round" stroke-linejoin="round" stroke-width="2" fill-rule="evenodd"/>
      <path id="Path_15202" data-name="Path 15202" d="M2128.991,357.738c-.033-.489-.093-.961-.163-1.431a1.678,1.678,0,0,0-.033-.283c-.085-.514-.189-1.019-.309-1.551-.042-.24-.1-.488-.163-.728" transform="translate(-2047.313 -299.399)" fill="none" stroke="#1b69ff" stroke-linecap="round" stroke-linejoin="round" stroke-width="2" fill-rule="evenodd"/>
      <path id="Path_15203" data-name="Path 15203" d="M2103.14,317.814c-.043-.179-.077-.342-.12-.506-.068-.222-.129-.445-.188-.676-.017-.035-.017-.077-.035-.12a1.772,1.772,0,0,1-.068-.205c-.155-.506-.325-1.02-.506-1.509-.206-.549-.4-1.071-.634-1.611-.137-.317-.282-.668-.446-.994a29.426,29.426,0,0,0-1.389-2.75c-.2-.343-.386-.669-.608-.994-.249-.411-.488-.815-.754-1.209a29.327,29.327,0,0,0-2.829-3.657c-.23-.266-.453-.532-.693-.781-.514-.549-1.036-1.053-1.568-1.525-.266-.266-.532-.489-.8-.712-.575-.471-1.14-.916-1.749-1.328-.394-.282-.813-.548-1.225-.8" transform="translate(-2022.128 -263.495)" fill="none" stroke="#1b69ff" stroke-linecap="round" stroke-linejoin="round" stroke-width="2" fill-rule="evenodd"/>
      <path id="Path_15204" data-name="Path 15204" d="M2071.7,294.319a19.149,19.149,0,0,0-2.545-1.2,1.133,1.133,0,0,1-.162-.059.969.969,0,0,0-.266-.077.743.743,0,0,0-.189-.087c-.034,0-.059-.025-.077-.025a2.552,2.552,0,0,0-.283-.078,7.42,7.42,0,0,0-.737-.179,7.212,7.212,0,0,0-1.036-.181.218.218,0,0,0-.12-.026,6.741,6.741,0,0,0-.916-.059,7.431,7.431,0,0,0-1.877.162,4.824,4.824,0,0,0-.567.137c-.171.043-.333.086-.453.129" transform="translate(-2004.557 -259.536)" fill="none" stroke="#1b69ff" stroke-linecap="round" stroke-linejoin="round" stroke-width="2" fill-rule="evenodd"/>
      <path id="Path_15205" data-name="Path 15205" d="M2047.661,300.889c.591-3.744,2.46-6.272,5.133-7.275l.026-.017c.017,0,.017,0,.035-.017" transform="translate(-1994.945 -260.339)" fill="none" stroke="#1b69ff" stroke-linecap="round" stroke-linejoin="round" stroke-width="2" fill-rule="evenodd"/>
      <path id="Path_15206" data-name="Path 15206" d="M2062.467,289.536l3.77-2.185h.017" transform="translate(-2004.557 -256.296)" fill="none" stroke="#1b69ff" stroke-linecap="round" stroke-linejoin="round" stroke-width="2" fill-rule="evenodd"/>
      <path id="Path_15207" data-name="Path 15207" d="M2096.152,376.609a.086.086,0,0,1,.061.017c3.462,1.285,6.495.9,8.638-.858a8.243,8.243,0,0,0,.633-.591c.137-.163.3-.325.429-.488a1.243,1.243,0,0,1,.1-.1c.122-.181.258-.386.4-.591.12-.205.248-.4.367-.634a4.1,4.1,0,0,0,.266-.523.094.094,0,0,0,.017-.061,2.863,2.863,0,0,0,.207-.471,7.538,7.538,0,0,0,.308-.9,6.948,6.948,0,0,0,.24-.916,8.771,8.771,0,0,0,.2-1.141,10.4,10.4,0,0,0,.1-1.053c.034-.429.059-.883.059-1.345v-.19c0-.53-.042-1.053-.086-1.585" transform="translate(-2026.426 -306.821)" fill="none" stroke="#1b69ff" stroke-linecap="round" stroke-linejoin="round" stroke-width="2" fill-rule="evenodd"/>
      <path id="Path_15208" data-name="Path 15208" d="M2103.807,321.834a14.16,14.16,0,0,0-.2-1.714c-.085-.514-.188-1.019-.308-1.551-.042-.24-.1-.488-.163-.728-.1-.454-.223-.883-.344-1.328a1.772,1.772,0,0,1-.068-.205c-.155-.506-.325-1.02-.506-1.509-.206-.549-.4-1.071-.634-1.611-.137-.317-.282-.668-.446-.994a29.426,29.426,0,0,0-1.389-2.75c-.2-.343-.386-.669-.608-.994-.224-.411-.488-.815-.754-1.209a29.327,29.327,0,0,0-2.829-3.657c-.23-.266-.453-.532-.693-.781-.514-.549-1.036-1.053-1.568-1.525-.266-.266-.532-.489-.8-.712-.575-.471-1.14-.916-1.749-1.328-.394-.282-.813-.548-1.225-.8" transform="translate(-2022.128 -263.495)" fill="none" stroke="#1b69ff" stroke-linecap="round" stroke-linejoin="round" stroke-width="2" fill-rule="evenodd"/>
      <path id="Path_15209" data-name="Path 15209" d="M2062.083,294.309c-.506-.282-1.019-.548-1.508-.772a4.678,4.678,0,0,0-.445-.18,1.919,1.919,0,0,0-.292-.129c-.316-.137-.625-.241-.917-.343-.034,0-.059-.025-.077-.025a2.639,2.639,0,0,0-.445-.12,4.407,4.407,0,0,0-.574-.136,7.21,7.21,0,0,0-1.037-.181,1.8,1.8,0,0,0-.428-.068,2.892,2.892,0,0,0-.608-.017,7.43,7.43,0,0,0-1.877.162,4.8,4.8,0,0,0-.567.137,2.8,2.8,0,0,0-.488.146l-.026.017c-2.673,1-4.542,3.531-5.133,7.275" transform="translate(-1994.945 -259.526)" fill="none" stroke="#1b69ff" stroke-linecap="round" stroke-linejoin="round" stroke-width="2" fill-rule="evenodd"/>
      <path id="Path_15210" data-name="Path 15210" d="M1960.894,371.847a24.665,24.665,0,0,1,4.361,3.264c5.338,5.005,9.579,12.974,10.188,20.308a15.591,15.591,0,0,1-.96,7.455c-.043.085-.06.146-.1.224a9.007,9.007,0,0,1-1.749,2.51" transform="translate(-1938.615 -311.151)" fill="none" stroke="#1b69ff" stroke-linecap="round" stroke-linejoin="round" stroke-width="2" fill-rule="evenodd"/>
      <path id="Path_15211" data-name="Path 15211" d="M1979.389,468.093l-.454.377-7.634,4.422" transform="translate(-1945.371 -373.635)" fill="none" stroke="#1b69ff" stroke-linecap="round" stroke-linejoin="round" stroke-width="2" fill-rule="evenodd"/>
      <path id="Path_15212" data-name="Path 15212" d="M1917.2,378.819a2.537,2.537,0,0,0-.368-.017,6.464,6.464,0,0,0-1.141.017,2.426,2.426,0,0,0-.429.043,4.433,4.433,0,0,0-.77.137,1.885,1.885,0,0,0-.325.061" transform="translate(-1908.277 -315.655)" fill="none" stroke="#1b69ff" stroke-linecap="round" stroke-linejoin="round" stroke-width="2" fill-rule="evenodd"/>
      <path id="Path_15213" data-name="Path 15213" d="M1913.148,373.572l-.309.1-.24.086,5.947-3.428" transform="translate(-1907.261 -310.168)" fill="none" stroke="#1b69ff" stroke-linecap="round" stroke-linejoin="round" stroke-width="2" fill-rule="evenodd"/>
      <path id="Path_15214" data-name="Path 15214" d="M1912.009,414.514c-8.072-4.662-14.627-16-14.627-25.33s6.555-13.111,14.627-8.449,14.618,16.015,14.618,25.339S1920.088,419.175,1912.009,414.514Z" transform="translate(-1897.381 -315.626)" fill="none" stroke="#1b69ff" stroke-linecap="round" stroke-linejoin="round" stroke-width="2" fill-rule="evenodd"/>
      <path id="Path_15215" data-name="Path 15215" d="M2062.121,228.456c5.4,1.206,9.084,6.049,9.675,13.7.061.7.078,7.069.078,7.832a28.961,28.961,0,0,1-.137,2.955" transform="translate(-2004.333 -218.06)" fill="none" stroke="#1b69ff" stroke-linecap="round" stroke-linejoin="round" stroke-width="2" fill-rule="evenodd"/>
      <path id="Path_15216" data-name="Path 15216" d="M1982.769,207.21c-3.952-2.074-7.105-2.2-11.449-1.4-11.851,2.957-20.78,12.606-27.086,22.581-4.936,8.26-8.029,16.186-9.032,25.793-.061,3.736-.283,7.67-.061,11.423a13.975,13.975,0,0,0-5.7-1.954c-.07-3.719-.07-7.318-.044-11.062.574-8.964,3.077-16.29,7.216-24.208,5.843-10.419,13.77-19.786,24.953-24.6" transform="translate(-1918.158 -202.041)" fill="none" stroke="#1b69ff" stroke-linecap="round" stroke-linejoin="round" stroke-width="2" fill-rule="evenodd"/>
      <path id="Path_15217" data-name="Path 15217" d="M2058.808,332.924c-7.317-4.226-13.248-14.49-13.248-22.948s5.931-11.877,13.248-7.652,13.257,14.507,13.257,22.956S2066.117,337.148,2058.808,332.924Z" transform="translate(-1993.581 -264.841)" fill="none" stroke="#1b69ff" stroke-linecap="round" stroke-linejoin="round" stroke-width="2" fill-rule="evenodd"/>
      <path id="Path_15218" data-name="Path 15218" d="M2065.214,337.225c-5.4-3.118-9.786-10.685-9.786-16.923s4.389-8.766,9.786-5.646,9.778,10.693,9.778,16.932S2070.6,340.337,2065.214,337.225Z" transform="translate(-1999.987 -273.154)" fill="#f2f5fc" stroke="#1b69ff" stroke-linecap="round" stroke-linejoin="round" stroke-width="2" fill-rule="evenodd"/>
      <path id="Path_15219" data-name="Path 15219" d="M2005.795,252.451c.1-1.063.137-1.989.137-3.025,0-.763-.017-7.13-.078-7.832-.994-12.854-10.737-17.764-22.614-10.908-12.057,6.966-21.91,23.522-22.648,37.661-.026.549-.044,6.727-.044,7.276,0,.892.044,1.747.121,2.571" transform="translate(-1938.391 -217.496)" fill="none" stroke="#1b69ff" stroke-linecap="round" stroke-linejoin="round" stroke-width="2" fill-rule="evenodd"/>
      <path id="Path_15220" data-name="Path 15220" d="M1951.091,371.847l-.385.274-4.911,2.6" transform="translate(-1928.812 -311.152)" fill="none" stroke="#1b69ff" stroke-linecap="round" stroke-linejoin="round" stroke-width="2" fill-rule="evenodd"/>
      <path id="Path_15221" data-name="Path 15221" d="M1945.653,275.566c-.059-.772-.076-1.577-.076-2.409,0-.874.017-7.4.076-8.294,1.166-17.267,13.2-37.276,27.867-45.743" transform="translate(-1928.671 -212)" fill="none" stroke="#1b69ff" stroke-linecap="round" stroke-linejoin="round" stroke-width="2" fill-rule="evenodd"/>
      <path id="Path_15222" data-name="Path 15222" d="M1918.074,421.066c-5.655-3.264-10.24-11.19-10.24-17.729s4.585-9.178,10.24-5.914,10.231,11.209,10.231,17.739S1923.721,424.331,1918.074,421.066Z" transform="translate(-1904.167 -326.848)" fill="#f2f5fc" stroke="#1b69ff" stroke-linecap="round" stroke-linejoin="round" stroke-width="2" fill-rule="evenodd"/>
      <path id="Path_15223" data-name="Path 15223" d="M2123.479,392.367c2.553,8.106,3.384,17.189-1.483,25.562" transform="translate(-2043.203 -324.473)" fill="none" stroke="#1b69ff" stroke-linecap="round" stroke-linejoin="round" stroke-width="2" fill-rule="evenodd"/>
      <path id="Path_15224" data-name="Path 15224" d="M2128.456,388.751c2.767,9.126,3.316,19.374-2.159,28.578" transform="translate(-2045.997 -322.126)" fill="none" stroke="#1b69ff" stroke-linecap="round" stroke-linejoin="round" stroke-width="2" fill-rule="evenodd"/>
      <line id="Line_1352" data-name="Line 1352" x1="0.266" y1="0.163" transform="translate(67.138 34.783)" fill="none" stroke="#1b69ff" stroke-linecap="round" stroke-linejoin="round" stroke-width="2"/>
      <path id="Path_15225" data-name="Path 15225" d="M2065.464,234.925a15.513,15.513,0,0,0-3.343-6.469" transform="translate(-2004.333 -218.06)" fill="none" stroke="#1b69ff" stroke-linecap="round" stroke-linejoin="round" stroke-width="2" fill-rule="evenodd"/>
      <path id="Path_15226" data-name="Path 15226" d="M2078.181,294.383a13.991,13.991,0,0,0-5.724-1.954" transform="translate(-2011.043 -259.592)" fill="none" stroke="#1b69ff" stroke-linecap="round" stroke-linejoin="round" stroke-width="2" fill-rule="evenodd"/>
      <line id="Line_1353" data-name="Line 1353" x1="0.017" transform="translate(61.397 32.837)" fill="none" stroke="#1b69ff" stroke-linecap="round" stroke-linejoin="round" stroke-width="2"/>
      <path id="Path_15227" data-name="Path 15227" d="M2071.917,262.868c.813-3.65.591-12.167-.266-15.972" transform="translate(-2010.519 -230.032)" fill="none" stroke="#1b69ff" stroke-linecap="round" stroke-linejoin="round" stroke-width="2" fill-rule="evenodd"/>
      <path id="Path_15228" data-name="Path 15228" d="M2021.133,200.561c5.432-2.023,10.206-2.648,15.5.128" transform="translate(-1977.723 -198.82)" fill="none" stroke="#1b69ff" stroke-linecap="round" stroke-linejoin="round" stroke-width="2" fill-rule="evenodd"/>
      <line id="Line_1354" data-name="Line 1354" x2="5.7" y2="3.3" transform="translate(58.911 1.868)" fill="none" stroke="#1b69ff" stroke-linecap="round" stroke-linejoin="round" stroke-width="2"/>
      <path id="Path_15229" data-name="Path 15229" d="M2075.242,210.721c6.334,2.258,10.411,8.943,10.411,19.082" transform="translate(-2012.851 -206.546)" fill="none" stroke="#1b69ff" stroke-linecap="round" stroke-linejoin="round" stroke-width="2" fill-rule="evenodd"/>
      <line id="Line_1355" data-name="Line 1355" x1="0.025" y2="6.821" transform="translate(72.777 23.257)" fill="none" stroke="#1b69ff" stroke-linecap="round" stroke-linejoin="round" stroke-width="2"/>
      <path id="Path_15230" data-name="Path 15230" d="M2104.676,284.566c0,.651-.035,1.166-.094,1.825" transform="translate(-2031.898 -254.487)" fill="none" stroke="#1b69ff" stroke-linecap="round" stroke-linejoin="round" stroke-width="2" fill-rule="evenodd"/>
      <line id="Line_1356" data-name="Line 1356" x1="5.279" y2="3.051" transform="translate(67.404 31.903)" fill="none" stroke="#1b69ff" stroke-linecap="round" stroke-linejoin="round" stroke-width="2"/>
    </g>
  </g>
</svg>
