<svg xmlns="http://www.w3.org/2000/svg" width="221" height="35" viewBox="0 0 221 35">
    <g fill="none">
        <path fill="#EA4335" d="M26.033 9.254h1.249l3.558-3.56.175-1.51C26.87.524 21.13-.734 15.836.854 10.541 2.443 6.442 6.653 4.994 11.99c.397-.162.836-.189 1.249-.075l7.117-1.174s.362-.6.55-.562c3.165-3.477 8.493-3.883 12.148-.924h-.025z"/>
        <path fill="#4285F4" d="M35.91 11.99c-.819-3.013-2.498-5.722-4.833-7.794l-4.994 4.996c2.109 1.723 3.31 4.32 3.259 7.044v.886c2.455 0 4.445 1.99 4.445 4.446 0 2.456-1.99 4.446-4.445 4.446h-8.89l-.887.9v5.332l.887.887h8.89c5.097.04 9.619-3.264 11.131-8.133 1.512-4.87-.341-10.154-4.564-13.01z"/>
        <path fill="#34A853" d="M11.55 33.083h8.89v-7.119h-8.89c-.634 0-1.26-.136-1.836-.4l-1.249.388-3.583 3.56-.312 1.248c2.01 1.518 4.461 2.334 6.98 2.323z"/>
        <path fill="#FBBC05" d="M11.55 9.991c-4.939.03-9.313 3.193-10.889 7.874-1.576 4.68-.006 9.846 3.909 12.858l5.156-5.158c-1.801-.815-2.849-2.721-2.57-4.679.279-1.958 1.817-3.496 3.774-3.775 1.957-.278 3.863.77 4.677 2.571l5.157-5.157c-2.194-2.87-5.603-4.547-9.215-4.534z"/>
        <path fill="#5F6368" d="M64.664 28.112c-3.092.04-6.068-1.182-8.24-3.384-2.243-2.11-3.497-5.064-3.459-8.143-.037-3.079 1.218-6.032 3.459-8.143 2.162-2.224 5.138-3.47 8.24-3.446 2.955-.04 5.802 1.107 7.904 3.184l-2.223 2.26c-1.522-1.47-3.564-2.279-5.68-2.247-2.22-.028-4.35.879-5.869 2.497-1.578 1.567-2.449 3.71-2.41 5.933-.018 2.197.85 4.309 2.41 5.857 3.215 3.205 8.397 3.266 11.687.137.98-1.072 1.58-2.437 1.71-3.884h-7.491v-3.197h10.6c.104.644.146 1.296.125 1.948.133 2.727-.855 5.39-2.734 7.369-2.092 2.178-5.011 3.363-8.029 3.26zm24.647-2.123c-2.955 2.834-7.62 2.834-10.575 0-1.432-1.388-2.215-3.314-2.16-5.307-.054-1.994.73-3.919 2.16-5.308 2.958-2.828 7.617-2.828 10.575 0 1.43 1.39 2.214 3.314 2.16 5.308.052 1.995-.736 3.921-2.172 5.307h.012zm-8.24-2.085c.765.817 1.834 1.28 2.953 1.28 1.119 0 2.188-.463 2.953-1.28.833-.862 1.283-2.024 1.248-3.222.037-1.203-.413-2.37-1.248-3.235-.775-.808-1.846-1.266-2.966-1.266s-2.19.458-2.965 1.266c-.836.865-1.286 2.032-1.249 3.235-.032 1.2.423 2.362 1.261 3.222h.013zm24.497 2.085c-2.956 2.834-7.62 2.834-10.575 0-1.432-1.388-2.216-3.314-2.16-5.307-.054-1.994.73-3.919 2.16-5.308 2.955-2.834 7.62-2.834 10.575 0 1.43 1.39 2.214 3.314 2.16 5.308.055 1.993-.728 3.919-2.16 5.307zm-8.24-2.085c.764.817 1.833 1.28 2.952 1.28 1.12 0 2.188-.463 2.953-1.28.834-.862 1.284-2.024 1.249-3.222.037-1.203-.413-2.37-1.249-3.235-.775-.808-1.846-1.266-2.965-1.266-1.12 0-2.19.458-2.966 1.266-.835.865-1.285 2.032-1.248 3.235-.032 1.2.423 2.362 1.26 3.222h.013zm18.928 10.877c-1.497.048-2.964-.42-4.158-1.323-1.06-.797-1.894-1.856-2.422-3.073l2.847-1.186c.31.727.794 1.366 1.41 1.86.66.533 1.488.812 2.335.788 1.087.066 2.15-.345 2.91-1.124.752-.908 1.123-2.072 1.036-3.248v-1.074h-.112c-.965 1.146-2.413 1.771-3.908 1.686-1.896.006-3.707-.782-4.995-2.173-1.397-1.379-2.168-3.27-2.135-5.232-.035-1.975.736-3.878 2.135-5.27 1.285-1.397 3.097-2.19 4.995-2.186.794-.002 1.578.173 2.297.512.622.271 1.176.676 1.623 1.186h.112v-1.186h3.097v13.3c.165 2.127-.553 4.227-1.985 5.808-1.364 1.304-3.196 2.002-5.082 1.935zm.225-9.591c1.08.024 2.113-.434 2.822-1.249.77-.883 1.176-2.026 1.136-3.197.046-1.191-.36-2.356-1.136-3.26-.708-.816-1.743-1.274-2.822-1.248-1.108-.023-2.173.432-2.922 1.248-.826.872-1.275 2.034-1.249 3.235-.025 1.19.424 2.34 1.249 3.197.746.825 1.81 1.289 2.922 1.274zm12.348-19.358v21.83h-3.259V5.833h3.26zm8.94 22.28c-1.973.051-3.878-.723-5.256-2.135-1.399-1.402-2.162-3.316-2.11-5.295-.075-1.985.66-3.914 2.035-5.346 1.297-1.367 3.11-2.124 4.994-2.085.857-.01 1.707.156 2.497.487.712.287 1.361.712 1.91 1.249.472.455.89.962 1.25 1.51.289.464.535.953.736 1.462l.337.85-9.989 4.108c.619 1.421 2.048 2.315 3.596 2.248 1.497.004 2.886-.778 3.659-2.06l2.497 1.685c-.638.912-1.453 1.686-2.398 2.273-1.123.71-2.43 1.075-3.758 1.05zm-4.17-7.655l6.642-2.76c-.204-.487-.57-.888-1.036-1.137-.521-.294-1.112-.445-1.71-.437-1.017.026-1.981.453-2.685 1.187-.853.816-1.297 1.97-1.211 3.147zM161.23 28.112c-2.8.049-5.5-1.047-7.474-3.034-1.975-1.987-3.054-4.693-2.99-7.494-.064-2.8 1.015-5.507 2.99-7.494 1.975-1.986 4.674-3.082 7.474-3.034 2.842-.089 5.569 1.126 7.404 3.297l-1.798 1.749c-1.349-1.698-3.427-2.649-5.593-2.56-2.078-.047-4.085.756-5.557 2.222-1.53 1.54-2.35 3.65-2.26 5.82-.09 2.17.73 4.28 2.26 5.82 1.472 1.467 3.48 2.27 5.557 2.223 2.417.027 4.715-1.048 6.243-2.922l1.798 1.798c-.942 1.126-2.124 2.027-3.46 2.635-1.438.665-3.009.998-4.594.974zM174.116 27.663L171.531 27.663 171.531 7.493 174.116 7.493zM178.336 15.524c2.819-2.8 7.37-2.8 10.188 0 1.338 1.412 2.057 3.3 1.998 5.245.059 1.945-.66 3.833-1.998 5.245-2.819 2.8-7.37 2.8-10.188 0-1.338-1.412-2.057-3.3-1.998-5.245-.059-1.945.66-3.833 1.998-5.245zm1.923 8.867c.823.87 1.967 1.363 3.165 1.363 1.197 0 2.342-.493 3.165-1.363.912-.98 1.394-2.284 1.336-3.622.058-1.338-.424-2.642-1.336-3.622-.823-.87-1.968-1.363-3.165-1.363-1.198 0-2.342.493-3.165 1.363-.913.98-1.394 2.284-1.336 3.622-.052 1.335.434 2.635 1.348 3.61l-.012.012zM204.843 27.663h-2.497v-1.911h-.075c-.444.726-1.073 1.32-1.823 1.723-.777.451-1.66.688-2.56.687-1.478.102-2.921-.478-3.92-1.573-.946-1.197-1.421-2.698-1.336-4.221v-8.493h2.585v8.018c0 2.573 1.136 3.859 3.408 3.859 1.025.032 2.001-.433 2.622-1.249.67-.85 1.027-1.903 1.012-2.985v-7.643h2.584v13.788zM213.62 28.112c-1.774.006-3.462-.765-4.619-2.11-1.294-1.43-1.988-3.305-1.935-5.233-.053-1.928.64-3.803 1.935-5.233 1.157-1.345 2.845-2.116 4.62-2.11.982-.016 1.952.216 2.822.674.763.384 1.41.967 1.873 1.686h.112l-.112-1.91V7.492h2.584v20.17h-2.497v-1.911h-.112c-.463.72-1.11 1.302-1.873 1.686-.862.454-1.823.686-2.797.674zm.425-2.36c1.182.017 2.314-.474 3.11-1.349.877-1 1.326-2.305 1.248-3.634.078-1.329-.37-2.634-1.249-3.634-.8-.88-1.933-1.38-3.121-1.38-1.189 0-2.322.5-3.122 1.38-.88.993-1.33 2.296-1.248 3.621-.082 1.326.368 2.629 1.248 3.622.797.89 1.94 1.392 3.134 1.374z"/>
    </g>
</svg>
