<svg xmlns="http://www.w3.org/2000/svg" xmlns:xlink="http://www.w3.org/1999/xlink" width="511" height="469" viewBox="0 0 511 469">
    <defs>
        <radialGradient id="prefix__a" cx="30.117%" cy="29.978%" r="73.569%" fx="30.117%" fy="29.978%" gradientTransform="matrix(.80485 .59184 -.59348 .80263 .237 -.12)">
            <stop offset="0%" stop-color="#57A1FF"/>
            <stop offset="100%" stop-color="#1971B6" stop-opacity=".959"/>
        </radialGradient>
        <radialGradient id="prefix__c" cx="20.016%" cy="40.464%" r="62.156%" fx="20.016%" fy="40.464%" gradientTransform="scale(1 .99793) rotate(23.472 .198 .405)">
            <stop offset="0%" stop-color="#06DFFF"/>
            <stop offset="100%" stop-color="#0B7AD7"/>
        </radialGradient>
        <path id="prefix__b" d="M265.037 13.907l160.712 92.98c14.83 8.58 23.963 24.414 23.963 41.547v186.132c0 17.133-9.132 32.968-23.963 41.548l-160.712 92.98c-14.87 8.602-33.204 8.602-48.074 0L56.25 376.113c-14.83-8.58-23.963-24.415-23.963-41.548V148.434c0-17.133 9.132-32.968 23.963-41.548l160.712-92.98c14.87-8.602 33.204-8.602 48.074 0z"/>
    </defs>
    <g fill="none" fill-rule="evenodd">
        <path fill="url(#prefix__a)" d="M204.049 29.634l109.317 63.289c14.515 8.403 23.452 23.904 23.452 40.675v126.804c0 16.771-8.937 32.272-23.452 40.675l-109.317 63.29c-14.567 8.433-32.531 8.433-47.098 0l-109.317-63.29c-14.515-8.403-23.452-23.904-23.452-40.675V133.598c0-16.771 8.937-32.272 23.452-40.675l109.317-63.29c14.567-8.433 32.531-8.433 47.098 0z" transform="translate(-24 -7)"/>
        <g transform="translate(-24 -7) translate(85)">
            <mask id="prefix__d" fill="#fff">
                <use xlink:href="#prefix__b"/>
            </mask>
            <use fill="url(#prefix__c)" xlink:href="#prefix__b"/>
            <path stroke="#FFF" stroke-dasharray="2" stroke-width="2" d="M18 189c13.962 0 25.835 8.941 30.206 21.41l.153-.061c2.212-.87 4.62-1.349 7.141-1.349 10.77 0 19.5 8.73 19.5 19.5 0 .508-.02 1.011-.058 1.509l.215-.006h0L75.5 230c10.77 0 19.5 8.73 19.5 19.5S86.27 269 75.5 269c-.505 0-1.005-.02-1.5-.057V269H-26l-.334-.003C-36.121 268.824-44 261.057-44 251.5c0-8.342 6.004-15.321 14.04-17.075.55-7.506 6.813-13.425 14.46-13.425.507 0 1.008.026 1.502.077L-14 221c0-17.673 14.327-32 32-32zM253 121c23.88 0 44.207 15.22 51.807 36.488 3.913-1.603 8.2-2.488 12.693-2.488 18.502 0 33.5 14.998 33.5 33.5 0 .843-.031 1.678-.092 2.506l.038-.002h0l.554-.004c18.502 0 33.5 14.998 33.5 33.5 0 18.502-14.998 33.5-33.5 33.5-.84 0-1.675-.031-2.5-.092V258H178v-.005l-.5.005c-16.676 0-30.227-13.164-30.496-29.504L147 228c0-14.386 10.295-26.407 24.034-29.325C171.723 185.485 182.637 175 196 175c.676 0 1.345.027 2.007.08C198.5 145.127 222.932 121 253 121z" mask="url(#prefix__d)" opacity=".642"/>
        </g>
        <g fill="#FFF" opacity=".346" transform="translate(-24 -7) translate(416 287)">
            <circle cx=".982" cy=".971" r="1"/>
            <circle cx="6.219" cy=".971" r="1"/>
            <circle cx="11.457" cy=".971" r="1"/>
            <circle cx="16.694" cy=".971" r="1"/>
            <circle cx="21.932" cy=".971" r="1"/>
            <circle cx="27.169" cy=".971" r="1"/>
            <circle cx="32.406" cy=".971" r="1"/>
            <circle cx="37.644" cy=".971" r="1"/>
            <circle cx="42.881" cy=".971" r="1"/>
            <g transform="translate(0 5.176)">
                <circle cx=".982" cy=".971" r="1"/>
                <circle cx="6.219" cy=".971" r="1"/>
                <circle cx="11.457" cy=".971" r="1"/>
                <circle cx="16.694" cy=".971" r="1"/>
                <circle cx="21.932" cy=".971" r="1"/>
                <circle cx="27.169" cy=".971" r="1"/>
                <circle cx="32.406" cy=".971" r="1"/>
                <circle cx="37.644" cy=".971" r="1"/>
                <circle cx="42.881" cy=".971" r="1"/>
            </g>
            <g transform="translate(0 10.353)">
                <circle cx=".982" cy=".971" r="1"/>
                <circle cx="6.219" cy=".971" r="1"/>
                <circle cx="11.457" cy=".971" r="1"/>
                <circle cx="16.694" cy=".971" r="1"/>
                <circle cx="21.932" cy=".971" r="1"/>
                <circle cx="27.169" cy=".971" r="1"/>
                <circle cx="32.406" cy=".971" r="1"/>
                <circle cx="37.644" cy=".971" r="1"/>
                <circle cx="42.881" cy=".971" r="1"/>
            </g>
            <g transform="translate(0 15.53)">
                <circle cx=".982" cy=".971" r="1"/>
                <circle cx="6.219" cy=".971" r="1"/>
                <circle cx="11.457" cy=".971" r="1"/>
                <circle cx="16.694" cy=".971" r="1"/>
                <circle cx="21.932" cy=".971" r="1"/>
                <circle cx="27.169" cy=".971" r="1"/>
                <circle cx="32.406" cy=".971" r="1"/>
                <circle cx="37.644" cy=".971" r="1"/>
                <circle cx="42.881" cy=".971" r="1"/>
            </g>
            <g transform="translate(0 20.706)">
                <circle cx=".982" cy=".971" r="1"/>
                <circle cx="6.219" cy=".971" r="1"/>
                <circle cx="11.457" cy=".971" r="1"/>
                <circle cx="16.694" cy=".971" r="1"/>
                <circle cx="21.932" cy=".971" r="1"/>
                <circle cx="27.169" cy=".971" r="1"/>
                <circle cx="32.406" cy=".971" r="1"/>
                <circle cx="37.644" cy=".971" r="1"/>
                <circle cx="42.881" cy=".971" r="1"/>
            </g>
            <g transform="translate(0 25.882)">
                <circle cx=".982" cy=".971" r="1"/>
                <circle cx="6.219" cy=".971" r="1"/>
                <circle cx="11.457" cy=".971" r="1"/>
                <circle cx="16.694" cy=".971" r="1"/>
                <circle cx="21.932" cy=".971" r="1"/>
                <circle cx="27.169" cy=".971" r="1"/>
                <circle cx="32.406" cy=".971" r="1"/>
                <circle cx="37.644" cy=".971" r="1"/>
                <circle cx="42.881" cy=".971" r="1"/>
            </g>
            <g transform="translate(0 31.059)">
                <circle cx=".982" cy=".971" r="1"/>
                <circle cx="6.219" cy=".971" r="1"/>
                <circle cx="11.457" cy=".971" r="1"/>
                <circle cx="16.694" cy=".971" r="1"/>
                <circle cx="21.932" cy=".971" r="1"/>
                <circle cx="27.169" cy=".971" r="1"/>
                <circle cx="32.406" cy=".971" r="1"/>
                <circle cx="37.644" cy=".971" r="1"/>
                <circle cx="42.881" cy=".971" r="1"/>
            </g>
            <g transform="translate(47.137)">
                <circle cx=".982" cy=".971" r="1"/>
                <circle cx="6.219" cy=".971" r="1"/>
                <circle cx="11.457" cy=".971" r="1"/>
                <circle cx="16.694" cy=".971" r="1"/>
                <circle cx="21.932" cy=".971" r="1"/>
                <circle cx="27.169" cy=".971" r="1"/>
                <circle cx="32.406" cy=".971" r="1"/>
                <circle cx="37.644" cy=".971" r="1"/>
                <circle cx="42.881" cy=".971" r="1"/>
                <g transform="translate(0 5.176)">
                    <circle cx=".982" cy=".971" r="1"/>
                    <circle cx="6.219" cy=".971" r="1"/>
                    <circle cx="11.457" cy=".971" r="1"/>
                    <circle cx="16.694" cy=".971" r="1"/>
                    <circle cx="21.932" cy=".971" r="1"/>
                    <circle cx="27.169" cy=".971" r="1"/>
                    <circle cx="32.406" cy=".971" r="1"/>
                    <circle cx="37.644" cy=".971" r="1"/>
                    <circle cx="42.881" cy=".971" r="1"/>
                </g>
                <g transform="translate(0 10.353)">
                    <circle cx=".982" cy=".971" r="1"/>
                    <circle cx="6.219" cy=".971" r="1"/>
                    <circle cx="11.457" cy=".971" r="1"/>
                    <circle cx="16.694" cy=".971" r="1"/>
                    <circle cx="21.932" cy=".971" r="1"/>
                    <circle cx="27.169" cy=".971" r="1"/>
                    <circle cx="32.406" cy=".971" r="1"/>
                    <circle cx="37.644" cy=".971" r="1"/>
                    <circle cx="42.881" cy=".971" r="1"/>
                </g>
                <g transform="translate(0 15.53)">
                    <circle cx=".982" cy=".971" r="1"/>
                    <circle cx="6.219" cy=".971" r="1"/>
                    <circle cx="11.457" cy=".971" r="1"/>
                    <circle cx="16.694" cy=".971" r="1"/>
                    <circle cx="21.932" cy=".971" r="1"/>
                    <circle cx="27.169" cy=".971" r="1"/>
                    <circle cx="32.406" cy=".971" r="1"/>
                    <circle cx="37.644" cy=".971" r="1"/>
                    <circle cx="42.881" cy=".971" r="1"/>
                </g>
                <g transform="translate(0 20.706)">
                    <circle cx=".982" cy=".971" r="1"/>
                    <circle cx="6.219" cy=".971" r="1"/>
                    <circle cx="11.457" cy=".971" r="1"/>
                    <circle cx="16.694" cy=".971" r="1"/>
                    <circle cx="21.932" cy=".971" r="1"/>
                    <circle cx="27.169" cy=".971" r="1"/>
                    <circle cx="32.406" cy=".971" r="1"/>
                    <circle cx="37.644" cy=".971" r="1"/>
                    <circle cx="42.881" cy=".971" r="1"/>
                </g>
                <g transform="translate(0 25.882)">
                    <circle cx=".982" cy=".971" r="1"/>
                    <circle cx="6.219" cy=".971" r="1"/>
                    <circle cx="11.457" cy=".971" r="1"/>
                    <circle cx="16.694" cy=".971" r="1"/>
                    <circle cx="21.932" cy=".971" r="1"/>
                    <circle cx="27.169" cy=".971" r="1"/>
                    <circle cx="32.406" cy=".971" r="1"/>
                    <circle cx="37.644" cy=".971" r="1"/>
                    <circle cx="42.881" cy=".971" r="1"/>
                </g>
                <g transform="translate(0 31.059)">
                    <circle cx=".982" cy=".971" r="1"/>
                    <circle cx="6.219" cy=".971" r="1"/>
                    <circle cx="11.457" cy=".971" r="1"/>
                    <circle cx="16.694" cy=".971" r="1"/>
                    <circle cx="21.932" cy=".971" r="1"/>
                    <circle cx="27.169" cy=".971" r="1"/>
                    <circle cx="32.406" cy=".971" r="1"/>
                    <circle cx="37.644" cy=".971" r="1"/>
                    <circle cx="42.881" cy=".971" r="1"/>
                </g>
            </g>
        </g>
        <g fill="#FFF" opacity=".346" transform="translate(-24 -7) translate(254 237)">
            <circle cx=".982" cy=".971" r="1"/>
            <circle cx="6.219" cy=".971" r="1"/>
            <circle cx="11.457" cy=".971" r="1"/>
            <circle cx="16.694" cy=".971" r="1"/>
            <circle cx="21.932" cy=".971" r="1"/>
            <circle cx="27.169" cy=".971" r="1"/>
            <circle cx="32.406" cy=".971" r="1"/>
            <circle cx="37.644" cy=".971" r="1"/>
            <circle cx="42.881" cy=".971" r="1"/>
            <g transform="translate(0 5.176)">
                <circle cx=".982" cy=".971" r="1"/>
                <circle cx="6.219" cy=".971" r="1"/>
                <circle cx="11.457" cy=".971" r="1"/>
                <circle cx="16.694" cy=".971" r="1"/>
                <circle cx="21.932" cy=".971" r="1"/>
                <circle cx="27.169" cy=".971" r="1"/>
                <circle cx="32.406" cy=".971" r="1"/>
                <circle cx="37.644" cy=".971" r="1"/>
                <circle cx="42.881" cy=".971" r="1"/>
            </g>
            <g transform="translate(0 10.353)">
                <circle cx=".982" cy=".971" r="1"/>
                <circle cx="6.219" cy=".971" r="1"/>
                <circle cx="11.457" cy=".971" r="1"/>
                <circle cx="16.694" cy=".971" r="1"/>
                <circle cx="21.932" cy=".971" r="1"/>
                <circle cx="27.169" cy=".971" r="1"/>
                <circle cx="32.406" cy=".971" r="1"/>
                <circle cx="37.644" cy=".971" r="1"/>
                <circle cx="42.881" cy=".971" r="1"/>
            </g>
            <g transform="translate(0 15.53)">
                <circle cx=".982" cy=".971" r="1"/>
                <circle cx="6.219" cy=".971" r="1"/>
                <circle cx="11.457" cy=".971" r="1"/>
                <circle cx="16.694" cy=".971" r="1"/>
                <circle cx="21.932" cy=".971" r="1"/>
                <circle cx="27.169" cy=".971" r="1"/>
                <circle cx="32.406" cy=".971" r="1"/>
                <circle cx="37.644" cy=".971" r="1"/>
                <circle cx="42.881" cy=".971" r="1"/>
            </g>
            <g transform="translate(0 20.706)">
                <circle cx=".982" cy=".971" r="1"/>
                <circle cx="6.219" cy=".971" r="1"/>
                <circle cx="11.457" cy=".971" r="1"/>
                <circle cx="16.694" cy=".971" r="1"/>
                <circle cx="21.932" cy=".971" r="1"/>
                <circle cx="27.169" cy=".971" r="1"/>
                <circle cx="32.406" cy=".971" r="1"/>
                <circle cx="37.644" cy=".971" r="1"/>
                <circle cx="42.881" cy=".971" r="1"/>
            </g>
            <g transform="translate(0 25.882)">
                <circle cx=".982" cy=".971" r="1"/>
                <circle cx="6.219" cy=".971" r="1"/>
                <circle cx="11.457" cy=".971" r="1"/>
                <circle cx="16.694" cy=".971" r="1"/>
                <circle cx="21.932" cy=".971" r="1"/>
                <circle cx="27.169" cy=".971" r="1"/>
                <circle cx="32.406" cy=".971" r="1"/>
                <circle cx="37.644" cy=".971" r="1"/>
                <circle cx="42.881" cy=".971" r="1"/>
            </g>
            <g transform="translate(0 31.059)">
                <circle cx=".982" cy=".971" r="1"/>
                <circle cx="6.219" cy=".971" r="1"/>
                <circle cx="11.457" cy=".971" r="1"/>
                <circle cx="16.694" cy=".971" r="1"/>
                <circle cx="21.932" cy=".971" r="1"/>
                <circle cx="27.169" cy=".971" r="1"/>
                <circle cx="32.406" cy=".971" r="1"/>
                <circle cx="37.644" cy=".971" r="1"/>
                <circle cx="42.881" cy=".971" r="1"/>
            </g>
            <g transform="translate(47.137)">
                <circle cx=".982" cy=".971" r="1"/>
                <circle cx="6.219" cy=".971" r="1"/>
                <circle cx="11.457" cy=".971" r="1"/>
                <circle cx="16.694" cy=".971" r="1"/>
                <circle cx="21.932" cy=".971" r="1"/>
                <circle cx="27.169" cy=".971" r="1"/>
                <circle cx="32.406" cy=".971" r="1"/>
                <circle cx="37.644" cy=".971" r="1"/>
                <circle cx="42.881" cy=".971" r="1"/>
                <g transform="translate(0 5.176)">
                    <circle cx=".982" cy=".971" r="1"/>
                    <circle cx="6.219" cy=".971" r="1"/>
                    <circle cx="11.457" cy=".971" r="1"/>
                    <circle cx="16.694" cy=".971" r="1"/>
                    <circle cx="21.932" cy=".971" r="1"/>
                    <circle cx="27.169" cy=".971" r="1"/>
                    <circle cx="32.406" cy=".971" r="1"/>
                    <circle cx="37.644" cy=".971" r="1"/>
                    <circle cx="42.881" cy=".971" r="1"/>
                </g>
                <g transform="translate(0 10.353)">
                    <circle cx=".982" cy=".971" r="1"/>
                    <circle cx="6.219" cy=".971" r="1"/>
                    <circle cx="11.457" cy=".971" r="1"/>
                    <circle cx="16.694" cy=".971" r="1"/>
                    <circle cx="21.932" cy=".971" r="1"/>
                    <circle cx="27.169" cy=".971" r="1"/>
                    <circle cx="32.406" cy=".971" r="1"/>
                    <circle cx="37.644" cy=".971" r="1"/>
                    <circle cx="42.881" cy=".971" r="1"/>
                </g>
                <g transform="translate(0 15.53)">
                    <circle cx=".982" cy=".971" r="1"/>
                    <circle cx="6.219" cy=".971" r="1"/>
                    <circle cx="11.457" cy=".971" r="1"/>
                    <circle cx="16.694" cy=".971" r="1"/>
                    <circle cx="21.932" cy=".971" r="1"/>
                    <circle cx="27.169" cy=".971" r="1"/>
                    <circle cx="32.406" cy=".971" r="1"/>
                    <circle cx="37.644" cy=".971" r="1"/>
                    <circle cx="42.881" cy=".971" r="1"/>
                </g>
                <g transform="translate(0 20.706)">
                    <circle cx=".982" cy=".971" r="1"/>
                    <circle cx="6.219" cy=".971" r="1"/>
                    <circle cx="11.457" cy=".971" r="1"/>
                    <circle cx="16.694" cy=".971" r="1"/>
                    <circle cx="21.932" cy=".971" r="1"/>
                    <circle cx="27.169" cy=".971" r="1"/>
                    <circle cx="32.406" cy=".971" r="1"/>
                    <circle cx="37.644" cy=".971" r="1"/>
                    <circle cx="42.881" cy=".971" r="1"/>
                </g>
                <g transform="translate(0 25.882)">
                    <circle cx=".982" cy=".971" r="1"/>
                    <circle cx="6.219" cy=".971" r="1"/>
                    <circle cx="11.457" cy=".971" r="1"/>
                    <circle cx="16.694" cy=".971" r="1"/>
                    <circle cx="21.932" cy=".971" r="1"/>
                    <circle cx="27.169" cy=".971" r="1"/>
                    <circle cx="32.406" cy=".971" r="1"/>
                    <circle cx="37.644" cy=".971" r="1"/>
                    <circle cx="42.881" cy=".971" r="1"/>
                </g>
                <g transform="translate(0 31.059)">
                    <circle cx=".982" cy=".971" r="1"/>
                    <circle cx="6.219" cy=".971" r="1"/>
                    <circle cx="11.457" cy=".971" r="1"/>
                    <circle cx="16.694" cy=".971" r="1"/>
                    <circle cx="21.932" cy=".971" r="1"/>
                    <circle cx="27.169" cy=".971" r="1"/>
                    <circle cx="32.406" cy=".971" r="1"/>
                    <circle cx="37.644" cy=".971" r="1"/>
                    <circle cx="42.881" cy=".971" r="1"/>
                </g>
            </g>
        </g>
        <g fill="#FFF" opacity=".346" transform="translate(-24 -7) translate(433 206)">
            <circle cx=".982" cy=".971" r="1"/>
            <circle cx="6.219" cy=".971" r="1"/>
            <circle cx="11.457" cy=".971" r="1"/>
            <circle cx="16.694" cy=".971" r="1"/>
            <circle cx="21.932" cy=".971" r="1"/>
            <circle cx="27.169" cy=".971" r="1"/>
            <circle cx="32.406" cy=".971" r="1"/>
            <circle cx="37.644" cy=".971" r="1"/>
            <circle cx="42.881" cy=".971" r="1"/>
            <g transform="translate(0 5.176)">
                <circle cx=".982" cy=".971" r="1"/>
                <circle cx="6.219" cy=".971" r="1"/>
                <circle cx="11.457" cy=".971" r="1"/>
                <circle cx="16.694" cy=".971" r="1"/>
                <circle cx="21.932" cy=".971" r="1"/>
                <circle cx="27.169" cy=".971" r="1"/>
                <circle cx="32.406" cy=".971" r="1"/>
                <circle cx="37.644" cy=".971" r="1"/>
                <circle cx="42.881" cy=".971" r="1"/>
            </g>
            <g transform="translate(0 10.353)">
                <circle cx=".982" cy=".971" r="1"/>
                <circle cx="6.219" cy=".971" r="1"/>
                <circle cx="11.457" cy=".971" r="1"/>
                <circle cx="16.694" cy=".971" r="1"/>
                <circle cx="21.932" cy=".971" r="1"/>
                <circle cx="27.169" cy=".971" r="1"/>
                <circle cx="32.406" cy=".971" r="1"/>
                <circle cx="37.644" cy=".971" r="1"/>
                <circle cx="42.881" cy=".971" r="1"/>
            </g>
            <g transform="translate(0 15.53)">
                <circle cx=".982" cy=".971" r="1"/>
                <circle cx="6.219" cy=".971" r="1"/>
                <circle cx="11.457" cy=".971" r="1"/>
                <circle cx="16.694" cy=".971" r="1"/>
                <circle cx="21.932" cy=".971" r="1"/>
                <circle cx="27.169" cy=".971" r="1"/>
                <circle cx="32.406" cy=".971" r="1"/>
                <circle cx="37.644" cy=".971" r="1"/>
                <circle cx="42.881" cy=".971" r="1"/>
            </g>
            <g transform="translate(0 20.706)">
                <circle cx=".982" cy=".971" r="1"/>
                <circle cx="6.219" cy=".971" r="1"/>
                <circle cx="11.457" cy=".971" r="1"/>
                <circle cx="16.694" cy=".971" r="1"/>
                <circle cx="21.932" cy=".971" r="1"/>
                <circle cx="27.169" cy=".971" r="1"/>
                <circle cx="32.406" cy=".971" r="1"/>
                <circle cx="37.644" cy=".971" r="1"/>
                <circle cx="42.881" cy=".971" r="1"/>
            </g>
            <g transform="translate(0 25.882)">
                <circle cx=".982" cy=".971" r="1"/>
                <circle cx="6.219" cy=".971" r="1"/>
                <circle cx="11.457" cy=".971" r="1"/>
                <circle cx="16.694" cy=".971" r="1"/>
                <circle cx="21.932" cy=".971" r="1"/>
                <circle cx="27.169" cy=".971" r="1"/>
                <circle cx="32.406" cy=".971" r="1"/>
                <circle cx="37.644" cy=".971" r="1"/>
                <circle cx="42.881" cy=".971" r="1"/>
            </g>
            <g transform="translate(0 31.059)">
                <circle cx=".982" cy=".971" r="1"/>
                <circle cx="6.219" cy=".971" r="1"/>
                <circle cx="11.457" cy=".971" r="1"/>
                <circle cx="16.694" cy=".971" r="1"/>
                <circle cx="21.932" cy=".971" r="1"/>
                <circle cx="27.169" cy=".971" r="1"/>
                <circle cx="32.406" cy=".971" r="1"/>
                <circle cx="37.644" cy=".971" r="1"/>
                <circle cx="42.881" cy=".971" r="1"/>
            </g>
            <g transform="translate(47.137)">
                <circle cx=".982" cy=".971" r="1"/>
                <circle cx="6.219" cy=".971" r="1"/>
                <circle cx="11.457" cy=".971" r="1"/>
                <circle cx="16.694" cy=".971" r="1"/>
                <circle cx="21.932" cy=".971" r="1"/>
                <circle cx="27.169" cy=".971" r="1"/>
                <circle cx="32.406" cy=".971" r="1"/>
                <circle cx="37.644" cy=".971" r="1"/>
                <circle cx="42.881" cy=".971" r="1"/>
                <g transform="translate(0 5.176)">
                    <circle cx=".982" cy=".971" r="1"/>
                    <circle cx="6.219" cy=".971" r="1"/>
                    <circle cx="11.457" cy=".971" r="1"/>
                    <circle cx="16.694" cy=".971" r="1"/>
                    <circle cx="21.932" cy=".971" r="1"/>
                    <circle cx="27.169" cy=".971" r="1"/>
                    <circle cx="32.406" cy=".971" r="1"/>
                    <circle cx="37.644" cy=".971" r="1"/>
                    <circle cx="42.881" cy=".971" r="1"/>
                </g>
                <g transform="translate(0 10.353)">
                    <circle cx=".982" cy=".971" r="1"/>
                    <circle cx="6.219" cy=".971" r="1"/>
                    <circle cx="11.457" cy=".971" r="1"/>
                    <circle cx="16.694" cy=".971" r="1"/>
                    <circle cx="21.932" cy=".971" r="1"/>
                    <circle cx="27.169" cy=".971" r="1"/>
                    <circle cx="32.406" cy=".971" r="1"/>
                    <circle cx="37.644" cy=".971" r="1"/>
                    <circle cx="42.881" cy=".971" r="1"/>
                </g>
                <g transform="translate(0 15.53)">
                    <circle cx=".982" cy=".971" r="1"/>
                    <circle cx="6.219" cy=".971" r="1"/>
                    <circle cx="11.457" cy=".971" r="1"/>
                    <circle cx="16.694" cy=".971" r="1"/>
                    <circle cx="21.932" cy=".971" r="1"/>
                    <circle cx="27.169" cy=".971" r="1"/>
                    <circle cx="32.406" cy=".971" r="1"/>
                    <circle cx="37.644" cy=".971" r="1"/>
                    <circle cx="42.881" cy=".971" r="1"/>
                </g>
                <g transform="translate(0 20.706)">
                    <circle cx=".982" cy=".971" r="1"/>
                    <circle cx="6.219" cy=".971" r="1"/>
                    <circle cx="11.457" cy=".971" r="1"/>
                    <circle cx="16.694" cy=".971" r="1"/>
                    <circle cx="21.932" cy=".971" r="1"/>
                    <circle cx="27.169" cy=".971" r="1"/>
                    <circle cx="32.406" cy=".971" r="1"/>
                    <circle cx="37.644" cy=".971" r="1"/>
                    <circle cx="42.881" cy=".971" r="1"/>
                </g>
                <g transform="translate(0 25.882)">
                    <circle cx=".982" cy=".971" r="1"/>
                    <circle cx="6.219" cy=".971" r="1"/>
                    <circle cx="11.457" cy=".971" r="1"/>
                    <circle cx="16.694" cy=".971" r="1"/>
                    <circle cx="21.932" cy=".971" r="1"/>
                    <circle cx="27.169" cy=".971" r="1"/>
                    <circle cx="32.406" cy=".971" r="1"/>
                    <circle cx="37.644" cy=".971" r="1"/>
                    <circle cx="42.881" cy=".971" r="1"/>
                </g>
                <g transform="translate(0 31.059)">
                    <circle cx=".982" cy=".971" r="1"/>
                    <circle cx="6.219" cy=".971" r="1"/>
                    <circle cx="11.457" cy=".971" r="1"/>
                    <circle cx="16.694" cy=".971" r="1"/>
                    <circle cx="21.932" cy=".971" r="1"/>
                    <circle cx="27.169" cy=".971" r="1"/>
                    <circle cx="32.406" cy=".971" r="1"/>
                    <circle cx="37.644" cy=".971" r="1"/>
                    <circle cx="42.881" cy=".971" r="1"/>
                </g>
            </g>
        </g>
        <g fill="#FFF" opacity=".346" transform="translate(-24 -7) translate(209 110)">
            <circle cx=".982" cy=".971" r="1"/>
            <circle cx="6.219" cy=".971" r="1"/>
            <circle cx="11.457" cy=".971" r="1"/>
            <circle cx="16.694" cy=".971" r="1"/>
            <circle cx="21.932" cy=".971" r="1"/>
            <circle cx="27.169" cy=".971" r="1"/>
            <circle cx="32.406" cy=".971" r="1"/>
            <circle cx="37.644" cy=".971" r="1"/>
            <circle cx="42.881" cy=".971" r="1"/>
            <g transform="translate(0 5.176)">
                <circle cx=".982" cy=".971" r="1"/>
                <circle cx="6.219" cy=".971" r="1"/>
                <circle cx="11.457" cy=".971" r="1"/>
                <circle cx="16.694" cy=".971" r="1"/>
                <circle cx="21.932" cy=".971" r="1"/>
                <circle cx="27.169" cy=".971" r="1"/>
                <circle cx="32.406" cy=".971" r="1"/>
                <circle cx="37.644" cy=".971" r="1"/>
                <circle cx="42.881" cy=".971" r="1"/>
            </g>
            <g transform="translate(0 10.353)">
                <circle cx=".982" cy=".971" r="1"/>
                <circle cx="6.219" cy=".971" r="1"/>
                <circle cx="11.457" cy=".971" r="1"/>
                <circle cx="16.694" cy=".971" r="1"/>
                <circle cx="21.932" cy=".971" r="1"/>
                <circle cx="27.169" cy=".971" r="1"/>
                <circle cx="32.406" cy=".971" r="1"/>
                <circle cx="37.644" cy=".971" r="1"/>
                <circle cx="42.881" cy=".971" r="1"/>
            </g>
            <g transform="translate(0 15.53)">
                <circle cx=".982" cy=".971" r="1"/>
                <circle cx="6.219" cy=".971" r="1"/>
                <circle cx="11.457" cy=".971" r="1"/>
                <circle cx="16.694" cy=".971" r="1"/>
                <circle cx="21.932" cy=".971" r="1"/>
                <circle cx="27.169" cy=".971" r="1"/>
                <circle cx="32.406" cy=".971" r="1"/>
                <circle cx="37.644" cy=".971" r="1"/>
                <circle cx="42.881" cy=".971" r="1"/>
            </g>
            <g transform="translate(0 20.706)">
                <circle cx=".982" cy=".971" r="1"/>
                <circle cx="6.219" cy=".971" r="1"/>
                <circle cx="11.457" cy=".971" r="1"/>
                <circle cx="16.694" cy=".971" r="1"/>
                <circle cx="21.932" cy=".971" r="1"/>
                <circle cx="27.169" cy=".971" r="1"/>
                <circle cx="32.406" cy=".971" r="1"/>
                <circle cx="37.644" cy=".971" r="1"/>
                <circle cx="42.881" cy=".971" r="1"/>
            </g>
            <g transform="translate(0 25.882)">
                <circle cx=".982" cy=".971" r="1"/>
                <circle cx="6.219" cy=".971" r="1"/>
                <circle cx="11.457" cy=".971" r="1"/>
                <circle cx="16.694" cy=".971" r="1"/>
                <circle cx="21.932" cy=".971" r="1"/>
                <circle cx="27.169" cy=".971" r="1"/>
                <circle cx="32.406" cy=".971" r="1"/>
                <circle cx="37.644" cy=".971" r="1"/>
                <circle cx="42.881" cy=".971" r="1"/>
            </g>
            <g transform="translate(0 31.059)">
                <circle cx=".982" cy=".971" r="1"/>
                <circle cx="6.219" cy=".971" r="1"/>
                <circle cx="11.457" cy=".971" r="1"/>
                <circle cx="16.694" cy=".971" r="1"/>
                <circle cx="21.932" cy=".971" r="1"/>
                <circle cx="27.169" cy=".971" r="1"/>
                <circle cx="32.406" cy=".971" r="1"/>
                <circle cx="37.644" cy=".971" r="1"/>
                <circle cx="42.881" cy=".971" r="1"/>
            </g>
            <g transform="translate(47.137)">
                <circle cx=".982" cy=".971" r="1"/>
                <circle cx="6.219" cy=".971" r="1"/>
                <circle cx="11.457" cy=".971" r="1"/>
                <circle cx="16.694" cy=".971" r="1"/>
                <circle cx="21.932" cy=".971" r="1"/>
                <circle cx="27.169" cy=".971" r="1"/>
                <circle cx="32.406" cy=".971" r="1"/>
                <circle cx="37.644" cy=".971" r="1"/>
                <circle cx="42.881" cy=".971" r="1"/>
                <g transform="translate(0 5.176)">
                    <circle cx=".982" cy=".971" r="1"/>
                    <circle cx="6.219" cy=".971" r="1"/>
                    <circle cx="11.457" cy=".971" r="1"/>
                    <circle cx="16.694" cy=".971" r="1"/>
                    <circle cx="21.932" cy=".971" r="1"/>
                    <circle cx="27.169" cy=".971" r="1"/>
                    <circle cx="32.406" cy=".971" r="1"/>
                    <circle cx="37.644" cy=".971" r="1"/>
                    <circle cx="42.881" cy=".971" r="1"/>
                </g>
                <g transform="translate(0 10.353)">
                    <circle cx=".982" cy=".971" r="1"/>
                    <circle cx="6.219" cy=".971" r="1"/>
                    <circle cx="11.457" cy=".971" r="1"/>
                    <circle cx="16.694" cy=".971" r="1"/>
                    <circle cx="21.932" cy=".971" r="1"/>
                    <circle cx="27.169" cy=".971" r="1"/>
                    <circle cx="32.406" cy=".971" r="1"/>
                    <circle cx="37.644" cy=".971" r="1"/>
                    <circle cx="42.881" cy=".971" r="1"/>
                </g>
                <g transform="translate(0 15.53)">
                    <circle cx=".982" cy=".971" r="1"/>
                    <circle cx="6.219" cy=".971" r="1"/>
                    <circle cx="11.457" cy=".971" r="1"/>
                    <circle cx="16.694" cy=".971" r="1"/>
                    <circle cx="21.932" cy=".971" r="1"/>
                    <circle cx="27.169" cy=".971" r="1"/>
                    <circle cx="32.406" cy=".971" r="1"/>
                    <circle cx="37.644" cy=".971" r="1"/>
                    <circle cx="42.881" cy=".971" r="1"/>
                </g>
                <g transform="translate(0 20.706)">
                    <circle cx=".982" cy=".971" r="1"/>
                    <circle cx="6.219" cy=".971" r="1"/>
                    <circle cx="11.457" cy=".971" r="1"/>
                    <circle cx="16.694" cy=".971" r="1"/>
                    <circle cx="21.932" cy=".971" r="1"/>
                    <circle cx="27.169" cy=".971" r="1"/>
                    <circle cx="32.406" cy=".971" r="1"/>
                    <circle cx="37.644" cy=".971" r="1"/>
                    <circle cx="42.881" cy=".971" r="1"/>
                </g>
                <g transform="translate(0 25.882)">
                    <circle cx=".982" cy=".971" r="1"/>
                    <circle cx="6.219" cy=".971" r="1"/>
                    <circle cx="11.457" cy=".971" r="1"/>
                    <circle cx="16.694" cy=".971" r="1"/>
                    <circle cx="21.932" cy=".971" r="1"/>
                    <circle cx="27.169" cy=".971" r="1"/>
                    <circle cx="32.406" cy=".971" r="1"/>
                    <circle cx="37.644" cy=".971" r="1"/>
                    <circle cx="42.881" cy=".971" r="1"/>
                </g>
                <g transform="translate(0 31.059)">
                    <circle cx=".982" cy=".971" r="1"/>
                    <circle cx="6.219" cy=".971" r="1"/>
                    <circle cx="11.457" cy=".971" r="1"/>
                    <circle cx="16.694" cy=".971" r="1"/>
                    <circle cx="21.932" cy=".971" r="1"/>
                    <circle cx="27.169" cy=".971" r="1"/>
                    <circle cx="32.406" cy=".971" r="1"/>
                    <circle cx="37.644" cy=".971" r="1"/>
                    <circle cx="42.881" cy=".971" r="1"/>
                </g>
            </g>
        </g>
        <path fill="#FFF" d="M237.25 95c-27.066 0-50.146 17.407-59.063 41.842-4.73-2.035-9.944-3.162-15.421-3.162-21.565 0-39.047 17.465-39.047 39.009 0 .77.022 1.537.066 2.297C102.341 175.124 85 192.535 85 213.992 85 235.535 102.482 253 124.047 253c1.442 0 2.865-.078 4.266-.23v.23h194.906v-.003l.328.003c18.838 0 34.144-15.103 34.448-33.85l.005-.57c0-16.651-11.837-30.542-27.564-33.73-.158-15.614-12.878-28.223-28.545-28.223-.569 0-1.133.016-1.693.049-1.322-34.291-29-61.676-62.948-61.676z" opacity=".177" transform="translate(-24 -7)"/>
        <path fill="#FFF" d="M301.5 242c-17.492 0-32.394 11.363-38.06 27.278-3.176-1.462-6.713-2.278-10.44-2.278-13.807 0-25 11.193-25 25 0 .674.027 1.341.079 2.002L228 294c-13.807 0-25 11.193-25 25s11.193 25 25 25c1.015 0 2.016-.06 3-.178V344h126l.364-.003C369.346 343.803 379 334.03 379 322c0-10.785-7.76-19.757-18.002-21.638C360.925 290.208 352.671 282 342.5 282c-.176 0-.352.002-.527.007C341.208 259.78 323.38 242 301.5 242z" opacity=".177" transform="translate(-24 -7)"/>
    </g>
</svg>
