<svg xmlns="http://www.w3.org/2000/svg" width="40" height="40" viewBox="0 0 40 40">
    <g fill="none">
        <path fill="#F9AE41" d="M39.948 5.556c0-2.907-2.357-5.264-5.264-5.264-2.655 0-4.85 1.965-5.211 4.52l-.053-.028c-4.305-1.942-7.932 1.498-7.932 1.498l-9.592 9.64 3.79 3.65 7.72-7.586c3.606-3.606 5.57-1.165 5.57-1.165 2.713 2.292.093 5.007.093 5.007l3.884 3.743c3.171-3.425 3.355-6.415 2.391-8.793 2.595-.325 4.604-2.538 4.604-5.222"/>
        <path fill="#EE4035" d="M35.393 29.767l.028-.054c1.942-4.305-1.498-7.931-1.498-7.931l-9.64-9.593-3.649 3.79L28.22 23.7c3.606 3.606 1.165 5.569 1.165 5.569-2.292 2.714-5.006.093-5.006.093l-3.744 3.884c3.425 3.172 6.415 3.356 8.793 2.392.325 2.595 2.538 4.604 5.222 4.604 2.907 0 5.264-2.357 5.264-5.264 0-2.655-1.965-4.85-4.52-5.211"/>
        <path fill="#4F91CD" d="M24.366 20.788l-7.72 7.585c-3.606 3.605-5.57 1.165-5.57 1.165-2.714-2.293-.093-5.007-.093-5.007l-3.884-3.743c-3.171 3.425-3.355 6.414-2.391 8.793-2.596.325-4.604 2.537-4.604 5.221 0 2.908 2.357 5.264 5.264 5.264 2.655 0 4.85-1.965 5.21-4.52l.054.028c4.305 1.942 7.932-1.497 7.932-1.497l9.592-9.64-3.79-3.65"/>
        <path fill="#7AC043" d="M11.832 16.658c-3.605-3.605-1.165-5.568-1.165-5.568 2.293-2.714 5.007-.094 5.007-.094l3.744-3.883c-3.426-3.172-6.415-3.356-8.793-2.392C10.299 2.125 8.087.117 5.403.117 2.496.117.139 2.474.139 5.38c0 2.655 1.965 4.85 4.52 5.21l-.028.054c-1.942 4.305 1.497 7.931 1.497 7.931l9.64 9.593 3.65-3.79-7.586-7.72"/>
    </g>
</svg>
