<svg xmlns="http://www.w3.org/2000/svg" xmlns:xlink="http://www.w3.org/1999/xlink" width="120" height="39" viewBox="0 0 120 39">
    <defs>
        <radialGradient id="prefix__b" cx="66.196%" cy="17.8%" r="80.333%" fx="66.196%" fy="17.8%">
            <stop offset="0%" stop-color="#D3EFB3"/>
            <stop offset="30%" stop-color="#70C809"/>
            <stop offset="100%" stop-color="#366004"/>
        </radialGradient>
        <radialGradient id="prefix__c" cx="66.286%" cy="17.79%" r="80.35%" fx="66.286%" fy="17.79%">
            <stop offset="0%" stop-color="#B1E4FC"/>
            <stop offset="30%" stop-color="#04A7F3"/>
            <stop offset="100%" stop-color="#023F5C"/>
        </radialGradient>
        <radialGradient id="prefix__d" cx="66.196%" cy="17.419%" r="80.333%" fx="66.196%" fy="17.419%">
            <stop offset="0%" stop-color="#EEB0D3"/>
            <stop offset="30%" stop-color="#C6006E"/>
            <stop offset="100%" stop-color="#2B0018"/>
        </radialGradient>
        <radialGradient id="prefix__g" cx="51.166%" cy="45.622%" r="56.777%" fx="51.166%" fy="45.622%" gradientTransform="scale(1 .62494) rotate(-2.411 7.018 .593)">
            <stop offset="0%" stop-color="#FEFEFC"/>
            <stop offset="75.73%" stop-color="#FEFEFC"/>
            <stop offset="100%" stop-color="#D4D4D4"/>
        </radialGradient>
        <radialGradient id="prefix__h" cx="51.607%" cy="49.392%" r="56.233%" fx="51.607%" fy="49.392%" gradientTransform="matrix(.9995 -.02512 .03159 .79479 -.015 .114)">
            <stop offset="0%" stop-color="#FEFEFC"/>
            <stop offset="75.73%" stop-color="#FEFEFC"/>
            <stop offset="100%" stop-color="#D4D4D4"/>
        </radialGradient>
        <radialGradient id="prefix__i" cx="38.083%" cy="52.604%" r="59.031%" fx="38.083%" fy="52.604%" gradientTransform="scale(.7308 1) rotate(-35.998 .451 .31)">
            <stop offset="0%" stop-color="#020204"/>
            <stop offset="73.45%" stop-color="#020204"/>
            <stop offset="100%" stop-color="#5C5C5C"/>
        </radialGradient>
        <radialGradient id="prefix__n" cx="62.002%" cy="18.414%" r="104.327%" fx="62.002%" fy="18.414%" gradientTransform="matrix(.4573 -.38151 .18874 .92436 .302 .25)">
            <stop offset="0%" stop-color="#D2940A"/>
            <stop offset="75.14%" stop-color="#D89C08"/>
            <stop offset="86.58%" stop-color="#B67E07"/>
            <stop offset="100%" stop-color="#946106"/>
        </radialGradient>
        <radialGradient id="prefix__p" cx="42.951%" cy="43.847%" r="108.609%" fx="42.951%" fy="43.847%" gradientTransform="matrix(.52494 0 0 1 .204 0)">
            <stop offset="0%" stop-color="#3A2903"/>
            <stop offset="55.47%" stop-color="#735208"/>
            <stop offset="100%" stop-color="#AC8C04"/>
        </radialGradient>
        <radialGradient id="prefix__q" cx="55.909%" cy="35.914%" r="67.483%" fx="55.909%" fy="35.914%" gradientTransform="matrix(1 0 0 .90768 0 .033)">
            <stop offset="0%" stop-color="#3A2903"/>
            <stop offset="55.47%" stop-color="#735208"/>
            <stop offset="100%" stop-color="#AC8C04"/>
        </radialGradient>
        <radialGradient id="prefix__s" cx="11.136%" cy="51.412%" r="66.105%" fx="11.136%" fy="51.412%" gradientTransform="matrix(-.93559 0 0 -1 .216 1.028)">
            <stop offset="0%"/>
            <stop offset="100%" stop-opacity=".249"/>
        </radialGradient>
        <radialGradient id="prefix__t" cx="46.936%" cy="85.655%" r="73.469%" fx="46.936%" fy="85.655%" gradientTransform="matrix(.69317 0 0 1 .144 0)">
            <stop offset="0%"/>
            <stop offset="100%" stop-opacity=".249"/>
        </radialGradient>
        <radialGradient id="prefix__u" cx="46.453%" cy="98.218%" r="50.019%" fx="46.453%" fy="98.218%" gradientTransform="matrix(1 0 0 .9353 0 .064)">
            <stop offset="0%"/>
            <stop offset="100%" stop-opacity=".249"/>
        </radialGradient>
        <linearGradient id="prefix__a" x1="47.007%" x2="47.007%" y1="96.69%" y2="-1.804%">
            <stop offset="0%" stop-color="#353844"/>
            <stop offset="50%" stop-color="#595B67"/>
            <stop offset="100%" stop-color="#6C6F7A"/>
        </linearGradient>
        <linearGradient id="prefix__j" x1="14.753%" x2="110.775%" y1="-2.825%" y2="108.735%">
            <stop offset="0%" stop-color="#949494" stop-opacity=".392"/>
            <stop offset="50%" stop-color="#949494"/>
            <stop offset="100%" stop-color="#949494" stop-opacity=".392"/>
        </linearGradient>
        <linearGradient id="prefix__k" x1="2.037%" x2="94.582%" y1="10.296%" y2="90.869%">
            <stop offset="0%" stop-color="#646464" stop-opacity="0"/>
            <stop offset="30.63%" stop-color="#646464" stop-opacity=".583"/>
            <stop offset="47%" stop-color="#646464"/>
            <stop offset="72.83%" stop-color="#646464" stop-opacity=".257"/>
            <stop offset="100%" stop-color="#646464" stop-opacity="0"/>
        </linearGradient>
        <linearGradient id="prefix__l" x1="2.266%" x2="95.686%" y1="9.179%" y2="88.204%">
            <stop offset="0%" stop-color="#646464" stop-opacity="0"/>
            <stop offset="30.63%" stop-color="#646464" stop-opacity=".583"/>
            <stop offset="47%" stop-color="#646464"/>
            <stop offset="72.83%" stop-color="#646464" stop-opacity=".257"/>
            <stop offset="100%" stop-color="#646464" stop-opacity="0"/>
        </linearGradient>
        <linearGradient id="prefix__m" x1="26.261%" x2="69.899%" y1="-22.855%" y2="100.621%">
            <stop offset="0%" stop-color="#757574" stop-opacity="0"/>
            <stop offset="26.29%" stop-color="#757574"/>
            <stop offset="50%" stop-color="#757574"/>
            <stop offset="100%" stop-color="#757574" stop-opacity="0"/>
        </linearGradient>
        <linearGradient id="prefix__o" x1="2.071%" x2="95.585%" y1="50.363%" y2="50.028%">
            <stop offset="0%" stop-color="#AD780A"/>
            <stop offset="11.97%" stop-color="#D89E08"/>
            <stop offset="25.51%" stop-color="#EDB80B"/>
            <stop offset="39.19%" stop-color="#EBC80D"/>
            <stop offset="52.74%" stop-color="#F5D838"/>
            <stop offset="76.91%" stop-color="#F6D811"/>
            <stop offset="100%" stop-color="#F5CD31"/>
        </linearGradient>
        <linearGradient id="prefix__r" x1="46.383%" x2="52.576%" y1="22.079%" y2="82.216%">
            <stop offset="0%" stop-color="#F5CE2D"/>
            <stop offset="100%" stop-color="#D79B08"/>
        </linearGradient>
        <path id="prefix__e" d="M4.002 4.41c-.953.362-1.856.86-2.672 1.474-.407.012-.814-.182-1.062-.505-.248-.322-.33-.766-.214-1.156.116-.388.405-.699.704-.972.546-.5 1.154-.928 1.776-1.328C3.412 1.36 4.33.846 5.314.503 6.061.243 6.842.082 7.632.027c-.33.7-.672 1.393-1.028 2.078-.32.616-.65 1.226-.99 1.83-.549.115-1.088.274-1.612.474z"/>
        <path id="prefix__v" d="M3.63 6.248c.337-.814.846-1.555 1.483-2.163.367-.35.787-.67 1.013-1.123.198-.396.227-.854.224-1.298-.003-.323-.02-.646.004-.968.01-.144.03-.29.095-.418.032-.064.076-.124.13-.17.056-.046.123-.08.194-.09.093-.016.19.009.266.065-.075.065-.132.149-.166.242-.042.116-.046.243-.042.366.017.583.183 1.153.206 1.736.013.363-.032.737-.198 1.06-.133.258-.335.473-.516.7-.53.668-.876 1.46-1.187 2.253-.187.476-.364.957-.583 1.42-.247.52-.562 1.03-1.04 1.348-.432.288-.958.394-1.473.45-.26.028-.522.045-.783.022-.26-.024-.52-.09-.748-.22-.172-.098-.324-.232-.442-.39.354-.18.71-.354 1.07-.524.521-.246 1.054-.487 1.498-.854.456-.378.804-.883.994-1.444z"/>
    </defs>
    <g fill="none" fill-rule="evenodd">
        <path fill="url(#prefix__a)" fill-rule="nonzero" d="M26.72.46v30.716h6.43V19.97l3.793-2.897 11.03 14.103h7.59l-14.19-17.725L54.492.461 46.996.46 33.151 14.393V.46h-6.43zm29.583 0l11.328 30.716h6.58L85.472.461 78.824.46l-6.308 19.726c-.204.685-.407 1.377-.611 2.076-.203.678-.34 1.302-.475 1.852-.203.651-.339 1.282-.475 1.872-.135-.61-.339-1.248-.475-1.913-.203-.57-.339-1.194-.542-1.879-.204-.685-.407-1.35-.61-2.008L63.017.46h-6.715zm32.493 0v30.716h5.698V10.554c-.068-.773-.068-1.505-.136-2.204 0-.814-.067-1.642-.067-2.483.27 1.146.61 2.239.881 3.27.136.434.272.888.407 1.35.136.468.272.915.34 1.356.135.434.27.841.339 1.221.135.373.271.699.339.977l5.562 17.135h4.545l5.563-17.135c.068-.278.135-.604.271-.977.136-.38.271-.787.34-1.22.135-.442.27-.89.406-1.357.136-.462.272-.916.407-1.35.272-1.031.543-2.124.814-3.27 0 .726-.067 1.472-.067 2.245-.068.652-.068 1.37-.068 2.158-.068.786-.068 1.546-.068 2.292v18.614H120V.461L111.453.46l-5.427 17.291c-.068.217-.136.461-.204.74-.067.278-.203.562-.27.868-.069.305-.204.617-.272.943-.068.318-.136.63-.272.936-.135.698-.339 1.424-.542 2.177-.204-.766-.407-1.512-.61-2.225-.136-.61-.34-1.241-.476-1.892-.135-.658-.339-1.208-.474-1.662L97.41.46h-8.615z"/>
        <path fill="url(#prefix__b)" fill-rule="nonzero" d="M7.123 3.595c0 1.967-1.595 3.562-3.562 3.562C1.594 7.157 0 5.562 0 3.595 0 1.628 1.594.034 3.561.034c1.967 0 3.562 1.594 3.562 3.561z" transform="translate(23.6 9.809)"/>
        <path fill="url(#prefix__c)" fill-rule="nonzero" d="M7.162 3.595c0 1.967-1.594 3.561-3.561 3.561-1.967 0-3.562-1.594-3.562-3.561C.04 1.628 1.634.034 3.601.034c1.967 0 3.561 1.594 3.561 3.56z" transform="translate(5.827 .04)"/>
        <path fill="url(#prefix__d)" fill-rule="nonzero" d="M7.123 3.595c0 1.967-1.595 3.562-3.562 3.562C1.594 7.157 0 5.562 0 3.595 0 1.628 1.594.034 3.561.034c1.967 0 3.562 1.594 3.562 3.561z" transform="translate(1.621 20.256)"/>
        <g>
            <path fill="#020204" fill-rule="nonzero" d="M7.163 4.884c-.559.276-1.078.63-1.647.884-.57.255-1.213.41-1.818.258-.264-.066-.516-.189-.787-.209-.136-.01-.276.007-.398.067-.122.06-.224.167-.262.297-.029.1-.02.205-.02.309 0 .29-.083.589-.278.804-.103.114-.24.202-.391.227-.172.029-.35-.026-.497-.117-.148-.091-.271-.217-.39-.343-.145-.153-.286-.309-.398-.485C.164 6.399.08 6.2.06 5.992c-.019-.2.024-.404.1-.59.075-.188.182-.36.298-.526.35-.502.776-.95 1.253-1.334.49-.393 1.03-.718 1.57-1.039.617-.366 1.237-.729 1.883-1.04C6.146.989 7.181.636 8.222.318c.69-.211 1.418-.41 2.124-.267.292.06.572.176.817.345.563.386.924 1.054.932 1.736.003.215-.028.432-.11.631-.08.2-.212.38-.389.503-.157.109-.343.169-.53.208-.187.04-.378.06-.565.1-.483.102-.93.325-1.386.517-.648.272-1.322.482-1.952.793z" transform="translate(.014 28.084)"/>
            <path fill="#020204" fill-rule="nonzero" d="M10.251.683c-.013-.152-.24-.146-.34-.056-.086.076-.166.309-.092.386.12.125.45-.12.432-.33z" transform="translate(.014 28.084)"/>
            <path fill="#FFF" fill-rule="nonzero" stroke="#020204" stroke-width=".5" d="M6.716 4.748c-.954.363-1.857.861-2.672 1.475-.407.012-.815-.182-1.063-.504-.248-.323-.33-.767-.213-1.157.115-.388.404-.699.703-.972.546-.5 1.154-.928 1.777-1.328.877-.563 1.795-1.077 2.78-1.42.746-.26 1.528-.42 2.317-.476-.329.7-.672 1.393-1.028 2.079-.32.615-.65 1.225-.99 1.828-.548.117-1.088.275-1.611.475h0z" transform="translate(.014 28.084)"/>
            <path fill="#020204" fill-rule="nonzero" stroke="#020204" stroke-width=".5" d="M6.716 4.748c-.954.363-1.857.861-2.672 1.475-.407.012-.815-.182-1.063-.504-.248-.323-.33-.767-.213-1.157.115-.388.404-.699.703-.972.546-.5 1.154-.928 1.777-1.328.877-.563 1.795-1.077 2.78-1.42.746-.26 1.528-.42 2.317-.476-.329.7-.672 1.393-1.028 2.079-.32.615-.65 1.225-.99 1.828-.548.117-1.088.275-1.611.475h0z" transform="translate(.014 28.084)"/>
            <g transform="translate(.014 28.084) translate(2.713 .34)">
                <mask id="prefix__f" fill="#fff">
                    <use xlink:href="#prefix__e"/>
                </mask>
                <path fill="#FFF" fill-rule="nonzero" d="M3.765 4.41l-1.952.899c-.354-.114-.67-.338-.897-.632-.226-.295-.36-.659-.38-1.03-.013-.25.026-.503.128-.731.154-.346.444-.615.764-.818.319-.203.671-.347 1.012-.51.94-.448 1.81-1.04 2.78-1.42.738-.29 1.526-.451 2.318-.476C7.21.39 6.866 1.084 6.51 1.77c-.32.615-.65 1.225-.99 1.829l-1.756.81z" mask="url(#prefix__f)"/>
            </g>
        </g>
        <path fill="#020204" fill-rule="nonzero" d="M14.347 22.962c-.183 0-.373.007-.556.027-.746.088-1.486.394-1.974.957-.407.468-.617 1.072-.767 1.675-.149.604-.25 1.221-.481 1.798-.394.963-1.12 1.75-1.608 2.666-.536 1.01-.767 2.157-1.174 3.229-.366.983-.888 1.906-1.242 2.89-.228.644-.38 1.309-.448 1.987h17.685c.19-1.133.196-2.3.047-3.446-.217-1.614-.726-3.181-1.404-4.667-.353-.767-.746-1.52-1.1-2.286-.284-.63-.549-1.275-.894-1.88-.34-.596-.767-1.166-1.337-1.566-.414-.299-.888-.495-1.363-.665-.563-.197-1.133-.366-1.717-.495-.549-.122-1.105-.224-1.668-.224h.001z"/>
        <path fill="#020204" fill-rule="nonzero" d="M10.535 26.17c-.01-.843-.037-1.687-.085-2.53-.045-.81-.109-1.621-.077-2.432.032-.826.167-1.661.533-2.402.366-.742.963-1.369 1.692-1.76.685-.37 1.472-.527 2.25-.519 1.055.012 2.112.33 2.966.95.536.387.987.887 1.341 1.444.303.476.539.996.687 1.54.303 1.117.231 2.296.29 3.451.056 1.096.231 2.189.172 3.284-.013.238-.04.48-.145.694-.103.208-.279.375-.48.49-.202.116-.429.181-.658.217-.459.07-.928.024-1.39.067-.67.062-1.31.31-1.976.414-.794.122-1.602.035-2.404.003-.321-.012-.644-.016-.963-.056-.319-.04-.637-.117-.92-.27-.175-.093-.335-.214-.465-.363-.13-.15-.23-.327-.281-.518-.077-.287-.041-.591-.034-.889.006-.272-.012-.545-.053-.814z"/>
        <path fill="#FDFDFB" fill-rule="nonzero" d="M13.051 25.357h-.156c-.203.013-.413.054-.603.129-.19.081-.367.196-.496.36-.115.142-.183.311-.23.488-.048.176-.061.359-.068.542-.014.367.007.733-.088 1.086-.102.373-.333.698-.563 1.017-.387.55-.787 1.113-.977 1.757-.115.393-.156.807-.115 1.214-.434.645-.814 1.323-1.133 2.035-.475 1.079-.8 2.232-.916 3.406-.027.264-.04.536-.04.8h13.519c.163-1.77.102-3.602-.672-5.196-.291-.604-.678-1.167-1.146-1.648-.122-.842-.373-1.67-.726-2.443-.258-.563-.57-1.092-.814-1.661-.095-.231-.183-.469-.292-.7-.108-.23-.244-.447-.427-.623-.183-.177-.414-.306-.665-.387-.244-.081-.502-.115-.76-.129-.515-.027-1.037.04-1.553.02-.36-.013-.719-.074-1.079-.067z"/>
        <path fill="url(#prefix__g)" fill-rule="nonzero" d="M11.966 21.348c-.193.01-.378.1-.52.232-.141.132-.24.305-.302.488-.123.368-.095.766-.067 1.152.025.35.051.706.182 1.031.065.163.157.316.28.441.123.126.277.222.447.265.16.04.33.031.486-.018.157-.05.3-.139.418-.254.171-.167.287-.387.353-.617.066-.23.085-.473.082-.713-.005-.3-.044-.6-.138-.885-.094-.285-.243-.554-.453-.77-.1-.104-.216-.196-.347-.26-.13-.064-.276-.1-.421-.092z"/>
        <path fill="url(#prefix__h)" fill-rule="nonzero" d="M15.385 21.348c-.302.207-.555.496-.678.84-.156.435-.097.921.054 1.358.154.446.412.873.801 1.14.195.135.42.227.654.254.235.028.48-.01.688-.12.256-.132.45-.365.571-.627.121-.26.173-.55.189-.837.02-.367-.015-.739-.136-1.086-.13-.376-.368-.723-.702-.94-.168-.109-.358-.183-.555-.21-.198-.028-.402-.007-.588.065-.106.04-.205.098-.298.163z"/>
        <path fill="#A2A2A2" fill-rule="nonzero" d="M11.9 24.476c-.194.16-.38.33-.558.509-.098.098-.196.204-.24.336-.04.117-.032.245-.05.367-.007.042-.017.083-.017.126 0 .02.002.042.008.062.006.02.017.04.031.055.024.026.058.04.093.047.035.007.07.008.105.012.158.017.304.093.435.184.13.09.25.195.385.28.296.188.65.272 1.001.286.351.013.701-.04 1.046-.11.273-.054.546-.12.805-.221.398-.157.756-.398 1.099-.654.155-.116.309-.236.448-.37.048-.046.094-.094.145-.136.05-.042.107-.078.17-.098.095-.031.199-.022.298-.006.074.013.15.03.225.026.037-.001.075-.008.11-.022.035-.014.068-.036.092-.065.031-.038.048-.088.048-.138 0-.05-.015-.099-.04-.141-.05-.086-.138-.144-.229-.184-.124-.056-.259-.083-.391-.115-.407-.098-.802-.243-1.177-.43-.186-.092-.367-.194-.55-.292-.189-.101-.38-.198-.585-.26-.458-.139-.957-.093-1.41.063-.5.175-.954.485-1.298.89z" opacity=".3"/>
        <path fill="url(#prefix__i)" fill-rule="nonzero" d="M12.875 23.898c.192-.215.323-.478.507-.7.092-.112.199-.213.324-.285.125-.071.27-.113.414-.1.16.014.31.094.427.203.117.11.204.249.274.394.066.139.119.286.214.407.102.128.246.216.375.317.065.05.127.105.178.17.05.064.09.138.107.218.017.082.009.168-.02.246-.028.079-.077.15-.136.207-.12.116-.284.178-.45.201-.33.047-.663-.051-.996-.042-.337.01-.666.128-1.004.116-.168-.006-.34-.047-.478-.144-.069-.048-.13-.11-.173-.181-.043-.073-.07-.156-.073-.24-.003-.08.016-.16.048-.234.032-.074.078-.142.129-.204.101-.125.226-.229.333-.349z"/>
        <path fill="#232323" fill-rule="nonzero" d="M16.633 17.929c-.278.196-.157.441-.037.688.12.246-.263.955-.267.985-.004.03.754-.36.96-.613.244-.3.86.405.826.298 0-.192-1.204-1.555-1.482-1.358z"/>
        <g fill-rule="nonzero">
            <path fill="#020204" d="M.781.087C.668.095.557.134.461.194S.283.337.218.431C.09.618.033.848.024 1.076c-.007.17.012.343.068.504.057.161.152.31.284.42.135.111.306.178.48.186.175.009.352-.042.495-.141.115-.08.207-.19.272-.312.066-.123.106-.259.124-.397.032-.244-.005-.499-.117-.717C1.517.4 1.326.22 1.095.135.995.098.888.08.782.087z" transform="translate(15.032 20.852)"/>
            <path fill="#141413" d="M1.053.825C.959.862.81.839.769.93c-.025.055.01.145.065.167.112.046.286-.037.331-.15.02-.048-.01-.125-.058-.146-.018-.007-.036.016-.054.023z" transform="translate(15.032 20.852)"/>
            <path fill="url(#prefix__j)" d="M1.476 1.075c.126-.127-.09-.46-.258-.597C1.097.378.742.275.757.383c.015.107.175.246.282.35.131.13.377.401.437.342z" transform="translate(15.032 20.852)"/>
        </g>
        <path fill="url(#prefix__k)" fill-rule="nonzero" d="M16.436 20.452c-.051.065-.098.136-.135.214.233.05.455.146.654.278.385.256.677.63.882 1.045.048-.053.092-.11.13-.173-.207-.433-.505-.824-.903-1.089-.191-.127-.404-.223-.628-.275z"/>
        <path fill="url(#prefix__l)" fill-rule="nonzero" d="M11.946 20.663c-.027-.001-.052.001-.078.003l-.051.003c.153.014.306.055.444.117.189.085.355.206.502.343.272.254.474.569.61.901-.033-.256-.11-.5-.223-.722-.054-.062-.11-.123-.17-.18-.146-.137-.313-.257-.502-.342-.165-.074-.349-.12-.532-.124z"/>
        <g fill-rule="nonzero">
            <path fill="#020204" d="M.098.662c-.04.244-.042.5.042.732.055.153.146.293.257.412.073.079.155.15.251.196.097.046.208.066.312.04.096-.024.18-.086.24-.163.063-.077.104-.168.133-.262.087-.278.073-.582-.013-.86C1.257.554 1.154.358.99.222.914.157.823.106.725.082.626.06.52.064.428.106.325.153.246.241.194.341.143.44.116.55.098.66v.001z" transform="translate(11.091 21.029)"/>
            <path fill="url(#prefix__m)" d="M.619.488c.026.07.114.094.162.15.047.054.097.11.123.176.049.128-.05.317.054.407.032.028.097.029.129 0 .124-.113.096-.341.047-.502C1.09.573.98.435.844.366.78.334.685.307.631.353.598.383.602.446.62.488z" transform="translate(11.091 21.029)"/>
        </g>
        <g fill-rule="nonzero">
            <path fill="url(#prefix__n)" d="M.081 2.496c.007.032.02.063.036.091.029.049.07.088.116.121s.095.06.143.09c.253.16.46.384.643.62.246.317.464.67.792.9.232.163.51.255.792.284.33.033.666-.02.985-.114.296-.088.583-.21.845-.372.5-.308.916-.759 1.466-.961.12-.044.246-.076.361-.13.116-.055.225-.136.28-.252.054-.11.052-.239.069-.36.018-.131.06-.257.083-.387.023-.13.025-.268-.03-.387-.047-.099-.132-.177-.229-.227-.097-.05-.206-.072-.315-.077-.218-.01-.433.045-.65.065-.287.026-.577-.01-.866-.002-.359.01-.712.092-1.071.109-.41.02-.818-.043-1.228-.06-.177-.007-.356-.005-.53.025-.176.03-.347.089-.494.19-.142.098-.255.232-.386.345-.065.057-.136.109-.213.147-.078.037-.164.06-.25.059-.045-.001-.09-.008-.133.005-.026.008-.05.025-.07.044-.02.02-.036.042-.052.065-.036.054-.067.11-.094.17z" transform="translate(10.962 23.478)"/>
            <path fill="#D9B30D" d="M1.689 2.941c-.042.174-.017.362.07.518.086.156.232.278.401.334.215.072.457.037.658-.068.116-.06.222-.146.29-.259.033-.056.056-.119.065-.184.009-.065.003-.132-.02-.194-.025-.067-.07-.126-.125-.173-.054-.046-.12-.08-.188-.102-.136-.046-.283-.047-.427-.04-.217.01-.434.038-.647.082" transform="translate(10.962 23.478)"/>
            <path fill="#604405" d="M.984 1.595c-.145.086-.285.181-.423.279-.07.05-.144.105-.182.184-.027.056-.033.119-.034.18 0 .063.003.125-.005.186-.005.042-.016.084-.018.126-.001.021 0 .042.006.063.005.02.015.04.03.055.018.02.044.032.07.04.026.008.053.012.08.018.127.03.238.109.336.196.097.088.185.186.286.269.275.224.64.317.994.323.355.005.706-.069 1.053-.147.272-.061.544-.125.806-.222.401-.148.775-.372 1.098-.653.146-.128.284-.268.449-.371.145-.091.308-.152.456-.24.013-.007.026-.015.038-.025.012-.01.023-.021.03-.035.011-.024.011-.052.004-.078-.008-.025-.023-.048-.04-.068-.018-.023-.039-.044-.061-.063-.155-.132-.365-.18-.567-.197-.203-.016-.409-.004-.61-.038-.188-.032-.368-.102-.55-.16-.191-.062-.386-.11-.585-.142-.466-.077-.946-.062-1.408.034-.44.092-.866.258-1.253.487z" transform="translate(10.962 23.478)"/>
            <path fill="url(#prefix__o)" d="M.938 1.107c-.21.141-.398.313-.558.509-.09.111-.174.233-.22.37-.036.108-.048.222-.07.333-.01.041-.02.083-.02.126 0 .021.003.042.01.063.007.02.017.039.032.054.024.026.059.04.093.047.035.007.07.008.105.012.158.018.303.094.434.184s.252.195.386.28c.297.188.65.271 1.001.285.351.013.701-.04 1.045-.109.274-.054.547-.12.806-.221.398-.157.756-.398 1.099-.654.155-.116.309-.236.448-.37.048-.046.093-.094.144-.136.051-.042.108-.078.17-.098.096-.031.2-.022.299-.006.074.013.149.03.224.026.038-.001.076-.008.111-.022.035-.014.068-.036.092-.065.031-.038.047-.088.048-.138 0-.05-.015-.099-.04-.141-.051-.086-.138-.144-.23-.184-.123-.056-.258-.083-.39-.115-.407-.098-.802-.243-1.177-.43-.186-.092-.367-.194-.55-.292-.189-.101-.38-.198-.585-.26-.458-.139-.958-.093-1.41.063-.5.174-.954.485-1.298.89z" transform="translate(10.962 23.478)"/>
            <path fill="#F6DA4A" d="M4.15 1.205c-.024-.031-.06-.053-.097-.064-.038-.012-.08-.012-.118-.006-.078.014-.148.056-.213.1-.186.128-.35.286-.493.46-.19.23-.346.496-.398.79-.009.049-.015.1-.008.15.006.049.025.098.06.134.031.031.074.05.117.057.044.006.089 0 .13-.014.084-.028.153-.087.22-.146.361-.324.689-.713.82-1.18.013-.048.024-.096.024-.144 0-.05-.013-.1-.044-.137z" transform="translate(10.962 23.478)"/>
            <path fill="url(#prefix__p)" d="M3.283.532c.025.08.155.067.23.106.066.034.119.108.193.11.07.002.18-.024.19-.094.012-.093-.123-.152-.21-.186-.112-.044-.256-.066-.36-.007-.025.013-.05.045-.043.07z" opacity=".8" transform="translate(10.962 23.478)"/>
            <path fill="url(#prefix__q)" d="M2.044.488c-.097-.03-.256.139-.204.226.014.024.058.054.087.038.045-.024.081-.112.13-.146.031-.023.024-.105-.013-.118z" opacity=".8" transform="translate(10.962 23.478)"/>
            <path fill="url(#prefix__r)" d="M6.66 1.756c0 .213-.139.386-.31.386-.171 0-.31-.173-.31-.386 0-.213.139-.386.31-.386.171 0 .31.173.31.386z" transform="translate(10.962 23.478) rotate(6.358 6.35 1.756)"/>
        </g>
        <path fill="url(#prefix__s)" fill-rule="nonzero" d="M9.979 31.028c.11.165-.07.736 2.5.37 0 0-.45.05-.896.153-.691.231-1.294.49-1.758.833-.46.339-.798.78-1.22 1.16 0 0 .684-1.25.854-1.626.17-.377-.029-.36.106-.913.135-.554.465-1.086.465-1.086s-.27.782-.052 1.109z" opacity=".25"/>
        <path fill="url(#prefix__t)" fill-rule="nonzero" d="M18.24 30.878c-.523.365-.83.322-1.465.393-.636.072-2.355.046-2.355.046s.249-.005.8.098c.552.103 1.677.201 2.311.442.634.242.865.31 1.25.554.549.347.95.89 1.475 1.27 0 0 .026-.505-.186-.881-.212-.377-.78-.97-.948-1.524-.167-.554-.247-1.642-.247-1.642s-.11.88-.634 1.245z" opacity=".42"/>
        <path fill="url(#prefix__u)" fill-rule="nonzero" d="M13.316 30.105c-.02.158-.045.315-.076.472-.015.077-.032.154-.06.227-.029.073-.07.142-.129.195-.05.046-.113.077-.175.106-.244.112-.506.186-.772.22.107.007.213.017.319.028.067.008.134.016.199.032.065.017.128.043.182.082.06.044.107.103.142.168.069.13.092.278.105.425.017.187.018.375.004.562.012-.125.038-.249.078-.368.07-.216.185-.418.338-.585.061-.066.129-.127.202-.179.226-.159.512-.229.786-.191-.278.012-.56-.075-.781-.243-.113-.085-.212-.19-.28-.315-.106-.191-.136-.424-.082-.636z" opacity=".2"/>
        <path fill="#000" fill-rule="nonzero" d="M12.644 33.795c-.135.51-.223 1.031-.278 1.554-.068.74-.047 1.479-.088 2.225l-.04.617h.284c-.013-.787.089-1.574.136-2.354.04-.678.034-1.363-.014-2.042z" opacity=".11"/>
        <path fill="#232323" fill-rule="nonzero" d="M18.743 26.178c-.235.213.11.534.273.912.102.234.383.565.655.512.205-.04.331-.334.312-.542-.037-.4-.375-.494-.62-.631-.195-.11-.455-.401-.62-.251z"/>
        <g>
            <path fill="#020204" fill-rule="nonzero" d="M3.833 6.187c.393-.735.837-1.454 1.425-2.044.373-.375.81-.706 1.055-1.174.226-.432.265-.94.224-1.425-.024-.283-.074-.566-.048-.85.014-.144.048-.29.123-.414.075-.125.195-.226.337-.258.087-.02.18-.011.264.017.085.028.163.075.231.133.137.116.233.271.324.425.284.481.54.98.729 1.506.358.998.463 2.099.211 3.129-.26 1.065-.88 2.008-1.583 2.85-.785.94-1.686 1.783-2.67 2.513-.468.348-.956.67-1.462.96-.183.106-.37.207-.569.281-.198.074-.41.12-.621.11-.205-.01-.406-.073-.585-.172-.18-.099-.339-.234-.474-.388-.27-.31-.44-.692-.573-1.08-.07-.204-.13-.414-.138-.629-.009-.215.04-.438.17-.61.117-.154.292-.256.474-.323s.374-.103.562-.149c.527-.13 1.04-.351 1.447-.71.515-.456.822-1.094 1.147-1.699z" transform="translate(20.025 19.333)"/>
            <path fill="#FFF" fill-rule="nonzero" stroke="#020204" stroke-width=".5" d="M3.765 6.248c.417-.772.861-1.545 1.484-2.163.36-.357.784-.67 1.013-1.123.2-.395.228-.854.224-1.298-.003-.323-.02-.646.003-.968.011-.144.03-.29.096-.418.032-.064.076-.124.13-.17.056-.046.122-.08.194-.09.092-.016.19.009.266.065-.075.065-.133.149-.166.242-.042.116-.046.243-.042.366.016.583.183 1.153.205 1.736.014.363-.032.737-.197 1.06-.133.258-.336.473-.516.7-.53.668-.876 1.46-1.187 2.253-.187.476-.364.957-.583 1.42-.247.52-.562 1.03-1.041 1.348-.431.288-.957.394-1.472.45-.26.028-.523.045-.784.022-.26-.024-.52-.09-.747-.22-.172-.098-.324-.232-.443-.39.352-.184.71-.359 1.07-.523.526-.24 1.071-.467 1.498-.855.435-.395.715-.927.994-1.444h0z" transform="translate(20.025 19.333)"/>
            <g transform="translate(20.025 19.333) translate(.136)">
                <mask id="prefix__w" fill="#fff">
                    <use xlink:href="#prefix__v"/>
                </mask>
                <path fill="#848484" fill-rule="nonzero" d="M7.333.15c0 .303-.56.33-.678.61-.144.338-.158.91-.067 1.29.1.418.309.646.151 1.016-.111.263-.689.321-.915.5-.411.324-.547.716-.882 1.111-.239.281-.438.599-.594.933-.465.997-1.2 2.498-2.577 3.103-.766.337-2.253.763-2.51-.034-.728-2.253 5.814-5.755 6.817-9.646.14-.543 1.254.559 1.255 1.12V.149z" mask="url(#prefix__w)" opacity=".25"/>
            </g>
        </g>
        <path fill="#020204" fill-rule="nonzero" d="M2.727 36.36c.396.173.822.303 1.254.283.422-.02.822-.182 1.227-.3.473-.14.97-.22 1.46-.16.372.046.731.174 1.066.344.278.142.54.313.79.502.072.055.143.112.225.15.082.04.176.06.264.036.068-.018.127-.06.174-.113.046-.053.08-.115.108-.18.095-.217.129-.458.109-.694-.02-.236-.093-.467-.202-.677-.251-.488-.684-.857-1.141-1.161-.667-.443-1.438-.78-2.239-.762-.316.007-.628.068-.943.09-.316.02-.645-.002-.924-.15-.31-.165-.521-.464-.745-.735-.112-.135-.23-.267-.37-.373-.14-.107-.302-.189-.475-.214-.152-.022-.308-.001-.452.05-.144.05-.276.13-.396.226-.24.19-.428.435-.629.665-.167.191-.345.375-.482.589-.137.214-.232.464-.21.718.012.157.07.31.156.443s.199.248.324.345c.25.196.544.323.828.463.41.201.805.432 1.223.615z"/>
    </g>
</svg>
