<svg xmlns="http://www.w3.org/2000/svg" width="196.059" height="62.325" viewBox="0 0 196.059 62.325">
  <g id="Layer_1-2" transform="translate(0 -0.004)">
    <g id="Group_9" data-name="Group 9" transform="translate(0 0.004)">
      <g id="Group_5" data-name="Group 5" transform="translate(148.638 16.508)">
        <path id="Path_13" data-name="Path 13" d="M515.287,110.48v17.642c-5.066-2.922-10.063-5.809-15.287-8.824C505.165,116.318,510.157,113.441,515.287,110.48Z" transform="translate(-487.726 -91.434)" fill="#219489"/>
        <path id="Path_14" data-name="Path 14" d="M542.623,77.074c-3.83,2.208-7.486,4.316-11.273,6.5V70.58C535.1,72.736,538.774,74.857,542.623,77.074Z" transform="translate(-508.986 -64.375)" fill="#ef6a27"/>
        <path id="Path_15" data-name="Path 15" d="M499.732,79.89v12.3c-3.569-2.05-7.029-4.042-10.662-6.131C492.658,83.984,496.137,81.969,499.732,79.89Z" transform="translate(-480.313 -70.689)" fill="#ef6a27"/>
        <path id="Path_16" data-name="Path 16" d="M552.05,62.615c-3.334-1.976-6.462-3.826-9.78-5.8,3.3-1.863,6.475-3.653,9.78-5.519V62.615Z" transform="translate(-516.392 -51.3)" fill="#127abd"/>
        <path id="Path_17" data-name="Path 17" d="M578.92,72.55l9.748,5.619c-3.318,1.908-6.462,3.72-9.748,5.609Z" transform="translate(-541.247 -65.711)" fill="#127abd"/>
        <path id="Path_18" data-name="Path 18" d="M485.1,103.63c3.344,1.931,6.482,3.74,9.787,5.648-3.17,1.831-6.176,3.566-9.182,5.3-.6.348-.6-.074-.6-.476V103.633Z" transform="translate(-477.621 -86.789)" fill="#4db261"/>
        <path id="Path_19" data-name="Path 19" d="M558.326,103.132c-2.446-1.474-4.634-2.79-7.006-4.219,2.256-1.262,4.329-2.452,6.433-3.579.766-.409.56.319.563.647C558.333,98.269,558.326,100.561,558.326,103.132Z" transform="translate(-522.53 -81.081)" fill="#127abd"/>
        <path id="Path_20" data-name="Path 20" d="M489.563,76.455c-2.256,1.294-4.283,2.459-6.453,3.7v-7.4l6.453,3.695Z" transform="translate(-476.271 -65.854)" fill="#4db261"/>
        <path id="Path_21" data-name="Path 21" d="M467.547,98.76v6.53c-1.934-1.11-3.746-2.153-5.687-3.267C463.794,100.913,465.609,99.874,467.547,98.76Z" transform="translate(-461.86 -83.486)" fill="#4db261"/>
        <path id="Path_22" data-name="Path 22" d="M497.919,67.063V71l-3.479-1.963,3.479-1.979Z" transform="translate(-483.955 -61.988)" fill="#219489"/>
        <path id="Path_23" data-name="Path 23" d="M556.354,116.665c-1.162.669-2.185,1.258-3.334,1.918V114.84A27.452,27.452,0,0,1,556.354,116.665Z" transform="translate(-523.682 -94.391)" fill="#127abd"/>
      </g>
      <path id="Path_24" data-name="Path 24" d="M466.858,56.116c-.109-.331-.364-.438-.608-.579-1.422-.814-2.855-1.619-4.28-2.423-1.786-1.052-3.559-2.121-5.358-3.147-1.976-1.13-3.978-2.217-5.967-3.321-1.3-.949-1.854-1.355-2.523-1.268a5.187,5.187,0,0,0-1.78.859l-.85.409V40.7l-9.9-5.561,8.248-4.5V20.419l3.952,2.3,4.956-3.286.087-.048a2.02,2.02,0,0,0,.328-.225l.422-.28V6.671c.834.425,1.632.779,2.372,1.226a1.964,1.964,0,0,0,2.279-.048c2.562-1.542,5.172-3.009,7.782-4.47.525-.293.647-.547.3-1.052a4.669,4.669,0,0,0-3.917-2.3Q447.544-.025,432.68.015a4.621,4.621,0,0,0-4.47,3.952v3.37c.016.119.032.238.055.36h0c-.019.322-.039.644-.055.965v5.078c.016.319.035.64.061.959-.023.377-.042.753-.061,1.13V21.6q.024.541.058,1.081-.034.55-.058,1.1v5.336c.016.354.035.708.061,1.062-.023.434-.042.869-.061,1.3v6.2c.016.418.035.834.058,1.252q-.034.613-.058,1.226v5.609c.016.386.035.776.061,1.162-.023.338-.042.679-.061,1.017v4.5c.016.328.035.653.058.982-.016.7-.039,1.387-.058,2.082v2.855a4.169,4.169,0,0,0,4.3,3.923q15.057.063,30.113-.006a4.693,4.693,0,0,0,4.232-6.173ZM444.485,3.462c-.293,0-.624-.026-.624-.428,0-.373.3-.492.6-.5q3.114-.019,6.227,0c.306,0,.6.18.57.528-.029.377-.377.393-.669.393-1,.006-1.992,0-2.99,0-1.04,0-2.076,0-3.115-.006Zm3.044,56.979a2.265,2.265,0,0,1-2.2-2.381c.122-1.49.811-1.979,2.185-2.015a2.293,2.293,0,0,1,2.269,2.166,2.341,2.341,0,0,1-2.25,2.23Z" transform="translate(-290.402 -0.004)" fill="#1f4999"/>
      <g id="Group_6" data-name="Group 6" transform="translate(164.706 4.443)">
        <path id="Path_25" data-name="Path 25" d="M511.79,26.71V43.12c4.782-2.755,9.442-5.439,14.228-8.2-4.792-2.764-9.449-5.455-14.228-8.213Z" transform="translate(-511.79 -22.558)" fill="#219489"/>
        <path id="Path_26" data-name="Path 26" d="M531.467,22.9l.109.061V13.81l-7.846,4.718,7.737,4.441v-.061Z" transform="translate(-519.887 -13.81)" fill="#219489"/>
      </g>
      <g id="Group_7" data-name="Group 7" transform="translate(0.001 17.322)">
        <path id="Path_27" data-name="Path 27" d="M335.791,71.26c-.994.068-2,.01-3,.013-3.083,0-4.081,1.014-4.084,4.119,0,1.226-.023,2.452-.032,3.678q-1.931.029-3.862.055c-.042,0-.084,0-.126,0-.679.077-.808-.187-.753-.869a33.75,33.75,0,0,0,.032-3.743,3.059,3.059,0,0,0-2.993-3.2,48.226,48.226,0,0,0-5.239.013,3.063,3.063,0,0,0-2.925,3.138c-.032,1.123-.029,2.246,0,3.369a3.183,3.183,0,0,0,3.324,3.289c1.29.023,2.581,0,3.872,0,1.873,0,1.838,0,1.834,1.815,0,1.056-.425,1.525-1.49,1.5-1.371-.039-2.748-.023-4.119,0-.6.006-1.187-.142-1.3-.731-.248-1.294-1.3-.885-1.822-.692-.74.274-.312,1.068-.052,1.577a2.942,2.942,0,0,0,2.748,1.822c1.706-.01,3.415.032,5.12-.013a2.933,2.933,0,0,0,2.941-2.813,7.271,7.271,0,0,0,.023-1.5c-.087-.766.183-.988.962-.978,3.537.042,7.077-.068,10.611.055a4.544,4.544,0,0,0,4.325-2.011V73.407A3.837,3.837,0,0,0,335.8,71.26ZM321.85,76.908a1.993,1.993,0,0,1-2.243,2.2c-1.078,0-2.156-.006-3.231,0-1.017.01-1.548-.451-1.532-1.5q.019-1.429,0-2.858c-.013-1,.492-1.429,1.464-1.4.7.019,1.41,0,2.114,0,3.827.019,3.53-.441,3.431,3.556Zm15.937-.023c.006,2.031-.18,2.217-2.169,2.217-1.12,0-2.243-.01-3.363,0-1,.01-1.57-.364-1.516-1.471.048-.994.042-2,0-2.99-.039-.917.4-1.294,1.262-1.3.747,0,1.493,0,2.243,0,4.013-.01,3.53-.267,3.543,3.534Z" transform="translate(-212.064 -65.641)" fill="#383838"/>
        <path id="Path_28" data-name="Path 28" d="M30.161,70.116c-1.326-.444-1.606-.212-1.538,1.178.023.441.08.708.592.731a.968.968,0,0,1,1.027.9,23.128,23.128,0,0,1-.016,3.865c-.151,1.22-1.262.927-2.1.975-1.027.058-.563-.692-.576-1.12-.039-1.207.013-2.414-.023-3.621a2.977,2.977,0,0,0-2.172-2.874c-.483-.132-1.278-.615-1.461.212-.126.57-.589,1.67.8,1.741a.836.836,0,0,1,.772.856,25.811,25.811,0,0,1-.019,3.865c-.154,1.236-1.281.911-2.111.959-.991.055-.6-.714-.611-1.149-.048-1.207.045-2.417-.032-3.621-.187-2.819-4.081-4.261-6.787-2.562a2.932,2.932,0,0,0-1.432,2.6c-.019,1.123-.029,2.25,0,3.373.023.808-.367,1.149-1.123,1.149-3.331,0-6.662.006-9.993-.013a1.176,1.176,0,0,1-1.3-1.326c0-.917.019-1.831,0-2.748-.023-.882.161-1.5,1.2-1.7s.38-1.1.454-1.654c.074-.576-.508-.38-.84-.351a3.116,3.116,0,0,0-2.848,3.1C-.01,73.971.009,75.056.015,76.137A3.2,3.2,0,0,0,3.527,79.6c1.583.01,3.164,0,4.747,0v-.013c1.706,0,3.415.026,5.12-.006,2.127-.039,3.048-.972,3.073-3.07.013-1.039.016-2.082-.016-3.122-.026-.959.463-1.365,1.365-1.381.415-.006.834-.01,1.249,0,1.358.032,1.654.338,1.645,1.735-.013,1.748-.016,3.5-.058,5.246-.013.56.109.827.747.821,2.623-.026,5.246.048,7.869-.016a3.072,3.072,0,0,0,3.057-3.147c.035-1.207.039-2.417,0-3.621a3.079,3.079,0,0,0-2.159-2.906Z" transform="translate(-0.004 -64.609)" fill="#383838"/>
        <path id="Path_29" data-name="Path 29" d="M134.33,61.134c-4.036-.01-8.075-.023-12.11.01a1.992,1.992,0,0,1-2.024-1.152,4.222,4.222,0,0,1,.879-3.978,1.656,1.656,0,0,0,.229-1.953c-.28-.576-.9.08-1.361.245a2.312,2.312,0,0,0-.5.364c-1.67,1.213-1.709,3.72-1.117,6.015.447,1.731,1.918,2.5,4.145,2.5,3.952.01,7.907-.029,11.859-.006,1.416.01,2.056.692,2.015,1.97-.042,1.348-.463,1.719-2,1.719q-8.863,0-17.729-.016c-1.757,0-2.25-.512-2.253-2.324,0-2.581-.045-5.162.026-7.74.026-.9-.335-.975-1.075-1-.824-.026-1.052.219-1.036,1.043.051,2.62.006,5.243.023,7.865.019,2.745,1.5,4.229,4.251,4.242,2.913.016,5.825,0,8.741,0h9.114a3.669,3.669,0,0,0,3.234-1.548,3.87,3.87,0,0,0,.335-4.126,3.707,3.707,0,0,0-3.646-2.13Z" transform="translate(-76.145 -53.828)" fill="#383838"/>
        <path id="Path_30" data-name="Path 30" d="M235.908,71.023c-.37-.035-.982-.248-.885.444.074.525-.525,1.406.451,1.545,1.1.158,1.213.792,1.181,1.667s-.035,1.751,0,2.623c.042.991-.4,1.487-1.381,1.493-1.58.013-3.164,0-4.744.042-.608.016-.785-.2-.769-.792.032-1.332.023-2.665-.016-3.994a3.061,3.061,0,0,0-3.112-3.073c-3.073-.219-4.763.634-5.094,2.584a5.6,5.6,0,0,0-.032.872c0,1-.019,2,.006,3,.019.766-.267,1.171-1.081,1.168-3.331-.016-6.659-.013-9.989-.019-.879,0-1.281-.454-1.271-1.326.013-.956.026-1.915,0-2.871-.026-.85.164-1.419,1.155-1.58s.348-1.014.451-1.532c.119-.6-.434-.467-.779-.454a3.019,3.019,0,0,0-2.848,2.929c-.048,1.207-.029,2.414-.01,3.621a3.1,3.1,0,0,0,3.315,3.25c1.664.016,3.331,0,4.995,0v-.013c1.664,0,3.331.023,4.995-.006,2.143-.035,3.093-1.017,3.109-3.176.006-.914.016-1.834-.045-2.745-.077-1.178.434-1.712,1.609-1.645a9.341,9.341,0,0,0,1.123,0c1.052-.064,1.522.383,1.487,1.471-.058,1.789-.016,3.579-.061,5.368-.016.653.093.969.866.956,2.33-.045,4.663.016,6.993-.016a3.078,3.078,0,0,0,3.157-3.035c.051-1.287.055-2.581-.006-3.872a3.032,3.032,0,0,0-2.761-2.887Z" transform="translate(-140.462 -65.336)" fill="#383838"/>
        <path id="Path_31" data-name="Path 31" d="M80.519,62.491c.821-.006,1.326-.154,1.3-1.162-.023-.843-.164-1.323-1.155-1.284-.817.029-1.422.122-1.258,1.22-.183.837.174,1.236,1.117,1.229Z" transform="translate(-53.818 -58.043)" fill="#383838"/>
        <path id="Path_32" data-name="Path 32" d="M70.464,62.5c.808-.026,1.345-.132,1.3-1.152-.035-.811-.1-1.426-1.139-1.262-.84-.122-1.319.1-1.3,1.1C69.348,62.014,69.47,62.532,70.464,62.5Z" transform="translate(-47.018 -58.051)" fill="#383838"/>
        <path id="Path_33" data-name="Path 33" d="M91.145,62.5c.949,0,1.31-.364,1.123-1.329.254-1.017-.373-1.1-1.207-1.123-.9-.023-1.12.36-1.133,1.194-.016.917.29,1.255,1.22,1.258Z" transform="translate(-60.988 -58.046)" fill="#383838"/>
        <path id="Path_34" data-name="Path 34" d="M226.269,109.6c.872.142,1.287-.145,1.265-1.117-.019-.8-.167-1.233-1.088-1.184-.753.039-1.374-.013-1.323,1.072.039.834.138,1.4,1.149,1.229Z" transform="translate(-152.673 -90.091)" fill="#383838"/>
        <path id="Path_35" data-name="Path 35" d="M236.453,107.281c-.824.023-1.307.119-1.294,1.139.013.943.341,1.207,1.239,1.207.872,0,1.252-.274,1.072-1.213.193-.788-.09-1.162-1.02-1.136Z" transform="translate(-159.481 -90.075)" fill="#383838"/>
        <path id="Path_36" data-name="Path 36" d="M285.172,107.283c-.84,0-1.191.222-1.149,1.114.032.74.051,1.284,1.036,1.229.785-.042,1.451-.058,1.252-1.136.19-.927-.225-1.21-1.139-1.21Z" transform="translate(-192.616 -90.078)" fill="#383838"/>
      </g>
      <g id="Group_8" data-name="Group 8" transform="translate(0 39.673)">
        <path id="Path_37" data-name="Path 37" d="M11.75,136.659l-.019-8.48-4.2,7.019H6.469l-4.2-6.906v8.371H0V123.87H1.957l5.082,8.48,4.988-8.48h1.957L14,136.662H11.756Z" transform="translate(0 -123.68)" fill="#737373"/>
        <path id="Path_38" data-name="Path 38" d="M62.74,129.878a6.9,6.9,0,1,1,6.89,6.578,6.552,6.552,0,0,1-6.89-6.578Zm11.386,0a4.5,4.5,0,1,0-4.5,4.5A4.359,4.359,0,0,0,74.126,129.878Z" transform="translate(-42.549 -123.294)" fill="#737373"/>
        <path id="Path_39" data-name="Path 39" d="M136.117,133.18c0,2.192-1.719,3.472-5.008,3.472H124.75V123.86h6c3.07,0,4.715,1.3,4.715,3.324A3.059,3.059,0,0,1,133.816,130a3.147,3.147,0,0,1,2.3,3.18Zm-8.992-7.457v3.527h3.363c1.645,0,2.578-.586,2.578-1.754s-.933-1.773-2.578-1.773h-3.363Zm6.6,7.219c0-1.278-.969-1.847-2.758-1.847h-3.836v3.691h3.836c1.789,0,2.758-.566,2.758-1.847Z" transform="translate(-84.602 -123.673)" fill="#737373"/>
        <path id="Path_40" data-name="Path 40" d="M179.32,123.86H181.7v12.793H179.32Z" transform="translate(-121.61 -123.673)" fill="#737373"/>
        <path id="Path_41" data-name="Path 41" d="M205.943,129.878a6.921,6.921,0,0,1,11.914-4.441l-1.535,1.445a4.5,4.5,0,0,0-3.418-1.5,4.5,4.5,0,1,0,0,8.992,4.447,4.447,0,0,0,3.418-1.516l1.535,1.461a6.923,6.923,0,0,1-11.917-4.441Z" transform="translate(-139.663 -123.294)" fill="#737373"/>
        <path id="Path_42" data-name="Path 42" d="M265.055,133.692h-6.395l-1.262,2.961H254.95l5.757-12.793h2.34l5.774,12.793h-2.484l-1.278-2.961Zm-.785-1.863-2.414-5.593-2.394,5.593h4.8Z" transform="translate(-172.901 -123.673)" fill="#737373"/>
        <path id="Path_43" data-name="Path 43" d="M311.1,134.908l.824-1.847a7.075,7.075,0,0,0,4.222,1.406c1.992,0,2.832-.711,2.832-1.664,0-2.758-7.6-.949-7.6-5.7,0-2.066,1.645-3.82,5.152-3.82a8.087,8.087,0,0,1,4.258,1.133l-.75,1.847a7.117,7.117,0,0,0-3.527-1c-1.973,0-2.777.766-2.777,1.735,0,2.723,7.585.949,7.585,5.648,0,2.047-1.664,3.8-5.172,3.8A8.236,8.236,0,0,1,311.1,134.9Z" transform="translate(-210.98 -123.28)" fill="#737373"/>
        <path id="Path_44" data-name="Path 44" d="M372.9,123.86v12.793h-2.375v-5.484h-6.617v5.484H361.53V123.86h2.375v5.281h6.617V123.86Z" transform="translate(-245.181 -123.673)" fill="#737373"/>
      </g>
    </g>
  </g>
</svg>
