<svg xmlns="http://www.w3.org/2000/svg" width="112" height="58" viewBox="0 0 112 58">
    <g fill="none">
        <path fill="#00678C" d="M.319 52.777h3.67V38.205L9.721 50.91c.649 1.527 1.58 2.094 3.387 2.094 1.808 0 2.683-.567 3.36-2.094l5.704-12.705v14.572h3.698V38.205c0-1.415-.565-2.095-1.75-2.463-2.796-.849-4.66-.113-5.506 1.783l-5.618 12.564-5.42-12.564c-.82-1.895-2.711-2.631-5.534-1.783C.885 36.11.32 36.79.32 38.205v14.572H.319zm28.6-11.856h3.698v8.008c-.028.452.141 1.472 2.146 1.499 1.045.029 7.962 0 8.018 0v-9.564h3.698v13.102c0 3.225-3.98 3.933-5.844 3.961H29.003v-2.461h11.66c2.372-.255 2.09-1.443 2.09-1.84v-.962h-7.821c-3.642-.029-5.985-1.642-6.013-3.481 0-.17.084-8.206 0-8.262zm79.332-9.282c-2.257-.056-4.009.17-5.477.793-.422.17-1.1.17-1.156.708.225.225.253.593.45.905.34.567.933 1.33 1.469 1.726.593.453 1.186.906 1.806 1.302 1.101.679 2.343 1.075 3.416 1.754.621.397 1.242.906 1.863 1.33.31.227.509.596.904.737v-.086c-.197-.254-.254-.622-.451-.906-.283-.282-.565-.537-.848-.82-.818-1.103-1.835-2.066-2.937-2.858-.903-.622-2.88-1.47-3.246-2.518l-.056-.057c.62-.057 1.355-.284 1.948-.454.96-.253 1.835-.197 2.822-.452.453-.113.904-.255 1.356-.396v-.255c-.508-.509-.875-1.188-1.41-1.669-1.44-1.245-3.022-2.462-4.66-3.48-.875-.566-2.004-.935-2.935-1.415-.34-.17-.904-.255-1.101-.538-.51-.622-.791-1.442-1.158-2.179-.818-1.556-1.61-3.282-2.315-4.923-.508-1.104-.82-2.207-1.44-3.226-2.908-4.81-6.07-7.725-10.926-10.583-1.044-.595-2.286-.85-3.614-1.16-.705-.029-1.41-.085-2.117-.114-.452-.198-.904-.736-1.3-.99-1.608-1.019-5.759-3.226-6.945-.312-.762 1.84 1.13 3.65 1.779 4.584.48.651 1.1 1.387 1.44 2.122.197.481.254.991.452 1.5.45 1.245.875 2.632 1.468 3.792.31.595.648 1.217 1.044 1.755.226.312.621.453.705.962-.395.567-.422 1.415-.648 2.123-1.017 3.198-.622 7.16.818 9.508.452.707 1.525 2.263 2.965 1.67 1.27-.51.988-2.123 1.355-3.538.085-.34.028-.566.197-.792v.056c.396.793.791 1.557 1.158 2.349.875 1.386 2.4 2.83 3.67 3.792.678.51 1.215 1.387 2.061 1.698v-.086h-.056c-.17-.254-.423-.367-.65-.566-.507-.509-1.072-1.132-1.467-1.697-1.186-1.585-2.23-3.34-3.162-5.15-.452-.877-.848-1.84-1.213-2.717-.171-.34-.171-.849-.453-1.018-.424.622-1.044 1.16-1.356 1.924-.536 1.216-.592 2.716-.79 4.273-.113.028-.056 0-.113.056-.903-.226-1.214-1.16-1.553-1.952-.846-2.01-.988-5.235-.254-7.555.197-.595 1.045-2.463.707-3.028-.171-.538-.734-.849-1.045-1.274-.367-.538-.762-1.216-1.016-1.81-.677-1.585-1.016-3.34-1.75-4.925-.34-.735-.932-1.5-1.413-2.178-.536-.764-1.128-1.302-1.552-2.207-.14-.312-.338-.821-.112-1.16.055-.227.17-.312.394-.368.367-.312 1.412.085 1.78.254 1.043.424 1.918.82 2.793 1.414.396.283.82.821 1.328.963h.593c.904.198 1.92.057 2.766.311 1.497.481 2.852 1.189 4.066 1.953 3.698 2.348 6.748 5.688 8.809 9.677.338.651.48 1.245.79 1.925.594 1.387 1.328 2.801 1.92 4.16.593 1.33 1.158 2.688 2.004 3.792.424.594 2.118.905 2.88 1.216.565.254 1.44.481 1.949.792.96.594 1.92 1.274 2.823 1.924.451.34 1.863 1.046 1.947 1.612z"/>
        <path fill="#00678C" d="M79.454 7.049c-.48 0-.818.056-1.157.141v.057h.056c.226.453.622.764.904 1.16.226.453.424.905.65 1.358l.055-.056c.396-.283.594-.736.594-1.415-.17-.198-.198-.397-.339-.594-.17-.283-.536-.425-.763-.651z"/>
        <path fill="#CE8B2C" d="M49.303 52.777h10.615c1.242 0 2.429-.254 3.388-.707 1.61-.736 2.372-1.726 2.372-3.027v-2.717c0-1.046-.876-2.037-2.625-2.716-.904-.34-2.033-.538-3.134-.538h-4.46c-1.497 0-2.203-.453-2.4-1.443-.029-.113-.029-.226-.029-.339v-1.67c0-.086 0-.198.028-.31.198-.765.593-.963 1.892-1.104h10.87v-2.463H55.485c-1.497 0-2.287.086-2.993.312-2.174.679-3.134 1.754-3.134 3.65v2.151c0 1.67 1.864 3.085 5.026 3.424.338.028.705.028 1.072.028h3.812c.141 0 .281 0 .394.029 1.158.113 1.666.31 2.005.734.226.227.283.425.283.68v2.151c0 .254-.17.595-.509.877-.34.282-.876.48-1.581.51-.142 0-.225.028-.367.028H49.303v2.46zm39.355-4.272c0 2.519 1.892 3.933 5.675 4.216.367.029.706.056 1.073.056h9.599v-2.461H95.32c-2.146 0-2.965-.538-2.965-1.84V35.742h-3.699v12.763zm-20.638.112v-8.771c0-2.236 1.58-3.595 4.66-4.019.338-.028.676-.057.987-.057h7c.368 0 .68.029 1.046.057 3.077.424 4.63 1.783 4.63 4.019v8.771c0 1.811-.65 2.774-2.175 3.425l3.614 3.282H83.52l-2.937-2.66-2.965.17h-3.952c-.649 0-1.384-.084-2.146-.282-2.342-.652-3.5-1.897-3.5-3.935zm3.98-.196c0 .113.058.225.086.367.198 1.018 1.157 1.585 2.625 1.585h3.332l-3.049-2.774h4.263l2.681 2.434c.51-.283.82-.68.933-1.189.028-.113.028-.253.028-.368v-8.404c0-.113 0-.225-.028-.34-.198-.961-1.157-1.498-2.597-1.498H74.71c-1.638 0-2.71.707-2.71 1.838v8.349zm34.7 4.385h.536V50.74h.705v-.425h-1.976v.425h.734v2.065zm4.093 0h.508v-2.49h-.761l-.622 1.698-.677-1.698h-.734v2.49h.48V50.91h.028l.706 1.895h.367l.705-1.895v1.895z"/>
    </g>
</svg>
