<svg xmlns="http://www.w3.org/2000/svg" width="90" height="85" viewBox="0 0 90 85">
    <g fill="none" fill-rule="evenodd">
        <g>
            <path fill="#BB2C23" d="M39.257 41.294l-5.974-5.96c.016 0 .048-.017.064-.017l5.99 5.961c-.032.016-.064.016-.08.016z" transform="translate(14.612 .012)"/>
            <path fill="#BD2D24" d="M39.336 41.278l-5.99-5.96c.08 0 .16-.033.223-.049l5.99 5.961c-.08.032-.16.048-.223.048z" transform="translate(14.612 .012)"/>
            <path fill="#C32E24" d="M39.559 41.23l-5.99-5.96c.127-.033.223-.081.334-.13l5.973 5.962c-.095.048-.206.096-.317.128z" transform="translate(14.612 .012)"/>
            <path fill="#BD2D24" d="M39.876 41.102l-5.973-5.961c.08-.048.143-.08.206-.128l5.958 5.96c-.063.049-.127.097-.19.129z" transform="translate(14.612 .012)"/>
            <path fill="#BB2C23" d="M40.067 40.974l-5.973-5.961c.047-.032.079-.064.11-.096l5.974 5.96c-.031.033-.063.065-.11.097z" transform="translate(14.612 .012)"/>
            <path fill="#B62B24" d="M40.178 40.878l-5.973-5.961c.032-.016.063-.048.095-.08l5.974 5.96c-.032.032-.064.065-.096.08z" transform="translate(14.612 .012)"/>
            <path fill="#B42924" d="M40.274 40.797l-5.974-5.96c.016-.033.048-.049.064-.08l5.989 5.96-.08.08z" transform="translate(14.612 .012)"/>
            <path fill="#B02824" d="M40.353 40.717l-5.99-5.96c.032-.033.048-.049.064-.08l5.99 5.96c-.032.032-.048.048-.064.08z" transform="translate(14.612 .012)"/>
            <path fill="#AD2823" d="M40.417 40.637l-5.99-5.96c.032-.017.048-.049.064-.08l5.973 5.976c-.016.016-.032.048-.047.064z" transform="translate(14.612 .012)"/>
            <path fill="#A82722" d="M40.464 40.573l-5.973-5.977c.016-.016.032-.048.047-.064l5.974 5.961c-.016.016-.032.048-.048.08z" transform="translate(14.612 .012)"/>
            <path fill="#A52522" d="M40.512 40.493l-5.974-5.961c.016-.032.032-.048.048-.08l5.974 5.96c-.016.033-.032.049-.048.081z" transform="translate(14.612 .012)"/>
            <path fill="#A02421" d="M40.56 40.413l-5.974-5.961c0-.032.016-.048.032-.08l5.973 5.96c-.016.033-.016.065-.031.08z" transform="translate(14.612 .012)"/>
            <path fill="#9B2420" d="M40.591 40.333l-5.973-5.961c.016-.016.032-.048.032-.08l5.973 5.96c0 .033-.016.065-.032.08z" transform="translate(14.612 .012)"/>
            <path fill="#982420" d="M40.623 40.269l-5.973-5.977c.015-.016.031-.048.031-.08l5.974 5.977c0 .016-.016.048-.032.08z" transform="translate(14.612 .012)"/>
            <path fill="#952220" d="M40.655 40.189l-5.974-5.977c.016-.017.016-.049.032-.08l5.974 5.96c-.016.032-.016.064-.032.097z" transform="translate(14.612 .012)"/>
            <path fill="#912120" d="M40.687 40.092l-5.974-5.96c0-.017.016-.049.016-.08l5.99 5.96c-.016.032-.016.064-.032.08z" transform="translate(14.612 .012)"/>
            <path fill="#8E201E" d="M40.718 40.012l-5.989-5.96c.016-.033.016-.065.032-.097l5.973 5.961c0 .032-.016.064-.016.096z" transform="translate(14.612 .012)"/>
            <path fill="#8B1F1E" d="M40.734 39.916l-5.973-5.96c0-.033 0-.065.016-.113l5.973 5.96c0 .033-.016.081-.016.113z" transform="translate(14.612 .012)"/>
            <path fill="#871F1C" d="M40.75 39.804l-5.973-5.961v-.112l5.973 5.945v.128z" transform="translate(14.612 .012)"/>
            <path fill="#841F1C" d="M40.75 39.676l-5.973-5.945v-.048l5.973 5.977v.016z" transform="translate(14.612 .012)"/>
            <path fill="#871F1C" d="M40.75 37.561L34.777 31.6 43.816 30.798 49.774 36.743z" transform="translate(14.612 .012)"/>
            <path fill="#871F1C" d="M40.75 37.561L34.777 31.6 43.816 30.798 49.774 36.743z" transform="translate(14.612 .012)"/>
            <path fill="#871F1C" d="M40.75 39.66L34.777 33.683 34.777 31.6 40.75 37.545z" transform="translate(14.612 .012)"/>
            <path fill="#C32E24" d="M17.047 43.249L11.073 37.288 33.299 35.333 39.257 41.294z" transform="translate(14.612 .012)"/>
            <path fill="#912120" d="M15.95 42.865l-5.973-5.961c.016.032.032.048.064.048l5.973 5.977-.063-.064z" transform="translate(14.612 .012)"/>
            <path fill="#952220" d="M16.014 42.929l-5.973-5.977.095.096 5.973 5.96c-.031-.031-.063-.047-.095-.08z" transform="translate(14.612 .012)"/>
            <path fill="#982420" d="M16.11 43.009l-5.974-5.961c.016.016.048.032.08.048l5.989 5.96-.096-.047z" transform="translate(14.612 .012)"/>
            <path fill="#9B2420" d="M16.205 43.057l-5.99-5.961.096.048 5.973 5.96c-.032 0-.063-.015-.08-.047z" transform="translate(14.612 .012)"/>
            <path fill="#A02421" d="M16.284 43.105l-5.973-5.961c.031.016.063.032.08.048l5.989 5.961-.096-.048z" transform="translate(14.612 .012)"/>
            <path fill="#A52522" d="M16.38 43.153l-5.99-5.961c.032 0 .064.016.095.032l5.974 5.961c-.032-.016-.048-.016-.08-.032z" transform="translate(14.612 .012)"/>
            <path fill="#A82722" d="M16.459 43.185l-5.974-5.96c.032.015.064.015.096.031l5.973 5.961c-.031-.016-.063-.016-.095-.032z" transform="translate(14.612 .012)"/>
            <path fill="#AD2823" d="M16.554 43.217l-5.973-5.96c.032 0 .063.015.095.015l5.974 5.961c-.032 0-.064-.016-.096-.016z" transform="translate(14.612 .012)"/>
            <path fill="#B02824" d="M16.65 43.233l-5.974-5.96c.032 0 .064.015.095.015l5.974 5.961c-.032 0-.064 0-.095-.016z" transform="translate(14.612 .012)"/>
            <path fill="#B42924" d="M16.745 43.25l-5.974-5.962h.112l5.973 5.977c-.032 0-.063-.016-.111-.016z" transform="translate(14.612 .012)"/>
            <path fill="#B62B24" d="M16.856 43.265l-5.973-5.977c.031.016.079.016.11.016l5.99 5.961h-.127z" transform="translate(14.612 .012)"/>
            <path fill="#BB2C23" d="M16.983 43.265l-5.99-5.96c.033-.017.048-.017.08-.017l5.974 5.961c-.032.016-.048.016-.064.016z" transform="translate(14.612 .012)"/>
            <path fill="#7F1D1C" d="M7.276 52.27l-5.973-5.976c-.43-.417-.7-.994-.747-1.65l5.974 5.944c.047.657.333 1.25.746 1.683z" transform="translate(14.612 .012)"/>
            <path fill="#841F1C" d="M6.53 50.604l-5.974-5.96c-.016-.08-.016-.161-.016-.225l5.99 5.945c-.016.08 0 .16 0 .24z" transform="translate(14.612 .012)"/>
            <path fill="#D93023" d="M49.774 36.743l-.016 9.807c0 1.586-1.287 2.997-2.875 3.14L9.357 53.009c-1.572.128-2.86-1.042-2.843-2.644l.016-9.79 9.008-.802v2.1c0 .816.667 1.441 1.493 1.361l22.226-1.955c.826-.08 1.493-.801 1.493-1.634v-2.1l9.024-.8z" transform="translate(14.612 .012)"/>
            <path fill="#871F1C" d="M6.53 40.589L0.556 34.628 9.596 33.827 15.553 39.788z" transform="translate(14.612 .012)"/>
            <path fill="#871F1C" d="M6.53 40.589L0.556 34.628 9.596 33.827 15.553 39.788z" transform="translate(14.612 .012)"/>
            <path fill="#871F1C" d="M6.53 50.364L0.54 44.435 0.572 34.628 6.545 40.573z" transform="translate(14.612 .012)"/>
            <path fill="#E63F46" d="M49.711 20.222L49.774 34.644 40.75 35.445 40.687 21.024z" transform="translate(14.612 .012)"/>
            <path fill="#E23535" d="M49.711 20.222L49.774 34.644 40.75 35.445 40.687 21.024z" transform="translate(14.612 .012)"/>
            <path fill="#871F1C" d="M40.766 35.445L34.793 29.5 34.729 15.079 40.703 21.04z" transform="translate(14.612 .012)"/>
            <path fill="#871F1C" d="M40.703 21.04L34.729 15.079 43.753 14.278 49.711 20.238z" transform="translate(14.612 .012)"/>
            <path fill="#871F1C" d="M40.703 21.04L34.729 15.079 43.753 14.278 49.711 20.238z" transform="translate(14.612 .012)"/>
            <path fill="#E63F46" d="M15.506 23.251L15.553 37.673 6.53 38.474 6.466 24.036z" transform="translate(14.612 .012)"/>
            <path fill="#E23535" d="M15.506 23.251L15.553 37.673 6.53 38.474 6.466 24.036z" transform="translate(14.612 .012)"/>
            <path fill="#871F1C" d="M6.545 38.474L0.572 32.513 0.508 18.107 6.482 24.036z" transform="translate(14.612 .012)"/>
            <path fill="#871F1C" d="M6.466 24.052L.508 18.107 9.548 17.306 15.506 23.251zM40.75 18.892L34.777 12.931 34.777 11.121 40.75 17.082z" transform="translate(14.612 .012)"/>
            <path fill="#841F1C" d="M40.75 17.082l-5.973-5.961v-.112l5.973 5.96v.113z" transform="translate(14.612 .012)"/>
            <path fill="#7F1D1C" d="M40.75 16.97l-5.973-5.945c-.032-.369-.175-.673-.397-.898l5.973 5.961c.222.225.365.529.397.882z" transform="translate(14.612 .012)"/>
            <path fill="#BB2C23" d="M46.93 5.961L40.957 0h.127l5.973 5.961h-.127z" transform="translate(14.612 .012)"/>
            <path fill="#B62B24" d="M47.057 5.977L41.084.016c.08-.016.159-.016.222 0l5.974 5.961h-.223z" transform="translate(14.612 .012)"/>
            <path fill="#B42924" d="M47.28 5.961L41.306 0c.08 0 .143 0 .207.016l5.99 5.961c-.08-.016-.144-.016-.223-.016z" transform="translate(14.612 .012)"/>
            <path fill="#B02824" d="M47.502 5.977L41.512.016c.08 0 .144.016.207.016l5.974 5.977c-.064-.016-.127-.032-.19-.032z" transform="translate(14.612 .012)"/>
            <path fill="#AD2823" d="M47.693 6.009L41.719.032c.064.016.112.032.175.048l5.974 5.961c-.048-.016-.112-.032-.175-.032z" transform="translate(14.612 .012)"/>
            <path fill="#A82722" d="M47.868 6.041L41.894.081c.064.015.111.031.175.047l5.973 5.961c-.047-.016-.11-.032-.174-.048z" transform="translate(14.612 .012)"/>
            <path fill="#A52522" d="M48.042 6.09L42.07.127c.063.016.111.048.175.064l5.973 5.961c-.048-.016-.111-.032-.175-.064z" transform="translate(14.612 .012)"/>
            <path fill="#A02421" d="M48.217 6.153L42.244.193c.047.031.11.063.174.08l5.974 5.96c-.064-.032-.111-.048-.175-.08z" transform="translate(14.612 .012)"/>
            <path fill="#9B2420" d="M48.392 6.233L42.418.273c.048.031.112.064.16.096l5.973 5.96c-.048-.032-.111-.064-.16-.096z" transform="translate(14.612 .012)"/>
            <path fill="#982420" d="M48.55 6.33L42.578.369c.064.048.127.08.175.128l5.974 5.945c-.048-.032-.112-.08-.175-.112z" transform="translate(14.612 .012)"/>
            <path fill="#952220" d="M48.726 6.442L42.752.497c.064.032.127.08.19.144l5.974 5.945-.19-.144z" transform="translate(14.612 .012)"/>
            <path fill="#912120" d="M48.916 6.586L42.943.64c.031.032.08.064.11.096l5.974 5.961-.11-.112z" transform="translate(14.612 .012)"/>
            <path fill="#871F1C" d="M6.53 21.889L0.556 15.944 0.588 6.426 6.561 12.387z" transform="translate(14.612 .012)"/>
            <path fill="#C32E24" d="M9.405 9.262L3.447 3.317 40.973 0 46.93 5.961z" transform="translate(14.612 .012)"/>
            <path fill="#E63F46" d="M9.405 9.246L46.93 5.945c1.589-.128 2.86 1.042 2.86 2.644l-.032 9.502-9.008.801v-1.81c0-.834-.667-1.442-1.477-1.378l-22.226 1.955c-.826.064-1.51.8-1.51 1.634v1.81l-9.023.786.031-9.502c0-1.603 1.287-2.997 2.86-3.141z" transform="translate(14.612 .012)"/>
            <path fill="#E63F46" d="M9.405 9.246L46.93 5.945c1.589-.128 2.86 1.042 2.86 2.644l-.032 9.502-9.008.801v-1.81c0-.834-.667-1.442-1.477-1.378l-22.226 1.955c-.826.064-1.51.8-1.51 1.634v1.81l-9.023.786.031-9.502c0-1.603 1.287-2.997 2.86-3.141z" transform="translate(14.612 .012)"/>
            <path fill="#841F1C" d="M6.561 12.387L.588 6.426v-.064l5.973 5.96v.065z" transform="translate(14.612 .012)"/>
            <path fill="#871F1C" d="M6.561 12.323L.588 6.362c0-.08 0-.16.016-.24l5.973 5.976c-.016.064-.016.144-.016.225z" transform="translate(14.612 .012)"/>
            <path fill="#8B1F1E" d="M6.577 12.098L.604 6.121c0-.064.016-.128.031-.192l5.974 5.96c-.016.065-.032.13-.032.21z" transform="translate(14.612 .012)"/>
            <path fill="#8E201E" d="M6.609 11.89L.635 5.929c0-.064.016-.128.032-.192l5.974 5.977c-.016.048-.032.112-.032.176z" transform="translate(14.612 .012)"/>
            <path fill="#912120" d="M6.64 11.714L.668 5.737c.016-.048.032-.113.048-.16l5.973 5.96c-.015.048-.031.113-.047.177z" transform="translate(14.612 .012)"/>
            <path fill="#952220" d="M6.688 11.537L.715 5.577c.016-.049.032-.113.048-.16l5.973 5.96c-.016.048-.032.112-.048.16z" transform="translate(14.612 .012)"/>
            <path fill="#982420" d="M6.736 11.377L.763 5.417c.015-.049.031-.097.063-.161L6.8 11.233c-.016.048-.048.096-.064.144z" transform="translate(14.612 .012)"/>
            <path fill="#9B2420" d="M6.8 11.233L.826 5.256c.016-.048.032-.096.064-.144l5.973 5.96c-.016.049-.047.097-.063.16z" transform="translate(14.612 .012)"/>
            <path fill="#A02421" d="M6.863 11.073L.89 5.112c.016-.048.047-.096.08-.145l5.973 5.961c-.032.049-.048.097-.08.145z" transform="translate(14.612 .012)"/>
            <path fill="#A52522" d="M6.943 10.928L.969 4.968c.016-.049.048-.097.08-.145l5.973 5.961c-.032.048-.063.096-.08.144z" transform="translate(14.612 .012)"/>
            <path fill="#A82722" d="M7.022 10.784L1.05 4.824l.095-.145 5.973 5.961-.095.144z" transform="translate(14.612 .012)"/>
            <path fill="#AD2823" d="M7.117 10.64L1.144 4.679l.095-.144 5.974 5.96-.096.145z" transform="translate(14.612 .012)"/>
            <path fill="#B02824" d="M7.213 10.496L1.239 4.535c.032-.048.08-.096.127-.144l5.974 5.96c-.048.049-.08.097-.127.145z" transform="translate(14.612 .012)"/>
            <path fill="#B42924" d="M7.34 10.352L1.366 4.39c.048-.048.08-.097.127-.16l5.99 5.976-.143.145z" transform="translate(14.612 .012)"/>
            <path fill="#B62B24" d="M7.483 10.207L1.493 4.23c.064-.048.112-.096.175-.16l5.974 5.961c-.048.064-.112.112-.16.176z" transform="translate(14.612 .012)"/>
            <path fill="#BB2C23" d="M7.642 10.031l-5.974-5.96c.064-.049.143-.113.223-.177l5.973 5.96c-.08.065-.143.129-.222.177z" transform="translate(14.612 .012)"/>
            <path fill="#BD2D24" d="M7.864 9.855L1.891 3.894c.11-.08.238-.16.365-.224l5.99 5.944c-.144.08-.255.16-.382.24z" transform="translate(14.612 .012)"/>
            <path fill="#C32E24" d="M8.245 9.614l-5.989-5.96c.206-.097.413-.193.62-.257l5.973 5.961c-.206.064-.413.16-.604.256z" transform="translate(14.612 .012)"/>
            <path fill="#BD2D24" d="M8.85 9.358l-5.974-5.96c.143-.033.286-.065.429-.081l5.973 5.961c-.143.016-.286.048-.429.08z" transform="translate(14.612 .012)"/>
            <path fill="#BB2C23" d="M9.278 9.278L3.305 3.317c.047-.016.095-.016.142-.016l5.974 5.96c-.048 0-.095 0-.143.017z" transform="translate(14.612 .012)"/>
        </g>
        <g>
            <path fill="#666769" d="M32.346 9.326c0-1.602-.095-2.42-.111-3.51h1.859l.11 1.651h.048c.588-1.09 1.669-1.843 3.083-1.843 1.874 0 3.256 1.379 3.256 4.647v9.102h-2.129v-8.717c0-1.618-.317-3.205-1.874-3.205-.89 0-1.748.753-2.002 2.18-.08.336-.111.753-.111 1.233v8.51h-2.129V9.325zm-4.353 1.875c.016-2.692-.97-3.894-2.002-3.894-1.414 0-2.113 2.035-2.192 3.894h4.194zm-4.226 1.586c0 4.167 1.636 5.048 3.162 5.048.953 0 1.7-.24 2.224-.513l.365 1.586c-.747.385-1.89.641-2.97.641-3.226 0-4.878-2.676-4.878-6.81 0-4.374 1.859-7.115 4.544-7.115 2.716 0 3.844 2.917 3.844 5.93 0 .528-.047.897-.08 1.233h-6.211zm-10.485 1.635c0 .4.031.785.11 1.121.43 1.94 1.415 2.276 1.987 2.276 1.779 0 2.367-2.468 2.367-5.192 0-2.804-.667-5.16-2.383-5.16-.985 0-1.875 1.202-1.986 2.436-.064.304-.095.673-.095 1.041v3.478zm-2.098-4.375c0-2.067-.079-3.269-.11-4.23h1.89l.095 1.746h.064c.746-1.442 1.81-1.939 2.875-1.939 2.352 0 3.877 2.484 3.877 6.939 0 5.048-2.05 7.035-4.163 7.035-1.287 0-2.001-.802-2.367-1.555h-.063v6.714h-2.098v-14.71zm-9.04 2.548c0 2.243.382 5.288 2.32 5.288 1.859 0 2.24-3.157 2.24-5.288 0-2.067-.381-5.256-2.287-5.256-1.923 0-2.272 3.189-2.272 5.256zm6.69 0c0 5.224-2.384 7.003-4.481 7.003C1.938 19.598 0 17.37 0 12.627c0-4.935 2.192-7.003 4.496-7.003 2.43 0 4.337 2.276 4.337 6.971z" transform="translate(.044 59.51)"/>
            <path fill="#D02A25" d="M79.229 12.114h.047c.254-.529.477-1.057.731-1.506l2.653-4.791h2.304L81.42 11.52l3.876 7.852h-2.383l-2.907-6.393-.778 1.265v5.128h-2.13V0h2.13v12.114zm-3.909 6.923c-.476.288-1.27.512-2.24.512-2.939 0-4.909-2.403-4.909-6.874 0-3.894 1.938-7.05 5.306-7.05.731 0 1.51.192 1.891.416l-.413 1.763c-.27-.144-.826-.353-1.541-.353-2.16 0-3.098 2.564-3.098 5.224 0 3.157 1.192 5.064 3.161 5.064.572 0 1.065-.112 1.542-.369l.301 1.667zm-11.645-6.698c-1.112 0-3.701.224-3.701 3.156 0 1.795.89 2.42 1.636 2.42.953 0 1.732-.705 1.97-2.051.063-.256.095-.529.095-.785v-2.74zm2.081 3.942c0 1.041.016 2.227.127 3.092h-1.906l-.143-1.442h-.08c-.587 1.058-1.525 1.667-2.684 1.667-1.796 0-3.194-1.523-3.194-3.878 0-3.413 2.717-4.888 5.736-4.92v-.416c0-1.827-.477-3.045-2.13-3.045-.841 0-1.588.24-2.24.69l-.476-1.507c.588-.417 1.827-.898 3.162-.898 2.685 0 3.828 1.763 3.828 4.792v5.865zM54.206 2.66v3.173h2.59v1.634h-2.59v8.044c0 1.763.62 2.244 1.399 2.244.35 0 .635-.032.857-.08l.112 1.65c-.397.144-.89.224-1.589.224-.858 0-1.605-.224-2.097-.817-.556-.609-.81-1.538-.81-3.413V7.467h-1.653V5.833h1.653V3.54l2.129-.881zM43.214 17.13c.476.304 1.302.705 2.16.705 1.192 0 1.97-.77 1.97-1.971 0-1.042-.365-1.73-1.715-2.66-1.748-1.122-2.685-2.292-2.685-3.83 0-2.211 1.604-3.75 3.685-3.75 1.065 0 1.843.369 2.4.706l-.557 1.618c-.524-.369-1.08-.609-1.827-.609-1.128 0-1.715.833-1.715 1.73 0 .898.333 1.395 1.668 2.324 1.572 1.01 2.796 2.228 2.796 4.102 0 2.74-1.843 4.054-4.067 4.054-.97 0-2.066-.304-2.638-.785l.525-1.634z" transform="translate(.044 59.51)"/>
            <path fill="#CECCC9" d="M87.363 18.364h.127c.143 0 .254-.048.254-.16 0-.113-.064-.177-.238-.177-.064 0-.111.016-.143.016v.32zm0 .625h-.254v-1.106c.095-.016.238-.048.429-.048.206 0 .301.048.365.096.08.048.111.128.111.24 0 .129-.095.225-.222.257v.016c.11.032.159.128.19.272.032.176.064.225.08.273h-.254c-.048-.048-.064-.145-.096-.273-.016-.112-.08-.176-.222-.176h-.127v.449zm-.683-.577c0 .496.38.881.858.881.476.016.842-.385.842-.881 0-.497-.366-.914-.842-.914-.477 0-.858.417-.858.914zm1.985 0c0 .625-.492 1.121-1.127 1.121-.636 0-1.144-.496-1.144-1.121s.508-1.122 1.144-1.122c.635 0 1.127.497 1.127 1.122z" transform="translate(.044 59.51)"/>
        </g>
    </g>
</svg>
