<svg xmlns="http://www.w3.org/2000/svg" width="82" height="67" viewBox="0 0 82 67">
    <g fill="none" fill-rule="evenodd" stroke-linecap="round" stroke-linejoin="round">
        <g>
            <path fill="#231F20" d="M5.076 4.717H1.14V1.104h4.159c1.522 0 2.284.61 2.284 1.835 0 1.185-.833 1.778-2.498 1.778M7.919 1.07C7.38.63 6.623.41 5.65.41L0 .438v8.65h1.139l-.01-3.679h4.204c1.054 0 1.885-.22 2.49-.661.604-.441.908-1.052.908-1.835 0-.783-.27-1.393-.812-1.834V1.07zm7.37 6.188c-.114.288-.3.542-.54.735-.51.453-1.288.679-2.334.679-.945 0-1.67-.22-2.176-.662-.506-.44-.76-1.03-.76-1.768 0-.384.067-.726.2-1.024.13-.293.326-.552.574-.754.525-.435 1.243-.652 2.162-.652 2.032 0 3.048.81 3.048 2.43 0 .384-.059.722-.173 1.014m.206-3.19c-.693-.576-1.72-.864-3.081-.864-1.285 0-2.28.294-2.98.882-.631.532-.948 1.25-.948 2.154 0 .903.327 1.622.981 2.173.37.303.8.523 1.26.646.48.133 1.043.2 1.689.2 1.352 0 2.384-.286 3.091-.856.632-.52.949-1.241.949-2.164 0-.929-.32-1.654-.96-2.174v.004zm8.611 3.441c0 1.164-1.144 1.745-3.435 1.745-.7 0-1.289-.04-1.768-.121-.48-.08-.868-.216-1.167-.402-.23-.143-.422-.329-.55-.558-.143-.267-.232-.56-.264-.863l1.065-.008c0 .458.186.794.56 1.011.4.26 1.11.39 2.126.39 1.6 0 2.401-.364 2.401-1.102 0-.427-.268-.72-.805-.882-.11-.031-.756-.113-1.942-.254l-2.216-.357c-.632-.229-.947-.64-.947-1.235 0-.581.282-1.015.847-1.299.28-.119.627-.208 1.046-.274.418-.065.903-.097 1.454-.097 2.204 0 3.297.629 3.297 1.888h-1.015c0-.884-.774-1.327-2.324-1.327-.788 0-1.377.09-1.764.269-.387.179-.58.455-.58.826 0 .34.253.597.784.751.306.081 1.01.174 2.11.279.986.08 1.661.195 2.029.343.7.248 1.05.668 1.05 1.262l.008.015zm4.183 1.576l-.434.055-.27.019c-.693 0-1.194-.092-1.5-.275-.308-.183-.46-.504-.46-.962V3.976h-1.264v-.58h1.252l.01-1.863h.973v1.863h1.69v.59l-1.69-.01v3.838c0 .285.083.483.25.592.167.108.465.162.892.162.06.006.13.005.203-.006.073-.01.186-.033.336-.07l.01.593.002-.002zm6.718-1.308c-.274.203-.58.357-.907.455-.34.105-.73.158-1.172.158-2.031 0-3.046-.764-3.046-2.29 0-.71.26-1.268.78-1.67.519-.4 1.25-.593 2.194-.593.952 0 1.674.204 2.165.607.49.404.738.948.738 1.629 0 .742-.25 1.314-.754 1.715m1.725-4.376h-.968l-.01.976c-.428-.397-.734-.647-.917-.752-.544-.271-1.247-.407-2.11-.407-1.265 0-2.23.254-2.896.789-.632.483-.948 1.181-.948 2.096 0 .451.08.855.24 1.21.158.353.397.663.699.905.676.507 1.61.76 2.829.76 1.462 0 2.502-.364 3.114-1.102v1.018c0 .644-.223 1.141-.676 1.494-.454.353-1.178.53-2.198.53-.959 0-1.642-.121-2.05-.361-.306-.185-.507-.506-.632-.961h-1c.11.636.407 1.097.889 1.382.557.328 1.498.492 2.825.492 2.536 0 3.804-.858 3.804-2.575V3.392l.005.018zm5.256.573c-.27-.042-.543-.063-.815-.065-1.596 0-2.394.797-2.394 2.392V9.08h-.96l-.01-5.67.971.008V4.43h.051c.148-.381.421-.7.774-.906.387-.2.964-.3 1.733-.3h.651v.76l-.001-.001zm.902 1.894c.123-.644.398-1.143.825-1.497.28-.203.595-.357.947-.46.353-.103.75-.153 1.184-.153.862 0 1.567.216 2.113.647.546.43.82.918.82 1.464h-5.9m5.995-1.75c-.34-.31-.761-.54-1.265-.688-.504-.149-1.099-.224-1.764-.224-1.268 0-2.234.266-2.928.799s-1.04 1.257-1.04 2.174c0 .916.333 1.643.999 2.182.72.593 1.737.89 3.05.89.523 0 1.007-.054 1.453-.17.447-.115.835-.26 1.167-.457.585-.382.955-.854 1.111-1.415h-1.05c-.36.97-1.256 1.455-2.69 1.455-1.013 0-1.792-.238-2.333-.713-.47-.407-.704-.933-.704-1.58h6.932c0-.962-.31-1.716-.928-2.263l-.01.01z" transform="translate(0 55.127)"/>
            <path fill="#367FAF" d="M60.074 6.755c0 1.684-1.491 2.526-4.475 2.526-1.788 0-3.093-.29-3.914-.87-.673-.477-1.01-1.205-1.01-2.182h1.2c0 1.572 1.24 2.358 3.723 2.358 1.19 0 2.05-.17 2.58-.483.449-.285.673-.73.673-1.336 0-.6-.306-1.02-.918-1.261-.338-.13-1.193-.294-2.539-.492-1.693-.235-2.79-.47-3.294-.704-.727-.346-1.1-.933-1.1-1.762 0-.764.31-1.357.929-1.725.666-.414 1.809-.622 3.427-.622 2.925 0 4.386.884 4.386 2.652H58.53c0-1.325-1.085-1.986-3.256-1.986-1.089 0-1.885.133-2.39.398-.476.285-.713.702-.713 1.254 0 .576.306.981.918 1.216.326.136 1.285.325 2.876.566 1.496.204 2.505.443 3.03.715.714.335 1.07.914 1.07 1.737l.009.001zm9.755.86c-.46.332-.975.582-1.52.736-.565.164-1.198.255-1.9.255-1.436 0-2.583-.35-3.465-1.052-.882-.701-1.313-1.645-1.313-2.813 0-1.217.437-2.165 1.31-2.845.874-.68 2.033-1.02 3.476-1.02 1.463 0 2.614.356 3.451 1.066.418.321.755.738.98 1.215.22.464.317.992.317 1.586 0 1.21-.442 2.168-1.327 2.872m.638.573c.626-.402 1.089-.888 1.388-1.46.3-.572.45-1.232.45-1.98 0-1.342-.49-2.417-1.47-3.228-.524-.445-1.156-.776-1.896-.992-.74-.217-1.59-.325-2.54-.325-1.85 0-3.301.407-4.355 1.224-1.054.818-1.581 1.923-1.581 3.32-.033 1.293.562 2.52 1.595 3.293 1.063.835 2.518 1.252 4.36 1.252.63.007 1.261-.038 1.885-.133.536-.09.992-.225 1.367-.41l1.775 1.12.74-.619-1.717-1.06-.001-.002zM81.3 9.07h-8.206V.42L74.222.4v7.947h7.088l-.01.722z" transform="translate(0 55.127)"/>
        </g>
        <path fill="#231F20" fill-rule="nonzero" stroke="#231F20" stroke-width="5.046" d="M52.708 35.04c.323-2.702.227-3.098 2.232-2.66l.509.045c1.542.07 3.55-.249 4.744-.802 2.551-1.187 4.064-3.17 1.549-2.65-5.738 1.188-6.132-.76-6.132-.76 6.06-9.02 8.592-20.47 6.406-23.273C56.052-2.704 45.73.912 45.558 1.005l-.055.01C44.37.78 43.101.64 41.676.615c-2.595-.043-4.566.683-6.06 1.82 0 0-18.413-7.611-17.557 9.572.182 3.646 5.222 27.658 11.233 20.407 2.198-2.65 4.311-4.893 4.311-4.893 1.054.704 2.316 1.06 3.64.933l.102-.088c-.032.33-.017.652.04 1.033-1.548 1.736-1.093 2.04-4.19 2.68-3.131.648-1.291 1.8-.09 2.101 1.457.365 4.819.882 7.103-2.315l-.09.365c.608.487.566 3.504.652 5.659.086 2.155.23 4.167.676 5.353.447 1.187.956 4.24 5.024 3.365 3.401-.73 6-1.783 6.24-11.571"/>
        <path fill="#417BA2" fill-rule="nonzero" d="M61.743 28.974c-5.738 1.187-6.133-.762-6.133-.762 6.06-9.02 8.592-20.469 6.406-23.272C56.052-2.703 45.73.912 45.558 1.005l-.056.01C44.37.78 43.101.64 41.674.615c-2.596-.043-4.565.683-6.061 1.82 0 0-18.414-7.61-17.559 9.572.182 3.646 5.222 27.658 11.234 20.408 2.197-2.65 4.31-4.893 4.31-4.893 1.055.704 2.317 1.06 3.641.933l.103-.088c-.032.33-.017.652.042 1.032-1.548 1.736-1.094 2.041-4.19 2.68-3.132.648-1.293 1.8-.09 2.102 1.456.365 4.818.882 7.102-2.315l-.09.364c.607.488 1.033 3.172.96 5.605-.07 2.432-.117 4.103.36 5.408.478 1.305.955 4.24 5.025 3.365 3.4-.73 5.163-2.625 5.408-5.785.174-2.248.566-1.916.592-3.924l.316-.95c.363-3.053.057-4.028 2.153-3.562l.509.045c1.542.07 3.55-.248 4.745-.801 2.55-1.188 4.063-3.17 1.548-2.65l.011-.007z"/>
        <g stroke="#FFF">
            <path stroke-width="1.682" d="M22.71 30.72c-.157 5.667.04 11.364.592 12.76.552 1.396 1.737 4.085 5.808 3.21 3.4-.73 4.638-2.145 5.174-5.27.395-2.29 1.158-8.68 1.255-9.989M17.841 2.31S-.585-5.239.272 11.935c.183 3.647 5.223 27.66 11.244 20.409 2.197-2.651 4.184-4.73 4.184-4.73M27.787.93c-.638.201 10.25-3.992 16.437 3.939 2.185 2.802-.338 14.251-6.406 23.272m0-.001s.394 1.95 6.132.762c2.514-.521 1.001 1.462-1.548 2.65-2.094.975-6.785 1.224-6.862-.122-.198-3.474 2.468-2.419 2.277-3.29-.174-.783-1.367-1.553-2.155-3.471-.69-1.675-9.446-14.52 2.428-12.612.436-.099-3.096-11.33-14.209-11.513C12.77.362 13.145 14.251 13.145 14.251m6.457 15.078c-1.548 1.736-1.093 2.04-4.19 2.68-3.131.648-1.291 1.8-.09 2.102 1.456.364 4.818.883 7.102-2.316.693-.973-.004-2.527-.955-2.924-.46-.19-1.076-.43-1.867.458zm-.101-.03c-.156-1.02.335-2.235.86-3.647.79-2.132 2.62-4.265 1.153-11.026-1.086-5.04-8.372-1.049-8.369-.364.004.684.339 3.463-.121 6.7-.59 4.223 2.68 7.797 6.443 7.432" transform="translate(17.753)"/>
            <g fill="#FFF">
                <path stroke-width=".561" d="M.014 1.427c-.033.234.426.848 1.015.94.588.092 1.099-.403 1.141-.636.042-.233-.426-.49-1.014-.574-.589-.084-1.11.038-1.142.271h0z" transform="translate(17.753) translate(17.753 12.722)"/>
                <path stroke-width=".28" d="M18.2.952c.033.233-.425.848-1.014.94-.588.09-1.099-.404-1.141-.637-.042-.233.427-.49 1.025-.574.597-.084 1.098.038 1.14.271h-.01z" transform="translate(17.753) translate(17.753 12.722)"/>
            </g>
            <path stroke-width="1.682" d="M38.09 12.057c.098 1.83-.393 3.08-.455 5.027-.084 2.833 1.346 6.074-.82 9.33" transform="translate(17.753)"/>
        </g>
    </g>
</svg>
