<svg xmlns="http://www.w3.org/2000/svg" width="106" height="120" viewBox="0 0 106 120">
    <g fill="none" fill-rule="evenodd">
        <path fill="#22238D" fill-rule="nonzero" d="M47.585 0.32H52.349000000000004V5.0840000000000005H47.585z"/>
        <circle cx="104.225" cy="61.12" r="1.789" fill="#67E7FD" fill-rule="nonzero" stroke="#22238D" stroke-linejoin="round" stroke-width=".727"/>
        <circle cx="2.291" cy="69.898" r="1.789" fill="#67E7FD" fill-rule="nonzero" stroke="#22238D" stroke-linejoin="round" stroke-width=".727"/>
        <path stroke="#22238D" stroke-linejoin="round" stroke-width=".727" d="M76.844 95.36L64.21 91.855l-9.39 4.734-11.308-2.77c-1.958-.494-3.953.66-4.502 2.603h0c-.273.959-.152 1.986.335 2.856.487.87 1.301 1.509 2.261 1.777l13.477 3.672"/>
        <path stroke="#22238D" stroke-linejoin="round" stroke-width=".727" d="M38.865 97.455l-14.058-8.16c-1.21-.682-2.732-.414-3.636.64h0c-.915 1.112-.878 2.727.087 3.796 4.873 5.25 19.091 19.745 27.782 19.527 10.618-.262 18.596-2.545 24.21-1.229"/>
        <path fill="#67E7FD" fill-rule="nonzero" stroke="#22238D" stroke-linejoin="round" stroke-width=".727" d="M78.247 90.713L72.015 116.938 81.665 119.484 88.269 93.156z"/>
        <path stroke="#22238D" stroke-linejoin="round" stroke-width=".727" d="M40.727 37.898L38.75 32.08c-.212-.626-.794-1.05-1.454-1.062h-16c-.86 0-1.557.697-1.557 1.557v43.789c0 .86.697 1.556 1.557 1.556h57.381c.86 0 1.557-.697 1.557-1.556V39.462c.002-.414-.161-.812-.454-1.105-.292-.294-.689-.459-1.103-.459H40.727z"/>
        <path stroke="#22238D" stroke-linejoin="round" stroke-width=".727" d="M21.949 31.011L20.727 22.291 73.011 13.811 76.72 37.898"/>
        <circle cx="79.251" cy="69.898" r="15.869" fill="#67E7FD" fill-rule="nonzero" stroke="#22238D" stroke-linejoin="round" stroke-width=".727"/>
        <path fill="#FFF" fill-rule="nonzero" stroke="#22238D" stroke-linejoin="round" stroke-width=".727" d="M46.21 27.09l22.968-3.723M47.404 33.905l9.12-1.476"/>
        <path stroke="#22238D" stroke-dasharray="5.818" stroke-linejoin="round" stroke-width=".727" d="M40.75 37.898h-6.408"/>
        <path fill="#22238D" fill-rule="nonzero" d="M80.45 80.582h-2.443l-.996-2.837-1.746-.727-2.734 1.295-1.731-1.738 1.31-2.713-.728-1.738-2.83-1.019v-2.443l2.837-.997.727-1.745-1.301-2.705 1.73-1.731 2.742 1.316 1.738-.727 1.004-2.83h2.444l.996 2.844 1.746.728 2.734-1.28 1.716 1.738-1.301 2.712.727 1.739 2.836 1.018v2.443l-2.843.997-.728 1.745 1.288 2.72-1.731 1.724-2.735-1.316-1.716.727-1.011 2.8zm1.455-10.67c.004-1.463-1.178-2.654-2.642-2.661-1.464-.007-2.657 1.173-2.667 2.638-.009 1.464 1.169 2.659 2.633 2.671.707.006 1.386-.27 1.889-.767.502-.497.786-1.174.787-1.88"/>
        <circle cx="60.691" cy="24.975" r="1.789" fill="#67E7FD" fill-rule="nonzero" stroke="#22238D" stroke-linejoin="round" stroke-width=".727"/>
        <circle cx="52.349" cy="33.164" r="1.789" fill="#67E7FD" fill-rule="nonzero" stroke="#22238D" stroke-linejoin="round" stroke-width=".727"/>
    </g>
</svg>
