<svg xmlns="http://www.w3.org/2000/svg" xmlns:xlink="http://www.w3.org/1999/xlink" width="157.133" height="65" viewBox="0 0 157.133 65">
  <defs>
    <clipPath id="clip-path">
      <rect id="Rectangle_705" data-name="Rectangle 705" width="157.133" height="57.904" fill="none"/>
    </clipPath>
    <clipPath id="clip-path-2">
      <rect id="Rectangle_704" data-name="Rectangle 704" width="157.133" height="57.903" fill="none"/>
    </clipPath>
  </defs>
  <g id="Group_3305" data-name="Group 3305" transform="translate(5313 -1318)">
    <rect id="Rectangle_763" data-name="Rectangle 763" width="157" height="65" transform="translate(-5313 1318)" fill="none"/>
    <g id="Sadad" transform="translate(-5313 1322)">
      <g id="Group_2976" data-name="Group 2976" transform="translate(0)">
        <g id="Group_2975" data-name="Group 2975" clip-path="url(#clip-path)">
          <g id="Group_2974" data-name="Group 2974" transform="translate(0 0)">
            <g id="Group_2973" data-name="Group 2973" clip-path="url(#clip-path-2)">
              <path id="Path_16023" data-name="Path 16023" d="M588.568,1106.349h10.949v-4.8a5.978,5.978,0,0,0-.2-1.647,3.451,3.451,0,0,0-.643-1.24,2.933,2.933,0,0,0-1.115-.862,3.621,3.621,0,0,0-1.552-.33h-1.883v-4.393h1.443a11.515,11.515,0,0,1,3.733.549,6.9,6.9,0,0,1,2.792,1.8,5.969,5.969,0,0,1,1.412,2.713,14.953,14.953,0,0,1,.409,3.593v9H588.568Z" transform="translate(-581.608 -1075.526)" fill="#888f96"/>
              <rect id="Rectangle_700" data-name="Rectangle 700" width="4.391" height="25.443" transform="translate(27.981 9.772)" fill="#888f96"/>
              <path id="Path_16024" data-name="Path 16024" d="M656.391,1106.349h10.95v-4.8a5.946,5.946,0,0,0-.2-1.647,3.438,3.438,0,0,0-.643-1.24,2.937,2.937,0,0,0-1.114-.862,3.622,3.622,0,0,0-1.552-.33h-1.882v-4.393h1.442a11.525,11.525,0,0,1,3.734.549,6.892,6.892,0,0,1,2.792,1.8,5.969,5.969,0,0,1,1.412,2.713,14.907,14.907,0,0,1,.409,3.593v4.611h3.388v4.391h-18.73Z" transform="translate(-620.568 -1075.526)" fill="#888f96"/>
              <rect id="Rectangle_701" data-name="Rectangle 701" width="6.181" height="4.391" transform="translate(53.957 30.823)" fill="#888f96"/>
              <path id="Path_16025" data-name="Path 16025" d="M712.05,1103.383h6.84v-11.7h4.392v11.7h3.2a6.276,6.276,0,0,0,1.428-.173,3.634,3.634,0,0,0,1.349-.628,3.32,3.32,0,0,0,.988-1.208,4.28,4.28,0,0,0,.376-1.914v-7.78h4.392v7.78a4.518,4.518,0,0,0,1.114,3.2,3.87,3.87,0,0,0,2.839,1.034,3.57,3.57,0,0,0,2.825-1.066,4.211,4.211,0,0,0,.941-2.887v-11.828h4.361v11.263q0,4.551-2.008,6.731t-6.119,2.18a11.256,11.256,0,0,1-1.788-.141,7.251,7.251,0,0,1-1.693-.486,6.146,6.146,0,0,1-1.522-.926,5.64,5.64,0,0,1-1.239-1.458,8.7,8.7,0,0,1-2.824,1.977,8.349,8.349,0,0,1-3.419.721H712.05Z" transform="translate(-652.54 -1072.561)" fill="#888f96"/>
              <path id="Path_16026" data-name="Path 16026" d="M590.8,1168.436a6.59,6.59,0,0,1-.771-.042,3.488,3.488,0,0,1-.64-.138,2.549,2.549,0,0,1-.535-.241,2.657,2.657,0,0,1-.459-.355,1.793,1.793,0,0,1-.493-.858,4.21,4.21,0,0,1-.142-1.1v-3.1h1.325v2.934a2.545,2.545,0,0,0,.09.725,1.022,1.022,0,0,0,.308.489,1.366,1.366,0,0,0,.616.284,3.981,3.981,0,0,0,.795.075h.758v-7.537H593.6v1.325h-.626v7.538Z" transform="translate(-581.143 -1113.724)" fill="#888f96"/>
              <path id="Path_16027" data-name="Path 16027" d="M604.381,1159.573h1.326v6.353h1.212v1.326h-2.538Z" transform="translate(-590.691 -1113.724)" fill="#888f96"/>
              <path id="Path_16028" data-name="Path 16028" d="M609.9,1166.183h1.269a2.373,2.373,0,0,1-.332-.605,2.125,2.125,0,0,1-.123-.739,2.592,2.592,0,0,1,.232-1.119,2.414,2.414,0,0,1,.649-.838,2.9,2.9,0,0,1,1-.526,4.452,4.452,0,0,1,1.3-.179h1.563v4.006h.872v1.325H609.9Zm3.106-4.986a.856.856,0,0,1-1.041,0,.609.609,0,0,1-.218-.506.616.616,0,0,1,.212-.488.843.843,0,0,1,1.052,0,.679.679,0,0,1-.006.994m-.966,3.642a1.533,1.533,0,0,0,.195.775,1.7,1.7,0,0,0,.526.569h1.372V1163.5h-.558a1.959,1.959,0,0,0-.563.085,1.48,1.48,0,0,0-.492.255,1.36,1.36,0,0,0-.347.423,1.2,1.2,0,0,0-.132.573m3.021-3.642a.857.857,0,0,1-1.041,0,.61.61,0,0,1-.218-.506.616.616,0,0,1,.213-.488.778.778,0,0,1,.526-.184.77.77,0,0,1,.53.184.62.62,0,0,1,.209.488.61.61,0,0,1-.218.506" transform="translate(-593.862 -1113.979)" fill="#888f96"/>
              <path id="Path_16029" data-name="Path 16029" d="M624.565,1166.106h1.174V1162.1h1.325v4.007h1.014v1.325h-3.513Zm2.343-4.991a.912.912,0,0,1-1.088,0,.63.63,0,0,1-.233-.531.642.642,0,0,1,.224-.506.885.885,0,0,1,1.108,0,.641.641,0,0,1,.222.506.63.63,0,0,1-.233.531" transform="translate(-602.286 -1113.902)" fill="#888f96"/>
              <path id="Path_16030" data-name="Path 16030" d="M632.4,1165.928h.929v-6.353h1.94v1.324h-.615v6.355H632.4Z" transform="translate(-606.784 -1113.724)" fill="#888f96"/>
              <rect id="Rectangle_702" data-name="Rectangle 702" width="1.326" height="7.68" transform="translate(29.714 45.849)" fill="#888f96"/>
              <path id="Path_16031" data-name="Path 16031" d="M650.476,1172.506a2.855,2.855,0,0,1-.37-.024,1.928,1.928,0,0,1-.3-.062l-.094-1.325a3.022,3.022,0,0,0,.331.066,2.237,2.237,0,0,0,.294.018.639.639,0,0,0,.554-.217,1.247,1.247,0,0,0,.156-.709v-5.162h1.326v4.006h1.023v1.326h-1.032a2.535,2.535,0,0,1-.5,1.59,1.771,1.771,0,0,1-1.383.494" transform="translate(-616.729 -1116.893)" fill="#888f96"/>
              <path id="Path_16032" data-name="Path 16032" d="M657.921,1169.1H659.1v-4.006h1.325v4.006h1.014v1.326h-3.513Zm2.382,3.163a.913.913,0,0,1-1.089,0,.628.628,0,0,1-.233-.531.639.639,0,0,1,.223-.5.885.885,0,0,1,1.108,0,.639.639,0,0,1,.222.5.63.63,0,0,1-.231.531" transform="translate(-621.447 -1116.893)" fill="#888f96"/>
              <path id="Path_16033" data-name="Path 16033" d="M665.752,1168.855h1.033a4.6,4.6,0,0,1-.279-.729,2.948,2.948,0,0,1-.119-.852,2.549,2.549,0,0,1,.265-1.193,2.674,2.674,0,0,1,.682-.854,2.3,2.3,0,0,1,.772-.416,3.086,3.086,0,0,1,.951-.141,3.614,3.614,0,0,1,1.009.137,5.328,5.328,0,0,1,.961.383l-.445,1.2a3.709,3.709,0,0,0-.667-.288,2.274,2.274,0,0,0-.7-.118,1.546,1.546,0,0,0-1.034.322,1.237,1.237,0,0,0-.359.487,1.614,1.614,0,0,0-.1.583,2.394,2.394,0,0,0,.132.819,2.31,2.31,0,0,0,.369.658h3v1.326h-5.474Z" transform="translate(-625.945 -1116.651)" fill="#888f96"/>
              <path id="Path_16034" data-name="Path 16034" d="M683.334,1172.031a4.429,4.429,0,0,1-.554-1.094,4.153,4.153,0,0,1-.2-1.358,4.845,4.845,0,0,1,.086-.958h1.4l-1.173-3.012c.226-.195.456-.375.686-.54a5.529,5.529,0,0,1,.7-.426,3.736,3.736,0,0,1,.733-.279,3.064,3.064,0,0,1,.786-.1,3.274,3.274,0,0,1,1.545.379,6.619,6.619,0,0,1,1.372.975l-1.137,3h1.733v1.326h-5.388v.143a2.47,2.47,0,0,0,.1.7,3.6,3.6,0,0,0,.342.757Zm2.462-6.365a2.086,2.086,0,0,0-.728.123,2.867,2.867,0,0,0-.692.388l.862,2.444h1.137l.861-2.453a3.266,3.266,0,0,0-.715-.388,2.117,2.117,0,0,0-.725-.114" transform="translate(-635.61 -1116.419)" fill="#888f96"/>
              <path id="Path_16035" data-name="Path 16035" d="M697.952,1166.106h1.269a2.378,2.378,0,0,1-.332-.606,2.124,2.124,0,0,1-.124-.74,2.591,2.591,0,0,1,.233-1.118,2.4,2.4,0,0,1,.649-.838,2.908,2.908,0,0,1,1-.526,4.439,4.439,0,0,1,1.3-.18h1.563v5.332h-5.559Zm2.14-1.345a1.537,1.537,0,0,0,.194.776,1.7,1.7,0,0,0,.526.569h1.373v-2.681h-.558a1.919,1.919,0,0,0-.563.085,1.485,1.485,0,0,0-.492.255,1.336,1.336,0,0,0-.346.423,1.191,1.191,0,0,0-.133.572m2-3.645a.912.912,0,0,1-1.088,0,.63.63,0,0,1-.233-.531.64.64,0,0,1,.223-.506.884.884,0,0,1,1.107,0,.64.64,0,0,1,.223.506.633.633,0,0,1-.233.531" transform="translate(-644.442 -1113.902)" fill="#888f96"/>
              <path id="Path_16036" data-name="Path 16036" d="M711.906,1169.1h3.3v-1.449a1.847,1.847,0,0,0-.06-.5,1.063,1.063,0,0,0-.195-.375.888.888,0,0,0-.336-.26,1.084,1.084,0,0,0-.469-.1h-.568v-1.325h.436a3.492,3.492,0,0,1,1.126.165,2.077,2.077,0,0,1,.842.545,1.8,1.8,0,0,1,.426.819,4.526,4.526,0,0,1,.124,1.084v1.392h1.022v1.326h-5.654Z" transform="translate(-652.457 -1116.893)" fill="#888f96"/>
              <path id="Path_16037" data-name="Path 16037" d="M724.769,1165.928h.928v-6.353h1.94v1.324h-.615v6.355h-2.253Z" transform="translate(-659.847 -1113.724)" fill="#888f96"/>
              <rect id="Rectangle_703" data-name="Rectangle 703" width="1.326" height="7.68" transform="translate(69.023 45.849)" fill="#888f96"/>
              <path id="Path_16038" data-name="Path 16038" d="M748.264,1165.682v1.326h-2.387a5.036,5.036,0,0,1-1.3-.16,2.92,2.92,0,0,1-1.021-.492,2.3,2.3,0,0,1-.674-.835,2.687,2.687,0,0,1-.241-1.173,2.582,2.582,0,0,1,.218-1.066,2.34,2.34,0,0,1,.634-.841,3.084,3.084,0,0,1,1.018-.561,4.28,4.28,0,0,1,1.368-.2h.189v-.472h1.326v4.478Zm-3.2-5.355a.864.864,0,0,1-1.042,0,.682.682,0,0,1,0-.994.838.838,0,0,1,1.051,0,.68.68,0,0,1,0,.994m1,5.355V1163h-.511a1.912,1.912,0,0,0-.577.09,1.655,1.655,0,0,0-.512.261,1.314,1.314,0,0,0-.365.42,1.184,1.184,0,0,0-.137.574,1.243,1.243,0,0,0,.128.577,1.272,1.272,0,0,0,.342.417,1.418,1.418,0,0,0,.487.255,1.891,1.891,0,0,0,.569.086Zm1.052-5.355a.864.864,0,0,1-1.043,0,.68.68,0,0,1,0-.994.845.845,0,0,1,1.056,0,.686.686,0,0,1-.009.994" transform="translate(-670.111 -1113.479)" fill="#888f96"/>
              <path id="Path_16039" data-name="Path 16039" d="M755.431,1169.774h.919a1.825,1.825,0,0,1-.052-.293c-.009-.1-.015-.207-.015-.312a2.868,2.868,0,0,1,.223-1.132,2.967,2.967,0,0,1,.606-.919,2.856,2.856,0,0,1,.9-.62,2.692,2.692,0,0,1,1.1-.227,2.839,2.839,0,0,1,1.123.222,2.883,2.883,0,0,1,.919.611,2.821,2.821,0,0,1,.615.919,2.949,2.949,0,0,1,.222,1.147,2.69,2.69,0,0,1-.232,1.121,2.831,2.831,0,0,1-.629.9,2.981,2.981,0,0,1-.919.6,2.81,2.81,0,0,1-1.1.218,2.7,2.7,0,0,1-1.137-.242,2.984,2.984,0,0,1-.927-.657h-1.62Zm3.087.781a1.481,1.481,0,0,0,.6.119,1.623,1.623,0,0,0,.606-.114,1.542,1.542,0,0,0,.5-.318,1.429,1.429,0,0,0,.33-.483,1.522,1.522,0,0,0,.12-.611,1.634,1.634,0,0,0-.114-.616,1.429,1.429,0,0,0-.321-.491,1.526,1.526,0,0,0-.492-.328,1.617,1.617,0,0,0-.626-.117,1.461,1.461,0,0,0-1.079.454,1.534,1.534,0,0,0-.313.492,1.623,1.623,0,0,0-.113.606,1.576,1.576,0,0,0,.113.6,1.45,1.45,0,0,0,.318.483,1.5,1.5,0,0,0,.477.322" transform="translate(-677.46 -1117.57)" fill="#888f96"/>
              <path id="Path_16040" data-name="Path 16040" d="M771.565,1169.1h3.3v-1.449a1.849,1.849,0,0,0-.06-.5,1.066,1.066,0,0,0-.195-.375.89.89,0,0,0-.336-.26,1.084,1.084,0,0,0-.469-.1h-.568v-1.325h.436a3.491,3.491,0,0,1,1.126.165,2.076,2.076,0,0,1,.842.545,1.8,1.8,0,0,1,.426.819,4.526,4.526,0,0,1,.124,1.084v1.392h1.022v1.326h-5.654Z" transform="translate(-686.728 -1116.893)" fill="#888f96"/>
              <path id="Path_16041" data-name="Path 16041" d="M784.427,1165.874h3.93a5.645,5.645,0,0,0,.119-.682,5.994,5.994,0,0,0,.043-.673,1.906,1.906,0,0,0-.109-.612,1.253,1.253,0,0,0-.355-.534,1.631,1.631,0,0,0-1.119-.36,2.549,2.549,0,0,0-.69.09,2.68,2.68,0,0,0-.682.327l-.549-1.155a4.939,4.939,0,0,1,.975-.426,3.672,3.672,0,0,1,1.109-.16,2.874,2.874,0,0,1,1.065.188,2.305,2.305,0,0,1,.818.54,2.92,2.92,0,0,1,.616.933,3.205,3.205,0,0,1,.237,1.273,5.863,5.863,0,0,1-.047.748c-.031.247-.069.483-.113.711s-.093.435-.147.625-.1.353-.148.491h-4.953Zm3.045-5.162a.909.909,0,0,1-1.089,0,.63.63,0,0,1-.232-.53.642.642,0,0,1,.223-.506.885.885,0,0,1,1.109,0,.641.641,0,0,1,.222.506.628.628,0,0,1-.231.53" transform="translate(-694.116 -1113.671)" fill="#888f96"/>
              <path id="Path_16042" data-name="Path 16042" d="M578.083,1080.069a2.936,2.936,0,1,1-.394-1.466,2.886,2.886,0,0,1,.394,1.466m-.569,0a2.368,2.368,0,1,0-.693,1.674,2.283,2.283,0,0,0,.693-1.674m-3.7-1.569h1.4a1.268,1.268,0,0,1,.862.241.822.822,0,0,1,.268.643.8.8,0,0,1-.2.547,1.207,1.207,0,0,1-.643.334.863.863,0,0,1,.266.147,1.478,1.478,0,0,1,.249.317c.005.011.175.313.508.908H575.6a7.212,7.212,0,0,0-.6-1.071.426.426,0,0,0-.307-.175.482.482,0,0,0-.1.011v1.234h-.781Zm.781,1.33h.337a.8.8,0,0,0,.478-.109.352.352,0,0,0,.138-.283.356.356,0,0,0-.133-.284.722.722,0,0,0-.452-.108H574.6Z" transform="translate(-572.213 -1066.369)" fill="#888f96"/>
              <path id="Path_16043" data-name="Path 16043" d="M820.616,1108.4l-17.1-15.779a3.475,3.475,0,0,1,.266-5.049l36.677-34.654c1.684-1.389,3.632-1.536,5.047.085l1.51,2.218,1.6-1.24a3.189,3.189,0,0,1,4.425.506l2.13,3.482c.707,1.416.881,2.659-.266,3.46l-2.926,2.21,7.507,10.549c.833,1.629,0,2.276-.683,3.018l2.211,2.919c1.474,1.776.14,2.791-.949,3.592l-1.616,1.109c1.857,2.333,1.037,4.758-1.335,5.938l-30.735,18.082a4.313,4.313,0,0,1-5.762-.445" transform="translate(-704.532 -1051.834)" fill="#fff" fill-rule="evenodd"/>
              <path id="Path_16044" data-name="Path 16044" d="M888.122,1063.021q.8,1.719,1.575,3.469a147.488,147.488,0,0,1,7.718,21.213l7.969-6.8a2.073,2.073,0,0,0,.1-2.813L892.4,1059.227a1.924,1.924,0,0,0-2.821-.1l-2.883,2.662a2.112,2.112,0,0,1,1.425,1.232" transform="translate(-752.864 -1055.7)" fill="#e8933f"/>
              <path id="Path_16045" data-name="Path 16045" d="M825.6,1112.469c1.354-1.355,1.293-2.266.8-3.133a98.52,98.52,0,0,1-4.968-8.843,1.219,1.219,0,0,1,1.789-1.564c2.516,1.533,7.7,5.393,9.581,6.714,1.029.607,1.734-.281,1.295-1.109a94.946,94.946,0,0,1-6.2-14.108c-1.029-2.534,2.262-5.077,4.34-3.981,4.023,2.316,7.607,4.432,11.729,6.884.835.53,1.77-.273,1.28-1.278a133.891,133.891,0,0,0-6.089-12.778q-.8-1.5-1.624-2.984a3.219,3.219,0,0,1-.443-1.792L807.7,1101.635a1.94,1.94,0,0,0-.1,2.813l13.326,12.238c1.569-1.388,3.133-2.673,4.676-4.216" transform="translate(-707.108 -1064.852)" fill="#e8933f"/>
              <path id="Path_16046" data-name="Path 16046" d="M856.373,1116.894c-1.562-.9-2.968.18-2.486,2.122,1.086,3.881,3.356,8.023,4.153,11.345.613,2.276-1.445,3.653-3.018,2.8a29.89,29.89,0,0,1-6.664-4.772c-1.2-1.107-1.8-.662-1.111.789l2.308,4.455c.556,1.353-.288,2.612-2.131,4.253-1.392,1.24-2.741,2.51-4.068,3.872l.939.827a2.115,2.115,0,0,0,2.816.113l22.088-18.84c-4.056-1.589-8.329-5-12.825-6.964" transform="translate(-727.967 -1089.023)" fill="#e8933f"/>
              <path id="Path_16047" data-name="Path 16047" d="M886,1128.506l-31.059,22.749,31.451-18.2a1.93,1.93,0,0,0,.741-3Z" transform="translate(-734.62 -1095.877)" fill="#e8933f"/>
              <path id="Path_16048" data-name="Path 16048" d="M826.645,1118.4c1.289-1.385,1.265-2.39.77-3.258a100.266,100.266,0,0,1-4.992-8.924,1.261,1.261,0,0,1,1.843-1.6c2.289,1.457,6.545,4.566,9.691,6.866.9.577,1.582-.261,1.173-1.09a117.327,117.327,0,0,1-6.218-14.286c-1.029-2.535,2.473-4.96,4.323-3.938,3.891,2.246,7.93,4.606,11.725,6.886.836.531,1.772-.273,1.284-1.278a135.018,135.018,0,0,0-6.11-12.761c-10.174,7.673-20.388,15.079-30.45,23.135a1.909,1.909,0,0,0-.1,2.812l12.477,11.768c1.569-1.479,3.167-2.8,4.585-4.328" transform="translate(-708.24 -1070.892)" fill="#eeb037"/>
              <path id="Path_16049" data-name="Path 16049" d="M881.418,1085.209,871.4,1070.474a.749.749,0,0,1,.147-1.013l4.174-3.25c.425-.26.661-.751.117-1.473l-2.069-2.971a1.076,1.076,0,0,0-1.522-.46q-4.047,3.231-8.13,6.347a147.077,147.077,0,0,1,7.774,21.424,2.214,2.214,0,0,1-2.908,2.8c-4.122-2.158-9.073-4.9-13.3-7.144-1.672-.775-2.967.179-2.486,2.12,1.087,3.883,3.359,8.022,4.154,11.346.612,2.276-1.631,3.762-3.608,2.417-2.052-1.4-4.038-2.832-6.077-4.389-1.186-.906-1.8-.112-1.275.763l2.3,4.334c.657,1.267.629,2.382-1.727,4.547-1.6,1.47-2.962,2.771-4.565,4.242l2.539,2.394a2.142,2.142,0,0,0,2.81.1l33.56-24.578c.879-.647.709-1.909.1-2.823" transform="translate(-727.424 -1057.181)" fill="#eeb037"/>
            </g>
          </g>
        </g>
      </g>
    </g>
  </g>
</svg>
