<svg xmlns="http://www.w3.org/2000/svg" width="129" height="125" viewBox="0 0 129 125">
  <g id="Group_2509" data-name="Group 2509" transform="translate(-60 -4765)">
    <rect id="Rectangle_542" data-name="Rectangle 542" width="129" height="125" transform="translate(60 4765)" fill="none"/>
    <g id="Group_2508" data-name="Group 2508" transform="translate(87 4781)">
      <path id="Path_15118" data-name="Path 15118" d="M1658.229,835.147l36.766-21.221a1.27,1.27,0,0,1,1.247.124l32.914,19.007a3.628,3.628,0,0,1,1.247,1.325L1693.636,855.6a3.963,3.963,0,0,0-1.189-1.325l-32.971-19.006A1.242,1.242,0,0,0,1658.229,835.147Z" transform="translate(-1657.039 -778.256)" fill="#f2f5fc" fill-rule="evenodd"/>
      <path id="Path_15119" data-name="Path 15119" d="M1728.7,833.474l-35.577,20.548a4.484,4.484,0,0,0-1.076-1l-32.687-18.865,35.237-20.343c.113-.051.227-.062.623.142l32.858,18.984a2.989,2.989,0,0,1,.623.538Zm-35.8,22.1a.755.755,0,0,0,.34-.092L1730,834.267a.7.7,0,0,0,.339-.413.836.836,0,0,0-.113-.516,3.8,3.8,0,0,0-1.473-1.535l-32.914-19.023a1.947,1.947,0,0,0-1.87-.147l-36.823,21.244a.674.674,0,0,0-.227.884.639.639,0,0,0,.851.295c.17-.085.283-.09.679.108l32.914,18.995a2.59,2.59,0,0,1,.963,1.1A.721.721,0,0,0,1692.893,855.574Z" transform="translate(-1656.297 -777.563)" fill="#005bea" fill-rule="evenodd"/>
      <path id="Path_15120" data-name="Path 15120" d="M1732.192,858.424a1.191,1.191,0,0,1,.51-1.144,1.219,1.219,0,0,1,1.246.119l32.971,19.006a3.476,3.476,0,0,1,1.189,1.325v.006a3.508,3.508,0,0,1,.567,1.75v11.245a1.235,1.235,0,0,1-.567,1.15,1.126,1.126,0,0,1-1.189-.124l-32.971-19a3.974,3.974,0,0,1-1.756-3.081Z" transform="translate(-1731.512 -800.388)" fill="#fff" fill-rule="evenodd"/>
      <path id="Path_15121" data-name="Path 15121" d="M1732.447,857.128a.91.91,0,0,1,.453.153l32.971,19.006a2.714,2.714,0,0,1,.963,1.082,2.953,2.953,0,0,1,.454,1.422v11.245c0,.289-.057.5-.17.572s-.283.051-.623-.119l-32.915-19.006a3.374,3.374,0,0,1-1.416-2.5V857.729c0-.34.056-.515.17-.567.056-.022.056-.034.114-.034Zm34.5,34.846a1.562,1.562,0,0,0,.793-.209,1.9,1.9,0,0,0,.907-1.728V878.791a4.27,4.27,0,0,0-.623-2.085,4.443,4.443,0,0,0-1.529-1.575l-32.915-19.006a1.9,1.9,0,0,0-1.926-.119,1.963,1.963,0,0,0-.85,1.722V868.98a4.564,4.564,0,0,0,2.1,3.654l32.971,19.007A2.04,2.04,0,0,0,1766.947,891.974Z" transform="translate(-1730.804 -799.693)" fill="#005bea" fill-rule="evenodd"/>
      <path id="Path_15123" data-name="Path 15123" d="M1657.187,877.058l36.767-21.216v.006a3.213,3.213,0,0,1,.51,1.751v11.245a1.158,1.158,0,0,1-.51,1.15l-36.767,21.216a1.319,1.319,0,0,0,.567-1.15V878.814a3.856,3.856,0,0,0-.567-1.75Z" transform="translate(-1620.591 -799.716)" fill="#f2f5fc" fill-rule="evenodd"/>
      <path id="Path_15124" data-name="Path 15124" d="M1692.927,856.089a3.875,3.875,0,0,1,.17.844V868.15c-.057.407-.114.493-.284.6l-35.123,20.31v-10.94a5.259,5.259,0,0,0-.34-1.489l35.577-20.542Zm-36.483,35.089a.683.683,0,0,0,.34-.085l36.767-21.216a1.828,1.828,0,0,0,.85-1.7V856.905a4.021,4.021,0,0,0-.567-2.074.719.719,0,0,0-.453-.323.675.675,0,0,0-.51.062l-36.71,21.216a.656.656,0,0,0-.283.895,3.1,3.1,0,0,1,.454,1.468v11.216c0,.414-.114.493-.227.6a.716.716,0,0,0-.227.906A.816.816,0,0,0,1656.444,891.178Z" transform="translate(-1619.848 -799.022)" fill="#005bea" fill-rule="evenodd"/>
      <path id="Path_15126" data-name="Path 15126" d="M1658.229,799.849l36.766-21.21a1.241,1.241,0,0,1,1.247.119l32.914,19.006a3.593,3.593,0,0,1,1.247,1.326L1693.636,820.3a3.963,3.963,0,0,0-1.189-1.325l-32.971-19.006A1.256,1.256,0,0,0,1658.229,799.849Z" transform="translate(-1657.039 -760.236)" fill="#f2f5fc" fill-rule="evenodd"/>
      <path id="Path_15127" data-name="Path 15127" d="M1728.7,798.18l-35.577,20.547a4.488,4.488,0,0,0-1.076-1l-32.687-18.87,35.237-20.338c.113-.051.227-.062.623.135l32.858,18.989a3.015,3.015,0,0,1,.623.539Zm-35.8,22.1a.7.7,0,0,0,.34-.091L1730,798.972a.718.718,0,0,0,.339-.414.837.837,0,0,0-.113-.515,3.839,3.839,0,0,0-1.473-1.535l-32.914-19.023a1.933,1.933,0,0,0-1.87-.147l-36.823,21.238a.682.682,0,0,0-.227.889.65.65,0,0,0,.851.295c.17-.079.283-.091.679.114l32.914,18.99a2.618,2.618,0,0,1,.963,1.1A.722.722,0,0,0,1692.893,820.279Z" transform="translate(-1656.297 -759.541)" fill="#005bea" fill-rule="evenodd"/>
      <path id="Path_15128" data-name="Path 15128" d="M1732.192,823.137a1.218,1.218,0,0,1,.51-1.156,1.233,1.233,0,0,1,1.246.124l32.971,19.006a3.48,3.48,0,0,1,1.189,1.325h0a3.543,3.543,0,0,1,.567,1.756v11.245a1.236,1.236,0,0,1-.567,1.15,1.125,1.125,0,0,1-1.189-.12l-32.971-19.012a4.083,4.083,0,0,1-1.246-1.326h0a3.422,3.422,0,0,1-.51-1.75Z" transform="translate(-1731.512 -782.368)" fill="#fff" fill-rule="evenodd"/>
      <path id="Path_15129" data-name="Path 15129" d="M1732.447,821.835a.862.862,0,0,1,.453.153l32.971,19.007a2.707,2.707,0,0,1,.963,1.082,2.933,2.933,0,0,1,.454,1.422v11.245c0,.289-.057.5-.17.572s-.283.052-.623-.119l-32.915-19.006a3.438,3.438,0,0,1-1.02-1.082,2.831,2.831,0,0,1-.4-1.422V822.441c0-.289.056-.51.17-.578.056-.017.056-.028.114-.028Zm34.5,34.846a1.56,1.56,0,0,0,.793-.21,1.892,1.892,0,0,0,.907-1.728V843.5a4.311,4.311,0,0,0-.623-2.091,4.47,4.47,0,0,0-1.529-1.569l-32.915-19.006a1.914,1.914,0,0,0-1.926-.125,1.984,1.984,0,0,0-.85,1.734v11.245a4.711,4.711,0,0,0,2.1,3.654l32.971,19.006A2.041,2.041,0,0,0,1766.947,856.681Z" transform="translate(-1730.804 -781.672)" fill="#005bea" fill-rule="evenodd"/>
      <path id="Path_15131" data-name="Path 15131" d="M1657.187,841.767l36.767-21.216h0a3.242,3.242,0,0,1,.51,1.751v11.25a1.159,1.159,0,0,1-.51,1.15l-36.767,21.216a1.32,1.32,0,0,0,.567-1.15V843.523a3.9,3.9,0,0,0-.567-1.756Z" transform="translate(-1620.591 -781.697)" fill="#f2f5fc" fill-rule="evenodd"/>
      <path id="Path_15132" data-name="Path 15132" d="M1692.927,820.8a3.867,3.867,0,0,1,.17.844v11.217c-.057.414-.114.493-.284.6l-35.123,20.31V842.828a5.312,5.312,0,0,0-.34-1.49l35.577-20.541Zm-36.483,35.095a.7.7,0,0,0,.34-.091l36.767-21.216a1.829,1.829,0,0,0,.85-1.7V821.606a4,4,0,0,0-.567-2.068.7.7,0,0,0-.453-.323.631.631,0,0,0-.51.068l-36.71,21.21a.656.656,0,0,0-.283.9,3.1,3.1,0,0,1,.454,1.467v11.217a.655.655,0,0,1-.227.606.7.7,0,0,0-.227.9A.826.826,0,0,0,1656.444,855.891Z" transform="translate(-1619.848 -781.002)" fill="#005bea" fill-rule="evenodd"/>
      <path id="Path_15134" data-name="Path 15134" d="M1658.229,763.857l36.766-21.222a1.27,1.27,0,0,1,1.247.125l32.914,19.006a3.625,3.625,0,0,1,1.247,1.326l-36.767,21.215a3.963,3.963,0,0,0-1.189-1.325l-32.971-19.007A1.242,1.242,0,0,0,1658.229,763.857Z" transform="translate(-1657.039 -741.857)" fill="#fff" fill-rule="evenodd"/>
      <path id="Path_15135" data-name="Path 15135" d="M1728.7,762.185l-35.577,20.547a4.494,4.494,0,0,0-1.076-1l-32.687-18.864,35.237-20.344c.113-.05.227-.062.623.142l32.858,18.983a3.024,3.024,0,0,1,.623.538Zm-35.8,22.1a.7.7,0,0,0,.34-.091L1730,762.978a.7.7,0,0,0,.339-.414.811.811,0,0,0-.113-.51,3.821,3.821,0,0,0-1.473-1.541L1695.84,741.5a1.918,1.918,0,0,0-1.87-.148l-36.823,21.239a.674.674,0,0,0-.227.883.655.655,0,0,0,.851.295c.17-.079.283-.091.679.108l32.914,19a2.654,2.654,0,0,1,.963,1.1A.721.721,0,0,0,1692.893,784.284Z" transform="translate(-1656.297 -741.164)" fill="#005bea" fill-rule="evenodd"/>
      <path id="Path_15136" data-name="Path 15136" d="M1732.192,787.142a1.2,1.2,0,0,1,.51-1.15,1.233,1.233,0,0,1,1.246.118l32.971,19.007a3.48,3.48,0,0,1,1.189,1.325v.006a3.507,3.507,0,0,1,.567,1.75v11.245a1.234,1.234,0,0,1-.567,1.15,1.137,1.137,0,0,1-1.189-.119l-32.971-19.006a4.121,4.121,0,0,1-1.246-1.331h0a3.425,3.425,0,0,1-.51-1.751Z" transform="translate(-1731.512 -763.991)" fill="#fff" fill-rule="evenodd"/>
      <path id="Path_15137" data-name="Path 15137" d="M1732.447,785.841a.853.853,0,0,1,.453.153L1765.87,805a2.747,2.747,0,0,1,.963,1.082,2.948,2.948,0,0,1,.454,1.422v11.245a.8.8,0,0,1-.17.572c-.113.051-.283.051-.623-.119L1733.579,800.2a3.376,3.376,0,0,1-1.02-1.082,2.846,2.846,0,0,1-.4-1.422V786.447c0-.346.056-.522.17-.572.056-.023.056-.034.114-.034Zm34.5,34.846a1.563,1.563,0,0,0,.793-.21,1.892,1.892,0,0,0,.907-1.728V807.5a4.273,4.273,0,0,0-.623-2.085,4.494,4.494,0,0,0-1.529-1.574l-32.915-19.006a1.913,1.913,0,0,0-1.926-.119,1.973,1.973,0,0,0-.85,1.728v11.245a4.71,4.71,0,0,0,2.1,3.654l32.971,19.006A2.043,2.043,0,0,0,1766.947,820.687Z" transform="translate(-1730.804 -763.296)" fill="#005bea" fill-rule="evenodd"/>
      <path id="Path_15139" data-name="Path 15139" d="M1657.187,805.769l36.767-21.215v0a3.214,3.214,0,0,1,.51,1.751v11.245a1.16,1.16,0,0,1-.51,1.151l-36.767,21.215a1.318,1.318,0,0,0,.567-1.15V807.526a3.876,3.876,0,0,0-.567-1.751Z" transform="translate(-1620.591 -763.318)" fill="#f2f5fc" fill-rule="evenodd"/>
      <path id="Path_15140" data-name="Path 15140" d="M1692.927,784.8a3.863,3.863,0,0,1,.17.844V796.86c-.057.408-.114.493-.284.6l-35.123,20.31V806.831a5.31,5.31,0,0,0-.34-1.49l35.577-20.541Zm-36.483,35.095a.7.7,0,0,0,.34-.091l36.767-21.216a1.828,1.828,0,0,0,.85-1.7V785.615a4.019,4.019,0,0,0-.567-2.073.72.72,0,0,0-.453-.323.651.651,0,0,0-.51.068l-36.71,21.216a.649.649,0,0,0-.283.89,3.1,3.1,0,0,1,.454,1.467v11.217a.655.655,0,0,1-.227.606.706.706,0,0,0-.227.9A.825.825,0,0,0,1656.444,819.894Z" transform="translate(-1619.848 -762.623)" fill="#005bea" fill-rule="evenodd"/>
      <path id="Path_15141" data-name="Path 15141" d="M1787.105,807.625Zm.68,3.948a.7.7,0,0,0,.34-.09.753.753,0,0,0,.34-.572v-3.671a.744.744,0,0,0-.34-.572l-3.229-1.835a.587.587,0,0,0-.624,0,.634.634,0,0,0-.339.578v3.665a.634.634,0,0,0,.339.578l3.173,1.83A.7.7,0,0,0,1787.785,811.573Z" transform="translate(-1778.891 -774.626)" fill="#3199f0" fill-rule="evenodd"/>
      <path id="Path_15145" data-name="Path 15145" d="M1787.105,807.625Zm.68,3.948a.7.7,0,0,0,.34-.09.753.753,0,0,0,.34-.572v-3.671a.744.744,0,0,0-.34-.572l-3.229-1.835a.587.587,0,0,0-.624,0,.634.634,0,0,0-.339.578v3.665a.634.634,0,0,0,.339.578l3.173,1.83A.7.7,0,0,0,1787.785,811.573Z" transform="translate(-1778.891 -757.626)" fill="#3199f0" fill-rule="evenodd"/>
      <path id="Path_15146" data-name="Path 15146" d="M1787.105,807.625Zm.68,3.948a.7.7,0,0,0,.34-.09.753.753,0,0,0,.34-.572v-3.671a.744.744,0,0,0-.34-.572l-3.229-1.835a.587.587,0,0,0-.624,0,.634.634,0,0,0-.339.578v3.665a.634.634,0,0,0,.339.578l3.173,1.83A.7.7,0,0,0,1787.785,811.573Z" transform="translate(-1778.891 -740.626)" fill="#3199f0" fill-rule="evenodd"/>
      <path id="Path_15142" data-name="Path 15142" d="M1757.943,827.217a.639.639,0,0,0,.567-.334.7.7,0,0,0-.227-.906l-19.828-11.443a.67.67,0,0,0-.906.243.71.71,0,0,0,.227.912l19.828,11.438A.7.7,0,0,0,1757.943,827.217Z" transform="translate(-1724.01 -778.58)" fill="#1b69ff" fill-rule="evenodd"/>
      <path id="Path_15143" data-name="Path 15143" d="M1757.943,863.217a.639.639,0,0,0,.567-.334.7.7,0,0,0-.227-.906l-19.828-11.437a.663.663,0,0,0-.906.238.71.71,0,0,0,.227.912l19.828,11.437A.7.7,0,0,0,1757.943,863.217Z" transform="translate(-1724.01 -796.961)" fill="#005bea" fill-rule="evenodd"/>
      <path id="Path_15144" data-name="Path 15144" d="M1757.943,898.508a.639.639,0,0,0,.567-.334.7.7,0,0,0-.227-.907l-19.828-11.443a.667.667,0,0,0-.906.25.7.7,0,0,0,.227.906l19.828,11.438A.694.694,0,0,0,1757.943,898.508Z" transform="translate(-1724.01 -814.979)" fill="#005bea" fill-rule="evenodd"/>
    </g>
  </g>
</svg>
