<svg xmlns="http://www.w3.org/2000/svg" width="129" height="125" viewBox="0 0 129 125">
  <g id="Group_2512" data-name="Group 2512" transform="translate(-96 -5143)">
    <rect id="Rectangle_543" data-name="Rectangle 543" width="129" height="125" transform="translate(96 5143)" fill="none"/>
    <g id="Group_2511" data-name="Group 2511" transform="translate(-152.474 3167.335)">
      <path id="Path_15290" data-name="Path 15290" d="M258.165,2050.094l44.623,25.763a7.546,7.546,0,0,1,2.218-2.112l63.229-36.5a.67.67,0,0,1,.083-.045l-43.84-25.31c-.43-.2-.777-.159-1.561.256l-63.161,36.463a5.6,5.6,0,0,0-1.591,1.486Zm44.9,27.836a.966.966,0,0,1-.445-.12L256.46,2051.15a.861.861,0,0,1-.415-.542.909.909,0,0,1,.1-.686,8.145,8.145,0,0,1,2.692-2.836l63.229-36.5a3.356,3.356,0,0,1,3.236-.264l46.231,26.689a.884.884,0,0,1,.347,1.177.911.911,0,0,1-1.169.391c-.5-.241-.837-.188-1.621.211l-63.161,36.471a6.028,6.028,0,0,0-1.885,1.893l-.22.355A.877.877,0,0,1,303.067,2077.93Z" transform="translate(-0.538 -8.765)" fill="#1b69ff" fill-rule="evenodd"/>
      <path id="Path_15291" data-name="Path 15291" d="M396.714,2054.706c0-2.172-1.531-3.063-3.409-1.977l-63.2,36.486a7.564,7.564,0,0,0-3.417,5.913v21.592c0,2.172,1.539,3.062,3.417,1.975l63.2-36.485a7.547,7.547,0,0,0,3.409-5.914Z" transform="translate(-25.164 -23.489)" fill="#f2f5fc" fill-rule="evenodd"/>
      <path id="Path_15292" data-name="Path 15292" d="M394.349,2052.681a2.239,2.239,0,0,0-1.07.346l-63.2,36.487a6.666,6.666,0,0,0-2.972,5.143v21.592a1.232,1.232,0,0,0,2.082,1.207l63.2-36.479a6.7,6.7,0,0,0,2.97-5.151v-21.591a1.6,1.6,0,0,0-.565-1.441.9.9,0,0,0-.446-.112Zm-66.238,66.894a2.691,2.691,0,0,1-1.335-.347,3.285,3.285,0,0,1-1.441-2.979v-21.592a8.4,8.4,0,0,1,3.854-6.674l63.2-36.487a2.952,2.952,0,0,1,4.743,2.739v21.591a8.432,8.432,0,0,1-3.853,6.683l-63.2,36.486A4.008,4.008,0,0,1,328.112,2119.575Z" transform="translate(-24.692 -23.018)" fill="#1b69ff" fill-rule="evenodd"/>
      <path id="Path_15293" data-name="Path 15293" d="M303.006,2098.635l-46.169-26.652a7.005,7.005,0,0,0-1,3.364v21.591a2.426,2.426,0,0,0,1,2.209l46.162,26.653a2.445,2.445,0,0,1-1-2.21V2102a7.054,7.054,0,0,1,1-3.356Z" transform="translate(-0.476 -30.359)" fill="#1b69ff" fill-rule="evenodd"/>
      <path id="Path_15294" data-name="Path 15294" d="M256.737,2072.755a5.666,5.666,0,0,0-.491,2.156v21.554c.038.852.166,1.169.627,1.478l43.771,25.272v-21.689a7.646,7.646,0,0,1,.717-3.017l-44.624-25.754Zm45.793,53.462a.956.956,0,0,1-.445-.121l-46.162-26.652a3.336,3.336,0,0,1-1.448-2.934v-21.637a7.921,7.921,0,0,1,1.109-3.778.881.881,0,0,1,.535-.437.9.9,0,0,1,.687.083l46.17,26.651a.9.9,0,0,1,.354,1.169h-.008a6.306,6.306,0,0,0-.905,3.01v21.545c.038.853.166,1.169.618,1.479a.889.889,0,0,1,.249,1.207A.9.9,0,0,1,302.529,2126.217Z" transform="translate(0 -29.886)" fill="#1b69ff" fill-rule="evenodd"/>
      <g id="Group_2438" data-name="Group 2438" transform="translate(298.242 1984.857)">
        <path id="Path_15295" data-name="Path 15295" d="M353.513,2039.976l-9.261-5.349.079.029.094.007.1-.022.107-.05,9.261,5.348-.108.05-.1.021-.093-.007Z" transform="translate(-329.526 -2002.187)" fill="#1b69ff" fill-rule="evenodd"/>
        <path id="Path_15296" data-name="Path 15296" d="M353.206,2040.4h-.015a1.951,1.951,0,0,1-.352-.058c-.042-.021-.158-.064-.194-.086l-9.26-5.349a.855.855,0,0,1-.352-1.091.845.845,0,0,1,.884-.474.881.881,0,0,1,.689.065l9.261,5.348a.825.825,0,0,1,.416.769.851.851,0,0,1-.488.732c-.057.021-.223.086-.28.1A2.223,2.223,0,0,1,353.206,2040.4Z" transform="translate(-329.075 -2001.739)" fill="#1b69ff" fill-rule="evenodd"/>
        <path id="Path_15297" data-name="Path 15297" d="M354.1,2038.477l-9.261-5.348,4.731-2.736,9.261,5.349Z" transform="translate(-329.729 -2000.724)" fill="#1b69ff" fill-rule="evenodd"/>
        <path id="Path_15298" data-name="Path 15298" d="M346.078,2032.678l7.566,4.372,3.043-1.759-7.574-4.373-3.036,1.759Zm7.566,6.188a.79.79,0,0,1-.416-.115l-9.268-5.342a.844.844,0,0,1,0-1.464l4.731-2.728a.817.817,0,0,1,.847,0l9.254,5.349a.816.816,0,0,1,.424.725.844.844,0,0,1-.416.731l-4.731,2.729A.816.816,0,0,1,353.644,2038.865Z" transform="translate(-329.276 -2000.273)" fill="#1b69ff" fill-rule="evenodd"/>
        <path id="Path_15299" data-name="Path 15299" d="M341.7,2063.382l-9.261-5.341-9.5-10.811,9.261,5.34Z" transform="translate(-322.101 -2006.591)" fill="#f2f5fc" fill-rule="evenodd"/>
        <path id="Path_15300" data-name="Path 15300" d="M332.528,2056.921l4.709,2.721-6.022-6.856-4.7-2.721,6.016,6.855Zm8.723,6.857a.792.792,0,0,1-.417-.115l-9.268-5.349a.793.793,0,0,1-.208-.172l-9.5-10.812a.842.842,0,0,1,1.055-1.286l9.261,5.349a.784.784,0,0,1,.216.172l9.491,10.812a.845.845,0,0,1-.632,1.4Z" transform="translate(-321.65 -2006.139)" fill="#1b69ff" fill-rule="evenodd"/>
        <path id="Path_15301" data-name="Path 15301" d="M332.2,2051.1l-9.261-5.341,4.752-2.742,9.254,5.348Z" transform="translate(-322.101 -2005.124)" fill="#f2f5fc" fill-rule="evenodd"/>
        <path id="Path_15302" data-name="Path 15302" d="M324.18,2045.313l7.574,4.372,3.058-1.766-7.567-4.372-3.065,1.767Zm7.574,6.188a.8.8,0,0,1-.417-.115l-9.26-5.342a.844.844,0,0,1,0-1.464l4.746-2.743a.855.855,0,0,1,.839,0l9.262,5.349a.839.839,0,0,1,.423.732.817.817,0,0,1-.423.725l-4.746,2.743A.8.8,0,0,1,331.754,2051.5Z" transform="translate(-321.651 -2004.673)" fill="#1b69ff" fill-rule="evenodd"/>
        <path id="Path_15303" data-name="Path 15303" d="M330.775,1988.279l.007-.259.037-.265.05-.273.072-.266.094-.273.107-.265.129-.266.137-.258,9.261,5.348-.136.251-.129.265-.108.272-.093.266-.065.273-.057.272-.036.266-.007.258v33.993l-.014.129-.028.136-.05.137-.065.129-.086.122-.086.108-.1.093-.115.08-9.254-5.349.1-.072.108-.1.086-.107.086-.123.065-.128.05-.137.028-.129.015-.137Z" transform="translate(-324.642 -1985.309)" fill="#f2f5fc" fill-rule="evenodd"/>
        <path id="Path_15304" data-name="Path 15304" d="M331.025,2022.495l7.71,4.458.2-35.062.179-.5-7.782-4.494-.172.947v33.979a2.368,2.368,0,0,1-.029.316c-.007.035-.05.2-.065.237a.652.652,0,0,1-.043.122Zm8.277,5.162.122.043-.108-.08-.014.037Zm-.323,1.257a.664.664,0,0,1-.359-.086l-9.26-5.341a.853.853,0,0,1-.424-.7.865.865,0,0,1,.359-.732l.74.251.022-.036-.574-.438-.007-34.007v-.036l.308-1.572.431-.919a.834.834,0,0,1,.51-.409.8.8,0,0,1,.646.079l9.269,5.349a.849.849,0,0,1,.323,1.134l-.538,1.76v33.957a2.322,2.322,0,0,1-.029.315c-.008.037-.05.209-.065.245s-.071.193-.085.223-.1.186-.122.215-.108.164-.129.194-.137.157-.158.18a1.557,1.557,0,0,1-.209.178A1.155,1.155,0,0,1,338.979,2028.913Z" transform="translate(-324.188 -1984.857)" fill="#1b69ff" fill-rule="evenodd"/>
        <path id="Path_15305" data-name="Path 15305" d="M342.447,2028.189V1994.2a4.37,4.37,0,0,1,.632-2.125,4.416,4.416,0,0,1,1.523-1.616l4.12-2.376a1.529,1.529,0,0,1,1.53-.15h0a1.524,1.524,0,0,1,.631,1.392v33.993c0,.345.237.488.539.316l4.731-2.735-9.5,21.773-9.5-10.812,4.745-2.735A1.185,1.185,0,0,0,342.447,2028.189Z" transform="translate(-327.053 -1985.877)" fill="#fff" fill-rule="evenodd"/>
        <path id="Path_15306" data-name="Path 15306" d="M342,2027.738h0Zm-3.977,3.891,7.948,9.038,7.933-18.206-2.505,1.443a1.163,1.163,0,0,1-1.809-1.041v-33.993c0-.395-.107-.6-.208-.667s-.337-.044-.682.158l-4.12,2.377a3.962,3.962,0,0,0-1.738,3.007v33.994a2.016,2.016,0,0,1-.962,1.658l-3.856,2.233Zm8.185,11.437a.855.855,0,0,1-.632-.288l-9.5-10.811a.872.872,0,0,1-.2-.7.841.841,0,0,1,.416-.588l4.746-2.742a.4.4,0,0,0,.115-.208v-33.986a5.63,5.63,0,0,1,2.577-4.466l4.121-2.382a2.148,2.148,0,0,1,3.432,1.973v33.153l4-2.3a.832.832,0,0,1,.984.092.851.851,0,0,1,.215.969l-9.5,21.775a.9.9,0,0,1-.775.51Z" transform="translate(-326.603 -1985.426)" fill="#1b69ff" fill-rule="evenodd"/>
        <path id="Path_15307" data-name="Path 15307" d="M23.964,1.517,14.181-4.191S9.908-1.978,7.718-.751,6.318.53,6.318.53l9.676,5.481,2.188-1.961Z" fill="#1b69ff"/>
      </g>
    </g>
  </g>
</svg>
