<svg xmlns="http://www.w3.org/2000/svg" xmlns:xlink="http://www.w3.org/1999/xlink" width="196.585" height="45.959" viewBox="0 0 196.585 45.959">
  <defs>
    <linearGradient id="linear-gradient" x1="0.495" y1="0.881" x2="0.501" y2="0.156" gradientUnits="objectBoundingBox">
      <stop offset="0" stop-color="#50b0df"/>
      <stop offset="0.22" stop-color="#50b0db"/>
      <stop offset="0.4" stop-color="#50b0d1"/>
      <stop offset="0.56" stop-color="#51b1c1"/>
      <stop offset="0.71" stop-color="#52b2a9"/>
      <stop offset="0.85" stop-color="#54b48b"/>
      <stop offset="0.98" stop-color="#55b566"/>
      <stop offset="1" stop-color="#56b662"/>
    </linearGradient>
    <linearGradient id="linear-gradient-2" x1="0.461" y1="0.922" x2="0.514" y2="0.078" gradientUnits="objectBoundingBox">
      <stop offset="0" stop-color="#2b357a"/>
      <stop offset="0.24" stop-color="#2a387a"/>
      <stop offset="0.44" stop-color="#27427d"/>
      <stop offset="0.61" stop-color="#235282"/>
      <stop offset="0.77" stop-color="#1d6a88"/>
      <stop offset="0.93" stop-color="#158890"/>
      <stop offset="1" stop-color="#119995"/>
    </linearGradient>
    <linearGradient id="linear-gradient-3" x1="6.126" y1="0.5" x2="-0.031" y2="0.5" xlink:href="#linear-gradient-2"/>
    <linearGradient id="linear-gradient-4" x1="3.604" y1="0.5" x2="-0.815" y2="0.5" xlink:href="#linear-gradient-2"/>
    <linearGradient id="linear-gradient-5" x1="2.605" y1="0.5" x2="-2.063" y2="0.5" xlink:href="#linear-gradient-2"/>
    <linearGradient id="linear-gradient-6" x1="1.382" y1="0.5" x2="-3.205" y2="0.5" xlink:href="#linear-gradient-2"/>
  </defs>
  <g id="Layer_1-2" transform="translate(0 -0.013)">
    <g id="Group_4" data-name="Group 4" transform="translate(0 0.013)">
      <g id="Group_1" data-name="Group 1" transform="translate(155.265)">
        <path id="Path_1" data-name="Path 1" d="M515.418,9.052l8.246,8.246a7.444,7.444,0,0,1,0,10.531l-8.121,8.121a5.408,5.408,0,0,0-.194,7.54,5.3,5.3,0,0,0,7.556.072l17.253-17.253h0a5.294,5.294,0,0,0,0-7.484L522.906,1.572a5.294,5.294,0,0,0-7.484,0h0a5.294,5.294,0,0,0,0,7.484Z" transform="translate(-500.389 -0.019)" fill="url(#linear-gradient)"/>
        <path id="Path_2" data-name="Path 2" d="M486.354,35.274l8.124-8.121a6.507,6.507,0,0,0,0-9.188l-8.246-8.246A6.2,6.2,0,0,1,484.4,5.305a6.284,6.284,0,0,1,.1-1.087l-2.657-2.657a5.292,5.292,0,0,0-7.484,7.484l9.625,9.625a5.5,5.5,0,0,1,0,7.77l-9.5,9.5a5.408,5.408,0,0,0-.194,7.54,5.3,5.3,0,0,0,7.556.072l2.683-2.683a6.479,6.479,0,0,1,1.826-5.6Z" transform="translate(-472.812 -0.013)" fill="url(#linear-gradient-2)"/>
      </g>
      <g id="Group_2" data-name="Group 2" transform="translate(28.814 13.023)">
        <path id="Path_3" data-name="Path 3" d="M324.2,40.541v-.722h-.667a2.447,2.447,0,0,0-1.074,0h-.726a3.278,3.278,0,0,0-1.09,0h-.575v.525a2.464,2.464,0,0,0-.115.985c.135,2.916.072,5.845.023,8.768a5.859,5.859,0,0,1-6.078,6.009c-2.381.036-4.758.02-7.139.007a58.9,58.9,0,0,1-6.036-.223c.135-2.322.092-3.717.049-5.652-.118-5.688-4.019-10-9.674-10.324-3.185-.184-6.387-.059-9.582-.125-2.184-.046-1.077,1.58-1.245,2.476s-.315,1.888,1.3,1.819c2.85-.125,5.711-.062,8.568-.02,3.957.059,6.394,2.571,6.43,6.564.01,1.225-.066,2.453.033,3.671.115,1.4-.348,1.882-1.809,1.852-4.351-.089-8.706.066-13.053-.062-2.075-.062-1.435,1.274-1.488,2.289-.056,1.054-.328,2.1,1.52,2.049,5.435-.135,10.879-.049,16.318-.049v.007c5.234,0,10.472.016,15.707,0a10.168,10.168,0,0,0,10.423-10.229c.053-2.923-.076-5.852.049-8.768a2.767,2.767,0,0,0-.076-.844Z" transform="translate(-216.959 -39.73)" fill="#293360"/>
        <path id="Path_4" data-name="Path 4" d="M178.884,39.957a10.269,10.269,0,0,0-10.3,10.137A10.163,10.163,0,0,0,178.6,60.508c1.7.036,3.4.007,5.1.007.617,0,1.136-.059,1.258.877a6.558,6.558,0,0,1-4.121,6.8c-2.745.926-6.121-.108-7.129-2.722-.785-2.036-1.98-2.128-3.691-2.092-1.205.026-1.5.282-1.2,1.517a10.276,10.276,0,0,0,20.271-2.223c-.007-2.039,0-4.079,0-6.121,0-2.108.007-4.216,0-6.325a10.248,10.248,0,0,0-10.21-10.272Zm6.052,15.152c.026.933-.424,1.172-1.241,1.146-.949-.03-1.9-.007-3.208-.007-2.575.259-5.248-.177-6.89-2.978a5.753,5.753,0,0,1,.578-6.827,5.813,5.813,0,0,1,6.2-2.046,5.948,5.948,0,0,1,4.5,5.418c.138,1.754.007,3.53.059,5.294Z" transform="translate(-142.033 -39.862)" fill="#293360"/>
        <path id="Path_5" data-name="Path 5" d="M108.244,39.759h-1.09a6.919,6.919,0,0,0-.791-.079,4.461,4.461,0,0,0-1.245.079h-1v.883a3.337,3.337,0,0,0-.049,1.4c.026.217.039.437.049.653v1.2c-.013.4-.026.8-.026,1.2,0,5.642.053,11.28,0,16.922a6.078,6.078,0,1,1-12.15.02c-.016-.956-.046-1.918-.039-2.873h.026V58.1c.01-.25.016-.5.036-.749a2.184,2.184,0,0,0-.036-.663v-.956H87.749v3.432h0c-.007,1.14-.013,2.276.02,3.415a10.244,10.244,0,0,0,20.485-.207c.026-3.4,0-6.794.007-10.193,0-.923-.007-1.846-.013-2.772V43.88c.013-.768.026-1.537.059-2.3a3.559,3.559,0,0,0-.059-.89v-.929Z" transform="translate(-87.744 -39.67)" fill="#293360"/>
        <path id="Path_6" data-name="Path 6" d="M253.5,50.163V45.48q.02-2.064.052-4.125a3.289,3.289,0,0,0-.052-.673v-.811h-.814a3.407,3.407,0,0,0-.66,0H251.1a3.356,3.356,0,0,0-1.011,0h-.713v.752a2.574,2.574,0,0,0-.049.693q.039,1.034.049,2.069v3.547c-.007,1.051-.016,2.1-.016,3.149,0,2.988.076,5.983-.026,8.968-.066,1.941,1.258,1.34,2.21,1.366.919.026,2.039.46,2.013-1.327q-.069-4.463-.072-8.926h.02Z" transform="translate(-196.259 -39.779)" fill="#293360"/>
        <path id="Path_7" data-name="Path 7" d="M376.858,46.056A2.558,2.558,0,1,0,374.3,43.5,2.559,2.559,0,0,0,376.858,46.056Z" transform="translate(-280.199 -40.523)" fill="#293360"/>
        <path id="Path_8" data-name="Path 8" d="M358.518,46.056A2.558,2.558,0,1,0,355.96,43.5,2.559,2.559,0,0,0,358.518,46.056Z" transform="translate(-267.881 -40.523)" fill="#293360"/>
      </g>
      <g id="Group_3" data-name="Group 3" transform="translate(0 5.854)">
        <path id="Path_9" data-name="Path 9" d="M6.239,32.114a3.124,3.124,0,0,1-1.908.571A2.611,2.611,0,0,1,1.4,29.822V25.733H0V24.141H1.4V22.2h1.99v1.941H5.665v1.593H3.389v4.042c0,.828.414,1.274,1.179,1.274A1.781,1.781,0,0,0,5.681,30.7Z" transform="translate(0 -20.768)" fill="url(#linear-gradient-3)"/>
        <path id="Path_10" data-name="Path 10" d="M29.636,32.612H22.97a2.572,2.572,0,0,0,2.752,2.036,3.046,3.046,0,0,0,2.309-.923L29.1,34.95a4.312,4.312,0,0,1-3.422,1.386c-2.847,0-4.7-1.829-4.7-4.361a4.226,4.226,0,0,1,4.394-4.345,4.119,4.119,0,0,1,4.3,4.394c0,.158-.016.4-.033.588Zm-6.683-1.32h4.824a2.314,2.314,0,0,0-2.4-2.069,2.34,2.34,0,0,0-2.42,2.069Z" transform="translate(-14.09 -24.415)" fill="url(#linear-gradient-4)"/>
        <path id="Path_11" data-name="Path 11" d="M51.12,31.975a4.3,4.3,0,0,1,4.6-4.345A3.823,3.823,0,0,1,59.349,29.6l-1.527.89A2.409,2.409,0,0,0,55.7,29.315a2.493,2.493,0,0,0-2.578,2.657A2.493,2.493,0,0,0,55.7,34.628a2.4,2.4,0,0,0,2.118-1.179l1.527.89a3.864,3.864,0,0,1-3.629,1.99,4.313,4.313,0,0,1-4.6-4.361Z" transform="translate(-34.333 -24.415)" fill="url(#linear-gradient-5)"/>
        <path id="Path_12" data-name="Path 12" d="M89.531,24.779v4.87h-1.99V25.035c0-1.511-.749-2.243-2.02-2.243a2.258,2.258,0,0,0-2.371,2.561v4.3H81.16V17.84h1.99v4.3a3.8,3.8,0,0,1,2.834-1.084c2.036,0,3.55,1.162,3.55,3.724Z" transform="translate(-54.508 -17.84)" fill="url(#linear-gradient-6)"/>
      </g>
    </g>
  </g>
</svg>
