<?xml version="1.0" encoding="UTF-8"?>
<svg id="Layer_1" data-name="Layer 1" xmlns="http://www.w3.org/2000/svg" viewBox="0 0 707.45 694.37">
  <defs>
    <style>
      .cls-1, .cls-2 {
        stroke-width: 0px;
      }

      .cls-2 {
        fill: #ffcd4f;
      }
    </style>
  </defs>
  <g>
    <path class="cls-2" d="m103.39,512.29h0s-.4-.58-1.02-1.46c-.64-.86-1.43-2.05-2.17-3.24-1.53-2.4-3.06-4.76-3.06-4.76-.09-3.93,1.03-9.97,2.12-13.92,3.97-.12,12.12-1.92,15.43-10.97,1.55-4.1,1.24-10.51.93-16.56-.18-3.01-.54-5.89-.87-8.31-.2-2.44-.45-4.41-.61-5.59-4.61,2.98-21.72,15.12-24.8,23.52-1.74,4.66-1.08,8.51.48,11.34,1.64,2.81,4.07,4.67,5.66,5.64-.8,2.07-1.91,4.74-3.05,7.26,0,0-.95-1.66-2.41-4.21-1.43-2.56-3.5-5.87-5.22-9.34-1.78-3.49-3.55-6.94-4.88-9.59-.7-1.27-1.18-2.38-1.53-3.16-.33-.77-.55-1.23-.55-1.23h-.02l-4.66-10.34c.58-3.88,2.88-9.76,4.44-13.37,4,.49,12.35.03,16.99-8.27,1.9-3.56,3.12-9.7,3.61-15.38.24-3.21.48-6.25.68-8.84.15-2.58.2-4.69.2-5.93-5.06,2.15-23.62,11.26-28.35,19.13-1.09,1.81-1.62,3.5-1.87,5.14-.87,6.11,2.74,10.74,5.12,12.61-1.12,1.9-2.6,4.33-4.1,6.65,0,0-.43-1.11-1.08-2.74-.6-1.61-1.56-3.75-2.24-6.01-1.5-4.41-2.98-8.84-2.98-8.84,0,0-.58-1.77-1.2-3.53-.47-1.77-1.01-3.56-1.01-3.56v-.05l-3.07-10.94c1.18-3.71,4.3-9.16,6.42-12.55,3.86,1.11,12.22,1.9,18.02-5.6,2.56-3.41,4.73-9.68,6.05-15.5,1.39-5.84,2.6-11.38,2.87-13.66-5.32,1.34-25.02,7.57-30.88,14.65-6.14,7.79-1.95,15.29.55,18.08-1.42,1.68-3.2,3.86-5.06,5.93,0,0-.41-1.9-1.08-4.75-.73-2.85-1.25-6.71-1.99-10.55-.64-3.83-1.38-7.67-1.66-10.59-.38-2.9-.62-4.84-.62-4.84h0s-.35-2.8-.72-5.64c-.18-1.42-.26-2.83-.35-3.88-.08-1.08-.13-1.81-.13-1.81,1.75-3.46,5.64-8.33,8.27-11.31,3.69,1.74,11.74,3.88,18.71-2.58,3.19-2.84,5.96-8.25,8.18-13.56,2.72-5.83,4.67-11.48,5.36-13.84-5.45.52-25.87,3.47-32.73,9.5-1.56,1.39-2.7,2.84-3.5,4.27-2.69,5.58-.43,11.1,1.04,13.64-1.67,1.42-3.84,3.23-5.99,5.03,0,0-.08-1.15-.2-2.89-.05-1.77-.11-4.09-.15-6.41-.11-4.7-.24-9.37-.24-9.37l.22-7.45s.08-2.83.14-5.67c.03-2.87.3-5.69.3-5.69,2.26-3.21,6.84-7.45,9.87-9.98,3.33,2.22,11.09,5.51,18.85.15,3.67-2.43,7.5-7.74,10.51-12.88,3.33-5.1,5.93-10.04,6.94-12.15-5.47-.32-26.11-.43-33.81,4.55-4.32,2.69-5.76,6.22-6.17,9.43-.39,3.23.42,6.18,1.09,7.9-1.87,1.18-4.21,2.7-6.61,4.13,0,0,.12-1.95.39-4.87.4-2.91.89-6.77,1.39-10.64.41-3.89,1.16-7.71,1.68-10.59.52-2.89.83-4.79.83-4.79v-.02s.14-.67.33-1.75c.19-1.03.4-2.44.77-3.81.64-2.78,1.26-5.54,1.26-5.54,2.78-2.8,7.74-6.26,11.37-8.25,2.87,2.76,9.86,7.25,18.64,3.3,1.89-.86,3.93-2.37,5.94-4.2,2-1.86,3.97-3.99,5.99-6.14,4.26-4.72,7.77-9.53,9.37-11.43-2.7-.58-9.17-1.86-16.03-2.44-6.83-.62-13.93-.49-18.1,1.29-1.89.83-3.4,1.89-4.57,3.01-2.31,2.2-3.26,4.81-3.54,7.22-.31,2.43-.03,4.61.29,6.05-2.04.87-4.72,1.96-7.33,2.95,0,0,1.28-4.48,2.53-9,.66-2.24,1.27-4.5,1.81-6.16.57-1.66.96-2.77.96-2.77l2.4-7.06s.18-.58.49-1.43c.11-.32.21-.64.33-.96.06-.21.12-.37.19-.55.24-.77.55-1.58.87-2.38,1.06-2.65,2.11-5.32,2.11-5.32,3.13-2.34,8.6-5,12.44-6.42,2.46,3.16,8.7,8.64,17.95,6.05,8.39-2.53,20.81-15.27,24.32-18.37-5.08-2.03-24.9-8.67-33.53-6.21-4.79,1.3-7.59,4.06-8.91,7.02-1.32,3-1.39,6.04-1.26,7.88-2.17.55-4.93,1.24-7.7,1.81,0,0,.8-1.77,2.01-4.44,1.24-2.63,2.77-6.24,4.51-9.75,1.8-3.44,3.55-6.93,4.88-9.51,1.3-2.63,2.29-4.32,2.29-4.32l5.7-9.84c3.4-1.84,9.56-3.36,13.43-4.27,1.92,3.52,7.21,10.01,16.66,8.91,4.03-.55,9.62-3.19,14.54-6.17,2.78-1.69,5.37-3.32,7.54-4.64,2.21-1.41,3.95-2.63,4.93-3.34-4.7-2.81-22.98-12.48-32.14-11.69-2.09.21-3.76.77-5.24,1.52-5.48,2.88-7.08,8.56-7.2,11.6-2.22.18-5.01.43-7.79.58,0,0,.63-1.02,1.57-2.47.98-1.45,2.15-3.5,3.55-5.35,2.67-3.83,5.39-7.62,5.39-7.62,0,0,1.1-1.55,2.16-3.04,1.12-1.49,2.31-2.95,2.31-2.95l3.13-3.96h0s3.89-4.97,3.89-4.97c3.73-1.24,9.95-1.93,13.93-2.22,1.38,3.81,5.68,10.98,15.16,11.24,4.29.08,10.62-1.86,16.06-4.23,5.62-2.29,10.74-4.63,12.75-5.77-4.24-3.47-20.86-15.7-30.02-16.22-5.04-.34-8.31,1.65-10.55,4.02-2.2,2.37-3.35,5.14-3.71,7.01-2.19-.09-5.04-.29-7.8-.55,0,0,1.3-1.47,3.2-3.67,1.92-2.23,4.68-4.96,7.36-7.82,1.35-1.38,2.67-2.81,3.95-4.15,1.32-1.24,2.58-2.43,3.61-3.43,2.12-2.01,3.56-3.38,3.56-3.38,0,0,2.02-1.98,4.12-3.92,2.15-1.81,4.3-3.7,4.3-3.7,3.89-.63,9.97-.48,14.03.01.72,3.91,3.72,11.67,13.14,13.6,2.07.45,4.59.39,7.31.11,2.67-.34,5.57-.93,8.45-1.44,3.13-.68,6.11-1.46,8.57-2.17,2.56-.71,4.6-1.26,5.73-1.63-3.63-4.13-18.14-19.1-26.95-20.93-2.03-.44-3.86-.47-5.47-.24-1.57.23-2.92.71-4.15,1.37-1.14.67-2.12,1.51-2.98,2.4-1.66,1.77-2.71,3.72-3.31,5.06-2.16-.49-4.95-1.18-7.63-1.93,0,0,3.66-2.85,7.33-5.74,3.61-3,7.45-5.62,7.45-5.62l6.11-4.34h0s.55-.39,1.45-1.01c.39-.3.84-.61,1.33-.94.11-.08.2-.14.3-.23.23-.12.47-.31.71-.45.15-.07.36-.21.36-.21l-.02-.02c.21-.13.37-.23.55-.34,2.38-1.55,4.79-3.06,4.79-3.06,3.88-.09,9.93,1.02,13.86,2.09.14,3.98,1.99,12.11,10.99,15.41,4.14,1.55,10.52,1.2,16.62.93,3-.21,5.87-.55,8.25-.87,2.47-.23,4.44-.48,5.59-.64-2.9-4.64-15.1-21.69-23.52-24.72-4.66-1.8-8.51-1.14-11.34.45-2.83,1.64-4.67,4.07-5.65,5.67-2.06-.83-4.73-1.9-7.3-3.04,0,0,1.7-.97,4.24-2.41,2.56-1.43,5.88-3.52,9.37-5.24,1.97-1.01,17.96-9.43,31.44-16.54,2.68,3.15,8.77,8.4,17.77,4.84,8.54-3.41,20.9-19.96,24.01-24.51-5.39-1.02-25.79-4.33-34.27-.81-10.26,4.25-9.71,14.13-9.26,17.32-6.49,2.61-12.7,5.11-14.89,6.11-3.58,1.64-18.26,6.5-18.26,6.5.41-2.75,1.01-5.58,1.53-7.77,1.98,0,5.12-.33,8.21-1.81,3.15-1.39,6.17-3.98,7.99-8.87,1.65-4.39,1.6-11.76,1.17-18.65-.49-6.92-1.46-13.46-1.95-16.21-1.29.86-3.43,2.34-5.96,4.21-2.52,1.9-5.35,4.36-8.15,6.86-5.62,5.04-10.69,11.17-12.17,15.7-3.18,9.87,3.61,15.35,6.95,17.58-.71,1.96-1.66,4.36-2.63,6.82-.95,2.46-1.95,4.82-2.92,6.55,0,0-1.21.71-3.09,1.78-1.84,1.08-4.35,2.41-6.74,3.99-4.78,3.08-9.57,6.15-9.57,6.15h0s-.71.39-1.69,1.09c-.96.69-2.29,1.61-3.61,2.53-2.59,1.86-5.2,3.72-5.2,3.72l-2.34,1.68c0-1.59.06-3.19.12-4.69.06-1.17.15-2.24.23-3.22,1.97-.28,5.06-1.05,7.85-2.98,2.84-1.91,5.48-4.85,6.58-9.97,1.83-9.2-4.24-29.02-5.96-34.34-1.17,1.02-3.09,2.78-5.29,5-2.18,2.34-4.63,5.09-7.01,8.06-4.85,5.76-8.87,12.63-9.68,17.28-.08.6-.17,1.09-.21,1.62-.71,9.06,6.21,13.12,9.69,14.75-.93,3.99-2.09,10.38-3.52,14.04,0,0-1.36,1.11-3.44,2.69-2.11,1.6-4.72,3.92-7.34,6.2-2.65,2.31-5.33,4.54-7.25,6.33-1.89,1.78-3.19,3.01-3.19,3.01h.02s-2.84,2.71-5.68,5.41c-1.44,1.32-2.78,2.75-3.79,3.85-1.03,1.05-1.69,1.75-1.69,1.75-.49-2.77-.85-5.66-1.05-7.93,1.86-.63,4.87-1.8,7.36-4.15,2.54-2.28,4.48-5.88,4.78-10.97.43-9.2-8.97-27.96-11.55-32.94-1.87,2.46-6.22,8.39-9.99,14.9-3.56,6.7-6.76,13.81-6.67,18.67.1,10.48,8.19,13.54,12.03,14.62-.14,4.23-.38,10.57-1.2,14.4,0,0-.98,1.02-2.34,2.65-1.4,1.62-3.26,3.78-5.12,5.92-1.9,2.13-3.76,4.3-5.02,6.01-1.36,1.68-2.2,2.79-2.2,2.79h-.02s-1.99,2.53-3.97,5.06c-1.01,1.24-1.95,2.53-2.67,3.54-.68.96-1.15,1.62-1.15,1.62l-1.65,2.34c-.52-1.52-.96-3.06-1.37-4.53-.31-1.15-.57-2.23-.81-3.15,1.67-.97,4.5-2.57,6.64-5.21,2.15-2.68,3.6-6.45,3.1-11.61-.91-9.13-12.97-26.29-16.25-30.79-1.48,2.71-5.01,9.13-7.68,16.19-2.58,7.16-4.73,14.6-3.87,19.46.08.55.21,1.05.3,1.58,2.26,8.93,10.01,10.63,13.77,11.08.49,4.19,1.12,10.47.92,14.41,0,0-3.78,5.88-7.56,11.75-3.5,6.07-7.01,12.11-7.01,12.11,0,0-.46.88-1.18,2.17-.69,1.29-1.56,3.03-2.47,4.78-1.8,3.47-3.6,6.97-3.6,6.97-1.26-2.44-2.43-5.08-3.3-7.17,1.59-1.17,3.98-3.25,5.57-6.27,1.68-2.97,2.67-6.86,1.28-11.89-2.63-9.02-17.07-23.78-21.08-27.74-.55,1.45-1.43,3.89-2.4,6.92-.86,3.04-1.75,6.65-2.53,10.34-1.66,7.34-2.08,15.28-.64,19.83,3.21,9.86,11.89,10.31,15.94,10.17,1.02,3.96,2.88,10.16,3.34,14.07,0,0-.58,1.26-1.46,3.24-.89,1.95-2.09,4.53-3.1,7.21-2.09,5.28-4.18,10.58-4.18,10.58v-.02s-.33.75-.69,1.87c-.41,1.14-.9,2.68-1.44,4.21-1.02,3.03-2.05,6.07-2.05,6.07l-.92,2.71c-.94-1.3-1.81-2.59-2.65-3.88-.61-.98-1.18-1.9-1.7-2.72,1.41-1.41,3.5-3.84,4.6-7.07,1.15-3.21,1.65-7.13-.51-11.89-3.91-8.54-20.49-21.08-25.01-24.33-1.63,5.99-4.49,28.97,0,37.5.26.49.52.98.8,1.4,4.76,7.77,12.72,7,16.5,6.26,1.59,3.79,4.42,9.66,5.41,13.46,0,0-.48,1.69-1.2,4.18-.77,2.54-1.54,5.93-2.32,9.34-.78,3.4-1.55,6.82-2.17,9.35-.46,2.57-.78,4.32-.78,4.32h.01s-.71,3.85-1.39,7.72c-.79,3.86-1.18,7.76-1.18,7.76-2-1.96-4.03-4.11-5.51-5.8,1.21-1.63,2.89-4.33,3.55-7.71.63-3.34.14-7.34-2.59-11.7-5.07-7.66-23.69-17.34-28.72-19.85-.08,3.09-.08,10.47.64,17.95,1.03,7.55,2.78,15.18,5.58,19.07,6.3,8.39,14.59,6.11,18.31,4.7,2.43,3.47,6.01,8.8,7.56,12.38,0,0-.19,1.39-.4,3.5-.15,2.15-.37,4.98-.62,7.81-.21,2.84-.42,5.69-.6,7.79-.05,2.15-.08,3.58-.08,3.58v-.02l-.36,12.84.08,2.86c-1.29-.9-2.61-1.92-3.81-2.88-.89-.74-1.71-1.41-2.46-2.06.96-1.75,2.18-4.69,2.32-8.12.11-3.41-.91-7.3-4.24-11.16-6.16-6.86-26.06-13.66-31.37-15.38.36,3.07,1.49,10.36,3.33,17.63,2.09,7.31,5.02,14.58,8.3,17.99.39.39.77.77,1.15,1.08,7.15,5.9,14.37,2.72,17.65.85,2.89,3.12,7.22,7.84,9.31,11.12,0,0,.09,1.77.12,4.39.2,2.59.46,6.1.74,9.57.25,3.5.45,6.99.83,9.56.32,2.62.55,4.35.55,4.35h.03s.46,3.88.96,7.8c.58,3.84,1.32,7.73,1.32,7.73-2.5-1.22-5.04-2.68-7-3.83,1.13-3.84,3.1-12.3-5.12-18.74-7.11-5.79-27.79-9.25-33.3-10.08.9,2.94,2.92,9.96,6.13,16.84,3.3,6.86,7.04,13.6,11.09,16.41,8.52,6.1,15.8,1.35,18.93-1.12,3.28,2.59,8.3,6.52,10.88,9.47,0,0,1.26,5.55,2.53,11.1.6,2.79,1.26,5.53,1.89,7.6.6,2.05.98,3.41.98,3.41,0,0,.86,3.1,1.74,6.17.42,1.55.87,3.09,1.29,4.23.39,1.14.63,1.91.63,1.91l.93,2.7c-1.51-.46-3.06-1.02-4.49-1.53-1.11-.46-2.12-.88-3.01-1.23.23-1.93.61-5.15-.3-8.43-.89-3.29-3.08-6.71-7.53-9.33-7.93-4.64-28.88-5.02-34.47-5.02,1.34,2.79,4.41,9.44,8.57,15.76,4.29,6.31,9.02,12.46,13.44,14.61.51.27.99.49,1.46.68,8.54,3.44,14.49-1.84,17.07-4.62,3.66,2.1,9.17,5.22,12.15,7.74,0,0,2.59,6.51,5.12,13.02,1.32,3.26,2.84,6.39,3.88,8.82,1.08,2.35,1.78,3.98,1.78,3.98l.02-.02s.4.93,1,2.22c.61,1.38,1.55,3.1,2.44,4.84,1.78,3.5,3.58,6.99,3.58,6.99-2.75-.39-5.57-.99-7.81-1.52,0-1.96-.29-5.14-1.8-8.18-1.37-3.14-3.98-6.21-8.85-8.02-4.44-1.62-11.75-1.59-18.64-1.2-6.91.49-13.47,1.46-16.19,1.96.85,1.28,2.32,3.44,4.19,5.95,1.87,2.54,4.35,5.36,6.87,8.19,4.98,5.59,11.12,10.66,15.64,12.17,9.89,3.17,15.36-3.6,17.6-6.96,1.95.72,4.36,1.65,6.79,2.63,2.47.98,4.84,1.96,6.58,2.95,0,0,.69,1.24,1.75,3.1,1.11,1.83,2.41,4.36,4.01,6.73,3.06,4.79,6.11,9.59,6.11,9.59,0,0,.43.66,1.08,1.69.71.99,1.63,2.29,2.56,3.58,1.87,2.65,3.7,5.27,3.7,5.27l6.38-4.64-4.32-6.08Z"/>
    <path class="cls-2" d="m593.75,526.43c-2.87,3.66-5.76,7.33-5.76,7.33-.77-2.71-1.45-5.48-1.93-7.64,1.35-.58,3.3-1.64,5.07-3.32.89-.84,1.72-1.84,2.4-2.96.64-1.2,1.14-2.6,1.37-4.15.25-1.62.2-3.44-.26-5.47-1.78-8.81-16.75-23.34-20.9-26.95-.37,1.12-.87,3.22-1.63,5.71-.71,2.47-1.5,5.45-2.15,8.57-.55,2.89-1.12,5.76-1.46,8.47-.32,2.7-.35,5.2.08,7.28,1.96,9.41,9.7,12.42,13.6,13.17.51,4.07.6,10.13,0,14.02,0,0-1.86,2.15-3.73,4.29-1.9,2.12-3.91,4.15-3.91,4.15v-.02s-1.32,1.39-3.35,3.53c-1,1.06-2.2,2.31-3.46,3.61-1.32,1.26-2.72,2.61-4.13,3.96-2.84,2.68-5.61,5.44-7.83,7.35-2.19,1.93-3.69,3.19-3.69,3.19-.28-2.77-.43-5.59-.55-7.8,1.87-.36,4.66-1.52,7.05-3.69,2.34-2.24,4.36-5.5,4-10.6-.48-9.11-12.72-25.8-16.19-29.99-1.14,2.03-3.52,7.15-5.79,12.7-2.37,5.46-4.32,11.8-4.23,16.07.23,9.51,7.43,13.8,11.22,15.19-.31,3.95-1,10.17-2.24,13.91l-8.93,7.01h0s-1.48,1.17-2.94,2.31c-1.52,1.09-3.06,2.15-3.06,2.15,0,0-3.79,2.72-7.61,5.41-1.89,1.39-3.9,2.56-5.36,3.55-1.47.93-2.46,1.56-2.46,1.56.13-2.78.39-5.6.58-7.79,3.03-.12,8.7-1.74,11.61-7.22.74-1.46,1.29-3.13,1.49-5.23.84-9.12-8.81-27.43-11.61-32.15-.74,1-1.95,2.72-3.35,4.91-1.36,2.17-2.97,4.79-4.67,7.52-2.95,4.95-5.61,10.54-6.17,14.59-1.12,9.44,5.36,14.71,8.87,16.66-.87,3.87-2.41,10.03-4.27,13.44l-9.84,5.67h-.03s-1.65.99-4.27,2.26c-2.61,1.34-6.08,3.12-9.53,4.93-3.53,1.71-7.14,3.2-9.77,4.48-2.67,1.17-4.45,1.98-4.45,1.98.6-2.73,1.28-5.53,1.83-7.67,1.86.13,4.9.05,7.9-1.27,2.97-1.32,5.73-4.09,7.05-8.9,2.46-8.63-4.18-28.45-6.18-33.56-.83.84-2.18,2.34-3.84,4.15-1.68,1.76-3.64,3.87-5.56,6.2-3.8,4.73-7.85,9.65-8.99,13.96-2.63,9.25,2.87,15.5,6.01,17.93-1.43,3.84-4.12,9.34-6.49,12.45,0,0-2.61,1.04-5.27,2.08-1.32.55-2.65.99-3.66,1.34-1.02.33-1.71.58-1.71.58v.02l-7.06,2.37s-1.11.39-2.75.94c-1.66.57-3.94,1.15-6.16,1.8-4.52,1.29-8.99,2.52-8.99,2.52.99-2.63,2.07-5.26,2.94-7.33,1.46.33,3.64.63,6.05.32,2.43-.29,5.04-1.23,7.22-3.53,1.17-1.16,2.18-2.65,3.01-4.56,1.81-4.16,1.93-11.28,1.32-18.11-.58-6.86-1.83-13.32-2.41-16.01-1.9,1.59-6.68,5.12-11.42,9.37-2.15,1.98-4.32,3.96-6.16,5.96-1.84,1.98-3.37,4-4.24,5.95-3.94,8.75.55,15.74,3.27,18.63-1.96,3.61-5.47,8.54-8.24,11.36,0,0-2.76.62-5.53,1.23-.58.16-1.14.27-1.69.37-19.51,2.17-53.08,4.15-53.08,4.15,0,0-37.59-1.14-55.91-3.56,0,0-.71-.12-1.75-.32-1.05-.19-2.46-.39-3.84-.76-2.77-.66-5.53-1.29-5.53-1.29-2.78-2.8-6.26-7.76-8.22-11.35,2.74-2.87,7.25-9.86,3.28-18.62-.84-1.92-2.33-3.96-4.19-5.99-1.81-1.95-3.99-3.93-6.11-5.96-4.72-4.27-9.5-7.81-11.42-9.38-.6,2.7-1.86,9.14-2.46,16-.6,6.83-.51,13.96,1.29,18.08.82,1.91,1.83,3.41,2.98,4.61,2.18,2.31,4.78,3.24,7.22,3.53,2.43.33,4.61.02,6.07-.3.85,2.05,1.94,4.7,2.9,7.35,0,0-4.47-1.29-8.97-2.59-2.25-.64-4.51-1.23-6.16-1.81-1.66-.55-2.75-.92-2.75-.92l-7.08-2.43h0s-.4-.12-.96-.31c-.27-.09-.61-.21-.96-.3-.99-.34-2.2-.78-3.41-1.27-2.66-1.06-5.3-2.11-5.3-2.11-2.32-3.13-5.02-8.63-6.42-12.46,3.14-2.44,8.64-8.66,6.04-17.95-1.15-4.29-5.16-9.19-8.95-13.98-1.91-2.32-3.88-4.47-5.55-6.21-1.64-1.81-3-3.31-3.81-4.13-2.01,5.1-8.68,24.91-6.25,33.54,1.29,4.79,4.04,7.59,7,8.93,2.98,1.3,6.04,1.41,7.91,1.29.54,2.12,1.21,4.91,1.8,7.67,0,0-1.78-.83-4.45-2.03-2.63-1.24-6.24-2.74-9.72-4.5-3.44-1.77-6.93-3.58-9.51-4.89-2.63-1.31-4.32-2.32-4.32-2.32h0l-9.85-5.69c-1.83-3.39-3.35-9.57-4.23-13.44,3.53-1.9,10-7.2,8.91-16.65-.51-4.04-3.21-9.62-6.13-14.58-1.71-2.73-3.34-5.35-4.64-7.54-1.41-2.2-2.61-3.91-3.35-4.92-2.83,4.72-12.51,22.97-11.7,32.14.21,2.09.74,3.78,1.49,5.2,2.88,5.52,8.54,7.11,11.55,7.26.21,2.18.43,5.01.58,7.77,0,0-1.02-.64-2.46-1.56-1.46-.96-3.47-2.12-5.36-3.54-3.79-2.74-7.58-5.44-7.58-5.44,0,0-1.55-1.08-3.04-2.15-1.47-1.17-2.95-2.3-2.95-2.3l-8.93-7.04c-1.21-3.75-1.92-10.01-2.18-13.95,3.78-1.39,10.97-5.66,11.26-15.12.07-4.29-1.88-10.63-4.21-16.08-2.26-5.66-4.66-10.74-5.75-12.77-3.52,4.25-15.78,20.86-16.28,29.99-.37,5.07,1.68,8.33,4.01,10.57,2.37,2.22,5.13,3.37,7.02,3.73-.12,2.22-.3,5.01-.6,7.79,0,0-1.44-1.29-3.67-3.21-2.19-1.92-4.95-4.69-7.77-7.36-1.41-1.36-2.82-2.72-4.15-3.98-1.24-1.3-2.43-2.55-3.42-3.61-2.05-2.12-3.35-3.54-3.35-3.54h-.01s-1.98-2.03-3.9-4.15c-1.84-2.15-3.71-4.3-3.71-4.3-.6-3.91-.48-9.96.02-14.03,3.94-.73,11.68-3.71,13.66-13.14.43-2.03.39-4.6.11-7.28-.36-2.68-.92-5.6-1.47-8.45-.64-3.14-1.43-6.12-2.14-8.61-.72-2.46-1.21-4.57-1.62-5.74-4.1,3.61-19.13,18.14-20.96,26.95-.46,2.02-.49,3.85-.23,5.45.2,1.56.67,2.95,1.33,4.14.68,1.16,1.5,2.15,2.4,3.01,1.78,1.65,3.7,2.7,5.07,3.31-.51,2.15-1.2,4.93-1.95,7.62,0,0-2.89-3.66-5.75-7.33-2.95-3.61-5.61-7.49-5.61-7.49l-6.38,4.64,1.66,2.34c-1.57-.02-3.16-.05-4.67-.16-1.17-.09-2.24-.14-3.22-.21-.3-1.96-1.03-5.05-2.99-7.87-1.89-2.83-4.87-5.5-9.94-6.59-9.21-1.84-29.03,4.19-34.37,5.93,1.05,1.14,2.8,3.07,5.01,5.29,2.33,2.16,5.13,4.63,8.05,7.03,5.74,4.84,12.61,8.87,17.27,9.72.55.08,1.09.11,1.61.2,9.06.69,13.14-6.19,14.75-9.66,3.99.93,10.37,2.1,14.07,3.52,0,0,1.06,1.38,2.69,3.44,1.56,2.12,3.87,4.72,6.14,7.38,2.32,2.62,4.55,5.29,6.3,7.24,1.81,1.9,3.05,3.19,3.05,3.19v-.03s2.7,2.84,5.39,5.7c1.34,1.45,2.75,2.81,3.83,3.85,1.08.99,1.78,1.69,1.78,1.69-2.78.48-5.67.8-7.96,1.01-.63-1.89-1.78-4.9-4.13-7.37-2.29-2.53-5.89-4.44-10.96-4.79-9.18-.46-28,8.93-32.96,11.49,2.47,1.9,8.39,6.24,14.9,10,6.72,3.61,13.8,6.77,18.65,6.74,10.48-.11,13.55-8.18,14.62-12.04,4.23.14,10.58.39,14.43,1.23,0,0,1.01.97,2.64,2.37,1.62,1.4,3.75,3.27,5.9,5.15,2.13,1.84,4.3,3.73,6.01,5.02,1.68,1.32,2.8,2.22,2.8,2.22h-.03s2.53,1.96,5.05,3.96c1.24,1.02,2.55,1.98,3.54,2.65.96.74,1.63,1.14,1.63,1.14l2.33,1.71c-1.5.48-3.07.93-4.53,1.34-1.15.29-2.2.58-3.16.81-.94-1.72-2.53-4.54-5.19-6.65-2.65-2.17-6.44-3.61-11.57-3.12-9.14.89-26.33,12.89-30.85,16.19,2.72,1.49,9.13,5.02,16.19,7.71,7.16,2.59,14.59,4.76,19.44,3.91.57-.08,1.09-.2,1.58-.31,8.94-2.25,10.65-9.98,11.13-13.73,4.16-.49,10.47-1.12,14.4-.93,0,0,5.86,3.78,11.75,7.58,6.02,3.51,12.08,7.02,12.08,7.02h.03s.87.49,2.12,1.2c1.3.68,3.04,1.57,4.81,2.47,3.49,1.8,6.99,3.58,6.99,3.58-2.48,1.27-5.12,2.46-7.19,3.32-1.15-1.58-3.28-4-6.3-5.59-2.97-1.69-6.82-2.68-11.86-1.3-9.02,2.62-23.82,17.06-27.78,21.05,1.45.55,3.91,1.45,6.87,2.41,3.06.88,6.68,1.77,10.38,2.54,7.33,1.67,15.25,2.12,19.82.69,9.88-3.22,10.32-11.89,10.17-15.92,3.99-1.04,10.17-2.88,14.1-3.34,0,0,1.3.6,3.25,1.47,1.92.88,4.51,2.12,7.19,3.09,5.29,2.12,10.58,4.21,10.58,4.21,0,0,.74.34,1.87.71,1.15.38,2.66.9,4.19,1.41,3.03,1.05,6.07,2.07,6.07,2.07l2.69.91c-1.23.95-2.58,1.84-3.86,2.62-.99.63-1.89,1.18-2.73,1.71-1.38-1.4-3.79-3.47-7.02-4.58-3.22-1.17-7.16-1.64-11.94.49-8.52,3.89-21.06,20.46-24.35,24.95,5.99,1.65,28.97,4.53,37.5.05.51-.25,1-.51,1.43-.79,7.74-4.76,6.97-12.7,6.26-16.5,3.76-1.55,9.66-4.39,13.43-5.39,0,0,1.72.48,4.24,1.18,2.5.78,5.9,1.55,9.3,2.34,3.41.81,6.83,1.6,9.39,2.18,2.56.47,4.29.77,4.29.77,9.09,2.01,23.35,3.3,35.36,4.09.76.23,1.52.44,2.48.74-42.3,13.66-53.37,40.07-53.37,40.07l18.01.03c5.14-15.22,31.32-27.56,50.58-34.81,19.23,7.28,45.41,19.72,50.53,34.93l17.99.03s-10.98-26.47-53.28-40.22c.43-.14.72-.21,1.12-.34,13.11-.81,34.09-2.64,48.28-6.33v-.03c1.3-.3,2.65-.6,4-.9,3.43-.8,6.82-1.56,9.33-2.35,2.53-.72,4.23-1.17,4.23-1.17,3.78,1,9.65,3.86,13.44,5.46-.74,3.75-1.53,11.69,6.22,16.48.45.24.91.52,1.39.77,8.57,4.5,31.57,1.68,37.54.05-3.27-4.51-15.79-21.08-24.29-25.01-4.78-2.11-8.72-1.68-11.95-.52-3.2,1.12-5.64,3.18-7.02,4.59-.83-.5-1.75-1.08-2.75-1.73-1.26-.79-2.56-1.72-3.85-2.63l2.72-.9s3.04-1.03,6.1-2.06c1.5-.51,3.01-1.01,4.16-1.39,1.15-.39,1.89-.72,1.89-.72h0s5.29-2.06,10.6-4.15c2.66-1.02,5.24-2.22,7.17-3.09,1.93-.89,3.26-1.46,3.26-1.46,3.91.46,10.11,2.34,14.08,3.34-.15,4.06.28,12.77,10.14,15.96,4.55,1.45,12.46,1.02,19.82-.62,3.7-.77,7.31-1.64,10.38-2.52,2.98-1,5.44-1.84,6.87-2.38-3.94-4.04-18.71-18.5-27.73-21.11-5.03-1.44-8.88-.43-11.86,1.26-3.03,1.57-5.12,3.97-6.3,5.54-2.07-.86-4.69-2.01-7.15-3.28,0,0,3.48-1.8,6.99-3.6,1.77-.89,3.49-1.78,4.81-2.44,1.26-.73,2.14-1.21,2.14-1.21h0s6.04-3.5,12.09-7.01c5.9-3.75,11.78-7.52,11.78-7.52,3.94-.2,10.22.43,14.4.92.46,3.79,2.15,11.52,11.08,13.8.49.12,1.02.25,1.58.31,4.86.86,12.27-1.3,19.46-3.88,7.08-2.64,13.47-6.19,16.22-7.65-4.52-3.31-21.68-15.38-30.82-16.29-5.13-.48-8.91.94-11.59,3.11-2.64,2.12-4.27,4.91-5.2,6.65-.96-.28-2-.55-3.15-.86-1.47-.39-3.01-.84-4.53-1.35l2.33-1.64s.66-.48,1.64-1.17c.99-.69,2.29-1.62,3.53-2.65,2.52-1.96,5.05-3.98,5.05-3.98h0s1.11-.87,2.79-2.18c1.71-1.26,3.89-3.14,6.01-5.01,2.14-1.84,4.3-3.73,5.93-5.13,1.62-1.38,2.68-2.37,2.68-2.35,3.79-.83,10.17-1.05,14.37-1.18,1.08,3.85,4.13,11.94,14.61,12.06,4.84.05,11.95-3.07,18.67-6.65,6.51-3.78,12.43-8.12,14.9-9.99-4.95-2.61-23.71-12.04-32.92-11.6-5.06.33-8.65,2.28-10.95,4.78-2.35,2.52-3.55,5.5-4.15,7.37-2.28-.23-5.21-.55-7.94-1.05,0,0,.69-.68,1.74-1.71,1.09-1.02,2.51-2.34,3.85-3.77,2.68-2.85,5.44-5.7,5.44-5.7,0,0,1.2-1.26,3.01-3.13,1.75-1.96,4.03-4.63,6.31-7.25,2.29-2.68,4.61-5.26,6.18-7.36,1.62-2.09,2.7-3.42,2.7-3.42,3.69-1.42,10.07-2.59,14.08-3.54,1.61,3.54,5.65,10.41,14.73,9.71.51-.05,1.03-.09,1.6-.18,4.69-.82,11.55-4.82,17.32-9.68,2.9-2.35,5.71-4.85,8.03-6.98,2.24-2.23,4.01-4.15,5.02-5.32-5.32-1.74-25.11-7.77-34.32-6.01-5.13,1.09-8.06,3.76-9.98,6.58-1.97,2.83-2.71,5.92-3,7.85-.97.08-2.05.15-3.22.23-1.52.1-3.12.14-4.7.14l1.69-2.34-6.39-4.64s-2.66,3.84-5.61,7.45Z"/>
    <path class="cls-2" d="m657.8,411.35c1.26-5.54,2.56-11.09,2.56-11.09,2.59-2.92,7.59-6.86,10.92-9.42,3.1,2.49,10.34,7.22,18.85,1.15,4.1-2.78,7.85-9.54,11.17-16.39,3.23-6.86,5.27-13.87,6.14-16.82-5.5.81-26.18,4.24-33.3,9.97-8.27,6.47-6.28,14.92-5.15,18.74-1.98,1.17-4.51,2.62-7.01,3.82,0,0,.73-3.84,1.32-7.74.51-3.89,1.02-7.76,1.02-7.76,0,0,.23-1.74.55-4.33.39-2.59.6-6.08.86-9.57.29-3.5.57-6.98.73-9.57.09-2.64.12-4.38.12-4.38,2.15-3.31,6.47-8.01,9.36-11.1,3.28,1.84,10.5,5.06,17.65-.83.4-.33.79-.71,1.18-1.09,3.31-3.41,6.23-10.66,8.33-17.96,1.87-7.28,3-14.53,3.38-17.59-5.33,1.66-25.21,8.42-31.4,15.27-3.37,3.84-4.38,7.74-4.29,11.17.11,3.4,1.37,6.33,2.29,8.11-.72.63-1.55,1.33-2.43,2.08-1.21.93-2.53,1.93-3.82,2.86l.07-2.87-.33-12.83h0s-.01-1.43-.09-3.59c-.15-2.09-.37-4.93-.58-7.77-.18-2.83-.39-5.69-.58-7.81-.18-2.14-.39-3.55-.39-3.55,1.61-3.56,5.19-8.84,7.58-12.34,3.72,1.44,12.04,3.73,18.36-4.67,2.81-3.85,4.53-11.48,5.57-19.01.78-7.5.8-14.86.71-17.95-5.01,2.47-23.64,12.12-28.75,19.79-2.72,4.32-3.24,8.33-2.59,11.67.62,3.37,2.31,6.1,3.47,7.71-1.43,1.69-3.47,3.84-5.48,5.79,0,0-.4-3.91-1.18-7.77-.68-3.86-1.35-7.73-1.35-7.73,0,0-.31-1.72-.74-4.3-.62-2.56-1.4-5.95-2.18-9.39-.78-3.38-1.53-6.8-2.29-9.29-.74-2.56-1.18-4.21-1.18-4.21.99-3.79,3.85-9.66,5.44-13.46,3.78.77,11.74,1.52,16.53-6.17.25-.45.52-.91.77-1.44,4.51-8.52,1.72-31.53.11-37.51-4.54,3.28-21.14,15.76-25.06,24.26-2.15,4.76-1.69,8.71-.57,11.92,1.14,3.23,3.2,5.69,4.6,7.07-.49.83-1.08,1.77-1.71,2.74-.83,1.26-1.71,2.58-2.63,3.87l-.93-2.72s-1.05-3.06-2.04-6.09c-.52-1.52-1.03-3.04-1.43-4.21-.36-1.15-.67-1.87-.67-1.87,0,0-2.07-5.28-4.18-10.6-.98-2.68-2.18-5.24-3.06-7.2-.89-1.92-1.46-3.26-1.46-3.26.46-3.88,2.35-10.07,3.38-14.05,4.06.15,12.76-.28,15.98-10.12,1.43-4.54,1.03-12.48-.62-19.82-.75-3.7-1.66-7.33-2.49-10.37-.97-3.01-1.84-5.45-2.4-6.9-4.03,3.94-18.51,18.67-21.17,27.72-1.39,5.02-.4,8.84,1.26,11.86,1.58,3.01,3.96,5.14,5.56,6.29-.87,2.07-2.04,4.72-3.31,7.19,0,0-1.77-3.5-3.56-7.01-.91-1.74-1.78-3.49-2.46-4.81-.73-1.28-1.2-2.12-1.2-2.12h0s-3.49-6.07-6.98-12.12c-3.76-5.89-7.52-11.78-7.52-11.78-.21-3.94.45-10.23.94-14.41,3.78-.45,11.52-2.14,13.8-11.05.11-.5.23-1.02.32-1.59.85-4.84-1.28-12.27-3.82-19.47-2.65-7.06-6.17-13.46-7.65-16.22-3.3,4.52-15.38,21.66-16.33,30.81-.51,5.14.93,8.89,3.1,11.58,2.12,2.67,4.92,4.27,6.62,5.21-.24.95-.54,2.01-.83,3.16-.43,1.49-.86,3.04-1.38,4.51l-1.65-2.34s-.45-.64-1.17-1.62c-.67-1.02-1.6-2.31-2.61-3.53-2-2.53-3.98-5.07-3.98-5.07,0,0-.87-1.08-2.2-2.78-1.29-1.72-3.12-3.89-4.99-6.02-1.87-2.18-3.73-4.32-5.13-5.92-1.39-1.63-2.32-2.69-2.32-2.69-.83-3.81-1.06-10.2-1.2-14.39,3.85-1.05,11.95-4.12,12.12-14.59.05-4.85-3.1-11.92-6.67-18.68-3.75-6.55-8.09-12.45-9.96-14.9-2.61,4.94-12.04,23.68-11.63,32.9.32,5.07,2.23,8.68,4.76,10.97,2.47,2.34,5.48,3.53,7.34,4.16-.2,2.29-.58,5.18-1.06,7.96,0,0-.66-.72-1.69-1.78-1.01-1.08-2.33-2.54-3.78-3.84-2.86-2.72-5.7-5.42-5.7-5.42h.02s-1.27-1.21-3.15-3.04c-1.94-1.78-4.61-4.03-7.24-6.33-2.64-2.26-5.23-4.61-7.37-6.18-2.02-1.64-3.41-2.72-3.41-2.72-1.4-3.67-2.54-10.08-3.46-14.08,3.49-1.62,10.37-5.62,9.69-14.73-.02-.52-.08-1.05-.17-1.6-.82-4.67-4.82-11.54-9.63-17.32-2.38-2.93-4.85-5.73-7.02-8.03-2.2-2.28-4.1-4.03-5.27-5.05-1.75,5.29-7.85,25.11-6.05,34.32,1.06,5.14,3.72,8.06,6.56,10,2.81,1.94,5.89,2.72,7.85,3,.06.99.12,2.08.21,3.23.07,1.5.13,3.12.11,4.68l-2.32-1.65s-2.63-1.87-5.21-3.75c-1.3-.92-2.65-1.86-3.59-2.56-1.02-.66-1.71-1.09-1.71-1.09,0,0-4.79-3.07-9.57-6.14-2.35-1.59-4.87-2.94-6.71-4.03-1.86-1.05-3.07-1.78-3.07-1.78-.96-1.74-1.98-4.1-2.9-6.58-.96-2.44-1.92-4.86-2.64-6.8,3.36-2.22,10.17-7.66,7-17.59-1.46-4.54-6.48-10.66-12.12-15.69-2.78-2.55-5.6-5-8.12-6.95-2.53-1.84-4.69-3.31-5.96-4.18-.49,2.74-1.49,9.27-1.96,16.21-.48,6.87-.51,14.21,1.08,18.6,1.83,4.94,4.86,7.52,8,8.93,3.06,1.49,6.2,1.81,8.18,1.83.52,2.22,1.09,5.06,1.49,7.77,0,0-14.68-4.93-18.23-6.53-2.15-.99-8.38-3.55-14.9-6.16.49-3.21,1.06-13.05-9.18-17.35-8.5-3.53-28.88-.3-34.29.77,3.13,4.52,15.44,21.13,23.95,24.54,9,3.6,15.1-1.67,17.78-4.79,13.46,7.13,29.45,15.61,31.41,16.63,3.47,1.74,6.74,3.81,9.34,5.24,2.53,1.46,4.24,2.44,4.24,2.44-2.6,1.14-5.27,2.19-7.31,2.99-.98-1.58-2.86-4.01-5.63-5.67-2.84-1.58-6.68-2.24-11.35-.47-8.4,3.03-20.63,20.06-23.6,24.66,1.17.17,3.15.43,5.59.66,2.41.35,5.3.71,8.28.9,6.08.3,12.48.64,16.61-.9,9.02-3.29,10.86-11.38,11.04-15.38,3.91-1.08,9.96-2.17,13.86-2.06,0,0,2.38,1.53,4.79,3.09.18.11.34.21.52.32h0s.11.09.12.09c.97.62,1.87,1.27,2.56,1.75.88.62,1.45,1.05,1.45,1.05h.01l6.08,4.33s3.81,2.68,7.45,5.63c3.66,2.88,7.33,5.79,7.33,5.79-2.71.72-5.52,1.4-7.67,1.92-.6-1.37-1.63-3.3-3.31-5.1-.83-.89-1.81-1.72-2.98-2.41-1.2-.63-2.56-1.11-4.11-1.33-1.6-.27-3.46-.22-5.48.23-8.83,1.77-23.38,16.72-27.03,20.87,1.17.33,3.2.89,5.73,1.59,2.49.76,5.44,1.55,8.57,2.2,2.88.57,5.76,1.14,8.47,1.46,2.71.32,5.24.38,7.3-.1,9.42-1.9,12.46-9.62,13.18-13.52,4.06-.51,10.14-.6,14.02,0,0,0,2.15,1.86,4.3,3.73,2.09,1.9,4.12,3.91,4.12,3.91,0,0,1.41,1.35,3.54,3.38,1.04,1,2.27,2.18,3.61,3.47,1.26,1.32,2.59,2.74,3.94,4.13,2.65,2.88,5.42,5.62,7.34,7.82,1.9,2.2,3.17,3.69,3.17,3.69-2.74.26-5.6.43-7.76.55-.4-1.87-1.53-4.66-3.7-7.05-2.26-2.35-5.54-4.36-10.56-4.04-9.14.49-25.83,12.69-30.08,16.14,2.04,1.17,7.11,3.52,12.73,5.83,5.45,2.4,11.8,4.33,16.09,4.25,9.48-.23,13.77-7.42,15.16-11.18,3.97.29,10.2.98,13.9,2.22l7.02,8.96h.02s1.15,1.49,2.29,2.97c1.08,1.51,2.15,3.03,2.15,3.03,0,0,2.69,3.82,5.38,7.64,1.39,1.87,2.57,3.9,3.53,5.36.94,1.47,1.57,2.46,1.57,2.46-2.75-.14-5.63-.4-7.79-.6-.12-3.01-1.69-8.7-7.17-11.62-1.46-.74-3.18-1.28-5.24-1.5-9.12-.83-27.43,8.79-32.15,11.6.96.72,2.7,1.97,4.89,3.37,2.18,1.35,4.78,2.97,7.52,4.66,4.95,2.97,10.53,5.65,14.57,6.19,9.43,1.14,14.74-5.33,16.68-8.85,3.88.89,10.02,2.43,13.42,4.3l5.65,9.87s.99,1.68,2.29,4.32c1.32,2.58,3.12,6.04,4.87,9.54,1.72,3.47,3.22,7.08,4.47,9.74,1.21,2.67,2,4.45,2,4.45-2.74-.6-5.53-1.29-7.68-1.84.14-1.87.08-4.95-1.23-7.9-1.35-2.97-4.12-5.74-8.9-7.05-8.65-2.47-28.47,4.12-33.58,6.14,3.55,3.09,15.91,15.85,24.29,18.43,9.22,2.6,15.48-2.85,17.96-5.99,3.81,1.42,9.31,4.12,12.43,6.44,0,0,1.03,2.66,2.08,5.32.55,1.29.99,2.65,1.34,3.69.32,1,.57,1.68.57,1.68v-.03l2.38,7.11s.38,1.07.92,2.75c.55,1.64,1.17,3.92,1.8,6.14,1.28,4.52,2.53,9,2.53,9-2.64-.98-5.25-2.09-7.31-2.98.31-1.41.62-3.6.31-6.02-.3-2.44-1.24-5.04-3.53-7.21-1.15-1.17-2.67-2.21-4.58-3.01-4.15-1.83-11.26-1.96-18.1-1.35-6.86.58-13.3,1.8-16,2.38,1.56,1.93,5.08,6.74,9.37,11.46,1.99,2.12,3.95,4.3,5.93,6.14,1.99,1.85,4.03,3.37,5.96,4.21,8.76,3.98,15.76-.49,18.65-3.24,3.58,2.01,8.54,5.48,11.32,8.3,0,0,.64,2.73,1.27,5.55.34,1.33.57,2.75.74,3.79.17,1.06.34,1.75.34,1.75h-.03s.33,1.96.86,4.81c.51,2.87,1.23,6.73,1.64,10.59.49,3.88.97,7.74,1.34,10.65.3,2.9.4,4.85.4,4.85-2.38-1.43-4.7-2.92-6.61-4.13.69-1.72,1.5-4.64,1.14-7.9-.4-3.2-1.84-6.77-6.18-9.45-7.65-5.01-28.3-4.95-33.77-4.64,1,2.14,3.6,7.08,6.89,12.17,3.03,5.17,6.82,10.48,10.49,12.95,7.76,5.36,15.49,2.09,18.83-.15,3.01,2.58,7.61,6.83,9.88,10.01,0,0,.26,2.84.27,5.7.08,2.83.13,5.65.13,5.65l.18,7.49s-.12,4.65-.23,9.34c-.08,2.32-.11,4.64-.2,6.38-.09,1.78-.21,2.95-.21,2.95-2.12-1.81-4.27-3.64-5.96-5.04,1.47-2.56,3.75-8.08,1.08-13.62-.8-1.48-1.94-2.94-3.52-4.32-6.81-6.08-27.22-9.07-32.68-9.57.71,2.35,2.65,7.99,5.35,13.81,2.19,5.31,4.97,10.78,8.12,13.59,6.95,6.5,15.04,4.35,18.71,2.68,2.61,2.95,6.5,7.83,8.25,11.32,0,0-.06.71-.14,1.77-.09,1.05-.15,2.48-.33,3.89-.4,2.81-.75,5.62-.75,5.62h0s-.27,1.96-.63,4.87c-.3,2.89-.99,6.74-1.71,10.54-.73,3.85-1.29,7.74-1.99,10.53-.66,2.86-1.1,4.78-1.1,4.78-1.84-2.06-3.66-4.25-5.04-5.98,2.52-2.75,6.71-10.28.6-18.04-5.82-7.11-25.52-13.38-30.83-14.74.26,2.29,1.44,7.81,2.86,13.68,1.29,5.82,3.47,12.07,6.01,15.47,5.76,7.56,14.12,6.8,17.99,5.72,2.1,3.33,5.19,8.79,6.39,12.55l-3.12,10.94s-.51,1.77-1.05,3.58c-.57,1.77-1.17,3.54-1.17,3.54,0,0-1.52,4.41-3,8.83-.69,2.26-1.62,4.37-2.27,6.03-.64,1.62-1.08,2.69-1.08,2.69-1.51-2.31-2.97-4.75-4.06-6.65,2.35-1.86,5.99-6.49,5.12-12.61-.23-1.6-.79-3.34-1.86-5.12-4.7-7.88-23.22-17.04-28.32-19.17,0,1.23.07,3.31.21,5.89.18,2.56.39,5.63.64,8.85.48,5.72,1.68,11.8,3.59,15.43,4.6,8.26,12.95,8.75,16.93,8.26,1.59,3.63,3.88,9.51,4.45,13.4l-4.7,10.34h0s-.21.45-.55,1.21c-.36.77-.88,1.87-1.57,3.16-1.32,2.62-3.1,6.08-4.89,9.56-1.74,3.49-3.84,6.79-5.24,9.34-1.46,2.55-2.46,4.23-2.46,4.23-1.12-2.56-2.18-5.21-2.99-7.28,1.6-1,4.03-2.84,5.69-5.66,1.53-2.83,2.22-6.68.47-11.31-3.04-8.43-20.11-20.62-24.72-23.58-.18,1.14-.41,3.12-.64,5.57-.33,2.43-.69,5.3-.9,8.31-.3,6.05-.63,12.45.92,16.61,3.28,9,11.4,10.82,15.38,10.95,1.11,3.98,2.18,10.02,2.08,13.9,0,0-1.52,2.38-3.06,4.78-.78,1.2-1.52,2.41-2.2,3.26-.61.89-1.01,1.44-1.01,1.44h0l-4.32,6.08,6.37,4.64s1.84-2.63,3.72-5.23c.93-1.32,1.87-2.62,2.54-3.59.66-1.02,1.1-1.68,1.1-1.68v-.03s3.06-4.76,6.15-9.56c1.59-2.37,2.9-4.93,3.99-6.73,1.08-1.86,1.8-3.09,1.8-3.09,1.72-.99,4.12-1.96,6.58-2.92,2.41-.95,4.84-1.9,6.81-2.64,2.22,3.37,7.66,10.14,17.56,6.97,4.54-1.44,10.66-6.51,15.7-12.14,2.52-2.79,4.98-5.59,6.88-8.11,1.89-2.55,3.35-4.69,4.21-5.99-2.73-.48-9.29-1.45-16.21-1.93-6.86-.48-14.21-.49-18.64,1.12-4.85,1.83-7.48,4.85-8.87,7.98-1.49,3.06-1.83,6.2-1.83,8.2-2.2.51-5.04,1.11-7.77,1.51,0,0,1.8-3.5,3.59-6.98.89-1.77,1.8-3.49,2.41-4.82.63-1.32,1.02-2.24,1.02-2.24v.03s.73-1.6,1.81-4c1.06-2.4,2.6-5.54,3.89-8.78,2.58-6.53,5.16-13.01,5.16-13.01,3.01-2.5,8.52-5.63,12.19-7.71,2.59,2.79,8.5,8.05,17.05,4.66.46-.19.96-.39,1.48-.67,4.41-2.15,9.16-8.27,13.49-14.58,4.16-6.3,7.26-12.96,8.59-15.75-5.57,0-26.55.31-34.47,4.96-4.49,2.62-6.68,5.99-7.56,9.33-.92,3.27-.54,6.48-.3,8.4-.93.36-1.96.78-3.06,1.2-1.42.54-2.95,1.08-4.48,1.55l.93-2.72s.24-.72.66-1.89c.39-1.14.87-2.68,1.27-4.23.87-3.09,1.78-6.18,1.78-6.18h-.02s.37-1.37.97-3.42c.63-2.05,1.32-4.81,1.93-7.59Z"/>
  </g>
  <g>
    <g>
      <path class="cls-1" d="m215.6,310.6c0,13.29-10.41,21.04-30.34,21.04h-38.53v-77.51h36.32c18.6,0,28.57,7.86,28.57,20.15,0,7.97-3.99,13.84-9.97,17.05,8.31,2.66,13.95,9.19,13.95,19.27Zm-54.48-45.18v21.37h20.37c9.97,0,15.61-3.54,15.61-10.63s-5.65-10.74-15.61-10.74h-20.37Zm39.97,43.74c0-7.75-5.87-11.18-16.72-11.18h-23.25v22.37h23.25c10.85,0,16.72-3.43,16.72-11.18Z"/>
      <path class="cls-1" d="m289.12,319.57v12.07h-58.13v-77.51h56.58v12.07h-42.19v20.15h37.43v11.85h-37.43v21.37h43.74Z"/>
      <path class="cls-1" d="m298.64,323.45l4.98-11.18c6.2,4.98,16.06,8.53,25.58,8.53,12.07,0,17.16-4.32,17.16-10.08,0-16.72-46.06-5.76-46.06-34.55,0-12.51,9.97-23.14,31.23-23.14,9.3,0,19.05,2.44,25.8,6.87l-4.54,11.18c-6.98-4.1-14.62-6.09-21.37-6.09-11.96,0-16.83,4.65-16.83,10.52,0,16.5,45.95,5.76,45.95,34.22,0,12.4-10.08,23.03-31.34,23.03-12.07,0-24.14-3.76-30.56-9.3Z"/>
      <path class="cls-1" d="m389.44,266.31h-25.69v-12.18h65.77v12.18h-25.69v65.33h-14.4v-65.33Z"/>
      <path class="cls-2" d="m215.6,419.44c0,13.29-10.41,21.04-30.34,21.04h-38.53v-77.51h36.32c18.6,0,28.57,7.86,28.57,20.15,0,7.97-3.99,13.84-9.97,17.05,8.31,2.66,13.95,9.19,13.95,19.27Zm-54.48-45.18v21.37h20.37c9.97,0,15.61-3.54,15.61-10.63s-5.65-10.74-15.61-10.74h-20.37Zm39.97,43.74c0-7.75-5.87-11.18-16.72-11.18h-23.25v22.37h23.25c10.85,0,16.72-3.43,16.72-11.18Z"/>
      <path class="cls-2" d="m281.7,440.48l-15.83-22.7c-1,.11-1.99.11-2.99.11h-17.5v22.59h-14.4v-77.51h31.89c20.37,0,33,10.41,33,27.57,0,11.74-5.98,20.37-16.5,24.47l17.83,25.47h-15.5Zm-19.49-65.33h-16.83v30.89h16.83c12.62,0,19.16-5.76,19.16-15.5s-6.53-15.39-19.16-15.39Z"/>
      <path class="cls-2" d="m362.2,422.54h-38.76l-7.64,17.94h-14.84l34.88-77.51h14.17l34.99,77.51h-15.06l-7.75-17.94Zm-4.76-11.29l-14.62-33.88-14.51,33.88h29.12Z"/>
      <path class="cls-2" d="m463.74,362.97v77.51h-11.85l-42.74-52.49v52.49h-14.28v-77.51h11.85l42.74,52.49v-52.49h14.28Z"/>
      <path class="cls-2" d="m484.55,362.97h33.88c25.14,0,42.3,15.5,42.3,38.76s-17.16,38.76-42.3,38.76h-33.88v-77.51Zm33.22,65.33c17.27,0,28.46-10.52,28.46-26.57s-11.18-26.58-28.46-26.58h-18.82v53.15h18.82Z"/>
    </g>
    <g>
      <path class="cls-2" d="m342.75,485.05h-20.48l-4.41,9.82h-4.04l16.81-36.76h3.83l16.81,36.76h-4.1l-4.41-9.82Zm-1.42-3.15l-8.82-19.75-8.82,19.75h17.65Z"/>
      <path class="cls-2" d="m405.93,458.11l-12.39,36.76h-4.1l-10.77-31.35-10.82,31.35h-4.04l-12.39-36.76h3.99l10.61,31.62,10.98-31.62h3.62l10.82,31.77,10.77-31.77h3.73Z"/>
      <path class="cls-2" d="m434.97,485.05h-20.48l-4.41,9.82h-4.04l16.81-36.76h3.83l16.81,36.76h-4.1l-4.41-9.82Zm-1.42-3.15l-8.82-19.75-8.82,19.75h17.65Z"/>
      <path class="cls-2" d="m474.67,494.87l-8.4-11.82c-.95.1-1.89.16-2.94.16h-9.87v11.66h-3.89v-36.76h13.76c9.35,0,15.02,4.73,15.02,12.6,0,5.78-3.05,9.82-8.4,11.55l8.98,12.6h-4.25Zm-.21-24.16c0-5.88-3.89-9.24-11.24-9.24h-9.77v18.43h9.77c7.35,0,11.24-3.41,11.24-9.19Z"/>
      <path class="cls-2" d="m487.53,458.11h14.97c11.76,0,19.69,7.56,19.69,18.38s-7.93,18.38-19.69,18.38h-14.97v-36.76Zm14.76,33.4c9.77,0,16.07-6.2,16.07-15.02s-6.3-15.02-16.07-15.02h-10.87v30.04h10.87Z"/>
      <path class="cls-2" d="m527.39,490.41l1.52-2.99c2.63,2.57,7.3,4.46,12.13,4.46,6.88,0,9.87-2.89,9.87-6.51,0-10.08-22.64-3.89-22.64-17.49,0-5.41,4.2-10.08,13.55-10.08,4.15,0,8.46,1.21,11.4,3.26l-1.31,3.1c-3.15-2.05-6.83-3.05-10.08-3.05-6.72,0-9.72,2.99-9.72,6.67,0,10.08,22.64,3.99,22.64,17.38,0,5.41-4.31,10.03-13.71,10.03-5.51,0-10.92-1.94-13.65-4.78Z"/>
    </g>
    <g>
      <path class="cls-1" d="m162,198.55h-12.92v-3.36h29.73v3.36h-12.92v33.4h-3.89v-33.4Z"/>
      <path class="cls-1" d="m215.73,195.19v36.76h-3.83v-16.96h-23v16.96h-3.89v-36.76h3.89v16.39h23v-16.39h3.83Z"/>
      <path class="cls-1" d="m253.7,228.59v3.36h-26v-36.76h25.21v3.36h-21.32v13.08h19.01v3.31h-19.01v13.65h22.11Z"/>
    </g>
  </g>
</svg>